<?xml version="1.0" standalone="no"?>
<!DOCTYPE svg PUBLIC "-//W3C//DTD SVG 1.1//EN" "http://www.w3.org/Graphics/SVG/1.1/DTD/svg11.dtd" >
<svg>
<metadata>
Created by FontForge 20090914 at Tue Apr  2 16:30:18 2013
 By www-data
Copyright (c) 1985, 1987, 1989, 1990, 1991 Adobe Systems Incorporated.  All Rights Reserved.ITC Avant Garde Gothic is a registered trademark of International Typeface Corporation.
</metadata>
<defs>
<font id="AvantGarde-Demi" horiz-adv-x="560" >
  <font-face 
    font-family="ITC Avant Garde Gothic"
    font-weight="600"
    font-stretch="normal"
    units-per-em="1000"
    panose-1="0 0 0 0 0 0 0 0 0 0"
    ascent="800"
    descent="-200"
    x-height="555"
    cap-height="740"
    bbox="-123 -251 1222 1021"
    underline-thickness="50"
    underline-position="-50"
    unicode-range="U+000D-U+FB02"
  />
<missing-glyph horiz-adv-x="280" 
 />
    <glyph glyph-name=".notdef" horiz-adv-x="280" 
 />
    <glyph glyph-name="NULL" horiz-adv-x="0" 
 />
    <glyph glyph-name="NULL" horiz-adv-x="0" 
 />
    <glyph glyph-name="nonmarkingreturn" unicode="&#xd;" horiz-adv-x="280" 
 />
    <glyph glyph-name="space" unicode=" " horiz-adv-x="280" 
 />
    <glyph glyph-name="exclam" unicode="!" horiz-adv-x="280" 
d="M73 127h133v-127h-133v127zM73 740h133v-552h-133v552z" />
    <glyph glyph-name="quotedbl" unicode="&#x22;" horiz-adv-x="360" 
d="M233 444l-25 296h133l-26 -296h-82zM45 444l-26 296h133l-27 -296h-80z" />
    <glyph glyph-name="numbersign" unicode="#" 
d="M244 408l-16 -116h91l16 116h-91zM491 197h-86l-27 -197h-100l27 197h-91l-27 -197h-100l27 197h-85l4 95h95l16 116h-85l4 95h94l27 197h100l-27 -197h91l27 197h100l-27 -197h77l-4 -95h-86l-16 -116h76z" />
    <glyph glyph-name="dollar" unicode="$" 
d="M190 249c0.666992 -17.333 4.33398 -31.498 11.001 -42.498s14.5 -19.667 23.5 -26s18.333 -10.833 28 -13.5s18.5 -4 26.5 -4c9.33301 0 19.333 1.66699 30 5s20.334 8.5 29.001 15.5s15.834 16 21.501 27s8.5 23.833 8.5 38.5c0 16.667 -2.83301 30.167 -8.5 40.5
s-13.5 19 -23.5 26s-21.667 12.667 -35 17s-28 8.83301 -44 13.5c-32.667 8.66699 -59.834 20.167 -81.501 34.5s-39.167 30.166 -52.5 47.499s-22.833 35.833 -28.5 55.5s-8.5 39.834 -8.5 60.501c0 44 11.833 82.833 35.5 116.5s57.5 56.5 101.5 68.5v128h126v-130
c35.333 -11.333 64.666 -31.666 87.999 -60.999s37 -66 41 -110h-125c-1.33301 4.66699 -3.33301 10.5 -6 17.5s-6.5 13.833 -11.5 20.5s-11.5 12.167 -19.5 16.5s-18.333 6.5 -31 6.5c-8 0 -15.833 -1.5 -23.5 -4.5s-14.667 -7.5 -21 -13.5s-11.5 -13.333 -15.5 -22
s-6 -18.334 -6 -29.001c0 -14 2.5 -25.5 7.5 -34.5s12.667 -16.667 23 -23s23.333 -12.333 39 -18s34.167 -11.834 55.5 -18.501c9.33301 -2.66699 22.666 -7.5 39.999 -14.5s34.666 -18 51.999 -33s32.5 -35.167 45.5 -60.5s19.5 -57.333 19.5 -96
c0 -29.333 -4.33301 -55.333 -13 -78s-20 -42.5 -34 -59.5s-30.167 -31 -48.5 -42s-37.166 -19.167 -56.499 -24.5v-132h-126v131c-39.333 10.667 -70 25.667 -92 45s-38.5 38.833 -49.5 58.5s-17.667 37.667 -20 54s-3.5 27.166 -3.5 32.499v14h132z" />
    <glyph glyph-name="percent" unicode="%" horiz-adv-x="860" 
d="M530 740h102l-307 -740h-101zM572 166c0 -19.333 6.83301 -35.833 20.5 -49.5s30.167 -20.5 49.5 -20.5c18.667 0 34.834 6.83301 48.501 20.5s20.5 30.167 20.5 49.5c0 20 -6.83301 36.667 -20.5 50s-29.834 20 -48.501 20c-20 0 -36.667 -6.83301 -50 -20.5
s-20 -30.167 -20 -49.5zM461 166c0 24.667 4.66699 48 14 70s22.333 41.333 39 58s35.834 29.667 57.501 39s45.167 14 70.5 14c24.667 0 48 -4.66699 70 -14s41.167 -22.333 57.5 -39s29.166 -36 38.499 -58s14 -45.333 14 -70c0 -25.333 -4.83301 -49 -14.5 -71
s-22.667 -41.167 -39 -57.5s-35.5 -29.166 -57.5 -38.499s-45 -14 -69 -14c-24.667 0 -48 4.66699 -70 14s-41.167 22.166 -57.5 38.499s-29.333 35.5 -39 57.5s-14.5 45.667 -14.5 71zM147 574c0 -18.667 6.66602 -34.832 19.999 -48.499s29.666 -20.5 48.999 -20.5
c18 0 34 6.66699 48 20s21 30 21 50c0 19.333 -6.66699 35.666 -20 48.999s-29.666 20 -48.999 20s-35.666 -6.66699 -48.999 -20s-20 -30 -20 -50zM35.999 574.002c0 24.667 4.66895 48 14.002 70s22.166 41.333 38.499 58s35.5 29.667 57.5 39s45.333 14 70 14
s48 -4.66699 70 -14s41.167 -22.333 57.5 -39s29.166 -36 38.499 -58s14 -45.333 14 -70c0 -25.333 -4.66699 -48.833 -14 -70.5s-22.166 -40.667 -38.499 -57s-35.5 -29.166 -57.5 -38.499s-45.333 -14 -70 -14s-47.834 4.66699 -69.501 14s-40.667 22.166 -57 38.499
s-29.333 35.333 -39 57s-14.5 45.167 -14.5 70.5z" />
    <glyph glyph-name="ampersand" unicode="&#x26;" horiz-adv-x="680" 
d="M257 323c-7.33301 -3.33301 -15.999 -7.66895 -25.999 -13.002s-19.833 -12.333 -29.5 -21s-17.834 -19.167 -24.501 -31.5s-10 -26.833 -10 -43.5c0 -16 3 -30.167 9 -42.5s13.833 -22.666 23.5 -30.999s20.5 -14.666 32.5 -18.999s24.333 -6.5 37 -6.5
c14.667 0 27.5 2.83301 38.5 8.5s20.667 12.667 29 21s15.5 17.333 21.5 27s11 18.167 15 25.5zM290.001 481.997c9.33301 4.66699 18.333 9.50195 27 14.502s16.5 10.833 23.5 17.5s12.667 14.167 17 22.5s6.5 18.166 6.5 29.499c0 7.33301 -1.16699 14.666 -3.5 21.999
s-6 14 -11 20s-11.667 11 -20 15s-18.5 6 -30.5 6c-16.667 0 -31.167 -5.83301 -43.5 -17.5s-18.5 -26.167 -18.5 -43.5c0 -16 5.16699 -30.667 15.5 -44s22.833 -27.333 37.5 -42zM661.001 436.999l-126.999 -223.994l131 -142l-97 -86l-102 111
c-6.66699 -9.33301 -15.334 -20.333 -26.001 -33s-23.834 -24.834 -39.501 -36.501s-33.5 -21.5 -53.5 -29.5s-43 -12 -69 -12c-28 0 -56.5 5.33301 -85.5 16s-55.333 26 -79 46s-42.834 44.5 -57.501 73.5s-22 62.167 -22 99.5c0 32 5.16699 59.667 15.5 83
s22.833 43.166 37.5 59.499s29.834 29.833 45.501 40.5s29.167 19.334 40.5 26.001c-8.66699 10 -16.667 20 -24 30s-13.833 20.5 -19.5 31.5s-10.167 22.833 -13.5 35.5s-5 26.667 -5 42c0 28.667 5.33301 54.667 16 78s24.834 43 42.501 59s37.667 28.333 60 37
s45.5 13 69.5 13c25.333 0 49.5 -4.5 72.5 -13.5s43.333 -21.5 61 -37.5s31.667 -35.333 42 -58s15.5 -47.334 15.5 -74.001c0 -28.667 -4.5 -53.334 -13.5 -74.001s-19.833 -38.334 -32.5 -53.001s-25.5 -26.334 -38.5 -35.001s-23.833 -15.334 -32.5 -20.001l68 -76
l72 123h148z" />
    <glyph glyph-name="quotesingle" unicode="'" horiz-adv-x="220" 
d="M70 444l-26 296h133l-26 -296h-81z" />
    <glyph glyph-name="parenleft" unicode="(" horiz-adv-x="380" 
d="M350 -157c-9.33301 3.33301 -18.9971 6.99707 -28.9971 10.9971s-20.833 9.5 -32.5 16.5s-23.834 15.667 -36.501 26s-26.334 23.5 -41.001 39.5c-10.667 12 -23.834 28.667 -39.501 50s-30.667 47.333 -45 78s-26.666 65.334 -36.999 104.001s-15.5 81.667 -15.5 129
c0 74 13.333 143.5 40 208.5s63 120.5 109 166.5c24 23.333 46.5 40.833 67.5 52.5s40.833 21.5 59.5 29.5v-144c-24.667 -20 -45.834 -42.333 -63.501 -67s-32 -50.5 -43 -77.5s-19.167 -54.667 -24.5 -83s-8 -56.5 -8 -84.5c0 -41.333 4.83301 -79.166 14.5 -113.499
s21.667 -64.666 36 -90.999s29.5 -48.5 45.5 -66.5s30.333 -31.333 43 -40v-144z" />
    <glyph glyph-name="parenright" unicode=")" horiz-adv-x="380" 
d="M37 754l28.5 -10.998c10.333 -4 21.166 -9.5 32.499 -16.5s23.5 -15.667 36.5 -26s26.833 -23.5 41.5 -39.5c10.667 -12 23.834 -28.667 39.501 -50s30.667 -47.333 45 -78s26.666 -65.5 36.999 -104.5s15.5 -81.833 15.5 -128.5c0 -74 -13.333 -143.5 -40 -208.5
s-63 -120.5 -109 -166.5c-24 -23.333 -46.5 -40.833 -67.5 -52.5s-40.833 -21.5 -59.5 -29.5v144c24.667 20 45.834 42.333 63.501 67s32 50.5 43 77.5s19.167 54.667 24.5 83s8 56.5 8 84.5c0 41.333 -4.83301 79.166 -14.5 113.499s-21.667 64.666 -36 90.999
s-29.5 48.333 -45.5 66s-30.333 31.167 -43 40.5v144z" />
    <glyph glyph-name="asterisk" unicode="*" horiz-adv-x="440" 
d="M272 755l56 -39l-56 -83l102 5l-1 -67l-101 5l56 -83l-61 -36l-46 92l-47 -92l-61 36l57 83l-102 -5l-1 67l102 -5l-55 83l56 39l51 -92z" />
    <glyph glyph-name="plus" unicode="+" horiz-adv-x="600" 
d="M240 506h120v-193h192v-120h-192v-193h-120v193h-192v120h192v193z" />
    <glyph glyph-name="comma" unicode="," horiz-adv-x="280" 
d="M73 133h132.999v-141c0 -27.333 -4.5 -49.5 -13.5 -66.5s-20.333 -30.5 -34 -40.5s-28.167 -16.833 -43.5 -20.5s-29 -5.5 -41 -5.5v67c6 1.33301 12.333 2.83301 19 4.5s12.834 4.5 18.501 8.5s10.5 9.5 14.5 16.5s6 16.167 6 27.5v17h-59v133z" />
    <glyph glyph-name="hyphen" unicode="-" horiz-adv-x="420" 
d="M71 348h278v-118h-278v118z" />
    <glyph glyph-name="period" unicode="." horiz-adv-x="280" 
d="M73 133h133v-133h-133v133z" />
    <glyph glyph-name="slash" unicode="/" horiz-adv-x="460" 
d="M319 740h135l-314 -840h-134z" />
    <glyph glyph-name="zero" unicode="0" 
d="M396 505c0 18 -2.99805 34.668 -8.99805 50.001s-14.167 28.5 -24.5 39.5s-22.5 19.5 -36.5 25.5s-28.667 9 -44 9c-32 0 -59.5 -11 -82.5 -33s-34.5 -54 -34.5 -96v-252c0 -28 4 -51 12 -69s17.833 -32 29.5 -42s24.167 -16.833 37.5 -20.5s25.666 -5.5 36.999 -5.5
c9.33301 0 20.666 1.5 33.999 4.5s26 9.33301 38 19s22.167 23.167 30.5 40.5s12.5 40.666 12.5 69.999v260zM529.002 233.001c0 -40 -6.83496 -75.501 -20.502 -106.501s-32 -57 -55 -78s-49.333 -36.833 -79 -47.5s-60.834 -16 -93.501 -16
c-37.333 0 -70.666 6.16699 -99.999 18.5s-58.666 33.166 -87.999 62.499c-20 20 -35.167 43.5 -45.5 70.5s-15.5 61.5 -15.5 103.5v266c0 44 7.5 81.667 22.5 113s34.667 57 59 77s51.5 34.833 81.5 44.5s60 14.5 90 14.5c28 0 56.5 -5.16699 85.5 -15.5
s55.333 -25.666 79 -45.999s42.834 -46.166 57.501 -77.499s22 -68 22 -110v-273z" />
    <glyph glyph-name="one" unicode="1" 
d="M230 614h-93v126h226v-740h-133v614z" />
    <glyph glyph-name="two" unicode="2" 
d="M44 126l263.999 245.997c18 16.667 32.5 32.167 43.5 46.5s19.333 27.5 25 39.5s9.33398 22.833 11.001 32.5s2.5 18.834 2.5 27.501c0 19.333 -3.33301 36 -10 50s-15.167 25.5 -25.5 34.5s-21.833 15.667 -34.5 20s-25.334 6.5 -38.001 6.5
c-26 0 -47.167 -6.66699 -63.5 -20s-28.166 -26.666 -35.499 -39.999c-6.66699 -12.667 -10.667 -26 -12 -40s-2 -28.333 -2 -43h-132c-0.666992 5.33301 -1 9.66602 -1 12.999v11c0 29.333 5.5 58.5 16.5 87.5s26.833 55.167 47.5 78.5s46 42.333 76 57s64.333 22 103 22
c38 0 72 -7 102 -21s55.5 -32.333 76.5 -55s37.167 -48.667 48.5 -78s17 -59 17 -89c0 -19.333 -2.16699 -38.5 -6.5 -57.5s-11.833 -38.667 -22.5 -59s-25.167 -41.666 -43.5 -63.999s-41.833 -46.166 -70.5 -71.499l-150 -134h293v-126h-479v126z" />
    <glyph glyph-name="three" unicode="3" 
d="M230 480l23.0039 -0.00292969c12 0 23.5 1.33301 34.5 4s20.833 7.16699 29.5 13.5s15.667 14.5 21 24.5s8 22.333 8 37c0 26.667 -6.83301 45 -20.5 55s-28.834 15 -45.501 15c-12 0 -22.167 -2.5 -30.5 -7.5s-15 -11.167 -20 -18.5s-8.66699 -14.833 -11 -22.5
s-3.83301 -14.167 -4.5 -19.5h-133c3.33301 42.667 13.333 76.834 30 102.501s35.5 45.167 56.5 58.5s41.833 22.166 62.5 26.499s36.667 6.5 48 6.5c28.667 0 55.334 -5.5 80.001 -16.5s46 -25.833 64 -44.5s32 -40 42 -64s15 -49 15 -75c0 -20.667 -2.5 -38.5 -7.5 -53.5
s-10.833 -27.667 -17.5 -38s-13.667 -18.666 -21 -24.999s-13.333 -11.166 -18 -14.499c29.333 -12 51.833 -27.833 67.5 -47.5s27.167 -39.167 34.5 -58.5s11.666 -37 12.999 -53s2 -26.667 2 -32c0 -38 -7.16699 -72.333 -21.5 -103s-33.333 -56.834 -57 -78.501
s-50.834 -38.167 -81.501 -49.5s-62 -17 -94 -17c-30.667 0 -60.5 5.33301 -89.5 16s-55 26.334 -78 47.001s-42 45.667 -57 75s-23.5 62.666 -25.5 99.999h133c2 -20 7.16699 -37 15.5 -51s18.333 -25.5 30 -34.5s24.167 -15.667 37.5 -20s25.666 -6.5 36.999 -6.5
c14 0 28 2.83301 42 8.5s26.667 13.667 38 24s20.5 23 27.5 38s10.5 31.5 10.5 49.5c0 14.667 -2.5 29.334 -7.5 44.001s-13.333 27.834 -25 39.501s-26.834 21.167 -45.501 28.5s-41.667 11 -69 11h-22v126z" />
    <glyph glyph-name="four" unicode="4" 
d="M334 237v278h-2l-174 -278h176zM355 740h112v-503h78v-126h-78v-111h-133v111h-319v109z" />
    <glyph glyph-name="five" unicode="5" 
d="M128 740l335.001 -0.000976562v-126h-235l-24 -136c14.667 6.66699 29.834 11.834 45.501 15.501s32.167 5.5 49.5 5.5c34.667 0 66.334 -7.16699 95.001 -21.5s53.5 -33.333 74.5 -57s37.333 -51 49 -82s17.5 -62.833 17.5 -95.5c0 -34 -6.33301 -66.5 -19 -97.5
s-30.334 -58.333 -53.001 -82s-49.667 -42.667 -81 -57s-66 -21.5 -104 -21.5c-32.667 0 -64 6.16699 -94 18.5s-56.5 29.166 -79.5 50.499s-41.667 46.333 -56 75s-22.166 59 -23.499 91h133c4 -21.333 10.333 -39 19 -53s18.5 -25.167 29.5 -33.5
s22.5 -14.166 34.5 -17.499s23.333 -5 34 -5c21.333 0 40 4 56 12s29.167 18.5 39.5 31.5s18.166 27.167 23.499 42.5s8 30.666 8 45.999c0 14.667 -2.83301 29.834 -8.5 45.501s-13.834 29.667 -24.501 42s-23.834 22.5 -39.501 30.5s-33.167 12 -52.5 12
c-14 0 -26.333 -1.83301 -37 -5.5s-20 -8.16699 -28 -13.5s-14.833 -11 -20.5 -17s-10.5 -11.667 -14.5 -17l-119 33z" />
    <glyph glyph-name="six" unicode="6" 
d="M156 244c0 -18 3.16602 -35.168 9.49902 -51.501s15 -30.5 26 -42.5s24 -21.5 39 -28.5s31.5 -10.5 49.5 -10.5c20 0 37.667 4 53 12s28.166 18.167 38.499 30.5s18.166 26 23.499 41s8 29.833 8 44.5c0 18 -3.16699 34.833 -9.5 50.5s-15.166 29.334 -26.499 41.001
s-24.666 21 -39.999 28s-32 10.5 -50 10.5c-19.333 0 -36.5 -4 -51.5 -12s-27.667 -18 -38 -30s-18.166 -25.333 -23.499 -40s-8 -29 -8 -43zM444.999 738.999l-163.999 -250.001c5.33301 1.33301 11 2.16602 17 2.49902s12.333 0.5 19 0.5c26 0 52.167 -5.66699 78.5 -17
s49.833 -27.5 70.5 -48.5s37.5 -46.333 50.5 -76s19.5 -62.834 19.5 -99.501c0 -39.333 -7 -75.333 -21 -108s-32.833 -60.667 -56.5 -84s-50.834 -41.5 -81.501 -54.5s-63 -19.5 -97 -19.5c-33.333 0 -65.5 6.16699 -96.5 18.5s-58.333 30 -82 53s-42.667 50.833 -57 83.5
s-21.5 69.334 -21.5 110.001c0 13.333 1.16699 27.833 3.5 43.5s6.83301 31.834 13.5 48.501c6 15.333 12.5 29.833 19.5 43.5s14.833 26.834 23.5 39.501l206 314h156z" />
    <glyph glyph-name="seven" unicode="7" 
d="M359 614h-297v126h436v-126l-267 -614h-148z" />
    <glyph glyph-name="eight" unicode="8" 
d="M394 225c0 16 -3 30.833 -9 44.5s-14.167 25.667 -24.5 36s-22.333 18.5 -36 24.5s-28.5 9 -44.5 9s-30.833 -3 -44.5 -9s-25.667 -14.167 -36 -24.5s-18.5 -22.333 -24.5 -36s-9 -28.5 -9 -44.5s3 -30.833 9 -44.5s14.167 -25.667 24.5 -36s22.333 -18.5 36 -24.5
s28.5 -9 44.5 -9s30.833 3 44.5 9s25.667 14.167 36 24.5s18.5 22.333 24.5 36s9 28.5 9 44.5zM359 549c0 22 -7.66699 40.833 -23 56.5s-34 23.5 -56 23.5c-21.333 0 -39.666 -7.83301 -54.999 -23.5s-23 -34.5 -23 -56.5c0 -21.333 7.66699 -39.833 23 -55.5
s33.666 -23.5 54.999 -23.5c22 0 40.667 7.83301 56 23.5s23 34.167 23 55.5zM143 411l-20.4932 21.5c-7.66699 8.33301 -14.834 18.166 -21.501 29.499s-12.334 24.333 -17.001 39s-7 31.334 -7 50.001c0 24.667 4.5 49.334 13.5 74.001s22.167 46.5 39.5 65.5
s38.666 34.5 63.999 46.5s54 18 86 18s60.667 -6 86 -18s46.833 -27.5 64.5 -46.5s31 -40.833 40 -65.5s13.5 -49.334 13.5 -74.001c0 -18.667 -2.33301 -35.334 -7 -50.001s-10.5 -27.667 -17.5 -39s-14.333 -21.166 -22 -29.499l-20.5 -21.5
c7.33301 -4 17.166 -10.333 29.499 -19s24.5 -20.334 36.5 -35.001s22.333 -32.834 31 -54.501s13 -47.5 13 -77.5c0 -34 -6.83301 -65.667 -20.5 -95s-31.834 -54.833 -54.501 -76.5s-49 -38.5 -79 -50.5s-61 -18 -93 -18s-63 6 -93 18s-56.333 28.833 -79 50.5
s-40.834 47.167 -54.501 76.5s-20.5 61 -20.5 95c0 30 4.33301 55.833 13 77.5s19 39.834 31 54.501s24.167 26.334 36.5 35.001s22.166 15 29.499 19z" />
    <glyph glyph-name="nine" unicode="9" 
d="M404 495c0 18 -3.16602 35.167 -9.49902 51.5s-15 30.5 -26 42.5s-24 21.5 -39 28.5s-31.167 10.5 -48.5 10.5c-20 0 -37.833 -4 -53.5 -12s-28.667 -18.167 -39 -30.5s-18.166 -26 -23.499 -41s-8 -29.833 -8 -44.5c0 -18.667 3 -36 9 -52s14.5 -29.667 25.5 -41
s24.167 -20.333 39.5 -27s32 -10 50 -10c20 0 37.667 4 53 12s28.166 18 38.499 30s18.166 25.333 23.499 40s8 29 8 43zM115.001 0l163.999 250.003c-5.33301 -1.33301 -11 -2.16602 -17 -2.49902s-12.333 -0.5 -19 -0.5c-26 0 -52.167 5.66699 -78.5 17
s-49.833 27.5 -70.5 48.5s-37.5 46.167 -50.5 75.5s-19.5 62.666 -19.5 99.999c0 39.333 7 75.333 21 108s32.833 60.667 56.5 84s50.834 41.5 81.501 54.5s63 19.5 97 19.5c33.333 0 65.5 -6.16699 96.5 -18.5s58.333 -30 82 -53s42.667 -50.833 57 -83.5
s21.5 -69.334 21.5 -110.001c0 -13.333 -1.16699 -27.833 -3.5 -43.5s-6.83301 -31.834 -13.5 -48.501c-6 -15.333 -12.5 -29.833 -19.5 -43.5s-14.833 -26.834 -23.5 -39.501l-206 -314h-156z" />
    <glyph glyph-name="colon" unicode=":" horiz-adv-x="280" 
d="M73 555h133v-133h-133v133zM73 133h133v-133h-133v133z" />
    <glyph glyph-name="semicolon" unicode=";" horiz-adv-x="280" 
d="M73 555h133v-133h-133v133zM73 133h132.999v-141c0 -27.333 -4.5 -49.5 -13.5 -66.5s-20.333 -30.5 -34 -40.5s-28.167 -16.833 -43.5 -20.5s-29 -5.5 -41 -5.5v67c6 1.33301 12.333 2.83301 19 4.5s12.834 4.5 18.501 8.5s10.5 9.5 14.5 16.5s6 16.167 6 27.5v17h-59
v133z" />
    <glyph glyph-name="less" unicode="&#x3c;" horiz-adv-x="600" 
d="M554 -8l-508 214v94l508 214v-115l-352 -146l352 -146v-115z" />
    <glyph glyph-name="equal" unicode="=" horiz-adv-x="600" 
d="M552 81h-504v120h504v-120zM552 305h-504v120h504v-120z" />
    <glyph glyph-name="greater" unicode="&#x3e;" horiz-adv-x="600" 
d="M398 253l-352 146v115l508 -214v-94l-508 -214v115z" />
    <glyph glyph-name="question" unicode="?" 
d="M193 133h133v-133h-133v133zM193 187l0.000976562 29.001c0 35.333 6.33301 70.333 19 105s36 66.334 70 95.001c23.333 19.333 41.833 37 55.5 53s20.5 35.333 20.5 58c0 19.333 -3.16699 35.166 -9.5 47.499s-14.333 22 -24 29s-20 11.833 -31 14.5s-20.833 4 -29.5 4
c-19.333 0 -34.833 -3.16699 -46.5 -9.5s-20.667 -14.5 -27 -24.5s-10.833 -20.667 -13.5 -32s-4.66699 -22 -6 -32h-133c2.66699 38.667 10 71.167 22 97.5s26.333 48 43 65s34.167 30.167 52.5 39.5s35.5 16.166 51.5 20.499s29.667 6.83301 41 7.5s18 1 20 1
c28.667 0 56.5 -5 83.5 -15s50.833 -24.833 71.5 -44.5s37.167 -43.667 49.5 -72s18.5 -60.5 18.5 -96.5c0 -12 -1 -24.333 -3 -37s-6.5 -26.334 -13.5 -41.001s-17.167 -30.5 -30.5 -47.5s-31.333 -35.833 -54 -56.5l-23.5 -22.5
c-7.66699 -7.66699 -14.5 -16.167 -20.5 -25.5s-10.833 -20.166 -14.5 -32.499s-5.5 -26.833 -5.5 -43.5c0 -5.33301 0.166992 -11.333 0.5 -18s0.166016 -12 -0.500977 -16h-133z" />
    <glyph glyph-name="at" unicode="@" horiz-adv-x="740" 
d="M532 534l82.9932 0.000976562l-67 -256c-2 -7.33301 -3.83301 -14.5 -5.5 -21.5s-2.5 -13.333 -2.5 -19s1.33301 -10.167 4 -13.5s7.33398 -5 14.001 -5c12.667 0 25.667 5 39 15s25.5 23.167 36.5 39.5s20.167 35.333 27.5 57s11 44.5 11 68.5
c0 38.667 -6.66699 73.167 -20 103.5s-31.666 55.833 -54.999 76.5s-50.666 36.334 -81.999 47.001s-64.666 16 -99.999 16c-41.333 0 -79.166 -7.66699 -113.499 -23s-64.166 -36.333 -89.499 -63s-45 -57.834 -59 -93.501s-21 -73.834 -21 -114.501
c0 -42.667 7.33301 -81.834 22 -117.501s35.167 -66.167 61.5 -91.5s57.333 -45.166 93 -59.499s74.5 -21.5 116.5 -21.5s82.167 8 120.5 24s70.5 38.333 96.5 67h76c-32.667 -51.333 -75.167 -91 -127.5 -119s-108.833 -42 -169.5 -42
c-51.333 0 -99.666 9.16699 -144.999 27.5s-84.666 43.833 -117.999 76.5s-59.666 71 -78.999 115s-29 92 -29 144c0 50.667 9.66699 98 29 142s45.666 82.167 78.999 114.5s72.166 57.833 116.499 76.5s91.5 28 141.5 28c44 0 86.167 -7.16699 126.5 -21.5
s75.833 -34.5 106.5 -60.5s55.167 -57.333 73.5 -94s27.5 -77 27.5 -121c0 -48 -8.83301 -89.5 -26.5 -124.5s-38.834 -64 -63.501 -87s-50.667 -40.167 -78 -51.5s-50.333 -17 -69 -17c-15.333 0 -28.5 4.66699 -39.5 14s-17.167 23.666 -18.5 42.999h-2
c-28 -38 -64.333 -57 -109 -57c-20.667 0 -40 4.33301 -58 13s-33.667 20.334 -47 35.001s-23.833 31.667 -31.5 51s-11.5 40 -11.5 62c0 31.333 5.16699 62 15.5 92s24.833 56.833 43.5 80.5s41.167 42.834 67.5 57.501s55.833 22 88.5 22c23.333 0 44.333 -5.33301 63 -16
s32.334 -28.334 41.001 -53.001h2zM361.993 219.001c19.333 0 36.999 5.16406 52.999 15.4971s29.5 23.333 40.5 39s19.5 32.834 25.5 51.501s9 36.667 9 54c0 24.667 -7 45 -21 61s-32.667 24 -56 24c-19.333 0 -37 -4.83301 -53 -14.5s-29.667 -22.167 -41 -37.5
s-20.166 -32.166 -26.499 -50.499s-9.5 -36.166 -9.5 -53.499c0 -26 6.83301 -47.333 20.5 -64s33.167 -25 58.5 -25z" />
    <glyph glyph-name="A" unicode="A" horiz-adv-x="740" 
d="M283 320h170l-84 227h-2zM315 740h107l310 -740h-151l-79 191h-265l-79 -191h-151z" />
    <glyph glyph-name="B" unicode="B" horiz-adv-x="580" 
d="M207 452h45c8 0 18.667 0.333008 32 1s26.333 3.5 39 8.5s23.667 13 33 24s14 26.5 14 46.5c0 22 -7.83301 40.833 -23.5 56.5s-43.167 23.5 -82.5 23.5h-57v-160zM207 128l69.0029 0.00195312c6.66699 0 17.667 0.5 33 1.5s30.666 4.5 45.999 10.5s29 15.667 41 29
s18 32 18 56c0 7.33301 -1.33301 16.666 -4 27.999s-8.83398 22.166 -18.501 32.499s-23.334 19.333 -41.001 27s-41.5 11.5 -71.5 11.5h-72v-196zM70.0029 740.002l145.999 -0.00390625c20.667 0 41.167 -0.333008 61.5 -1s40.166 -2.66699 59.499 -6s38 -9 56 -17
s35 -19 51 -33c18.667 -16.667 33.834 -37.5 45.501 -62.5s17.5 -50.167 17.5 -75.5c0 -23.333 -3.16699 -43.166 -9.5 -59.499s-14 -30 -23 -41s-18.167 -19.667 -27.5 -26s-17 -11.166 -23 -14.499c12 -4.66699 25.5 -11 40.5 -19s28.833 -19 41.5 -33
s23.334 -31.667 32.001 -53s13 -47.666 13 -78.999c0 -22 -2.66699 -42.167 -8 -60.5s-12.333 -34.666 -21 -48.999s-18.5 -27 -29.5 -38s-22.167 -20.5 -33.5 -28.5c-14 -10 -29.5 -17.833 -46.5 -23.5s-34.333 -10 -52 -13s-34.5 -5 -50.5 -6s-30 -1.5 -42 -1.5h-198v740z
" />
    <glyph glyph-name="C" unicode="C" horiz-adv-x="780" 
d="M762 206c-14.667 -34 -34.0049 -64.6699 -58.0049 -92.0029s-51.167 -50.5 -81.5 -69.5s-62.833 -33.667 -97.5 -44s-69.667 -15.5 -105 -15.5c-53.333 0 -103.5 10.333 -150.5 31s-88 48.834 -123 84.501s-62.5 77 -82.5 124s-30 96.5 -30 148.5
c0 50.667 9.83301 99.167 29.5 145.5s46.834 87 81.501 122s75.334 62.833 122.001 83.5s96.667 31 150 31c30.667 0 62.834 -4.16699 96.501 -12.5s66.167 -21.5 97.5 -39.5s60.5 -41.333 87.5 -70s49.5 -63.334 67.5 -104.001h-156c-26.667 30.667 -56 54.667 -88 72
s-68.667 26 -110 26c-30 0 -59.5 -6.33301 -88.5 -19s-54.667 -30.5 -77 -53.5s-40.5 -50.167 -54.5 -81.5s-21 -65.333 -21 -102c0 -34.667 6.66699 -67.667 20 -99s31.333 -58.666 54 -81.999s48.834 -42 78.501 -56s60.834 -21 93.501 -21
c24.667 0 46.667 3.16699 66 9.5s36.5 14.333 51.5 24s28.167 19.834 39.5 30.501s21 20.334 29 29.001h159z" />
    <glyph glyph-name="D" unicode="D" horiz-adv-x="700" 
d="M200 128h28.999c18.667 0 35.834 0.5 51.501 1.5s30.5 2.66699 44.5 5s27.833 5.83301 41.5 10.5s27.834 11 42.501 19c18 10 34 22.5 48 37.5s25.667 31.5 35 49.5s16.333 37 21 57s7 40 7 60c0 36 -7.16699 70 -21.5 102s-33.5 58.667 -57.5 80
c-28.667 25.333 -60.834 42 -96.501 50s-75.167 12 -118.5 12h-26v-484zM62.999 740l168 0.000976562c45.333 0 84.666 -2.66699 117.999 -8s62 -12.333 86 -21s44 -18 60 -28s29.333 -19.667 40 -29c17.333 -15.333 33.5 -33.333 48.5 -54s28 -43.334 39 -68.001
s19.5 -51 25.5 -79s9 -56.333 9 -85c0 -33.333 -4.16699 -66 -12.5 -98s-20.166 -62 -35.499 -90s-34 -53.333 -56 -76s-46.333 -41.334 -73 -56.001c-17.333 -9.33301 -35.833 -17.166 -55.5 -23.499s-40.167 -11.333 -61.5 -15s-43 -6.16699 -65 -7.5s-43.333 -2 -64 -2
h-171v740z" />
    <glyph glyph-name="E" unicode="E" horiz-adv-x="520" 
d="M61 740h398v-128h-261v-181h250v-128h-250v-175h261v-128h-398v740z" />
    <glyph glyph-name="F" unicode="F" horiz-adv-x="480" 
d="M61 740h377v-128h-240v-181h229v-128h-229v-303h-137v740z" />
    <glyph glyph-name="G" unicode="G" horiz-adv-x="840" 
d="M334 377l483 -0.00195312v-16c0 -52.667 -10.667 -101.834 -32 -147.501s-50 -85.5 -86 -119.5s-77.667 -60.667 -125 -80s-97 -29 -149 -29c-53.333 0 -104 9.66699 -152 29s-90.167 46.166 -126.5 80.499s-65.333 75 -87 122s-32.5 98.167 -32.5 153.5
c0 54.667 10.667 105.334 32 152.001s50.166 87.334 86.499 122.001s78.333 61.834 126 81.501s97.5 29.5 149.5 29.5c46.667 0 89.834 -7.16699 129.501 -21.5s74.834 -32.666 105.501 -54.999s56.667 -47.166 78 -74.499s36.666 -54.333 45.999 -81h-164
c-8 12 -18.167 24.167 -30.5 36.5s-26.833 23.5 -43.5 33.5s-35.334 18.167 -56.001 24.5s-43.334 9.5 -68.001 9.5c-42 0 -78.833 -8 -110.5 -24s-58.167 -36.5 -79.5 -61.5s-37.333 -52.833 -48 -83.5s-16 -60.334 -16 -89.001c0 -28 5.33301 -57.167 16 -87.5
s26.834 -58 48.501 -83s48.834 -45.5 81.501 -61.5s71 -24 115 -24c45.333 0 87.833 11.833 127.5 35.5s70.167 57.167 91.5 100.5h-310v128z" />
    <glyph glyph-name="H" unicode="H" horiz-adv-x="680" 
d="M71 740h137v-301h265v301h137v-740h-137v311h-265v-311h-137v740z" />
    <glyph glyph-name="I" unicode="I" horiz-adv-x="280" 
d="M72 740h137v-740h-137v740z" />
    <glyph glyph-name="J" unicode="J" horiz-adv-x="480" 
d="M409 740l0.000976562 -529.999c0 -49.333 -8 -88.833 -24 -118.5s-34.833 -52.334 -56.5 -68.001s-43.834 -26 -66.501 -31s-41 -7.5 -55 -7.5c-37.333 0 -68.5 7 -93.5 21s-44.167 28.333 -57.5 43c-17.333 19.333 -29.833 40.333 -37.5 63s-13.167 43.334 -16.5 62.001
h138c9.33301 -40.667 31 -61 65 -61c14.667 0 26.5 3.16699 35.5 9.5s15.833 14 20.5 23s7.66699 18.667 9 29s2 19.166 2 26.499v539h137z" />
    <glyph glyph-name="K" unicode="K" horiz-adv-x="620" 
d="M89 740h137v-320h2l231 320h161l-279 -364l279 -376h-161l-231 325h-2v-325h-137v740z" />
    <glyph glyph-name="L" unicode="L" horiz-adv-x="440" 
d="M72 740h137v-612h226v-128h-363v740z" />
    <glyph glyph-name="M" unicode="M" horiz-adv-x="900" 
d="M63 740h190l197 -560h2l195 560h190v-740h-137v555h-1h-2l-189 -555h-116l-190 555h-2v-555h-137v740z" />
    <glyph glyph-name="N" unicode="N" horiz-adv-x="740" 
d="M70 740h156l306 -538h2v538h137v-740h-153l-309 538h-2v-538h-137v740z" />
    <glyph glyph-name="O" unicode="O" horiz-adv-x="840" 
d="M170 369c0 -34 6.33301 -66.5 19 -97.5s30.334 -58.333 53.001 -82s49.167 -42.334 79.5 -56.001s63.166 -20.5 98.499 -20.5s68.166 6.83301 98.499 20.5s56.833 32.334 79.5 56.001s40.334 51 53.001 82s19 63.5 19 97.5c0 35.333 -6.5 68.666 -19.5 99.999
s-30.833 58.666 -53.5 81.999s-49.167 41.833 -79.5 55.5s-62.833 20.5 -97.5 20.5s-67.167 -6.83301 -97.5 -20.5s-56.833 -32.167 -79.5 -55.5s-40.5 -50.666 -53.5 -81.999s-19.5 -64.666 -19.5 -99.999zM33 368c0 54.667 10.3311 105.667 30.998 153
s48.667 88.333 84 123s76.333 61.834 123 81.501s96.334 29.5 149.001 29.5s102.334 -9.83301 149.001 -29.5s87.667 -46.834 123 -81.501s63.333 -75.667 84 -123s31 -98.333 31 -153c0 -53.333 -10.167 -103.166 -30.5 -149.499s-48 -86.833 -83 -121.5s-76 -62 -123 -82
s-97.167 -30 -150.5 -30s-103.5 10 -150.5 30s-88 47.333 -123 82s-62.667 75.167 -83 121.5s-30.5 96.166 -30.5 149.499z" />
    <glyph glyph-name="P" unicode="P" 
d="M209 410l43.9971 -0.00195312c14.667 0 31 0.666992 49 2s34.833 5.33301 50.5 12s28.834 16.834 39.501 30.501s16 32.5 16 56.5s-5.16699 42.833 -15.5 56.5s-23.166 23.834 -38.499 30.501s-31.666 10.667 -48.999 12s-33 2 -47 2h-49v-202zM71.9971 739.998
l186 0.000976562c20 0 39.167 -0.333008 57.5 -1s36.5 -2.66699 54.5 -6s35.667 -9.16602 53 -17.499s34.666 -19.833 51.999 -34.5c24.667 -21.333 42.5 -46.333 53.5 -75s16.5 -60.334 16.5 -95.001s-5.5 -66.334 -16.5 -95.001s-28.833 -53.667 -53.5 -75
c-17.333 -15.333 -34.666 -27 -51.999 -35s-35 -13.667 -53 -17s-36.167 -5.33301 -54.5 -6s-37.5 -1 -57.5 -1h-49v-282h-137v740z" />
    <glyph glyph-name="Q" unicode="Q" horiz-adv-x="840" 
d="M617 215l15.9961 22.5c6 8.33301 11.667 18.5 17 30.5s9.83301 26.167 13.5 42.5s5.5 35.833 5.5 58.5c0 36.667 -6.66699 70.834 -20 102.501s-31.333 59 -54 82s-49.167 41 -79.5 54s-62.5 19.5 -96.5 19.5c-38.667 0 -73.167 -7.33301 -103.5 -22
s-56.166 -33.834 -77.499 -57.501s-38 -50.334 -50 -80.001s-18.333 -59.5 -19 -89.5c-0.666992 -7.33301 -0.666992 -12.5 0 -15.5s1.33398 -5.5 2.00098 -7.5c11.333 2.66699 24.333 4.83398 39 6.50098s35.334 2.5 62.001 2.5c32 -0.666992 62.833 -4.66699 92.5 -12
s57.167 -16.5 82.5 -27.5s48.333 -22.833 69 -35.5s38.334 -24.5 53.001 -35.5s26 -20.167 34 -27.5l12 -11h2zM519.996 135c-26 19.333 -50.333 35.501 -73 48.501s-44 23.333 -64 31s-39.167 13.167 -57.5 16.5s-36.5 5 -54.5 5c-14 0 -25.5 -0.833008 -34.5 -2.5
s-17.167 -3.83398 -24.5 -6.50098c14 -22 30 -40.333 48 -55s36.5 -26.5 55.5 -35.5s37.5 -15.167 55.5 -18.5s34 -5 48 -5c25.333 0.666992 46 3.5 62 8.5s29 9.5 39 13.5zM823.996 -14.999l-19 -0.000976562c-22 0 -41.833 2.16699 -59.5 6.5s-33.834 9.5 -48.501 15.5
s-27.5 12.5 -38.5 19.5l-29.5 19.5c-30.667 -19.333 -63.834 -34.333 -99.501 -45s-72.5 -16 -110.5 -16c-53.333 0 -103.5 10 -150.5 30s-88 47.333 -123 82s-62.667 75.167 -83 121.5s-30.5 96.166 -30.5 149.499c0 54.667 10.333 105.667 31 153s48.667 88.333 84 123
s76.333 61.834 123 81.501s96.334 29.5 149.001 29.5c52 0 101.333 -9.83301 148 -29.5s87.834 -46.667 123.501 -81s63.834 -74.666 84.501 -120.999s31 -96.5 31 -150.5c0 -32.667 -2.83301 -61.667 -8.5 -87s-12.834 -47.5 -21.501 -66.5s-17.667 -35.167 -27 -48.5
l-24 -34c13.333 -10 28 -16.5 44 -19.5s27 -4.5 33 -4.5h22v-128z" />
    <glyph glyph-name="R" unicode="R" horiz-adv-x="580" 
d="M201 386l88 -0.000976562c28 0 50.667 4.16699 68 12.5s30.833 18.333 40.5 30s16 24 19 37s4.5 24.5 4.5 34.5s-1.83301 21.5 -5.5 34.5s-10.5 25.333 -20.5 37s-23.5 21.334 -40.5 29.001s-38.833 11.5 -65.5 11.5h-88v-226zM64 739.999h227.002
c42.667 0 78 -4 106 -12s52.667 -20.667 74 -38c10.667 -8.66699 21.167 -18.834 31.5 -30.501s19.666 -25 27.999 -40s15 -31.5 20 -49.5s7.5 -37.667 7.5 -59c0 -12 -1.16699 -25.667 -3.5 -41s-6.33301 -31 -12 -47s-13 -31.667 -22 -47s-20.167 -29.333 -33.5 -42
c-22 -21.333 -43.333 -35.666 -64 -42.999s-40.334 -13.333 -59.001 -18l201 -273h-166l-196 283h-2v-283h-137v740z" />
    <glyph glyph-name="S" unicode="S" horiz-adv-x="520" 
d="M156 212c2 -18.667 6.16797 -34.3301 12.501 -46.9971s14.166 -22.834 23.499 -30.501s19.333 -13.167 30 -16.5s21.334 -5 32.001 -5c13.333 0 26.166 2.16699 38.499 6.5s23.166 10.666 32.499 18.999s16.833 18.166 22.5 29.499s8.5 24 8.5 38
c0 18.667 -3 34.167 -9 46.5s-15 22.833 -27 31.5s-26.833 16.5 -44.5 23.5l-60.5 23.5l-51.5 20.5c-20.333 8.33301 -39.666 20.166 -57.999 35.499s-34 35.5 -47 60.5s-19.5 57.167 -19.5 96.5c0 29.333 5.5 56.833 16.5 82.5s26.167 48 45.5 67s42.166 34 68.499 45
s55.166 16.5 86.499 16.5c21.333 0 44.5 -3.83301 69.5 -11.5s48.167 -20 69.5 -37s39.5 -38.833 54.5 -65.5s23.5 -59 25.5 -97h-140c-1.33301 16.667 -4.66602 30.334 -9.99902 41.001s-11.833 19.167 -19.5 25.5s-16.167 10.666 -25.5 12.999s-18.666 3.5 -27.999 3.5
c-21.333 0 -39.333 -7 -54 -21s-22 -32 -22 -54c0 -16 2.83301 -29.167 8.5 -39.5s13.834 -19.166 24.501 -26.499s23.667 -13.833 39 -19.5s32.333 -11.5 51 -17.5c15.333 -5.33301 34 -12.5 56 -21.5s43.333 -22.167 64 -39.5s38.167 -39.5 52.5 -66.5
s21.5 -60.5 21.5 -100.5s-7 -74.833 -21 -104.5s-32.5 -54.167 -55.5 -73.5s-48.833 -33.833 -77.5 -43.5s-57.334 -14.5 -86.001 -14.5c-24 0 -49.667 4.16699 -77 12.5s-52.833 21.666 -76.5 39.999s-43.667 41.833 -60 70.5s-25.5 63.334 -27.5 104.001h144z" />
    <glyph glyph-name="T" unicode="T" horiz-adv-x="420" 
d="M143 612h-137v128h412v-128h-138v-612h-137v612z" />
    <glyph glyph-name="U" unicode="U" horiz-adv-x="640" 
d="M193 740l-1 -470c0 -9.33301 0.666992 -22.666 2 -39.999s6 -34.666 14 -51.999s20.667 -32.5 38 -45.5s42 -19.5 74 -19.5s56.667 6.5 74 19.5s30 28.167 38 45.5s12.667 34.666 14 51.999s2 30.666 2 39.999v470h137v-470c0 -30 -2.83301 -60.5 -8.5 -91.5
s-17.167 -58.833 -34.5 -83.5c-21.333 -30 -50.833 -55.833 -88.5 -77.5s-81.834 -32.5 -132.501 -32.5c-28 0 -53.833 3.5 -77.5 10.5s-44.667 15.833 -63 26.5s-34.166 22.167 -47.499 34.5s-24 23.833 -32 34.5c-12 16 -22.667 38.333 -32 67s-14 66 -14 112v470h138z
" />
    <glyph glyph-name="V" unicode="V" horiz-adv-x="700" 
d="M8 740h144l198 -563h2l199 563h144l-287 -740h-112z" />
    <glyph glyph-name="W" unicode="W" horiz-adv-x="900" 
d="M7 740h140l128 -517h2l127 517h100l124 -517h2l129 517h140l-215 -740h-109l-120 489h-2l-122 -489h-108z" />
    <glyph glyph-name="X" unicode="X" horiz-adv-x="680" 
d="M259 369l-255 371h163l173 -258l178 258h158l-256 -371l256 -369h-158l-178 256l-173 -256h-163z" />
    <glyph glyph-name="Y" unicode="Y" horiz-adv-x="620" 
d="M241 273l-243 467h150l161 -340l162 340h151l-244 -467v-273h-137v273z" />
    <glyph glyph-name="Z" unicode="Z" horiz-adv-x="500" 
d="M302 612h-268v128h428v-119l-281 -493h300v-128h-462v112z" />
    <glyph glyph-name="bracketleft" unicode="[" horiz-adv-x="320" 
d="M284 608c-10 -4.66699 -19.8271 -10.001 -29.4941 -16.001s-18.334 -15.5 -26.001 -28.5s-13.834 -30.667 -18.501 -53s-7 -52.166 -7 -89.499v-265c0 -33.333 2.83301 -60 8.5 -80s12.667 -36 21 -48s17.166 -20.667 26.499 -26s17.666 -9.66602 24.999 -12.999v-146
c-47.333 10.667 -85.333 28.667 -114 54s-50.667 53.833 -66 85.5s-25.5 65 -30.5 100s-7.5 67.5 -7.5 97.5v269c0 40 4.16699 75 12.5 105s19.166 55.833 32.499 77.5s28.166 39.667 44.499 54s32.5 26.166 48.5 35.499s31.167 16.5 45.5 21.5s25.833 8.83301 34.5 11.5
v-146z" />
    <glyph glyph-name="backslash" unicode="\" horiz-adv-x="640" 
d="M544 -100h-134l-314 840h135z" />
    <glyph glyph-name="bracketright" unicode="]" horiz-adv-x="320" 
d="M36 -10c10 4.66699 19.8271 9.99902 29.4941 15.999s18.334 15.333 26.001 28s13.834 30.334 18.501 53.001s7 52.667 7 90v264c0 32.667 -2.83301 59.167 -8.5 79.5s-12.667 36.5 -21 48.5s-17.166 20.667 -26.499 26s-17.666 9.66602 -24.999 12.999v146
c47.333 -11.333 85.333 -29.5 114 -54.5s50.667 -53.333 66 -85s25.5 -65 30.5 -100s7.5 -67.5 7.5 -97.5v-269c0 -40 -4.16699 -75 -12.5 -105s-19.166 -55.833 -32.499 -77.5s-28.166 -39.667 -44.499 -54s-32.5 -26.166 -48.5 -35.499s-31.167 -16.5 -45.5 -21.5
s-25.833 -8.83301 -34.5 -11.5v147z" />
    <glyph glyph-name="asciicircum" unicode="^" horiz-adv-x="600" 
d="M73 375l174 365h106l174 -365h-120l-107 248l-108 -248h-119z" />
    <glyph glyph-name="underscore" unicode="_" horiz-adv-x="500" 
d="M0 -125v50h500v-50h-500z" />
    <glyph glyph-name="grave" unicode="`" horiz-adv-x="420" 
d="M107 851l222 -135l-53 -92l-226 125z" />
    <glyph glyph-name="a" unicode="a" horiz-adv-x="660" 
d="M487 279c0 28.667 -4.66699 53.835 -14 75.502s-21.666 39.667 -36.999 54s-32.666 25.166 -51.999 32.499s-39 11 -59 11c-27.333 0 -51.333 -5.33301 -72 -16s-37.834 -24.5 -51.501 -41.5s-24 -36 -31 -57s-10.5 -41.833 -10.5 -62.5
c0 -23.333 4.16699 -45.5 12.5 -66.5s19.833 -39.167 34.5 -54.5s32 -27.5 52 -36.5s42 -13.5 66 -13.5c22.667 0 44 4.33301 64 13s37.167 20.667 51.5 36s25.666 33.666 33.999 54.999s12.5 45 12.5 71zM613 0.000976562l-122.002 0.000976562v69
c-10.667 -12.667 -23.5 -24.334 -38.5 -35.001s-31 -19.834 -48 -27.501s-34.833 -13.667 -53.5 -18s-36.667 -6.5 -54 -6.5c-36 0 -70.167 6.83301 -102.5 20.5s-61 33.5 -86 59.5s-44.833 57.5 -59.5 94.5s-22 78.5 -22 124.5c0 42.667 7.33301 81.834 22 117.501
s34.5 66.5 59.5 92.5s54.333 46.333 88 61s69.834 22 108.501 22c28 0 53.167 -4.33301 75.5 -13s41.333 -18.167 57 -28.5s27.834 -20.333 36.501 -30s13.667 -15.5 15 -17.5h2v70h122v-555z" />
    <glyph glyph-name="b" unicode="b" horiz-adv-x="660" 
d="M172 285c0 -30.667 5 -57.333 15 -80s23 -41.5 39 -56.5s34 -26.167 54 -33.5s39.667 -11 59 -11c22 0 42.667 4 62 12s36.166 19.667 50.499 35s25.833 33.666 34.5 54.999s13 45.666 13 72.999c0 26.667 -4.5 50.834 -13.5 72.501s-21 39.834 -36 54.501
s-32.333 26 -52 34s-39.834 12 -60.501 12c-25.333 0 -48.166 -4.83301 -68.499 -14.5s-37.666 -22.5 -51.999 -38.5s-25.333 -34 -33 -54s-11.5 -40 -11.5 -60zM47 740.001h133.007v-235c23.333 23.333 50.166 40.666 80.499 51.999s61.166 17 92.499 17
c42 0 80.167 -8.5 114.5 -25.5s63.666 -39.167 87.999 -66.5s43.166 -58.666 56.499 -93.999s20 -71.333 20 -108c0 -28 -4.83301 -59.167 -14.5 -93.5s-25.5 -66.666 -47.5 -96.999s-50.5 -55.833 -85.5 -76.5s-77.833 -31 -128.5 -31c-26.667 0 -49.834 2.66699 -69.501 8
s-36.834 12.166 -51.501 20.499s-27.334 17.5 -38.001 27.5s-20 19.667 -28 29v-67h-122v740z" />
    <glyph glyph-name="c" unicode="c" horiz-adv-x="640" 
d="M610 181c-22.667 -62.667 -58.332 -111.497 -106.999 -146.497s-105.667 -52.5 -171 -52.5c-35.333 0 -70.666 6.83301 -105.999 20.5s-67 33.5 -95 59.5s-50.667 57.333 -68 94s-26 78 -26 124c0 42.667 8.16699 82 24.5 118s38 67 65 93s58.333 46.333 94 61
s72.5 22 110.5 22c17.333 0 39 -2.5 65 -7.5s52.5 -14.833 79.5 -29.5s52.667 -35.334 77 -62.001s43.5 -61.334 57.5 -104.001h-150c-4 6.66699 -9.16699 14.667 -15.5 24s-14.5 18.333 -24.5 27s-22.167 15.834 -36.5 21.501s-31.833 8.5 -52.5 8.5
c-20 0 -39.667 -3.66699 -59 -11s-36.5 -18.333 -51.5 -33s-27.167 -32.834 -36.5 -54.501s-14 -46.834 -14 -75.501c0 -24 4 -46.5 12 -67.5s19.333 -39.333 34 -55s32.167 -28.167 52.5 -37.5s43.166 -14 68.499 -14c22 0 43.667 5.83301 65 17.5s40.666 31.5 57.999 59.5
h150z" />
    <glyph glyph-name="d" unicode="d" horiz-adv-x="660" 
d="M167 282c0 -26 4.5 -49.834 13.5 -71.501s21 -40.334 36 -56.001s32.333 -28 52 -37s40.5 -13.5 62.5 -13.5c24.667 0 47.167 5.16699 67.5 15.5s37.666 23.666 51.999 39.999s25.333 34.833 33 55.5s11.5 41.667 11.5 63c0 22.667 -4.16699 44.5 -12.5 65.5
s-19.833 39.5 -34.5 55.5s-32 28.833 -52 38.5s-41.667 14.5 -65 14.5c-24.667 0 -47.167 -5.16699 -67.5 -15.5s-37.666 -23.666 -51.999 -39.999s-25.333 -34.666 -33 -54.999s-11.5 -40.166 -11.5 -59.499zM618 -0.000976562l-122 -0.00195312v68h-2
c-6 -10 -14.333 -20.167 -25 -30.5s-23.334 -19.5 -38.001 -27.5s-31.5 -14.667 -50.5 -20s-40.167 -8 -63.5 -8c-35.333 0 -70 7 -104 21s-64.167 33.833 -90.5 59.5s-47.666 56.667 -63.999 93s-24.5 76.833 -24.5 121.5c0 46.667 8.5 88.334 25.5 125.001
s39 67.834 66 93.501s57.333 45.167 91 58.5s67.167 20 100.5 20c40.667 0 74 -6.16699 100 -18.5s48.667 -28.833 68 -49.5v234h133v-740z" />
    <glyph glyph-name="e" unicode="e" horiz-adv-x="640" 
d="M474 325c-4 22 -10.832 41.168 -20.499 57.501s-21.334 29.833 -35.001 40.5s-28.667 18.667 -45 24s-32.833 8 -49.5 8c-12 0 -25.833 -2 -41.5 -6s-31 -10.833 -46 -20.5s-28.833 -22.834 -41.5 -39.501s-22 -38 -28 -64h307zM171.001 218.001
c1.33301 -9.33301 5.66602 -20.502 12.999 -33.502s17.333 -25.5 30 -37.5s28.167 -22.167 46.5 -30.5s39.5 -12.5 63.5 -12.5c59.333 0 102 23.667 128 71h140c-8 -25.333 -20.333 -49.5 -37 -72.5s-36.667 -43.5 -60 -61.5s-49.5 -32.333 -78.5 -43s-59.833 -16 -92.5 -16
c-41.333 0 -79.833 7.66699 -115.5 23s-66.667 36.333 -93 63s-47 57.834 -62 93.501s-22.5 73.834 -22.5 114.501c0 39.333 7.16699 77.166 21.5 113.499s34.5 68.333 60.5 96s56.833 49.834 92.5 66.501s74.834 25 117.501 25c44 0 83.667 -8.66699 119 -26
s65.5 -39.833 90.5 -67.5s44.167 -59 57.5 -94s20 -69.833 20 -104.5c0 -13.333 -0.833008 -25.5 -2.5 -36.5s-3.5 -21.167 -5.5 -30.5h-431z" />
    <glyph glyph-name="f" unicode="f" horiz-adv-x="280" 
d="M62 437l-47.002 -0.00195312v118h47c0.666992 9.33301 1.83398 20.333 3.50098 33s4.66699 26 9 40s10.666 28 18.999 42s19.5 27.333 33.5 40c15.333 14.667 33.333 25.834 54 33.501s41.334 11.5 62.001 11.5h37v-131c-12.667 0 -24 -0.5 -34 -1.5
s-18.667 -3.66699 -26 -8s-13.166 -11.166 -17.499 -20.499s-6.83301 -22.333 -7.5 -39h78v-118h-78v-437h-133v437z" />
    <glyph glyph-name="g" unicode="g" horiz-adv-x="660" 
d="M490 283c0 20 -3.83594 40.001 -11.5029 60.001s-18.667 38 -33 54s-31.5 29.167 -51.5 39.5s-42.333 15.5 -67 15.5c-20 0 -39.667 -4 -59 -12s-36.666 -19.333 -51.999 -34s-27.666 -32.5 -36.999 -53.5s-14 -44.5 -14 -70.5c0 -28 4.83301 -53.167 14.5 -75.5
s22.334 -41 38.001 -56s33.5 -26.5 53.5 -34.5s40 -12 60 -12s39.5 4.16699 58.5 12.5s36 20.166 51 35.499s27 34 36 56s13.5 47 13.5 75zM622.997 555.001v-453.003c0 -44.667 -5 -83.667 -15 -117s-23.333 -62.166 -40 -86.499s-35.667 -44.5 -57 -60.5
s-43.166 -28.667 -65.499 -38s-44.5 -16 -66.5 -20s-41.667 -6 -59 -6c-28.667 0 -57 3.83301 -85 11.5s-54.333 19 -79 34s-47 34 -67 57s-36 50.167 -48 81.5h152c12.667 -15.333 26 -27.166 40 -35.499s27.333 -14.5 40 -18.5s24 -6.33301 34 -7s17.667 -1 23 -1
c18.667 0 37.667 3.33301 57 10s37.166 17 53.499 31s29.833 32 40.5 54s17 48 19 78l-2 2c-4.66699 -6 -11.5 -14.167 -20.5 -24.5s-20.667 -20.166 -35 -29.499s-32 -17.5 -53 -24.5s-45.5 -10.5 -73.5 -10.5c-34 0 -67.833 7 -101.5 21s-64 34 -91 60s-49 57.5 -66 94.5
s-25.5 78.833 -25.5 125.5c0 43.333 8.16699 82.833 24.5 118.5s37.666 66.334 63.999 92.001s56.5 45.5 90.5 59.5s68.667 21 104 21c28.667 0 53.334 -3.5 74.001 -10.5s38 -15.333 52 -25s25 -19.334 33 -29.001s14 -17.167 18 -22.5h2v68h129z" />
    <glyph glyph-name="h" unicode="h" horiz-adv-x="600" 
d="M54 740l132.998 -0.00195312v-224c4 4 10 9.33301 18 16s17.833 13 29.5 19s25.5 11.333 41.5 16s34.333 7 55 7c15.333 0 31 -2 47 -6s31.5 -9.83301 46.5 -17.5s29.167 -16.667 42.5 -27s25 -21.833 35 -34.5c10.667 -14 19 -29.167 25 -45.5s10.5 -32.5 13.5 -48.5
s4.66699 -31.167 5 -45.5s0.5 -26.5 0.5 -36.5v-313h-133v284c0 14.667 -0.833008 31.834 -2.5 51.501s-6.16699 38 -13.5 55s-18.666 31.5 -33.999 43.5s-36.666 18 -63.999 18c-28 0 -49.667 -6.66699 -65 -20s-26.5 -29.166 -33.5 -47.499s-11 -37 -12 -56
s-1.5 -34.5 -1.5 -46.5v-282h-133v740z" />
    <glyph glyph-name="i" unicode="i" horiz-adv-x="240" 
d="M53 740h133v-122h-133v122zM53 555h133v-555h-133v555z" />
    <glyph glyph-name="j" unicode="j" horiz-adv-x="260" 
d="M72 740h133v-122h-133v122zM205 555l0.000976562 -530.999c0 -30.667 -4.33301 -58.667 -13 -84s-21.334 -47.333 -38.001 -66s-36.667 -33.167 -60 -43.5s-49.333 -15.5 -78 -15.5v130c10.667 1.33301 19.5 3 26.5 5s12.667 5.66699 17 11s7.5 13.166 9.5 23.499
s3 24.5 3 42.5v528h133z" />
    <glyph glyph-name="k" unicode="k" horiz-adv-x="580" 
d="M80 740h133v-446h2l177 261h153l-200 -272l226 -283h-168l-188 260h-2v-260h-133v740z" />
    <glyph glyph-name="l" unicode="l" horiz-adv-x="240" 
d="M54 740h133v-740h-133v740z" />
    <glyph glyph-name="m" unicode="m" horiz-adv-x="940" 
d="M54 555h122.002v-47h2c2.66699 4.66699 7.16699 10.667 13.5 18s15.333 14.5 27 21.5s26 13.167 43 18.5s37.5 8 61.5 8c7.33301 0 17.333 -0.833008 30 -2.5s26.5 -5.33398 41.5 -11.001s30.167 -14.334 45.5 -26.001s29.666 -27.5 42.999 -47.5
c14.667 20.667 30.334 36.834 47.001 48.501s33.167 20.334 49.5 26.001s31.666 9.16699 45.999 10.5s26.5 2 36.5 2c27.333 0 51.333 -3.16699 72 -9.5s38.334 -14 53.001 -23s26.667 -18.5 36 -28.5s16.666 -18.333 21.999 -25
c11.333 -14.667 21.166 -35.334 29.499 -62.001s12.5 -60.667 12.5 -102v-324h-133v308c0 8 -0.5 20 -1.5 36s-4.83301 32 -11.5 48s-17.167 30 -31.5 42s-34.5 18 -60.5 18c-18.667 0 -36.167 -4.66699 -52.5 -14s-29.5 -22 -39.5 -38
c-5.33301 -8 -9.33301 -17.333 -12 -28s-4.5 -21.5 -5.5 -32.5s-1.66699 -22 -2 -33s-0.5 -20.833 -0.5 -29.5v-277h-133v308c0 18.667 -2 36.834 -6 54.501s-10.333 33 -19 46s-20 23.5 -34 31.5s-31.333 12 -52 12c-26.667 0 -47.167 -6.33301 -61.5 -19
s-24.833 -28.167 -31.5 -46.5s-10.5 -37.5 -11.5 -57.5s-1.5 -37.333 -1.5 -52v-277h-133v555z" />
    <glyph glyph-name="n" unicode="n" horiz-adv-x="600" 
d="M54 555h123.003v-48c5.33301 5.33301 12.333 11.833 21 19.5s19.167 15 31.5 22s26.666 13 42.999 18s35.166 7.5 56.499 7.5c12 0 25.333 -1.33301 40 -4s29.5 -7.16699 44.5 -13.5s29.667 -14.333 44 -24s27.166 -21.5 38.499 -35.5
c12.667 -15.333 22.5 -32.166 29.5 -50.499s12 -36.5 15 -54.5s4.83301 -35.167 5.5 -51.5s1 -29.833 1 -40.5v-300h-133v274c0 11.333 -0.666992 27 -2 47s-5.5 39.667 -12.5 59s-18 36.166 -33 50.499s-36.5 21.5 -64.5 21.5c-12 0 -27 -3.5 -45 -10.5
s-33.333 -19.833 -46 -38.5c-6 -8.66699 -10.5 -18.5 -13.5 -29.5s-5.33301 -22.667 -7 -35s-2.66699 -24.833 -3 -37.5s-0.5 -25 -0.5 -37v-264h-133v555z" />
    <glyph glyph-name="o" unicode="o" horiz-adv-x="640" 
d="M321 104c24 0 46.002 4.83398 66.002 14.501s37 22.5 51 38.5s24.833 34.333 32.5 55s11.5 42 11.5 64c0 25.333 -4.5 48.666 -13.5 69.999s-21 39.833 -36 55.5s-32.167 28 -51.5 37s-39.333 13.5 -60 13.5c-17.333 0 -35.5 -3.66699 -54.5 -11s-36.5 -18.333 -52.5 -33
s-29.333 -33 -40 -55s-16 -47.333 -16 -76c0 -26 4.5 -49.667 13.5 -71s21.167 -39.5 36.5 -54.5s32.666 -26.667 51.999 -35s39.666 -12.5 60.999 -12.5zM321.002 -17.999c-41.333 0 -79.999 7.83594 -115.999 23.5029s-67.333 37 -94 64s-47.667 58.333 -63 94
s-23 73.5 -23 113.5c0 42 8 81.167 24 117.5s37.5 67.666 64.5 93.999s58.333 47.166 94 62.499s73.5 23 113.5 23c39.333 0 76.666 -7.33301 111.999 -22s66.5 -35.167 93.5 -61.5s48.5 -57.5 64.5 -93.5s24 -75.333 24 -118c0 -45.333 -8.16699 -86.333 -24.5 -123
s-38 -67.834 -65 -93.501s-58.167 -45.5 -93.5 -59.5s-72.333 -21 -111 -21z" />
    <glyph glyph-name="p" unicode="p" horiz-adv-x="660" 
d="M172 278c0 -30.667 5.5 -56.999 16.5 -78.999s24.667 -40 41 -54s33.833 -24.333 52.5 -31s36 -10 52 -10c18 0 36.5 3.66699 55.5 11s36.333 18.333 52 33s28.667 32.834 39 54.501s15.5 46.834 15.5 75.501c0 25.333 -4.5 48.666 -13.5 69.999s-21 39.666 -36 54.999
s-32 27.333 -51 36s-38.833 13 -59.5 13s-40.834 -4 -60.501 -12s-37.167 -19.5 -52.5 -34.5s-27.666 -33.333 -36.999 -55s-14 -45.834 -14 -72.501zM47 555.001l122 -0.00195312v-65h2c16.667 20.667 34.167 36.834 52.5 48.501s35.833 20 52.5 25s31.667 8 45 9
s23.333 1.5 30 1.5c45.333 0 85.333 -8.83301 120 -26.5s63.667 -40.667 87 -69s41 -60 53 -95s18 -69.5 18 -103.5c0 -41.333 -7.16699 -80 -21.5 -116s-34 -67.5 -59 -94.5s-54.333 -48.333 -88 -64s-70.167 -23.5 -109.5 -23.5c-23.333 0 -43.833 2.16699 -61.5 6.5
s-33.167 9.83301 -46.5 16.5s-25 14.334 -35 23.001l-28 25v-238h-133v740z" />
    <glyph glyph-name="q" unicode="q" horiz-adv-x="660" 
d="M164 280c0 -28 4.66699 -53 14 -75s21.5 -40.5 36.5 -55.5s32.333 -26.333 52 -34s39.834 -11.5 60.501 -11.5c23.333 0 44.833 4.83301 64.5 14.5s36.5 22.5 50.5 38.5s25 34.5 33 55.5s12 42.5 12 64.5s-3.83301 43.333 -11.5 64s-18.5 39.334 -32.5 56.001
s-30.833 30 -50.5 40s-41.834 15 -66.501 15c-24 0 -45.833 -4.66699 -65.5 -14s-36.667 -22 -51 -38s-25.5 -34.333 -33.5 -55s-12 -42.334 -12 -65.001zM613 555v-740h-133v238c-16 -18 -33.167 -31.667 -51.5 -41s-35.5 -16.333 -51.5 -21s-30 -7.33398 -42 -8.00098
s-20 -1 -24 -1c-42 0 -80.167 8.5 -114.5 25.5s-63.833 39.5 -88.5 67.5s-43.667 60.167 -57 96.5s-20 73.5 -20 111.5c0 40 7.5 77.5 22.5 112.5s35.333 65.833 61 92.5s55.5 47.667 89.5 63s70 23 108 23c28 0 52.167 -3.33301 72.5 -10s37.5 -14.667 51.5 -24
s25.167 -19.166 33.5 -29.499s14.833 -18.833 19.5 -25.5h2v70h122z" />
    <glyph glyph-name="r" unicode="r" horiz-adv-x="320" 
d="M63 555l122 0.000976562v-49h2c6 8.66699 12.333 17.167 19 25.5s14.5 15.666 23.5 21.999s19.667 11.333 32 15s27.166 5.5 44.499 5.5h11v-129c-30 -1.33301 -53.333 -7.5 -70 -18.5s-28.667 -23.5 -36 -37.5s-11.666 -28.333 -12.999 -43s-2 -26 -2 -34v-312h-133v555
z" />
    <glyph glyph-name="s" unicode="s" horiz-adv-x="440" 
d="M276 404c-2 10.667 -5.33203 19.3242 -9.99902 25.9912s-9.5 11.5 -14.5 14.5s-10.167 5 -15.5 6s-9.66602 1.5 -12.999 1.5c-16.667 0 -29.334 -5.16699 -38.001 -15.5s-13 -21.166 -13 -32.499c0 -8 1.5 -14.667 4.5 -20s8.16699 -10.166 15.5 -14.499
s17 -8.66602 29 -12.999s27 -9.16602 45 -14.499c17.333 -5.33301 35.166 -11.833 53.499 -19.5s35 -17.667 50 -30s27.333 -27.833 37 -46.5s14.5 -42 14.5 -70c0 -31.333 -5.66699 -59 -17 -83s-26.166 -44.333 -44.499 -61s-39 -29.167 -62 -37.5
s-46.5 -12.5 -70.5 -12.5c-14 0 -28.5 1.33301 -43.5 4s-29.667 6.83398 -44 12.501s-28.333 13.167 -42 22.5s-25.834 20.666 -36.501 33.999c-17.333 21.333 -28.333 42.333 -33 63s-7.66699 39.667 -9 57h136c1.33301 -6 3.33301 -13.167 6 -21.5
s6.66699 -16.166 12 -23.499s12.333 -13.5 21 -18.5s20 -7.5 34 -7.5c10.667 0 19.834 1.83301 27.501 5.5s13.834 8.33398 18.501 14.001s8.16699 11.667 10.5 18s3.5 12.5 3.5 18.5c0 10 -2 18.5 -6 25.5s-10.833 13.5 -20.5 19.5s-22.5 11.833 -38.5 17.5l-60 20.5
c-16 5.33301 -31.333 12.333 -46 21s-27.834 19.5 -39.501 32.5s-21 28.167 -28 45.5s-10.5 37.333 -10.5 60c0 26.667 5.5 50.667 16.5 72s25.333 39.5 43 54.5s37.667 26.333 60 34s44.5 11.5 66.5 11.5c20.667 0 41.5 -3.66699 62.5 -11s40 -18.166 57 -32.499
s31.167 -32.166 42.5 -53.499s17.666 -45.666 18.999 -72.999h-130z" />
    <glyph glyph-name="t" unicode="t" horiz-adv-x="300" 
d="M86 437h-65v118h65v185h133v-185h80v-118h-80v-437h-133v437z" />
    <glyph glyph-name="u" unicode="u" horiz-adv-x="600" 
d="M544 555l-0.000976562 -554.999h-122v56h-2c-5.33301 -7.33301 -11.833 -15.333 -19.5 -24s-17.167 -16.667 -28.5 -24s-24.666 -13.5 -39.999 -18.5s-33.666 -7.5 -54.999 -7.5c-25.333 0 -48 2.83301 -68 8.5s-37.667 12.834 -53 21.501s-28.333 18.167 -39 28.5
s-19.334 20.166 -26.001 29.499c-10.667 14.667 -18.834 31 -24.501 49s-9.66699 35.833 -12 53.5s-3.66602 34.667 -3.99902 51s-0.5 30.166 -0.5 41.499v290h133v-283c0 -11.333 0.666992 -26.5 2 -45.5s5.5 -37.5 12.5 -55.5s18.333 -33.667 34 -47s38.167 -20 67.5 -20
c20.667 0 38.167 4.5 52.5 13.5s26 21.333 35 37s15.333 33.5 19 53.5s5.5 41 5.5 63v284h133z" />
    <glyph glyph-name="v" unicode="v" 
d="M3 555h144l134 -368h3l126 368h146l-225 -555h-104z" />
    <glyph glyph-name="w" unicode="w" horiz-adv-x="800" 
d="M11 555h142l101 -339h2l91 339h106l90 -339h2l102 339h142l-203 -555h-82l-104 360h-2l-105 -360h-82z" />
    <glyph glyph-name="x" unicode="x" 
d="M200 286l-172 269h149l102 -167l101 167h149l-172 -269l199 -286h-158l-119 190l-118 -190h-158z" />
    <glyph glyph-name="y" unicode="y" horiz-adv-x="580" 
d="M211 52l-203 503h152l126 -356l134 356h151l-319 -740h-143z" />
    <glyph glyph-name="z" unicode="z" horiz-adv-x="460" 
d="M20 122l246 311h-218v122h377v-122l-246 -311h263v-122h-422v122z" />
    <glyph glyph-name="braceleft" unicode="{" horiz-adv-x="340" 
d="M-3 332c6 0 14.5 0.670898 25.5 2.00391s21.667 4 32 8s19.5 10 27.5 18s12 19 12 33v216c0 24 5 44.667 15 62s22 31.666 36 42.999s28.5 19.666 43.5 24.999s27.833 8 38.5 8h90v-90h-45c-9.33301 0 -16.666 -2.16699 -21.999 -6.5s-9.5 -9.66602 -12.5 -15.999
s-4.83301 -13.333 -5.5 -21s-1 -14.834 -1 -21.501v-212c0 -19.333 -4.16699 -35.166 -12.5 -47.499s-18.666 -22 -30.999 -29s-25.833 -11.833 -40.5 -14.5s-28.334 -4.33398 -41.001 -5.00098v-3c12.667 -0.666992 26.334 -2.16699 41.001 -4.5s28.167 -7 40.5 -14
s22.666 -17.167 30.999 -30.5s12.5 -32 12.5 -56v-212c0 -6.66699 0.333008 -13.834 1 -21.501s2.5 -14.667 5.5 -21s7.16699 -11.666 12.5 -15.999s12.666 -6.5 21.999 -6.5h45v-90h-90c-10.667 0 -23.5 2.66699 -38.5 8s-29.5 13.666 -43.5 24.999s-26 25.666 -36 42.999
s-15 38 -15 62v216c0 16 -4 28.5 -12 37.5s-17.167 16 -27.5 21s-21 8.16699 -32 9.5s-19.5 2 -25.5 2v99z" />
    <glyph glyph-name="bar" unicode="|" horiz-adv-x="600" 
d="M366 740v-840h-133v840h133z" />
    <glyph glyph-name="braceright" unicode="}" horiz-adv-x="340" 
d="M343 233c-6 0 -14.5 -0.670898 -25.5 -2.00391s-21.667 -4.5 -32 -9.5s-19.5 -12 -27.5 -21s-12 -21.5 -12 -37.5v-216c0 -24 -5 -44.667 -15 -62s-22 -31.666 -36 -42.999s-28.5 -19.666 -43.5 -24.999s-27.833 -8 -38.5 -8h-90v90h45
c9.33301 0 16.666 2.16699 21.999 6.5s9.5 9.66602 12.5 15.999s4.83301 13.333 5.5 21s1 14.834 1 21.501v212c0 24 4.16699 42.667 12.5 56s18.666 23.5 30.999 30.5s25.833 11.667 40.5 14s28.334 3.83301 41.001 4.5v3
c-12.667 0.666992 -26.334 2.33398 -41.001 5.00098s-28.167 7.5 -40.5 14.5s-22.666 16.667 -30.999 29s-12.5 28.166 -12.5 47.499v212c0 6.66699 -0.333008 13.834 -1 21.501s-2.5 14.667 -5.5 21s-7.16699 11.666 -12.5 15.999s-12.666 6.5 -21.999 6.5h-45v90h90
c10.667 0 23.5 -2.66699 38.5 -8s29.5 -13.666 43.5 -24.999s26 -25.666 36 -42.999s15 -38 15 -62v-216c0 -14 4 -25 12 -33s17.167 -14 27.5 -18s21 -6.66699 32 -8s19.5 -2 25.5 -2v-99z" />
    <glyph glyph-name="asciitilde" unicode="~" horiz-adv-x="600" 
d="M533 249l-24.502 -32c-8.33301 -10.667 -17.5 -20.167 -27.5 -28.5s-21.167 -15 -33.5 -20s-26.166 -7.5 -41.499 -7.5c-18.667 0 -36.167 3.16699 -52.5 9.5s-32.833 14.166 -49.5 23.499c-16 9.33301 -33.333 17.5 -52 24.5s-39.667 10.5 -63 10.5
c-22 0 -39.5 -7.33301 -52.5 -22s-24.167 -30.334 -33.5 -47.001l-36 96c6 10.667 12.833 21.334 20.5 32.001s16.667 20.334 27 29.001s22 15.5 35 20.5s27.833 7.5 44.5 7.5c17.333 0 35.333 -3.16699 54 -9.5s37.667 -13.833 57 -22.5l55 -24c18 -8 33.667 -12 47 -12
c20 0 36.833 7.33301 50.5 22s26.834 30.667 39.501 48z" />
    <glyph glyph-name="exclamdown" unicode="&#xa1;" horiz-adv-x="280" 
d="M207 555v-127h-133v127h133zM207 366v-551h-133v551h133z" />
    <glyph glyph-name="cent" unicode="&#xa2;" 
d="M223 39v109c-29.333 6 -55.166 17.333 -77.499 34s-41.166 36 -56.499 58s-26.833 45.5 -34.5 70.5s-11.5 49.167 -11.5 72.5c0 26.667 4.5 52.667 13.5 78s21.5 48.333 37.5 69s35 38.334 57 53.001s46 24.667 72 30v102h126v-102
c20 -6.66699 38.5 -13.834 55.5 -21.501s34.5 -21.167 52.5 -40.5c15.333 -15.333 28.166 -32 38.499 -50s17.5 -37.333 21.5 -58h-140c-9.33301 14.667 -22.833 26 -40.5 34s-35.167 12 -52.5 12c-14.667 0 -28.5 -2.66699 -41.5 -8s-24.5 -13 -34.5 -23
s-17.833 -21.667 -23.5 -35s-8.5 -28 -8.5 -44c0 -31.333 10.5 -57.333 31.5 -78s47.167 -31 78.5 -31c21.333 0 38.166 4.16699 50.499 12.5s23.833 17.5 34.5 27.5h146c-12.667 -31.333 -26.5 -56.833 -41.5 -76.5s-30.167 -35.334 -45.5 -47.001s-30 -20.167 -44 -25.5
s-26.333 -9.66602 -37 -12.999v-109h-126z" />
    <glyph glyph-name="sterling" unicode="&#xa3;" 
d="M38 126l139.004 0.00195312c9.33301 16.667 14.833 31.334 16.5 44.001s2.5 22 2.5 28c0 27.333 -6.33301 49.833 -19 67.5s-25.334 32.834 -38.001 45.501h-141v126h56c-3.33301 8 -6.83301 18.333 -10.5 31s-5.5 29 -5.5 49c0 30 6 59.167 18 87.5
s28.5 53.666 49.5 75.999s46.167 40.333 75.5 54s61.666 20.5 96.999 20.5c38.667 0 72.667 -7.83301 102 -23.5s53.833 -34.667 73.5 -57s34.5 -45.666 44.5 -69.999s15 -44.833 15 -61.5h-135c-6 29.333 -19 51 -39 65s-40 21 -60 21c-18.667 0 -34.667 -3.66699 -48 -11
s-24.5 -16.833 -33.5 -28.5s-15.667 -24.5 -20 -38.5s-6.5 -27.667 -6.5 -41c0 -28 9.33301 -52.333 28 -73h208v-126h-109l14 -29c4 -8.66699 7.16699 -17.334 9.5 -26.001s4.16602 -18 5.49902 -28s2 -22 2 -36c0 -16.667 -1 -29.834 -3 -39.501s-4.66699 -18.5 -8 -26.5
h11c19.333 0 35.333 3.5 48 10.5s22.834 15.667 30.501 26s13.167 21.166 16.5 32.499s5 21.333 5 30c0 6 -0.666992 12.5 -2 19.5s-4 17.167 -8 30.5h133c4.66699 -9.33301 7.5 -19.833 8.5 -31.5s1.5 -18.167 1.5 -19.5c0 -20.667 -3.83301 -43.834 -11.5 -69.501
s-20.834 -50 -39.501 -73s-43.334 -42.333 -74.001 -58s-69 -23.5 -115 -23.5h-284v126z" />
    <glyph glyph-name="currency" unicode="&#xa4;" 
d="M188 323c0 -26 8.83301 -48 26.5 -66s39.5 -27 65.5 -27s47.833 9 65.5 27s26.5 40 26.5 66s-8.83301 48 -26.5 66s-39.5 27 -65.5 27s-47.833 -9 -65.5 -27s-26.5 -40 -26.5 -66zM96 208c-9.33301 15.333 -16.833 32.8359 -22.5 52.5029s-8.5 40.5 -8.5 62.5
c0 22.667 3 44 9 64s13.333 37 22 51l-69 69l69 70l69 -70c15.333 9.33301 32.833 16.833 52.5 22.5s40.5 8.5 62.5 8.5c22.667 0 43.834 -2.83301 63.501 -8.5s36.834 -13.167 51.501 -22.5l70 70l69 -70l-70 -69c9.33301 -14.667 16.833 -31.834 22.5 -51.501
s8.5 -40.834 8.5 -63.501s-2.83301 -43.834 -8.5 -63.501s-13.167 -36.5 -22.5 -50.5l70 -71l-69 -69l-70 71c-14.667 -9.33301 -31.834 -17 -51.501 -23s-40.834 -9 -63.501 -9c-22 0 -42.833 2.83301 -62.5 8.5s-37.167 13.167 -52.5 22.5l-69 -70l-69 69z" />
    <glyph glyph-name="yen" unicode="&#xa5;" 
d="M347 0h-133v189h-166v105h166v33l-32 57h-142v105h88l-138 251h137l154 -288l155 288h134l-138 -251h88v-105h-142l-31 -57v-33h164v-105h-164v-189z" />
    <glyph glyph-name="brokenbar" unicode="&#xa6;" horiz-adv-x="600" 
d="M366 236v-336h-133v336h133zM366 740v-336h-133v336h133z" />
    <glyph glyph-name="section" unicode="&#xa7;" 
d="M193 420c-3.33301 -2 -7.33203 -5.3291 -11.999 -9.99609s-9 -9.83398 -13 -15.501s-7.5 -12 -10.5 -19s-4.5 -13.833 -4.5 -20.5c0 -10 4.16699 -20 12.5 -30s23.166 -20.667 44.499 -32l155 -79c9.33301 7.33301 18.333 16.166 27 26.499s13 23.166 13 38.499
c0 16 -6.16699 28.667 -18.5 38s-25.5 17.666 -39.5 24.999zM371.001 567.004c-1.33301 5.33301 -3.16406 11.6719 -5.49707 19.0049s-6.5 14.5 -12.5 21.5s-14 13 -24 18s-23.333 7.5 -40 7.5c-15.333 0 -27.833 -1.83301 -37.5 -5.5s-17.334 -8.33398 -23.001 -14.001
s-9.66699 -11.834 -12 -18.501s-3.5 -12.667 -3.5 -18c0 -15.333 6.83301 -27.833 20.5 -37.5s27.834 -18.167 42.501 -25.5l164 -84c19.333 -10 35 -21.5 47 -34.5s21.167 -26 27.5 -39s10.5 -25.333 12.5 -37s3 -21.167 3 -28.5c0 -19.333 -6 -42 -18 -68
s-33.333 -50.333 -64 -73c11.333 -11.333 22.5 -26.333 33.5 -45s16.5 -43.667 16.5 -75c0 -28.667 -5.5 -54.5 -16.5 -77.5s-26.333 -42.667 -46 -59s-42.5 -29 -68.5 -38s-54 -13.5 -84 -13.5c-30.667 0 -59.334 4.83301 -86.001 14.5s-50.167 23.5 -70.5 41.5
s-36.5 40.167 -48.5 66.5s-18.667 56.166 -20 89.499h125v-7c0 -15.333 3.16699 -28.333 9.5 -39s14.5 -19.334 24.5 -26.001s21 -11.334 33 -14.001s23.333 -4 34 -4c24.667 0 45.667 6 63 18s26 27.667 26 47c0 18 -6.83301 31.833 -20.5 41.5
s-30.834 20.167 -51.501 31.5l-166 88c-36 19.333 -62.833 42.333 -80.5 69s-26.5 56 -26.5 88c0 22 3.5 41.333 10.5 58s15.167 30.834 24.5 42.501s19.166 21.334 29.499 29.001s18.5 13.5 24.5 17.5c-7.33301 11.333 -14 24.333 -20 39s-9 33 -9 55
c0 29.333 5.83301 54.5 17.5 75.5s27 38.333 46 52s40.5 23.667 64.5 30s48 9.5 72 9.5c31.333 0 58.166 -3.83301 80.499 -11.5s41 -17.667 56 -30s27.167 -25.833 36.5 -40.5s16.5 -28.834 21.5 -42.501s8.33301 -26.334 10 -38.001s2.83398 -20.167 3.50098 -25.5h-125z
" />
    <glyph glyph-name="dieresis" unicode="&#xa8;" horiz-adv-x="500" 
d="M289 769h133v-133h-133v133zM78 769h134v-133h-134v133z" />
    <glyph glyph-name="copyright" unicode="&#xa9;" horiz-adv-x="740" 
d="M370 666c-41.333 0 -79.832 -7.83203 -115.499 -23.499s-66.5 -37 -92.5 -64s-46.5 -58.5 -61.5 -94.5s-22.5 -74 -22.5 -114c0 -40.667 7.5 -79 22.5 -115s35.667 -67.333 62 -94s57.333 -47.834 93 -63.501s73.834 -23.5 114.501 -23.5s78.667 7.66699 114 23
s66.166 36.5 92.499 63.5s47.166 58.333 62.499 94s23 74.167 23 115.5c0 40 -7.5 78 -22.5 114s-35.5 67.5 -61.5 94.5s-56.833 48.333 -92.5 64s-74.167 23.5 -115.5 23.5zM371.001 752.001c52.667 0 102.165 -10.1689 148.498 -30.502s86.833 -47.833 121.5 -82.5
s61.834 -75.167 81.501 -121.5s29.5 -95.5 29.5 -147.5c0 -53.333 -10.167 -103.166 -30.5 -149.499s-47.666 -86.666 -81.999 -120.999s-74.666 -61.5 -120.999 -81.5s-95.5 -30 -147.5 -30c-53.333 0 -103.333 10.167 -150 30.5s-87.334 47.833 -122.001 82.5
s-61.834 75.167 -81.501 121.5s-29.5 95.5 -29.5 147.5s9.83301 101.167 29.5 147.5s46.834 86.833 81.501 121.5s75.167 62.167 121.5 82.5s96.5 30.5 150.5 30.5zM477.999 446.999c-10.667 31.333 -24.667 51.999 -42 61.999s-37.333 15 -60 15c-38 0 -68.333 -14 -91 -42
s-34 -65 -34 -111c0 -50.667 11.5 -88.834 34.5 -114.501s53.167 -38.5 90.5 -38.5c23.333 0 43.833 5 61.5 15s31.167 30.667 40.5 62h90c-2 -20 -8.16699 -39.167 -18.5 -57.5s-23.833 -34.5 -40.5 -48.5s-36.334 -25.167 -59.001 -33.5s-47.334 -12.5 -74.001 -12.5
c-32.667 0 -62.334 5.83301 -89.001 17.5s-49.334 27.667 -68.001 48s-33 44.333 -43 72s-15 57.834 -15 90.501s5 62.834 15 90.501s24.333 51.667 43 72s41.334 36.333 68.001 48s56.334 17.5 89.001 17.5c26.667 0 51.334 -4.16699 74.001 -12.5
s42.334 -19.5 59.001 -33.5s30.167 -30.167 40.5 -48.5s16.5 -37.5 18.5 -57.5h-90z" />
    <glyph glyph-name="ordfeminine" unicode="&#xaa;" horiz-adv-x="360" 
d="M248 597c0 24 -7.33203 42.166 -21.999 54.499s-30.667 18.5 -48 18.5c-11.333 0 -21.333 -2.33301 -30 -7s-15.834 -10.5 -21.501 -17.5s-10 -15 -13 -24s-4.5 -17.833 -4.5 -26.5c0 -19.333 6.5 -36.166 19.5 -50.499s29.5 -21.5 49.5 -21.5c19.333 0 35.833 7 49.5 21
s20.5 31.667 20.5 53zM334.001 447.999l-88.001 -0.00195312v25h-2c-6.66699 -10 -16.167 -18.333 -28.5 -25s-28.166 -10 -47.499 -10s-38 3.66699 -56 11s-33.833 18 -47.5 32s-24.667 30.833 -33 50.5s-12.5 41.834 -12.5 66.501c0 22.667 4 43.667 12 63
s18.833 36 32.5 50s29.5 24.833 47.5 32.5s37 11.5 57 11.5c18.667 0 34.5 -3.66699 47.5 -11s22.5 -15.666 28.5 -24.999h2v26h88v-297z" />
    <glyph glyph-name="guillemotleft" unicode="&#xab;" horiz-adv-x="460" 
d="M260 239v101l140 129v-123l-68 -57l68 -58v-123zM61 239v101l140 129v-123l-68 -57l68 -58v-123z" />
    <glyph glyph-name="logicalnot" unicode="&#xac;" horiz-adv-x="600" 
d="M432 305h-384v120h504v-317h-120v197z" />
    <glyph glyph-name="registered" unicode="&#xae;" horiz-adv-x="740" 
d="M370 666c-41.333 0 -79.832 -7.83203 -115.499 -23.499s-66.5 -37 -92.5 -64s-46.5 -58.5 -61.5 -94.5s-22.5 -74 -22.5 -114c0 -40.667 7.5 -79 22.5 -115s35.667 -67.333 62 -94s57.333 -47.834 93 -63.501s73.834 -23.5 114.501 -23.5s78.667 7.66699 114 23
s66.166 36.5 92.499 63.5s47.166 58.333 62.499 94s23 74.167 23 115.5c0 40 -7.5 78 -22.5 114s-35.5 67.5 -61.5 94.5s-56.833 48.333 -92.5 64s-74.167 23.5 -115.5 23.5zM371.001 752.001c52.667 0 102.165 -10.1689 148.498 -30.502s86.833 -47.833 121.5 -82.5
s61.834 -75.167 81.501 -121.5s29.5 -95.5 29.5 -147.5c0 -53.333 -10.167 -103.166 -30.5 -149.499s-47.666 -86.666 -81.999 -120.999s-74.666 -61.5 -120.999 -81.5s-95.5 -30 -147.5 -30c-53.333 0 -103.333 10.167 -150 30.5s-87.334 47.833 -122.001 82.5
s-61.834 75.167 -81.501 121.5s-29.5 95.5 -29.5 147.5s9.83301 101.167 29.5 147.5s46.834 86.833 81.501 121.5s75.167 62.167 121.5 82.5s96.5 30.5 150.5 30.5zM293.999 392.999l78 -0.000976562c8 0 16.833 0.333008 26.5 1s18.667 3.16699 27 7.5s15.5 11.333 21.5 21
s9 23.167 9 40.5c-2.66699 22.667 -11 36.834 -25 42.501s-30.333 8.5 -49 8.5h-88v-121zM390.999 584.998c6.66699 0 18.5039 -0.666992 35.5039 -2s34.167 -5.66602 51.5 -12.999s32.833 -19 46.5 -35s20.5 -39 20.5 -69c0 -24 -6 -45.833 -18 -65.5
s-33 -33.167 -63 -40.5v-2c14.667 -4 26.667 -9.33301 36 -16s16.666 -14.5 21.999 -23.5s9 -19.333 11 -31s3.33301 -24.5 4 -38.5c0.666992 -18.667 1.33398 -33.5 2.00098 -44.5s1.5 -20 2.5 -27s2.16699 -12.5 3.5 -16.5s3.33301 -8.33301 6 -13h-89
c-2 3.33301 -3.66699 6.83301 -5 10.5s-2.5 8.5 -3.5 14.5s-1.83301 13.333 -2.5 22s-1.33398 20 -2.00098 34c-0.666992 17.333 -2.33398 31.666 -5.00098 42.999s-6.83398 20.5 -12.501 27.5s-13.334 12.333 -23.001 16s-22.167 6.16699 -37.5 7.5h-77v-175h-87v437h184z
" />
    <glyph glyph-name="macron" unicode="&#xaf;" horiz-adv-x="420" 
d="M72 759h277v-111h-277v111z" />
    <glyph glyph-name="degree" unicode="&#xb0;" horiz-adv-x="400" 
d="M200 426c-20 0 -38.667 3.66699 -56 11s-32.5 17.5 -45.5 30.5s-23.167 28.167 -30.5 45.5s-11 36 -11 56s3.66699 38.667 11 56s17.5 32.5 30.5 45.5s28.167 23.167 45.5 30.5s36 11 56 11s38.667 -3.66699 56 -11s32.5 -17.5 45.5 -30.5s23.167 -28.167 30.5 -45.5
s11 -36 11 -56s-3.66699 -38.667 -11 -56s-17.5 -32.5 -30.5 -45.5s-28.167 -23.167 -45.5 -30.5s-36 -11 -56 -11zM200 495c19.333 0 36.002 7.5 50.002 22.5s21 32.167 21 51.5c0 9.33301 -1.83301 18.5 -5.5 27.5s-8.83398 17 -15.501 24s-14.167 12.5 -22.5 16.5
s-17.5 6 -27.5 6s-19.167 -2 -27.5 -6s-15.833 -9.5 -22.5 -16.5s-11.834 -15 -15.501 -24s-5.5 -18.167 -5.5 -27.5c0 -19.333 7 -36.5 21 -51.5s30.667 -22.5 50 -22.5z" />
    <glyph glyph-name="plusminus" unicode="&#xb1;" horiz-adv-x="600" 
d="M48 58h504v-120h-504v120zM240 556h120v-156h192v-120h-192v-150h-120v150h-192v120h192v156z" />
    <glyph glyph-name="twosuperior" unicode="&#xb2;" horiz-adv-x="336" 
d="M18 377l158.999 147c19.333 18 32.333 33 39 45s10 23.667 10 35c0 20 -6.16699 35 -18.5 45s-25.833 14.667 -40.5 14c-13.333 0 -24 -3 -32 -9s-14 -13.167 -18 -21.5s-6.33301 -17 -7 -26s-1 -16.833 -1 -23.5h-95c-0.666992 4 -1 7.16699 -1 9.5v8.5
c0 17.333 3.5 34.833 10.5 52.5s17 33.5 30 47.5s29 25.5 48 34.5s40.833 13.5 65.5 13.5c24 0 45.5 -4.16699 64.5 -12.5s35.333 -19.5 49 -33.5s24 -29.833 31 -47.5s10.5 -35.5 10.5 -53.5c0 -23.333 -6.16699 -46.833 -18.5 -70.5s-35.166 -50.167 -68.499 -79.5
l-80 -70h167v-86h-304v81z" />
    <glyph glyph-name="threesuperior" unicode="&#xb3;" horiz-adv-x="336" 
d="M133 589l22.001 -0.00195312c11.333 0 21.5 3 30.5 9s13.5 16 13.5 30c0 23.333 -11.333 35 -34 35c-6.66699 0 -11.834 -1.5 -15.501 -4.5s-6.5 -6.5 -8.5 -10.5s-3.16699 -8 -3.5 -12s-0.5 -7 -0.5 -9h-96c1.33301 28.667 8 51.167 20 67.5s25 28.5 39 36.5
c13.333 8 26.5 13 39.5 15s22.167 3 27.5 3c18 0 34.833 -3.33301 50.5 -10s29.334 -15.667 41.001 -27s20.667 -24.333 27 -39s9.5 -30 9.5 -46c0 -2.66699 -0.166992 -6.83398 -0.5 -12.501s-1.5 -12 -3.5 -19s-5.33301 -14.5 -10 -22.5s-11.334 -15.333 -20.001 -22
c14.667 -6.66699 26.5 -15.167 35.5 -25.5s15.833 -21.166 20.5 -32.499s7.66699 -22 9 -32s2 -18 2 -24c0 -23.333 -4.5 -44.166 -13.5 -62.499s-21 -34 -36 -47s-32.333 -23 -52 -30s-39.834 -10.5 -60.501 -10.5c-18.667 0 -37.167 3 -55.5 9s-34.833 15.167 -49.5 27.5
s-26.834 27.833 -36.501 46.5s-15.167 40.334 -16.5 65.001h96c0.666992 -12 3.33398 -21.833 8.00098 -29.5s10.334 -14 17.001 -19s13.5 -8.5 20.5 -10.5s13.5 -3 19.5 -3c16 0 30.5 5.5 43.5 16.5s19.5 26.5 19.5 46.5c0 8 -1.16699 16 -3.5 24s-6.5 15.167 -12.5 21.5
s-14 11.5 -24 15.5s-22.667 6 -38 6h-21v86z" />
    <glyph glyph-name="acute" unicode="&#xb4;" horiz-adv-x="420" 
d="M91 716l225 133l54 -105l-228 -120z" />
    <glyph glyph-name="mu" unicode="&#xb5;" horiz-adv-x="576" 
d="M38 555l133 0.000976562v-264c0 -32 1 -58.667 3 -80s8 -40.333 18 -57c8 -12.667 19.667 -24.167 35 -34.5s35.333 -15.5 60 -15.5c22.667 0 41.5 4.66699 56.5 14s27.167 21.666 36.5 36.999s16 33 20 53s6 40.667 6 62v285h133v-555h-133v62h-2
c-2 -6.66699 -5.83301 -14.5 -11.5 -23.5s-13.167 -17.667 -22.5 -26s-21 -15.5 -35 -21.5s-31 -9 -51 -9c-30 0 -54 5.16699 -72 15.5s-31 20.833 -39 31.5h-2v-216h-133v742z" />
    <glyph glyph-name="paragraph" unicode="&#xb6;" horiz-adv-x="600" 
d="M205 355l-13.999 0.000976562c-21.333 0 -43.5 3.16699 -66.5 9.5s-44.333 16.833 -64 31.5s-35.834 34.167 -48.501 58.5s-19 54.166 -19 89.499c0 31.333 4.5 58 13.5 80s21 40.333 36 55s31.667 26 50 34s37 14 56 18s37.167 6.5 54.5 7.5s32 1.5 44 1.5h360v-103h-79
v-740h-113v740h-97v-740h-113v458z" />
    <glyph glyph-name="periodcentered" unicode="&#xb7;" horiz-adv-x="280" 
d="M73 320h133v-133h-133v133z" />
    <glyph glyph-name="cedilla" unicode="&#xb8;" horiz-adv-x="340" 
d="M204 -1l-24 -54c3.33301 0.666992 7 1.16699 11 1.5s8.66699 0.5 14 0.5c24 0 45.5 -8.5 64.5 -25.5s28.5 -41.833 28.5 -74.5c0 -32 -9.83301 -56.333 -29.5 -73s-43.167 -25 -70.5 -25c-17.333 0 -32.333 3.16699 -45 9.5s-23 14 -31 23s-14 18.5 -18 28.5
s-6 18.667 -6 26h53c2 -11.333 7.33301 -20.333 16 -27s19 -10 31 -10c13.333 0 24.333 4.5 33 13.5s13 20.5 13 34.5c0 13.333 -4.5 25 -13.5 35s-20.167 15 -33.5 15c-7.33301 0 -15 -1.33301 -23 -4s-14.667 -8.66699 -20 -18l-49 19l49 112z" />
    <glyph glyph-name="onesuperior" unicode="&#xb9;" horiz-adv-x="336" 
d="M127 654h-55v86h151v-444h-96v358z" />
    <glyph glyph-name="ordmasculine" unicode="&#xba;" horiz-adv-x="360" 
d="M181 523c20 0 36.167 7.33203 48.5 21.999s18.5 31.334 18.5 50.001c0 22 -6.83301 40 -20.5 54s-29.167 21 -46.5 21c-7.33301 0 -15 -1.5 -23 -4.5s-15.333 -7.5 -22 -13.5s-12.167 -13.667 -16.5 -23s-6.5 -20.333 -6.5 -33c0 -21.333 7 -38.833 21 -52.5
s29.667 -20.5 47 -20.5zM181 437.999c-22 0 -42.6641 4.16797 -61.9971 12.501s-36 19.833 -50 34.5s-25.167 31.5 -33.5 50.5s-12.5 39.167 -12.5 60.5c0 22.667 4.16699 43.667 12.5 63s19.833 36.166 34.5 50.499s31.5 25.5 50.5 33.5s39.167 12 60.5 12
c20.667 0 40.5 -4 59.5 -12s35.833 -19 50.5 -33s26.167 -30.667 34.5 -50s12.5 -40.333 12.5 -63c0 -24 -4.33301 -45.833 -13 -65.5s-20.334 -36.5 -35.001 -50.5s-31.334 -24.667 -50.001 -32s-38.334 -11 -59.001 -11z" />
    <glyph glyph-name="guillemotright" unicode="&#xbb;" horiz-adv-x="460" 
d="M260 231l68 58l-68 57v123l140 -129v-101l-140 -131v123zM61 231l68 58l-68 57v123l140 -129v-101l-140 -131v123z" />
    <glyph glyph-name="onequarter" unicode="&#xbc;" horiz-adv-x="840" 
d="M147 654h-55v86h151v-444h-96v358zM607 147v159h-2l-97 -159h99zM621 444h76v-297h49v-82h-49v-65h-90v65h-198v70zM493 740h99l-307 -740h-98z" />
    <glyph glyph-name="onehalf" unicode="&#xbd;" horiz-adv-x="840" 
d="M467 81l158.999 147c19.333 18 32.333 33 39 45s10 23.667 10 35c0 20 -6.16699 35 -18.5 45s-25.833 14.667 -40.5 14c-13.333 0 -24 -3 -32 -9s-14 -13.167 -18 -21.5s-6.33301 -17 -7 -26s-1 -16.833 -1 -23.5h-95c-0.666992 4 -1 7.16699 -1 9.5v8.5
c0 17.333 3.5 34.833 10.5 52.5s17 33.5 30 47.5s29 25.5 48 34.5s40.833 13.5 65.5 13.5c24 0 45.5 -4.16699 64.5 -12.5s35.333 -19.5 49 -33.5s24 -29.833 31 -47.5s10.5 -35.5 10.5 -53.5c0 -23.333 -6.16699 -46.833 -18.5 -70.5s-35.166 -50.167 -68.499 -79.5
l-80 -70h167v-86h-304v81zM116.999 654h-55v86h151v-444h-96v358zM462.999 740h99l-307 -740h-98z" />
    <glyph glyph-name="threequarters" unicode="&#xbe;" horiz-adv-x="840" 
d="M143 589l22.001 -0.00195312c11.333 0 21.5 3 30.5 9s13.5 16 13.5 30c0 23.333 -11.333 35 -34 35c-6.66699 0 -11.834 -1.5 -15.501 -4.5s-6.5 -6.5 -8.5 -10.5s-3.16699 -8 -3.5 -12s-0.5 -7 -0.5 -9h-96c1.33301 28.667 8 51.167 20 67.5s25 28.5 39 36.5
c13.333 8 26.5 13 39.5 15s22.167 3 27.5 3c18 0 34.833 -3.33301 50.5 -10s29.334 -15.667 41.001 -27s20.667 -24.333 27 -39s9.5 -30 9.5 -46c0 -2.66699 -0.166992 -6.83398 -0.5 -12.501s-1.5 -12 -3.5 -19s-5.33301 -14.5 -10 -22.5s-11.334 -15.333 -20.001 -22
c14.667 -6.66699 26.5 -15.167 35.5 -25.5s15.833 -21.166 20.5 -32.499s7.66699 -22 9 -32s2 -18 2 -24c0 -23.333 -4.5 -44.166 -13.5 -62.499s-21 -34 -36 -47s-32.333 -23 -52 -30s-39.834 -10.5 -60.501 -10.5c-18.667 0 -37.167 3 -55.5 9s-34.833 15.167 -49.5 27.5
s-26.834 27.833 -36.501 46.5s-15.167 40.334 -16.5 65.001h96c0.666992 -12 3.33398 -21.833 8.00098 -29.5s10.334 -14 17.001 -19s13.5 -8.5 20.5 -10.5s13.5 -3 19.5 -3c16 0 30.5 5.5 43.5 16.5s19.5 26.5 19.5 46.5c0 8 -1.16699 16 -3.5 24s-6.5 15.167 -12.5 21.5
s-14 11.5 -24 15.5s-22.667 6 -38 6h-21v86zM664.001 146.998v159h-2l-97 -159h99zM678.001 443.998h76v-297h49v-82h-49v-65h-90v65h-198v70zM550.001 739.998h99l-307 -740h-98z" />
    <glyph glyph-name="questiondown" unicode="&#xbf;" 
d="M366 422h-133v133h133v-133zM366 368l-0.000976562 -29.002c0 -35.333 -6.33301 -70.333 -19 -105s-36 -66.334 -70 -95.001c-23.333 -19.333 -41.833 -37 -55.5 -53s-20.5 -35.333 -20.5 -58c0 -19.333 3.16699 -35.166 9.5 -47.499s14.333 -22 24 -29
s19.834 -11.833 30.501 -14.5s20.667 -4 30 -4c19.333 0 34.833 3.16699 46.5 9.5s20.667 14.5 27 24.5s10.833 20.667 13.5 32s4.66699 22 6 32h133c-3.33301 -38.667 -10.833 -71.167 -22.5 -97.5s-25.834 -48 -42.501 -65s-34.167 -30.167 -52.5 -39.5
s-35.5 -16.166 -51.5 -20.499s-29.667 -6.83301 -41 -7.5s-18 -1 -20 -1c-28.667 0 -56.5 5 -83.5 15s-50.833 24.833 -71.5 44.5s-37.167 43.667 -49.5 72s-18.5 60.5 -18.5 96.5c0 12 1 24.333 3 37s6.5 26.334 13.5 41.001s17.167 30.5 30.5 47.5s31.333 35.833 54 56.5
l23.5 22.5c7.66699 7.66699 14.5 16.167 20.5 25.5s10.833 20 14.5 32s5.5 26.667 5.5 44c0 5.33301 -0.166992 11.333 -0.5 18s-0.166016 12 0.500977 16h133z" />
    <glyph glyph-name="Agrave" unicode="&#xc0;" horiz-adv-x="740" 
d="M283 320h170l-84 227h-2zM315 740h107l310 -740h-151l-79 191h-265l-79 -191h-151zM267 1021l222 -135l-53 -92l-226 125z" />
    <glyph glyph-name="Aacute" unicode="&#xc1;" horiz-adv-x="740" 
d="M283 320h170l-84 227h-2zM315 740h107l310 -740h-151l-79 191h-265l-79 -191h-151zM251 886l225 133l54 -105l-228 -120z" />
    <glyph glyph-name="Acircumflex" unicode="&#xc2;" horiz-adv-x="740" 
d="M283 320h170l-84 227h-2zM315 740h107l310 -740h-151l-79 191h-265l-79 -191h-151zM319 944h105l146 -138h-145l-53 64l-56 -64h-145z" />
    <glyph glyph-name="Atilde" unicode="&#xc3;" horiz-adv-x="740" 
d="M283 320h170l-84 227h-2zM315 740h107l310 -740h-151l-79 191h-265l-79 -191h-151zM174 894c26 19.333 49.501 31.334 70.501 36.001s36.167 7 45.5 7c14.667 0 28 -1.5 40 -4.5s26 -6.83301 42 -11.5c20 -6 34.333 -9.66699 43 -11s16 -2 22 -2
c27.333 0 52.666 7.66699 75.999 23l54 -78c-15.333 -12 -31.833 -22.833 -49.5 -32.5s-39.167 -14.5 -64.5 -14.5c-6 0 -11.667 0.333008 -17 1s-11.333 1.66699 -18 3s-14.667 3.16602 -24 5.49902s-21 5.5 -35 9.5c-6.66699 2 -14 3.83301 -22 5.5s-17.667 2.5 -29 2.5
c-21.333 0 -38.5 -2.5 -51.5 -7.5s-22.5 -9.16699 -28.5 -12.5z" />
    <glyph glyph-name="Adieresis" unicode="&#xc4;" horiz-adv-x="740" 
d="M283 320h170l-84 227h-2zM315 740h107l310 -740h-151l-79 191h-265l-79 -191h-151zM409 939h133v-133h-133v133zM198 939h134v-133h-134v133z" />
    <glyph glyph-name="Aring" unicode="&#xc5;" horiz-adv-x="740" 
d="M283 320h170l-84 227h-2zM315 740h107l310 -740h-151l-79 191h-265l-79 -191h-151zM330 861c0 -11.333 3.83301 -20.833 11.5 -28.5s17.167 -11.5 28.5 -11.5s21 3.83301 29 11.5s12 17.167 12 28.5s-4 21 -12 29s-17.667 12 -29 12s-20.833 -4 -28.5 -12
s-11.5 -17.667 -11.5 -29zM263 861c0 14.667 2.83203 28.667 8.49902 42s13.334 24.833 23.001 34.5s21 17.334 34 23.001s26.833 8.5 41.5 8.5s28.667 -2.83301 42 -8.5s24.833 -13.334 34.5 -23.001s17.334 -21.167 23.001 -34.5s8.5 -27.333 8.5 -42
s-2.83301 -28.5 -8.5 -41.5s-13.5 -24.333 -23.5 -34s-21.5 -17.334 -34.5 -23.001s-26.833 -8.5 -41.5 -8.5s-28.5 2.83301 -41.5 8.5s-24.333 13.334 -34 23.001s-17.334 21 -23.001 34s-8.5 26.833 -8.5 41.5z" />
    <glyph glyph-name="AE" unicode="&#xc6;" horiz-adv-x="900" 
d="M352 319h115v195h-2zM484 740h340v-128h-220v-181h209v-128h-209v-175h220v-128h-357v191h-196l-115 -191h-161z" />
    <glyph glyph-name="Ccedilla" unicode="&#xc7;" horiz-adv-x="780" 
d="M361 -164c2 -11.333 7.32812 -20.335 15.9951 -27.002s19 -10 31 -10c13.333 0 24.333 4.5 33 13.5s13 20.5 13 34.5c0 13.333 -4.5 25 -13.5 35s-20.167 15 -33.5 15c-7.33301 0 -15 -1.33301 -23 -4s-14.667 -8.66699 -20 -18l-49 19l42 97
c-46 8 -88.667 23.5 -128 46.5s-73.5 51.5 -102.5 85.5s-51.667 72.333 -68 115s-24.5 87.667 -24.5 135c0 50.667 9.83301 99.167 29.5 145.5s46.834 87 81.501 122s75.334 62.833 122.001 83.5s96.667 31 150 31c30.667 0 62.834 -4.16699 96.501 -12.5
s66.167 -21.5 97.5 -39.5s60.5 -41.333 87.5 -70s49.5 -63.334 67.5 -104.001h-156c-26.667 30.667 -56 54.667 -88 72s-68.667 26 -110 26c-30 0 -59.5 -6.33301 -88.5 -19s-54.667 -30.5 -77 -53.5s-40.5 -50.167 -54.5 -81.5s-21 -65.333 -21 -102
c0 -34.667 6.66699 -67.667 20 -99s31.333 -58.666 54 -81.999s48.834 -42 78.501 -56s60.834 -21 93.501 -21c24.667 0 46.667 3.16699 66 9.5s36.5 14.333 51.5 24s28.167 19.834 39.5 30.501s21 20.334 29 29.001h159c-14.667 -34 -34 -64.667 -58 -92
s-51.167 -50.5 -81.5 -69.5s-62.833 -33.667 -97.5 -44s-69.667 -15.5 -105 -15.5c-5.33301 0 -9.33301 0.333008 -12 1l-18 -41c3.33301 0.666992 7 1.16699 11 1.5s8.66699 0.5 14 0.5c24 0 45.5 -8.5 64.5 -25.5s28.5 -41.833 28.5 -74.5
c0 -32 -9.83301 -56.333 -29.5 -73s-43.167 -25 -70.5 -25c-17.333 0 -32.333 3.16699 -45 9.5s-23 14 -31 23s-14 18.5 -18 28.5s-6 18.667 -6 26h53z" />
    <glyph glyph-name="Egrave" unicode="&#xc8;" horiz-adv-x="520" 
d="M61 740h398v-128h-261v-181h250v-128h-250v-175h261v-128h-398v740zM157 1021l222 -135l-53 -92l-226 125z" />
    <glyph glyph-name="Eacute" unicode="&#xc9;" horiz-adv-x="520" 
d="M61 740h398v-128h-261v-181h250v-128h-250v-175h261v-128h-398v740zM141 886l225 133l54 -105l-228 -120z" />
    <glyph glyph-name="Ecircumflex" unicode="&#xca;" horiz-adv-x="520" 
d="M61 740h398v-128h-261v-181h250v-128h-250v-175h261v-128h-398v740zM210 944h105l146 -138h-145l-53 64l-56 -64h-145z" />
    <glyph glyph-name="Edieresis" unicode="&#xcb;" horiz-adv-x="520" 
d="M61 740h398v-128h-261v-181h250v-128h-250v-175h261v-128h-398v740zM299 939h133v-133h-133v133zM88 939h134v-133h-134v133z" />
    <glyph glyph-name="Igrave" unicode="&#xcc;" horiz-adv-x="280" 
d="M72 740h137v-740h-137v740zM13 1021l222 -135l-53 -92l-226 125z" />
    <glyph glyph-name="Iacute" unicode="&#xcd;" horiz-adv-x="280" 
d="M72 740h137v-740h-137v740zM47 886l225 133l54 -105l-228 -120z" />
    <glyph glyph-name="Icircumflex" unicode="&#xce;" horiz-adv-x="280" 
d="M72 740h137v-740h-137v740zM90 944h105l146 -138h-145l-53 64l-56 -64h-145z" />
    <glyph glyph-name="Idieresis" unicode="&#xcf;" horiz-adv-x="280" 
d="M72 740h137v-740h-137v740zM180 939h133v-133h-133v133zM-31 939h134v-133h-134v133z" />
    <glyph glyph-name="Eth" unicode="&#xd0;" horiz-adv-x="742" 
d="M234 311l-0.000976562 -183h29c18.667 0 35.834 0.5 51.501 1.5s30.5 2.66699 44.5 5s27.833 5.83301 41.5 10.5s27.834 11 42.501 19c18 10 34 22.5 48 37.5s25.667 31.5 35 49.5s16.333 37 21 57s7 40 7 60c0 36 -7.16699 70 -21.5 102s-33.5 58.667 -57.5 80
c-28.667 25.333 -60.834 42 -96.501 50s-75.167 12 -118.5 12h-26v-173h137v-128h-137zM24.999 311v128.001h72v301h168c45.333 0 84.666 -2.66699 117.999 -8s62 -12.333 86 -21s44 -18 60 -28s29.333 -19.667 40 -29c17.333 -15.333 33.5 -33.333 48.5 -54
s28 -43.334 39 -68.001s19.5 -51 25.5 -79s9 -56.333 9 -85c0 -33.333 -4.16699 -66 -12.5 -98s-20.166 -62 -35.499 -90s-34 -53.333 -56 -76s-46.333 -41.334 -73 -56.001c-17.333 -9.33301 -35.833 -17.166 -55.5 -23.499s-40.167 -11.333 -61.5 -15
s-43 -6.16699 -65 -7.5s-43.333 -2 -64 -2h-171v311h-72z" />
    <glyph glyph-name="Ntilde" unicode="&#xd1;" horiz-adv-x="740" 
d="M70 740h156l306 -538h2v538h137v-740h-153l-309 538h-2v-538h-137v740zM174 894c26 19.333 49.501 31.334 70.501 36.001s36.167 7 45.5 7c14.667 0 28 -1.5 40 -4.5s26 -6.83301 42 -11.5c20 -6 34.333 -9.66699 43 -11s16 -2 22 -2c27.333 0 52.666 7.66699 75.999 23
l54 -78c-15.333 -12 -31.833 -22.833 -49.5 -32.5s-39.167 -14.5 -64.5 -14.5c-6 0 -11.667 0.333008 -17 1s-11.333 1.66699 -18 3s-14.667 3.16602 -24 5.49902s-21 5.5 -35 9.5c-6.66699 2 -14 3.83301 -22 5.5s-17.667 2.5 -29 2.5c-21.333 0 -38.5 -2.5 -51.5 -7.5
s-22.5 -9.16699 -28.5 -12.5z" />
    <glyph glyph-name="Ograve" unicode="&#xd2;" horiz-adv-x="840" 
d="M170 369c0 -34 6.33301 -66.5 19 -97.5s30.334 -58.333 53.001 -82s49.167 -42.334 79.5 -56.001s63.166 -20.5 98.499 -20.5s68.166 6.83301 98.499 20.5s56.833 32.334 79.5 56.001s40.334 51 53.001 82s19 63.5 19 97.5c0 35.333 -6.5 68.666 -19.5 99.999
s-30.833 58.666 -53.5 81.999s-49.167 41.833 -79.5 55.5s-62.833 20.5 -97.5 20.5s-67.167 -6.83301 -97.5 -20.5s-56.833 -32.167 -79.5 -55.5s-40.5 -50.666 -53.5 -81.999s-19.5 -64.666 -19.5 -99.999zM33 368c0 54.667 10.3311 105.667 30.998 153
s48.667 88.333 84 123s76.333 61.834 123 81.501s96.334 29.5 149.001 29.5s102.334 -9.83301 149.001 -29.5s87.667 -46.834 123 -81.501s63.333 -75.667 84 -123s31 -98.333 31 -153c0 -53.333 -10.167 -103.166 -30.5 -149.499s-48 -86.833 -83 -121.5s-76 -62 -123 -82
s-97.167 -30 -150.5 -30s-103.5 10 -150.5 30s-88 47.333 -123 82s-62.667 75.167 -83 121.5s-30.5 96.166 -30.5 149.499zM316.998 1021l222 -135l-53 -92l-226 125z" />
    <glyph glyph-name="Oacute" unicode="&#xd3;" horiz-adv-x="840" 
d="M170 369c0 -34 6.33301 -66.5 19 -97.5s30.334 -58.333 53.001 -82s49.167 -42.334 79.5 -56.001s63.166 -20.5 98.499 -20.5s68.166 6.83301 98.499 20.5s56.833 32.334 79.5 56.001s40.334 51 53.001 82s19 63.5 19 97.5c0 35.333 -6.5 68.666 -19.5 99.999
s-30.833 58.666 -53.5 81.999s-49.167 41.833 -79.5 55.5s-62.833 20.5 -97.5 20.5s-67.167 -6.83301 -97.5 -20.5s-56.833 -32.167 -79.5 -55.5s-40.5 -50.666 -53.5 -81.999s-19.5 -64.666 -19.5 -99.999zM33 368c0 54.667 10.3311 105.667 30.998 153
s48.667 88.333 84 123s76.333 61.834 123 81.501s96.334 29.5 149.001 29.5s102.334 -9.83301 149.001 -29.5s87.667 -46.834 123 -81.501s63.333 -75.667 84 -123s31 -98.333 31 -153c0 -53.333 -10.167 -103.166 -30.5 -149.499s-48 -86.833 -83 -121.5s-76 -62 -123 -82
s-97.167 -30 -150.5 -30s-103.5 10 -150.5 30s-88 47.333 -123 82s-62.667 75.167 -83 121.5s-30.5 96.166 -30.5 149.499zM300.998 886l225 133l54 -105l-228 -120z" />
    <glyph glyph-name="Ocircumflex" unicode="&#xd4;" horiz-adv-x="840" 
d="M170 369c0 -34 6.33301 -66.5 19 -97.5s30.334 -58.333 53.001 -82s49.167 -42.334 79.5 -56.001s63.166 -20.5 98.499 -20.5s68.166 6.83301 98.499 20.5s56.833 32.334 79.5 56.001s40.334 51 53.001 82s19 63.5 19 97.5c0 35.333 -6.5 68.666 -19.5 99.999
s-30.833 58.666 -53.5 81.999s-49.167 41.833 -79.5 55.5s-62.833 20.5 -97.5 20.5s-67.167 -6.83301 -97.5 -20.5s-56.833 -32.167 -79.5 -55.5s-40.5 -50.666 -53.5 -81.999s-19.5 -64.666 -19.5 -99.999zM33 368c0 54.667 10.3311 105.667 30.998 153
s48.667 88.333 84 123s76.333 61.834 123 81.501s96.334 29.5 149.001 29.5s102.334 -9.83301 149.001 -29.5s87.667 -46.834 123 -81.501s63.333 -75.667 84 -123s31 -98.333 31 -153c0 -53.333 -10.167 -103.166 -30.5 -149.499s-48 -86.833 -83 -121.5s-76 -62 -123 -82
s-97.167 -30 -150.5 -30s-103.5 10 -150.5 30s-88 47.333 -123 82s-62.667 75.167 -83 121.5s-30.5 96.166 -30.5 149.499zM368.998 944h105l146 -138h-145l-53 64l-56 -64h-145z" />
    <glyph glyph-name="Otilde" unicode="&#xd5;" horiz-adv-x="840" 
d="M170 369c0 -34 6.33301 -66.5 19 -97.5s30.334 -58.333 53.001 -82s49.167 -42.334 79.5 -56.001s63.166 -20.5 98.499 -20.5s68.166 6.83301 98.499 20.5s56.833 32.334 79.5 56.001s40.334 51 53.001 82s19 63.5 19 97.5c0 35.333 -6.5 68.666 -19.5 99.999
s-30.833 58.666 -53.5 81.999s-49.167 41.833 -79.5 55.5s-62.833 20.5 -97.5 20.5s-67.167 -6.83301 -97.5 -20.5s-56.833 -32.167 -79.5 -55.5s-40.5 -50.666 -53.5 -81.999s-19.5 -64.666 -19.5 -99.999zM33 368c0 54.667 10.3311 105.667 30.998 153
s48.667 88.333 84 123s76.333 61.834 123 81.501s96.334 29.5 149.001 29.5s102.334 -9.83301 149.001 -29.5s87.667 -46.834 123 -81.501s63.333 -75.667 84 -123s31 -98.333 31 -153c0 -53.333 -10.167 -103.166 -30.5 -149.499s-48 -86.833 -83 -121.5s-76 -62 -123 -82
s-97.167 -30 -150.5 -30s-103.5 10 -150.5 30s-88 47.333 -123 82s-62.667 75.167 -83 121.5s-30.5 96.166 -30.5 149.499zM223.998 894c26 19.333 49.501 31.334 70.501 36.001s36.167 7 45.5 7c14.667 0 28 -1.5 40 -4.5s26 -6.83301 42 -11.5
c20 -6 34.333 -9.66699 43 -11s16 -2 22 -2c27.333 0 52.666 7.66699 75.999 23l54 -78c-15.333 -12 -31.833 -22.833 -49.5 -32.5s-39.167 -14.5 -64.5 -14.5c-6 0 -11.667 0.333008 -17 1s-11.333 1.66699 -18 3s-14.667 3.16602 -24 5.49902s-21 5.5 -35 9.5
c-6.66699 2 -14 3.83301 -22 5.5s-17.667 2.5 -29 2.5c-21.333 0 -38.5 -2.5 -51.5 -7.5s-22.5 -9.16699 -28.5 -12.5z" />
    <glyph glyph-name="Odieresis" unicode="&#xd6;" horiz-adv-x="840" 
d="M170 369c0 -34 6.33301 -66.5 19 -97.5s30.334 -58.333 53.001 -82s49.167 -42.334 79.5 -56.001s63.166 -20.5 98.499 -20.5s68.166 6.83301 98.499 20.5s56.833 32.334 79.5 56.001s40.334 51 53.001 82s19 63.5 19 97.5c0 35.333 -6.5 68.666 -19.5 99.999
s-30.833 58.666 -53.5 81.999s-49.167 41.833 -79.5 55.5s-62.833 20.5 -97.5 20.5s-67.167 -6.83301 -97.5 -20.5s-56.833 -32.167 -79.5 -55.5s-40.5 -50.666 -53.5 -81.999s-19.5 -64.666 -19.5 -99.999zM33 368c0 54.667 10.3311 105.667 30.998 153
s48.667 88.333 84 123s76.333 61.834 123 81.501s96.334 29.5 149.001 29.5s102.334 -9.83301 149.001 -29.5s87.667 -46.834 123 -81.501s63.333 -75.667 84 -123s31 -98.333 31 -153c0 -53.333 -10.167 -103.166 -30.5 -149.499s-48 -86.833 -83 -121.5s-76 -62 -123 -82
s-97.167 -30 -150.5 -30s-103.5 10 -150.5 30s-88 47.333 -123 82s-62.667 75.167 -83 121.5s-30.5 96.166 -30.5 149.499zM458.998 939h133v-133h-133v133zM247.998 939h134v-133h-134v133z" />
    <glyph glyph-name="multiply" unicode="&#xd7;" horiz-adv-x="600" 
d="M59 412l82 82l159 -159l159 159l82 -82l-160 -159l160 -159l-82 -82l-159 160l-159 -160l-82 82l159 159z" />
    <glyph glyph-name="Oslash" unicode="&#xd8;" horiz-adv-x="840" 
d="M645 814l108.997 -75.0039l-64 -94c36 -34.667 64.5 -75.667 85.5 -123s31.5 -98.666 31.5 -153.999c0 -53.333 -10.167 -103.166 -30.5 -149.499s-48 -86.833 -83 -121.5s-76 -62 -123 -82s-97.167 -30 -150.5 -30c-28 0 -55.167 2.83301 -81.5 8.5
s-51.166 13.834 -74.499 24.501l-61 -89l-110 75l60 88c-37.333 34.667 -66.666 75.667 -87.999 123s-32 98.333 -32 153s10.333 105.667 31 153s48.667 88.333 84 123s76.333 61.834 123 81.501s96.334 29.5 149.001 29.5c58 0 112 -12 162 -36v1zM337.997 126.996
c26 -9.33301 53.333 -14 82 -14c35.333 0 68.166 6.83301 98.499 20.5s56.833 32.334 79.5 56.001s40.334 51 53.001 82s19 63.5 19 97.5c0 31.333 -5 60.666 -15 87.999s-23.667 52.333 -41 75zM506.997 610.996c-27.333 10.667 -56.332 15.998 -86.999 15.998
c-34.667 0 -67.167 -6.83301 -97.5 -20.5s-56.833 -32.167 -79.5 -55.5s-40.5 -50.666 -53.5 -81.999s-19.5 -64.666 -19.5 -99.999c0 -30.667 5.16699 -60 15.5 -88s25.166 -53.333 44.499 -76z" />
    <glyph glyph-name="Ugrave" unicode="&#xd9;" horiz-adv-x="640" 
d="M193 740l-1 -470c0 -9.33301 0.666992 -22.666 2 -39.999s6 -34.666 14 -51.999s20.667 -32.5 38 -45.5s42 -19.5 74 -19.5s56.667 6.5 74 19.5s30 28.167 38 45.5s12.667 34.666 14 51.999s2 30.666 2 39.999v470h137v-470c0 -30 -2.83301 -60.5 -8.5 -91.5
s-17.167 -58.833 -34.5 -83.5c-21.333 -30 -50.833 -55.833 -88.5 -77.5s-81.834 -32.5 -132.501 -32.5c-28 0 -53.833 3.5 -77.5 10.5s-44.667 15.833 -63 26.5s-34.166 22.167 -47.499 34.5s-24 23.833 -32 34.5c-12 16 -22.667 38.333 -32 67s-14 66 -14 112v470h138z
M182 1021l222 -135l-53 -92l-226 125z" />
    <glyph glyph-name="Uacute" unicode="&#xda;" horiz-adv-x="640" 
d="M193 740l-1 -470c0 -9.33301 0.666992 -22.666 2 -39.999s6 -34.666 14 -51.999s20.667 -32.5 38 -45.5s42 -19.5 74 -19.5s56.667 6.5 74 19.5s30 28.167 38 45.5s12.667 34.666 14 51.999s2 30.666 2 39.999v470h137v-470c0 -30 -2.83301 -60.5 -8.5 -91.5
s-17.167 -58.833 -34.5 -83.5c-21.333 -30 -50.833 -55.833 -88.5 -77.5s-81.834 -32.5 -132.501 -32.5c-28 0 -53.833 3.5 -77.5 10.5s-44.667 15.833 -63 26.5s-34.166 22.167 -47.499 34.5s-24 23.833 -32 34.5c-12 16 -22.667 38.333 -32 67s-14 66 -14 112v470h138z
M236 886l225 133l54 -105l-228 -120z" />
    <glyph glyph-name="Ucircumflex" unicode="&#xdb;" horiz-adv-x="640" 
d="M193 740l-1 -470c0 -9.33301 0.666992 -22.666 2 -39.999s6 -34.666 14 -51.999s20.667 -32.5 38 -45.5s42 -19.5 74 -19.5s56.667 6.5 74 19.5s30 28.167 38 45.5s12.667 34.666 14 51.999s2 30.666 2 39.999v470h137v-470c0 -30 -2.83301 -60.5 -8.5 -91.5
s-17.167 -58.833 -34.5 -83.5c-21.333 -30 -50.833 -55.833 -88.5 -77.5s-81.834 -32.5 -132.501 -32.5c-28 0 -53.833 3.5 -77.5 10.5s-44.667 15.833 -63 26.5s-34.166 22.167 -47.499 34.5s-24 23.833 -32 34.5c-12 16 -22.667 38.333 -32 67s-14 66 -14 112v470h138z
M269 944h105l146 -138h-145l-53 64l-56 -64h-145z" />
    <glyph glyph-name="Udieresis" unicode="&#xdc;" horiz-adv-x="640" 
d="M193 740l-1 -470c0 -9.33301 0.666992 -22.666 2 -39.999s6 -34.666 14 -51.999s20.667 -32.5 38 -45.5s42 -19.5 74 -19.5s56.667 6.5 74 19.5s30 28.167 38 45.5s12.667 34.666 14 51.999s2 30.666 2 39.999v470h137v-470c0 -30 -2.83301 -60.5 -8.5 -91.5
s-17.167 -58.833 -34.5 -83.5c-21.333 -30 -50.833 -55.833 -88.5 -77.5s-81.834 -32.5 -132.501 -32.5c-28 0 -53.833 3.5 -77.5 10.5s-44.667 15.833 -63 26.5s-34.166 22.167 -47.499 34.5s-24 23.833 -32 34.5c-12 16 -22.667 38.333 -32 67s-14 66 -14 112v470h138z
M359 939h133v-133h-133v133zM148 939h134v-133h-134v133z" />
    <glyph glyph-name="Yacute" unicode="&#xdd;" horiz-adv-x="620" 
d="M241 273l-243 467h150l161 -340l162 340h151l-244 -467v-273h-137v273zM226 886l225 133l54 -105l-228 -120z" />
    <glyph glyph-name="Thorn" unicode="&#xde;" 
d="M209 270l43.9971 -0.00195312c14.667 0 31 0.666992 49 2s34.833 5.33301 50.5 12s28.834 16.834 39.501 30.501s16 32.5 16 56.5s-5.16699 42.833 -15.5 56.5s-23.166 23.834 -38.499 30.501s-31.666 10.667 -48.999 12s-33 2 -47 2h-49v-202zM71.9971 739.998
l137 0.000976562v-140h49c20 0 39.167 -0.333008 57.5 -1s36.5 -2.66699 54.5 -6s35.667 -9.16602 53 -17.499s34.666 -19.833 51.999 -34.5c24.667 -21.333 42.5 -46.333 53.5 -75s16.5 -60.334 16.5 -95.001s-5.5 -66.334 -16.5 -95.001s-28.833 -53.667 -53.5 -75
c-17.333 -15.333 -34.666 -27 -51.999 -35s-35 -13.667 -53 -17s-36.167 -5.33301 -54.5 -6s-37.5 -1 -57.5 -1h-49v-142h-137v740z" />
    <glyph glyph-name="germandbls" unicode="&#xdf;" horiz-adv-x="600" 
d="M184 189l86 0.00195312c4 -24.667 15 -45 33 -61c17.333 -16 37 -24 59 -24c11.333 0 22.333 2.16699 33 6.5s20.334 10.833 29.001 19.5s15.5 19 20.5 31s7.5 26 7.5 42c-0.666992 26 -7.16699 46.667 -19.5 62s-27.833 26.666 -46.5 33.999s-39.334 12 -62.001 14
s-44.667 3 -66 3v118c34.667 0 60 10.5 76 31.5s24 45.5 24 73.5c0 32 -8.66699 55.667 -26 71s-37 23 -59 23c-21.333 0 -37.833 -4.83301 -49.5 -14.5s-20.5 -21.334 -26.5 -35.001s-9.66699 -28 -11 -43s-2 -27.5 -2 -37.5v-314zM51 488.002
c0 40 4.32812 74.3311 12.9951 102.998s19.834 52.834 33.501 72.501s28.834 35.5 45.501 47.5s33.334 21.333 50.001 28s32.334 11 47.001 13s26.667 3 36 3c28 0 55 -5 81 -15s49 -24.333 69 -43s35.833 -40.834 47.5 -66.501s17.5 -54.167 17.5 -85.5
c0 -27.333 -5.16699 -53.5 -15.5 -78.5s-27.166 -44.167 -50.499 -57.5c36.667 -9.33301 65.667 -22.5 87 -39.5s37.333 -35.167 48 -54.5s17.5 -38.166 20.5 -56.499s4.5 -33.166 4.5 -44.499c0 -32 -4.66699 -62.167 -14 -90.5s-23.333 -53 -42 -74s-42 -37.5 -70 -49.5
s-60.333 -18 -97 -18c-10 0 -22.833 0.5 -38.5 1.5s-32.167 4.33301 -49.5 10s-34.833 14.667 -52.5 27s-33.167 29.833 -46.5 52.5h-2v-73h-122v488z" />
    <glyph glyph-name="agrave" unicode="&#xe0;" horiz-adv-x="660" 
d="M487 279c0 28.667 -4.66699 53.835 -14 75.502s-21.666 39.667 -36.999 54s-32.666 25.166 -51.999 32.499s-39 11 -59 11c-27.333 0 -51.333 -5.33301 -72 -16s-37.834 -24.5 -51.501 -41.5s-24 -36 -31 -57s-10.5 -41.833 -10.5 -62.5
c0 -23.333 4.16699 -45.5 12.5 -66.5s19.833 -39.167 34.5 -54.5s32 -27.5 52 -36.5s42 -13.5 66 -13.5c22.667 0 44 4.33301 64 13s37.167 20.667 51.5 36s25.666 33.666 33.999 54.999s12.5 45 12.5 71zM613 0.000976562l-122.002 0.000976562v69
c-10.667 -12.667 -23.5 -24.334 -38.5 -35.001s-31 -19.834 -48 -27.501s-34.833 -13.667 -53.5 -18s-36.667 -6.5 -54 -6.5c-36 0 -70.167 6.83301 -102.5 20.5s-61 33.5 -86 59.5s-44.833 57.5 -59.5 94.5s-22 78.5 -22 124.5c0 42.667 7.33301 81.834 22 117.501
s34.5 66.5 59.5 92.5s54.333 46.333 88 61s69.834 22 108.501 22c28 0 53.167 -4.33301 75.5 -13s41.333 -18.167 57 -28.5s27.834 -20.333 36.501 -30s13.667 -15.5 15 -17.5h2v70h122v-555zM226.998 851.002l222 -135l-53 -92l-226 125z" />
    <glyph glyph-name="aacute" unicode="&#xe1;" horiz-adv-x="660" 
d="M487 279c0 28.667 -4.66699 53.835 -14 75.502s-21.666 39.667 -36.999 54s-32.666 25.166 -51.999 32.499s-39 11 -59 11c-27.333 0 -51.333 -5.33301 -72 -16s-37.834 -24.5 -51.501 -41.5s-24 -36 -31 -57s-10.5 -41.833 -10.5 -62.5
c0 -23.333 4.16699 -45.5 12.5 -66.5s19.833 -39.167 34.5 -54.5s32 -27.5 52 -36.5s42 -13.5 66 -13.5c22.667 0 44 4.33301 64 13s37.167 20.667 51.5 36s25.666 33.666 33.999 54.999s12.5 45 12.5 71zM613 0.000976562l-122.002 0.000976562v69
c-10.667 -12.667 -23.5 -24.334 -38.5 -35.001s-31 -19.834 -48 -27.501s-34.833 -13.667 -53.5 -18s-36.667 -6.5 -54 -6.5c-36 0 -70.167 6.83301 -102.5 20.5s-61 33.5 -86 59.5s-44.833 57.5 -59.5 94.5s-22 78.5 -22 124.5c0 42.667 7.33301 81.834 22 117.501
s34.5 66.5 59.5 92.5s54.333 46.333 88 61s69.834 22 108.501 22c28 0 53.167 -4.33301 75.5 -13s41.333 -18.167 57 -28.5s27.834 -20.333 36.501 -30s13.667 -15.5 15 -17.5h2v70h122v-555zM210.998 716.002l225 133l54 -105l-228 -120z" />
    <glyph glyph-name="acircumflex" unicode="&#xe2;" horiz-adv-x="660" 
d="M487 279c0 28.667 -4.66699 53.835 -14 75.502s-21.666 39.667 -36.999 54s-32.666 25.166 -51.999 32.499s-39 11 -59 11c-27.333 0 -51.333 -5.33301 -72 -16s-37.834 -24.5 -51.501 -41.5s-24 -36 -31 -57s-10.5 -41.833 -10.5 -62.5
c0 -23.333 4.16699 -45.5 12.5 -66.5s19.833 -39.167 34.5 -54.5s32 -27.5 52 -36.5s42 -13.5 66 -13.5c22.667 0 44 4.33301 64 13s37.167 20.667 51.5 36s25.666 33.666 33.999 54.999s12.5 45 12.5 71zM613 0.000976562l-122.002 0.000976562v69
c-10.667 -12.667 -23.5 -24.334 -38.5 -35.001s-31 -19.834 -48 -27.501s-34.833 -13.667 -53.5 -18s-36.667 -6.5 -54 -6.5c-36 0 -70.167 6.83301 -102.5 20.5s-61 33.5 -86 59.5s-44.833 57.5 -59.5 94.5s-22 78.5 -22 124.5c0 42.667 7.33301 81.834 22 117.501
s34.5 66.5 59.5 92.5s54.333 46.333 88 61s69.834 22 108.501 22c28 0 53.167 -4.33301 75.5 -13s41.333 -18.167 57 -28.5s27.834 -20.333 36.501 -30s13.667 -15.5 15 -17.5h2v70h122v-555zM278.998 774.002h105l146 -138h-145l-53 64l-56 -64h-145z" />
    <glyph glyph-name="atilde" unicode="&#xe3;" horiz-adv-x="660" 
d="M487 279c0 28.667 -4.66699 53.835 -14 75.502s-21.666 39.667 -36.999 54s-32.666 25.166 -51.999 32.499s-39 11 -59 11c-27.333 0 -51.333 -5.33301 -72 -16s-37.834 -24.5 -51.501 -41.5s-24 -36 -31 -57s-10.5 -41.833 -10.5 -62.5
c0 -23.333 4.16699 -45.5 12.5 -66.5s19.833 -39.167 34.5 -54.5s32 -27.5 52 -36.5s42 -13.5 66 -13.5c22.667 0 44 4.33301 64 13s37.167 20.667 51.5 36s25.666 33.666 33.999 54.999s12.5 45 12.5 71zM613 0.000976562l-122.002 0.000976562v69
c-10.667 -12.667 -23.5 -24.334 -38.5 -35.001s-31 -19.834 -48 -27.501s-34.833 -13.667 -53.5 -18s-36.667 -6.5 -54 -6.5c-36 0 -70.167 6.83301 -102.5 20.5s-61 33.5 -86 59.5s-44.833 57.5 -59.5 94.5s-22 78.5 -22 124.5c0 42.667 7.33301 81.834 22 117.501
s34.5 66.5 59.5 92.5s54.333 46.333 88 61s69.834 22 108.501 22c28 0 53.167 -4.33301 75.5 -13s41.333 -18.167 57 -28.5s27.834 -20.333 36.501 -30s13.667 -15.5 15 -17.5h2v70h122v-555zM133.998 724.002c26 19.333 49.501 31.334 70.501 36.001s36.167 7 45.5 7
c14.667 0 28 -1.5 40 -4.5s26 -6.83301 42 -11.5c20 -6 34.333 -9.66699 43 -11s16 -2 22 -2c27.333 0 52.666 7.66699 75.999 23l54 -78c-15.333 -12 -31.833 -22.833 -49.5 -32.5s-39.167 -14.5 -64.5 -14.5c-6 0 -11.667 0.333008 -17 1s-11.333 1.66699 -18 3
s-14.667 3.16602 -24 5.49902s-21 5.5 -35 9.5c-6.66699 2 -14 3.83301 -22 5.5s-17.667 2.5 -29 2.5c-21.333 0 -38.5 -2.5 -51.5 -7.5s-22.5 -9.16699 -28.5 -12.5z" />
    <glyph glyph-name="adieresis" unicode="&#xe4;" horiz-adv-x="660" 
d="M487 279c0 28.667 -4.66699 53.835 -14 75.502s-21.666 39.667 -36.999 54s-32.666 25.166 -51.999 32.499s-39 11 -59 11c-27.333 0 -51.333 -5.33301 -72 -16s-37.834 -24.5 -51.501 -41.5s-24 -36 -31 -57s-10.5 -41.833 -10.5 -62.5
c0 -23.333 4.16699 -45.5 12.5 -66.5s19.833 -39.167 34.5 -54.5s32 -27.5 52 -36.5s42 -13.5 66 -13.5c22.667 0 44 4.33301 64 13s37.167 20.667 51.5 36s25.666 33.666 33.999 54.999s12.5 45 12.5 71zM613 0.000976562l-122.002 0.000976562v69
c-10.667 -12.667 -23.5 -24.334 -38.5 -35.001s-31 -19.834 -48 -27.501s-34.833 -13.667 -53.5 -18s-36.667 -6.5 -54 -6.5c-36 0 -70.167 6.83301 -102.5 20.5s-61 33.5 -86 59.5s-44.833 57.5 -59.5 94.5s-22 78.5 -22 124.5c0 42.667 7.33301 81.834 22 117.501
s34.5 66.5 59.5 92.5s54.333 46.333 88 61s69.834 22 108.501 22c28 0 53.167 -4.33301 75.5 -13s41.333 -18.167 57 -28.5s27.834 -20.333 36.501 -30s13.667 -15.5 15 -17.5h2v70h122v-555zM368.998 769.002h133v-133h-133v133zM157.998 769.002h134v-133h-134v133z" />
    <glyph glyph-name="aring" unicode="&#xe5;" horiz-adv-x="660" 
d="M487 279c0 28.667 -4.66699 53.835 -14 75.502s-21.666 39.667 -36.999 54s-32.666 25.166 -51.999 32.499s-39 11 -59 11c-27.333 0 -51.333 -5.33301 -72 -16s-37.834 -24.5 -51.501 -41.5s-24 -36 -31 -57s-10.5 -41.833 -10.5 -62.5
c0 -23.333 4.16699 -45.5 12.5 -66.5s19.833 -39.167 34.5 -54.5s32 -27.5 52 -36.5s42 -13.5 66 -13.5c22.667 0 44 4.33301 64 13s37.167 20.667 51.5 36s25.666 33.666 33.999 54.999s12.5 45 12.5 71zM613 0.000976562l-122.002 0.000976562v69
c-10.667 -12.667 -23.5 -24.334 -38.5 -35.001s-31 -19.834 -48 -27.501s-34.833 -13.667 -53.5 -18s-36.667 -6.5 -54 -6.5c-36 0 -70.167 6.83301 -102.5 20.5s-61 33.5 -86 59.5s-44.833 57.5 -59.5 94.5s-22 78.5 -22 124.5c0 42.667 7.33301 81.834 22 117.501
s34.5 66.5 59.5 92.5s54.333 46.333 88 61s69.834 22 108.501 22c28 0 53.167 -4.33301 75.5 -13s41.333 -18.167 57 -28.5s27.834 -20.333 36.501 -30s13.667 -15.5 15 -17.5h2v70h122v-555zM289.998 726.002c0 -11.333 3.83301 -20.833 11.5 -28.5
s17.167 -11.5 28.5 -11.5s21 3.83301 29 11.5s12 17.167 12 28.5s-4 21 -12 29s-17.667 12 -29 12s-20.833 -4 -28.5 -12s-11.5 -17.667 -11.5 -29zM222.998 726.002c0 14.667 2.83203 28.667 8.49902 42s13.334 24.833 23.001 34.5s21 17.334 34 23.001
s26.833 8.5 41.5 8.5s28.667 -2.83301 42 -8.5s24.833 -13.334 34.5 -23.001s17.334 -21.167 23.001 -34.5s8.5 -27.333 8.5 -42s-2.83301 -28.5 -8.5 -41.5s-13.5 -24.333 -23.5 -34s-21.5 -17.334 -34.5 -23.001s-26.833 -8.5 -41.5 -8.5s-28.5 2.83301 -41.5 8.5
s-24.333 13.334 -34 23.001s-17.334 21 -23.001 34s-8.5 26.833 -8.5 41.5z" />
    <glyph glyph-name="ae" unicode="&#xe6;" horiz-adv-x="1080" 
d="M915 325c-1.33301 6.66699 -4.33398 16.999 -9.00098 30.999s-12.5 28 -23.5 42s-26 26.333 -45 37s-43.167 16.334 -72.5 17.001c-39.333 0.666992 -73.166 -10.833 -101.499 -34.5s-46.833 -54.5 -55.5 -92.5h307zM161.999 275.999
c0 -21.333 3.83105 -42.167 11.498 -62.5s18.334 -38.666 32.001 -54.999s30.334 -29.5 50.001 -39.5s41.5 -15 65.5 -15c21.333 0 41.666 4.5 60.999 13.5s36.333 21.167 51 36.5s26.334 33.666 35.001 54.999s13 44.333 13 69c0 26 -4.5 49.833 -13.5 71.5s-21 40 -36 55
s-32 26.667 -51 35s-38.5 12.5 -58.5 12.5c-18 0 -36.5 -3.66699 -55.5 -11s-36.167 -18.333 -51.5 -33s-28 -33 -38 -55s-15 -47.667 -15 -77zM1033 174.998c-5.33301 -18 -15.4941 -38.1709 -30.4941 -60.5039s-33.833 -43.333 -56.5 -63s-48.834 -36.167 -78.501 -49.5
s-61.834 -20 -96.501 -20c-39.333 0 -71.833 6.5 -97.5 19.5s-47.167 31.167 -64.5 54.5h-2v-56h-122v56h-2c-4 -5.33301 -9.83301 -12.166 -17.5 -20.499s-18.167 -16.5 -31.5 -24.5s-29.833 -14.833 -49.5 -20.5s-43.5 -8.5 -71.5 -8.5c-39.333 0 -76.166 8 -110.499 24
s-64.333 37.5 -90 64.5s-46 58.333 -61 94s-22.5 73.167 -22.5 112.5c0 42 7.83301 81.167 23.5 117.5s36.667 67.833 63 94.5s56.666 47.5 90.999 62.5s70.5 22.5 108.5 22.5c25.333 0 47 -2.33301 65 -7s33.667 -10.334 47 -17.001s24.5 -14.167 33.5 -22.5l24.5 -22.5v50
h122v-50c21.333 22.667 45.166 39.834 71.499 51.501s59.166 17.5 98.499 17.5c33.333 0 66.166 -7.66699 98.499 -23s61.333 -36.166 87 -62.499s46.334 -57 62.001 -92s23.5 -72.167 23.5 -111.5c0 -13.333 -0.166992 -25 -0.5 -35s-1.5 -20.667 -3.5 -32h-432
c4.66699 -19.333 12.667 -36.166 24 -50.499s24 -26.166 38 -35.499s28.667 -16.333 44 -21s29.666 -7 42.999 -7c20.667 0 38.5 2.5 53.5 7.5s27.833 11 38.5 18s19.167 14.667 25.5 23s11.166 15.833 14.499 22.5h140z" />
    <glyph glyph-name="ccedilla" unicode="&#xe7;" horiz-adv-x="640" 
d="M283 -164c2 -11.333 7.33691 -20.3301 16.0039 -26.9971s19 -10 31 -10c13.333 0 24.333 4.5 33 13.5s13 20.5 13 34.5c0 13.333 -4.5 25 -13.5 35s-20.167 15 -33.5 15c-7.33301 0 -15 -1.33301 -23 -4s-14.667 -8.66699 -20 -18l-49 19l41 94
c-31.333 6 -61.333 17 -90 33s-54.334 36.5 -77.001 61.5s-40.667 54.167 -54 87.5s-20 70 -20 110c0 42.667 8.16699 82 24.5 118s38 67 65 93s58.333 46.333 94 61s72.5 22 110.5 22c17.333 0 39 -2.5 65 -7.5s52.5 -14.833 79.5 -29.5s52.667 -35.334 77 -62.001
s43.5 -61.334 57.5 -104.001h-150c-4 6.66699 -9.16699 14.667 -15.5 24s-14.5 18.333 -24.5 27s-22.167 15.834 -36.5 21.501s-31.833 8.5 -52.5 8.5c-20 0 -39.667 -3.66699 -59 -11s-36.5 -18.333 -51.5 -33s-27.167 -32.834 -36.5 -54.501s-14 -46.834 -14 -75.501
c0 -24 4 -46.5 12 -67.5s19.333 -39.333 34 -55s32.167 -28.167 52.5 -37.5s43.166 -14 68.499 -14c22 0 43.667 5.83301 65 17.5s40.666 31.5 57.999 59.5h150c-22.667 -62.667 -58.334 -111.5 -107.001 -146.5s-105.667 -52.5 -171 -52.5h-3l-17 -37
c3.33301 0.666992 7 1.16699 11 1.5s8.66699 0.5 14 0.5c24 0 45.5 -8.5 64.5 -25.5s28.5 -41.833 28.5 -74.5c0 -32 -9.83301 -56.333 -29.5 -73s-43.167 -25 -70.5 -25c-17.333 0 -32.333 3.16699 -45 9.5s-23 14 -31 23s-14 18.5 -18 28.5s-6 18.667 -6 26h53z" />
    <glyph glyph-name="egrave" unicode="&#xe8;" horiz-adv-x="640" 
d="M474 325c-4 22 -10.832 41.168 -20.499 57.501s-21.334 29.833 -35.001 40.5s-28.667 18.667 -45 24s-32.833 8 -49.5 8c-12 0 -25.833 -2 -41.5 -6s-31 -10.833 -46 -20.5s-28.833 -22.834 -41.5 -39.501s-22 -38 -28 -64h307zM171.001 218.001
c1.33301 -9.33301 5.66602 -20.502 12.999 -33.502s17.333 -25.5 30 -37.5s28.167 -22.167 46.5 -30.5s39.5 -12.5 63.5 -12.5c59.333 0 102 23.667 128 71h140c-8 -25.333 -20.333 -49.5 -37 -72.5s-36.667 -43.5 -60 -61.5s-49.5 -32.333 -78.5 -43s-59.833 -16 -92.5 -16
c-41.333 0 -79.833 7.66699 -115.5 23s-66.667 36.333 -93 63s-47 57.834 -62 93.501s-22.5 73.834 -22.5 114.501c0 39.333 7.16699 77.166 21.5 113.499s34.5 68.333 60.5 96s56.833 49.834 92.5 66.501s74.834 25 117.501 25c44 0 83.667 -8.66699 119 -26
s65.5 -39.833 90.5 -67.5s44.167 -59 57.5 -94s20 -69.833 20 -104.5c0 -13.333 -0.833008 -25.5 -2.5 -36.5s-3.5 -21.167 -5.5 -30.5h-431zM217.001 850.999l222 -135l-53 -92l-226 125z" />
    <glyph glyph-name="eacute" unicode="&#xe9;" horiz-adv-x="640" 
d="M474 325c-4 22 -10.832 41.168 -20.499 57.501s-21.334 29.833 -35.001 40.5s-28.667 18.667 -45 24s-32.833 8 -49.5 8c-12 0 -25.833 -2 -41.5 -6s-31 -10.833 -46 -20.5s-28.833 -22.834 -41.5 -39.501s-22 -38 -28 -64h307zM171.001 218.001
c1.33301 -9.33301 5.66602 -20.502 12.999 -33.502s17.333 -25.5 30 -37.5s28.167 -22.167 46.5 -30.5s39.5 -12.5 63.5 -12.5c59.333 0 102 23.667 128 71h140c-8 -25.333 -20.333 -49.5 -37 -72.5s-36.667 -43.5 -60 -61.5s-49.5 -32.333 -78.5 -43s-59.833 -16 -92.5 -16
c-41.333 0 -79.833 7.66699 -115.5 23s-66.667 36.333 -93 63s-47 57.834 -62 93.501s-22.5 73.834 -22.5 114.501c0 39.333 7.16699 77.166 21.5 113.499s34.5 68.333 60.5 96s56.833 49.834 92.5 66.501s74.834 25 117.501 25c44 0 83.667 -8.66699 119 -26
s65.5 -39.833 90.5 -67.5s44.167 -59 57.5 -94s20 -69.833 20 -104.5c0 -13.333 -0.833008 -25.5 -2.5 -36.5s-3.5 -21.167 -5.5 -30.5h-431zM201.001 715.999l225 133l54 -105l-228 -120z" />
    <glyph glyph-name="ecircumflex" unicode="&#xea;" horiz-adv-x="640" 
d="M474 325c-4 22 -10.832 41.168 -20.499 57.501s-21.334 29.833 -35.001 40.5s-28.667 18.667 -45 24s-32.833 8 -49.5 8c-12 0 -25.833 -2 -41.5 -6s-31 -10.833 -46 -20.5s-28.833 -22.834 -41.5 -39.501s-22 -38 -28 -64h307zM171.001 218.001
c1.33301 -9.33301 5.66602 -20.502 12.999 -33.502s17.333 -25.5 30 -37.5s28.167 -22.167 46.5 -30.5s39.5 -12.5 63.5 -12.5c59.333 0 102 23.667 128 71h140c-8 -25.333 -20.333 -49.5 -37 -72.5s-36.667 -43.5 -60 -61.5s-49.5 -32.333 -78.5 -43s-59.833 -16 -92.5 -16
c-41.333 0 -79.833 7.66699 -115.5 23s-66.667 36.333 -93 63s-47 57.834 -62 93.501s-22.5 73.834 -22.5 114.501c0 39.333 7.16699 77.166 21.5 113.499s34.5 68.333 60.5 96s56.833 49.834 92.5 66.501s74.834 25 117.501 25c44 0 83.667 -8.66699 119 -26
s65.5 -39.833 90.5 -67.5s44.167 -59 57.5 -94s20 -69.833 20 -104.5c0 -13.333 -0.833008 -25.5 -2.5 -36.5s-3.5 -21.167 -5.5 -30.5h-431zM269.001 773.999h105l146 -138h-145l-53 64l-56 -64h-145z" />
    <glyph glyph-name="edieresis" unicode="&#xeb;" horiz-adv-x="640" 
d="M474 325c-4 22 -10.832 41.168 -20.499 57.501s-21.334 29.833 -35.001 40.5s-28.667 18.667 -45 24s-32.833 8 -49.5 8c-12 0 -25.833 -2 -41.5 -6s-31 -10.833 -46 -20.5s-28.833 -22.834 -41.5 -39.501s-22 -38 -28 -64h307zM171.001 218.001
c1.33301 -9.33301 5.66602 -20.502 12.999 -33.502s17.333 -25.5 30 -37.5s28.167 -22.167 46.5 -30.5s39.5 -12.5 63.5 -12.5c59.333 0 102 23.667 128 71h140c-8 -25.333 -20.333 -49.5 -37 -72.5s-36.667 -43.5 -60 -61.5s-49.5 -32.333 -78.5 -43s-59.833 -16 -92.5 -16
c-41.333 0 -79.833 7.66699 -115.5 23s-66.667 36.333 -93 63s-47 57.834 -62 93.501s-22.5 73.834 -22.5 114.501c0 39.333 7.16699 77.166 21.5 113.499s34.5 68.333 60.5 96s56.833 49.834 92.5 66.501s74.834 25 117.501 25c44 0 83.667 -8.66699 119 -26
s65.5 -39.833 90.5 -67.5s44.167 -59 57.5 -94s20 -69.833 20 -104.5c0 -13.333 -0.833008 -25.5 -2.5 -36.5s-3.5 -21.167 -5.5 -30.5h-431zM359.001 768.999h133v-133h-133v133zM148.001 768.999h134v-133h-134v133z" />
    <glyph glyph-name="igrave" unicode="&#xec;" horiz-adv-x="240" 
d="M53 555h133v-555h-133v555zM-7 851l222 -135l-53 -92l-226 125z" />
    <glyph glyph-name="iacute" unicode="&#xed;" horiz-adv-x="240" 
d="M53 555h133v-555h-133v555zM27 716l225 133l54 -105l-228 -120z" />
    <glyph glyph-name="icircumflex" unicode="&#xee;" horiz-adv-x="240" 
d="M53 555h133v-555h-133v555zM70 774h105l146 -138h-145l-53 64l-56 -64h-145z" />
    <glyph glyph-name="idieresis" unicode="&#xef;" horiz-adv-x="240" 
d="M53 555h133v-555h-133v555zM160 769h133v-133h-133v133zM-51 769h134v-133h-134v133z" />
    <glyph glyph-name="eth" unicode="&#xf0;" horiz-adv-x="640" 
d="M160 572l-86.001 55.999l144 44c-32 15.333 -67.333 29 -106 41l150 41c12.667 -3.33301 26.667 -8.33301 42 -15s31.666 -15 48.999 -25l131 40l86 -60l-132 -39c23.333 -19.333 45.666 -41.5 66.999 -66.5s40.333 -52.5 57 -82.5s29.834 -62.5 39.501 -97.5
s14.5 -72.833 14.5 -113.5c0 -50.667 -8.16699 -95.5 -24.5 -134.5s-38.166 -71.667 -65.499 -98s-58.666 -46.333 -93.999 -60s-71.666 -20.5 -108.999 -20.5c-41.333 0 -80 7.83301 -116 23.5s-67.333 37 -94 64s-47.667 58.333 -63 94s-23 73.5 -23 113.5
c0 42 8 81.167 24 117.5s37.5 67.833 64.5 94.5s58.333 47.5 94 62.5s73.5 22.167 113.5 21.5c21.333 0 38.666 -3.66699 51.999 -11l2 2c-9.33301 9.33301 -19.333 18.333 -30 27s-22.667 17.334 -36 26.001zM323.999 451.999c-17.333 0 -35.665 -3.66602 -54.998 -10.999
s-37 -18.333 -53 -33s-29.333 -33 -40 -55s-16 -47.333 -16 -76c0 -26 4.5 -49.667 13.5 -71s21.167 -39.5 36.5 -54.5s32.666 -26.667 51.999 -35s39.666 -12.5 60.999 -12.5c24 0 46 4.83301 66 14.5s37 22.5 51 38.5s24.833 34.333 32.5 55s11.5 42 11.5 64
c0 25.333 -4.5 48.666 -13.5 69.999s-21 39.833 -36 55.5s-32 28 -51 37s-38.833 13.5 -59.5 13.5z" />
    <glyph glyph-name="ntilde" unicode="&#xf1;" horiz-adv-x="600" 
d="M54 555h123.003v-48c5.33301 5.33301 12.333 11.833 21 19.5s19.167 15 31.5 22s26.666 13 42.999 18s35.166 7.5 56.499 7.5c12 0 25.333 -1.33301 40 -4s29.5 -7.16699 44.5 -13.5s29.667 -14.333 44 -24s27.166 -21.5 38.499 -35.5
c12.667 -15.333 22.5 -32.166 29.5 -50.499s12 -36.5 15 -54.5s4.83301 -35.167 5.5 -51.5s1 -29.833 1 -40.5v-300h-133v274c0 11.333 -0.666992 27 -2 47s-5.5 39.667 -12.5 59s-18 36.166 -33 50.499s-36.5 21.5 -64.5 21.5c-12 0 -27 -3.5 -45 -10.5
s-33.333 -19.833 -46 -38.5c-6 -8.66699 -10.5 -18.5 -13.5 -29.5s-5.33301 -22.667 -7 -35s-2.66699 -24.833 -3 -37.5s-0.5 -25 -0.5 -37v-264h-133v555zM104.003 724c26 19.333 49.501 31.334 70.501 36.001s36.167 7 45.5 7c14.667 0 28 -1.5 40 -4.5
s26 -6.83301 42 -11.5c20 -6 34.333 -9.66699 43 -11s16 -2 22 -2c27.333 0 52.666 7.66699 75.999 23l54 -78c-15.333 -12 -31.833 -22.833 -49.5 -32.5s-39.167 -14.5 -64.5 -14.5c-6 0 -11.667 0.333008 -17 1s-11.333 1.66699 -18 3s-14.667 3.16602 -24 5.49902
s-21 5.5 -35 9.5c-6.66699 2 -14 3.83301 -22 5.5s-17.667 2.5 -29 2.5c-21.333 0 -38.5 -2.5 -51.5 -7.5s-22.5 -9.16699 -28.5 -12.5z" />
    <glyph glyph-name="ograve" unicode="&#xf2;" horiz-adv-x="640" 
d="M321 104c24 0 46.002 4.83398 66.002 14.501s37 22.5 51 38.5s24.833 34.333 32.5 55s11.5 42 11.5 64c0 25.333 -4.5 48.666 -13.5 69.999s-21 39.833 -36 55.5s-32.167 28 -51.5 37s-39.333 13.5 -60 13.5c-17.333 0 -35.5 -3.66699 -54.5 -11s-36.5 -18.333 -52.5 -33
s-29.333 -33 -40 -55s-16 -47.333 -16 -76c0 -26 4.5 -49.667 13.5 -71s21.167 -39.5 36.5 -54.5s32.666 -26.667 51.999 -35s39.666 -12.5 60.999 -12.5zM321.002 -17.999c-41.333 0 -79.999 7.83594 -115.999 23.5029s-67.333 37 -94 64s-47.667 58.333 -63 94
s-23 73.5 -23 113.5c0 42 8 81.167 24 117.5s37.5 67.666 64.5 93.999s58.333 47.166 94 62.499s73.5 23 113.5 23c39.333 0 76.666 -7.33301 111.999 -22s66.5 -35.167 93.5 -61.5s48.5 -57.5 64.5 -93.5s24 -75.333 24 -118c0 -45.333 -8.16699 -86.333 -24.5 -123
s-38 -67.834 -65 -93.501s-58.167 -45.5 -93.5 -59.5s-72.333 -21 -111 -21zM217.003 851.004l222 -135l-53 -92l-226 125z" />
    <glyph glyph-name="oacute" unicode="&#xf3;" horiz-adv-x="640" 
d="M321 104c24 0 46.002 4.83398 66.002 14.501s37 22.5 51 38.5s24.833 34.333 32.5 55s11.5 42 11.5 64c0 25.333 -4.5 48.666 -13.5 69.999s-21 39.833 -36 55.5s-32.167 28 -51.5 37s-39.333 13.5 -60 13.5c-17.333 0 -35.5 -3.66699 -54.5 -11s-36.5 -18.333 -52.5 -33
s-29.333 -33 -40 -55s-16 -47.333 -16 -76c0 -26 4.5 -49.667 13.5 -71s21.167 -39.5 36.5 -54.5s32.666 -26.667 51.999 -35s39.666 -12.5 60.999 -12.5zM321.002 -17.999c-41.333 0 -79.999 7.83594 -115.999 23.5029s-67.333 37 -94 64s-47.667 58.333 -63 94
s-23 73.5 -23 113.5c0 42 8 81.167 24 117.5s37.5 67.666 64.5 93.999s58.333 47.166 94 62.499s73.5 23 113.5 23c39.333 0 76.666 -7.33301 111.999 -22s66.5 -35.167 93.5 -61.5s48.5 -57.5 64.5 -93.5s24 -75.333 24 -118c0 -45.333 -8.16699 -86.333 -24.5 -123
s-38 -67.834 -65 -93.501s-58.167 -45.5 -93.5 -59.5s-72.333 -21 -111 -21zM201.003 716.004l225 133l54 -105l-228 -120z" />
    <glyph glyph-name="ocircumflex" unicode="&#xf4;" horiz-adv-x="640" 
d="M321 104c24 0 46.002 4.83398 66.002 14.501s37 22.5 51 38.5s24.833 34.333 32.5 55s11.5 42 11.5 64c0 25.333 -4.5 48.666 -13.5 69.999s-21 39.833 -36 55.5s-32.167 28 -51.5 37s-39.333 13.5 -60 13.5c-17.333 0 -35.5 -3.66699 -54.5 -11s-36.5 -18.333 -52.5 -33
s-29.333 -33 -40 -55s-16 -47.333 -16 -76c0 -26 4.5 -49.667 13.5 -71s21.167 -39.5 36.5 -54.5s32.666 -26.667 51.999 -35s39.666 -12.5 60.999 -12.5zM321.002 -17.999c-41.333 0 -79.999 7.83594 -115.999 23.5029s-67.333 37 -94 64s-47.667 58.333 -63 94
s-23 73.5 -23 113.5c0 42 8 81.167 24 117.5s37.5 67.666 64.5 93.999s58.333 47.166 94 62.499s73.5 23 113.5 23c39.333 0 76.666 -7.33301 111.999 -22s66.5 -35.167 93.5 -61.5s48.5 -57.5 64.5 -93.5s24 -75.333 24 -118c0 -45.333 -8.16699 -86.333 -24.5 -123
s-38 -67.834 -65 -93.501s-58.167 -45.5 -93.5 -59.5s-72.333 -21 -111 -21zM269.003 774.004h105l146 -138h-145l-53 64l-56 -64h-145z" />
    <glyph glyph-name="otilde" unicode="&#xf5;" horiz-adv-x="640" 
d="M321 104c24 0 46.002 4.83398 66.002 14.501s37 22.5 51 38.5s24.833 34.333 32.5 55s11.5 42 11.5 64c0 25.333 -4.5 48.666 -13.5 69.999s-21 39.833 -36 55.5s-32.167 28 -51.5 37s-39.333 13.5 -60 13.5c-17.333 0 -35.5 -3.66699 -54.5 -11s-36.5 -18.333 -52.5 -33
s-29.333 -33 -40 -55s-16 -47.333 -16 -76c0 -26 4.5 -49.667 13.5 -71s21.167 -39.5 36.5 -54.5s32.666 -26.667 51.999 -35s39.666 -12.5 60.999 -12.5zM321.002 -17.999c-41.333 0 -79.999 7.83594 -115.999 23.5029s-67.333 37 -94 64s-47.667 58.333 -63 94
s-23 73.5 -23 113.5c0 42 8 81.167 24 117.5s37.5 67.666 64.5 93.999s58.333 47.166 94 62.499s73.5 23 113.5 23c39.333 0 76.666 -7.33301 111.999 -22s66.5 -35.167 93.5 -61.5s48.5 -57.5 64.5 -93.5s24 -75.333 24 -118c0 -45.333 -8.16699 -86.333 -24.5 -123
s-38 -67.834 -65 -93.501s-58.167 -45.5 -93.5 -59.5s-72.333 -21 -111 -21zM124.003 724.004c26 19.333 49.501 31.334 70.501 36.001s36.167 7 45.5 7c14.667 0 28 -1.5 40 -4.5s26 -6.83301 42 -11.5c20 -6 34.333 -9.66699 43 -11s16 -2 22 -2
c27.333 0 52.666 7.66699 75.999 23l54 -78c-15.333 -12 -31.833 -22.833 -49.5 -32.5s-39.167 -14.5 -64.5 -14.5c-6 0 -11.667 0.333008 -17 1s-11.333 1.66699 -18 3s-14.667 3.16602 -24 5.49902s-21 5.5 -35 9.5c-6.66699 2 -14 3.83301 -22 5.5s-17.667 2.5 -29 2.5
c-21.333 0 -38.5 -2.5 -51.5 -7.5s-22.5 -9.16699 -28.5 -12.5z" />
    <glyph glyph-name="odieresis" unicode="&#xf6;" horiz-adv-x="640" 
d="M321 104c24 0 46.002 4.83398 66.002 14.501s37 22.5 51 38.5s24.833 34.333 32.5 55s11.5 42 11.5 64c0 25.333 -4.5 48.666 -13.5 69.999s-21 39.833 -36 55.5s-32.167 28 -51.5 37s-39.333 13.5 -60 13.5c-17.333 0 -35.5 -3.66699 -54.5 -11s-36.5 -18.333 -52.5 -33
s-29.333 -33 -40 -55s-16 -47.333 -16 -76c0 -26 4.5 -49.667 13.5 -71s21.167 -39.5 36.5 -54.5s32.666 -26.667 51.999 -35s39.666 -12.5 60.999 -12.5zM321.002 -17.999c-41.333 0 -79.999 7.83594 -115.999 23.5029s-67.333 37 -94 64s-47.667 58.333 -63 94
s-23 73.5 -23 113.5c0 42 8 81.167 24 117.5s37.5 67.666 64.5 93.999s58.333 47.166 94 62.499s73.5 23 113.5 23c39.333 0 76.666 -7.33301 111.999 -22s66.5 -35.167 93.5 -61.5s48.5 -57.5 64.5 -93.5s24 -75.333 24 -118c0 -45.333 -8.16699 -86.333 -24.5 -123
s-38 -67.834 -65 -93.501s-58.167 -45.5 -93.5 -59.5s-72.333 -21 -111 -21zM359.003 769.004h133v-133h-133v133zM148.003 769.004h134v-133h-134v133z" />
    <glyph glyph-name="divide" unicode="&#xf7;" horiz-adv-x="600" 
d="M240 100h120v-120h-120v120zM240 526h120v-120h-120v120zM48 193v120h504v-120h-504z" />
    <glyph glyph-name="oslash" unicode="&#xf8;" horiz-adv-x="660" 
d="M486 608l99 -68.998l-40 -58c24.667 -25.333 44.167 -55.166 58.5 -89.499s21.5 -71.833 21.5 -112.5c0 -45.333 -8.16699 -86.333 -24.5 -123s-38 -67.834 -65 -93.501s-58.167 -45.5 -93.5 -59.5s-72.333 -21 -111 -21s-75.667 7.33301 -111 22l-38 -54l-99 68l37 54
c-26.667 26.667 -47.5 57.5 -62.5 92.5s-22.5 72.5 -22.5 112.5c0 42 8 81.167 24 117.5s37.5 67.666 64.5 93.999s58.333 47.166 94 62.499s73.5 23 113.5 23s78.667 -8 116 -24l1 1zM291 109.002c6.66699 -1.33301 13.168 -2.5 19.501 -3.5s13.166 -1.5 20.499 -1.5
c24 0 46 4.83301 66 14.5s37 22.5 51 38.5s24.833 34.333 32.5 55s11.5 42 11.5 64c0 34.667 -8.33301 65 -25 91zM375.001 445.002c-13.333 4.66699 -28.001 7 -44.001 7c-17.333 0 -35.5 -3.66699 -54.5 -11s-36.5 -18.333 -52.5 -33s-29.333 -33 -40 -55
s-16 -47.333 -16 -76c0 -18.667 2.33301 -36 7 -52s11.334 -30.667 20.001 -44z" />
    <glyph glyph-name="ugrave" unicode="&#xf9;" horiz-adv-x="600" 
d="M544 555l-0.000976562 -554.999h-122v56h-2c-5.33301 -7.33301 -11.833 -15.333 -19.5 -24s-17.167 -16.667 -28.5 -24s-24.666 -13.5 -39.999 -18.5s-33.666 -7.5 -54.999 -7.5c-25.333 0 -48 2.83301 -68 8.5s-37.667 12.834 -53 21.501s-28.333 18.167 -39 28.5
s-19.334 20.166 -26.001 29.499c-10.667 14.667 -18.834 31 -24.501 49s-9.66699 35.833 -12 53.5s-3.66602 34.667 -3.99902 51s-0.5 30.166 -0.5 41.499v290h133v-283c0 -11.333 0.666992 -26.5 2 -45.5s5.5 -37.5 12.5 -55.5s18.333 -33.667 34 -47s38.167 -20 67.5 -20
c20.667 0 38.167 4.5 52.5 13.5s26 21.333 35 37s15.333 33.5 19 53.5s5.5 41 5.5 63v284h133zM161.999 851.001l222 -135l-53 -92l-226 125z" />
    <glyph glyph-name="uacute" unicode="&#xfa;" horiz-adv-x="600" 
d="M544 555l-0.000976562 -554.999h-122v56h-2c-5.33301 -7.33301 -11.833 -15.333 -19.5 -24s-17.167 -16.667 -28.5 -24s-24.666 -13.5 -39.999 -18.5s-33.666 -7.5 -54.999 -7.5c-25.333 0 -48 2.83301 -68 8.5s-37.667 12.834 -53 21.501s-28.333 18.167 -39 28.5
s-19.334 20.166 -26.001 29.499c-10.667 14.667 -18.834 31 -24.501 49s-9.66699 35.833 -12 53.5s-3.66602 34.667 -3.99902 51s-0.5 30.166 -0.5 41.499v290h133v-283c0 -11.333 0.666992 -26.5 2 -45.5s5.5 -37.5 12.5 -55.5s18.333 -33.667 34 -47s38.167 -20 67.5 -20
c20.667 0 38.167 4.5 52.5 13.5s26 21.333 35 37s15.333 33.5 19 53.5s5.5 41 5.5 63v284h133zM215.999 716.001l225 133l54 -105l-228 -120z" />
    <glyph glyph-name="ucircumflex" unicode="&#xfb;" horiz-adv-x="600" 
d="M544 555l-0.000976562 -554.999h-122v56h-2c-5.33301 -7.33301 -11.833 -15.333 -19.5 -24s-17.167 -16.667 -28.5 -24s-24.666 -13.5 -39.999 -18.5s-33.666 -7.5 -54.999 -7.5c-25.333 0 -48 2.83301 -68 8.5s-37.667 12.834 -53 21.501s-28.333 18.167 -39 28.5
s-19.334 20.166 -26.001 29.499c-10.667 14.667 -18.834 31 -24.501 49s-9.66699 35.833 -12 53.5s-3.66602 34.667 -3.99902 51s-0.5 30.166 -0.5 41.499v290h133v-283c0 -11.333 0.666992 -26.5 2 -45.5s5.5 -37.5 12.5 -55.5s18.333 -33.667 34 -47s38.167 -20 67.5 -20
c20.667 0 38.167 4.5 52.5 13.5s26 21.333 35 37s15.333 33.5 19 53.5s5.5 41 5.5 63v284h133zM248.999 774.001h105l146 -138h-145l-53 64l-56 -64h-145z" />
    <glyph glyph-name="udieresis" unicode="&#xfc;" horiz-adv-x="600" 
d="M544 555l-0.000976562 -554.999h-122v56h-2c-5.33301 -7.33301 -11.833 -15.333 -19.5 -24s-17.167 -16.667 -28.5 -24s-24.666 -13.5 -39.999 -18.5s-33.666 -7.5 -54.999 -7.5c-25.333 0 -48 2.83301 -68 8.5s-37.667 12.834 -53 21.501s-28.333 18.167 -39 28.5
s-19.334 20.166 -26.001 29.499c-10.667 14.667 -18.834 31 -24.501 49s-9.66699 35.833 -12 53.5s-3.66602 34.667 -3.99902 51s-0.5 30.166 -0.5 41.499v290h133v-283c0 -11.333 0.666992 -26.5 2 -45.5s5.5 -37.5 12.5 -55.5s18.333 -33.667 34 -47s38.167 -20 67.5 -20
c20.667 0 38.167 4.5 52.5 13.5s26 21.333 35 37s15.333 33.5 19 53.5s5.5 41 5.5 63v284h133zM338.999 769.001h133v-133h-133v133zM127.999 769.001h134v-133h-134v133z" />
    <glyph glyph-name="yacute" unicode="&#xfd;" horiz-adv-x="580" 
d="M211 52l-203 503h152l126 -356l134 356h151l-319 -740h-143zM206 716l225 133l54 -105l-228 -120z" />
    <glyph glyph-name="thorn" unicode="&#xfe;" horiz-adv-x="660" 
d="M172 278c0 -30.667 5.5 -56.999 16.5 -78.999s24.667 -40 41 -54s33.833 -24.333 52.5 -31s36 -10 52 -10c18 0 36.5 3.66699 55.5 11s36.333 18.333 52 33s28.667 32.834 39 54.501s15.5 46.834 15.5 75.501c0 25.333 -4.5 48.666 -13.5 69.999s-21 39.666 -36 54.999
s-32 27.333 -51 36s-38.833 13 -59.5 13s-40.834 -4 -60.501 -12s-37.167 -19.5 -52.5 -34.5s-27.666 -33.333 -36.999 -55s-14 -45.834 -14 -72.501zM47 740.001l133.003 -0.000976562v-246h2c14.667 18.667 30.167 33.334 46.5 44.001s32.166 18.667 47.499 24
s29.5 8.66602 42.5 9.99902s23.833 2 32.5 2c45.333 0 85.333 -8.83301 120 -26.5s63.667 -40.667 87 -69s41 -60 53 -95s18 -69.5 18 -103.5c0 -41.333 -7.16699 -80 -21.5 -116s-34 -67.5 -59 -94.5s-54.333 -48.333 -88 -64s-70.167 -23.5 -109.5 -23.5
c-22 0 -41.667 2.16699 -59 6.5s-32.833 9.83301 -46.5 16.5s-25.834 14.334 -36.501 23.001s-20.334 17 -29.001 25v-238h-133v925z" />
    <glyph glyph-name="ydieresis" unicode="&#xff;" horiz-adv-x="580" 
d="M211 52l-203 503h152l126 -356l134 356h151l-319 -740h-143zM329 769h133v-133h-133v133zM118 769h134v-133h-134v133z" />
    <glyph glyph-name="dotlessi" unicode="&#x131;" horiz-adv-x="240" 
d="M53 555h133v-555h-133v555z" />
    <glyph glyph-name="Lslash" unicode="&#x141;" horiz-adv-x="480" 
d="M26 225v138l71 48v329h137v-237l128 86v-138l-128 -86v-237h226v-128h-363v273z" />
    <glyph glyph-name="lslash" unicode="&#x142;" horiz-adv-x="320" 
d="M99 401v339h133v-252l73 48v-143l-73 -49v-344h-133v258l-65 -42v142z" />
    <glyph glyph-name="OE" unicode="&#x152;" horiz-adv-x="1060" 
d="M174 356c0 -26 5.33301 -53.332 16 -81.999s26.167 -54.834 46.5 -78.501s45.5 -43.334 75.5 -59.001s64.667 -23.5 104 -23.5c36 0 68.667 7.16699 98 21.5s54.5 33.333 75.5 57s37.167 50.5 48.5 80.5s17 61 17 93c0 30.667 -5.5 61.667 -16.5 93
s-26.833 59.5 -47.5 84.5s-46 45.333 -76 61s-64 23.5 -102 23.5c-32 0 -62.333 -6.33301 -91 -19s-54 -30.667 -76 -54s-39.5 -51.666 -52.5 -84.999s-19.5 -71 -19.5 -113zM650 0.000976562l-0.00390625 79.001c-14 -16 -30.833 -29.833 -50.5 -41.5
s-40.334 -21.334 -62.001 -29.001s-43.667 -13.5 -66 -17.5s-43.5 -6 -63.5 -6c-44 0 -88.167 8.66699 -132.5 26s-84.166 42.5 -119.499 75.5s-64 73.333 -86 121s-33 101.5 -33 161.5c0 61.333 11 115.833 33 163.5s50.667 88 86 121s75 58.167 119 75.5s88.333 26 133 26
c14.667 0 32.334 -1.5 53.001 -4.5s42.334 -8 65.001 -15s44.834 -16.667 66.501 -29s40.834 -27.833 57.501 -46.5v80h357v-128h-220v-181h208v-128h-208v-175h220v-128h-357z" />
    <glyph glyph-name="oe" unicode="&#x153;" horiz-adv-x="1080" 
d="M915 325c-9.33301 38 -27.5 68.667 -54.5 92s-59.833 35 -98.5 35c-39.333 0 -72 -11.167 -98 -33.5s-44.667 -53.5 -56 -93.5h307zM163 282c0 -28 4.83691 -53.166 14.5039 -75.499s22.167 -41 37.5 -56s32.666 -26.5 51.999 -34.5s38.666 -12 57.999 -12
c22 0 42.833 4.5 62.5 13.5s36.667 21.167 51 36.5s25.833 33.666 34.5 54.999s13 44 13 68c0 24.667 -4.33301 47.667 -13 69s-20.5 39.833 -35.5 55.5s-32.167 28 -51.5 37s-40 13.5 -62 13.5c-21.333 0 -41.833 -4.5 -61.5 -13.5s-36.834 -21.167 -51.501 -36.5
s-26.334 -33.333 -35.001 -54s-13 -42.667 -13 -66zM1031 175.001c-10.667 -32.667 -26.166 -61.166 -46.499 -85.499s-42.833 -44.5 -67.5 -60.5s-50.5 -27.833 -77.5 -35.5s-52.833 -11.5 -77.5 -11.5c-9.33301 0 -22.666 1 -39.999 3s-36.333 7 -57 15
s-41.834 19.667 -63.501 35s-41.167 36.333 -58.5 63c-6 -8.66699 -14.333 -19.5 -25 -32.5s-24.667 -25.667 -42 -38s-38.833 -23 -64.5 -32s-56.167 -13.5 -91.5 -13.5c-40 0 -77.667 7.66699 -113 23s-66 36.333 -92 63s-46.667 57.834 -62 93.501s-23 74.167 -23 115.5
c0 44.667 8.33301 85.167 25 121.5s38.667 67.5 66 93.5s58.5 46.167 93.5 60.5s70.833 21.5 107.5 21.5c33.333 0 62.666 -4.5 87.999 -13.5s46.833 -19.667 64.5 -32s32.167 -25 43.5 -38s19.666 -23.167 24.999 -30.5c8.66699 11.333 19.167 23.666 31.5 36.999
s27.166 25.666 44.499 36.999s37.666 20.833 60.999 28.5s50.333 11.5 81 11.5c38 0 74.5 -7.16699 109.5 -21.5s65.833 -34.333 92.5 -60s47.834 -56 63.501 -91s23.5 -72.833 23.5 -113.5c0 -24.667 -2 -48 -6 -70h-434c7.33301 -25.333 18.333 -45.5 33 -60.5
s29.834 -26.5 45.501 -34.5s30.334 -13.167 44.001 -15.5s23.5 -3.5 29.5 -3.5c36 0 64.833 7.5 86.5 22.5s36.5 31.167 44.5 48.5h138z" />
    <glyph glyph-name="Scaron" unicode="&#x160;" horiz-adv-x="520" 
d="M156 212c2 -18.667 6.16797 -34.3301 12.501 -46.9971s14.166 -22.834 23.499 -30.501s19.333 -13.167 30 -16.5s21.334 -5 32.001 -5c13.333 0 26.166 2.16699 38.499 6.5s23.166 10.666 32.499 18.999s16.833 18.166 22.5 29.499s8.5 24 8.5 38
c0 18.667 -3 34.167 -9 46.5s-15 22.833 -27 31.5s-26.833 16.5 -44.5 23.5l-60.5 23.5l-51.5 20.5c-20.333 8.33301 -39.666 20.166 -57.999 35.499s-34 35.5 -47 60.5s-19.5 57.167 -19.5 96.5c0 29.333 5.5 56.833 16.5 82.5s26.167 48 45.5 67s42.166 34 68.499 45
s55.166 16.5 86.499 16.5c21.333 0 44.5 -3.83301 69.5 -11.5s48.167 -20 69.5 -37s39.5 -38.833 54.5 -65.5s23.5 -59 25.5 -97h-140c-1.33301 16.667 -4.66602 30.334 -9.99902 41.001s-11.833 19.167 -19.5 25.5s-16.167 10.666 -25.5 12.999s-18.666 3.5 -27.999 3.5
c-21.333 0 -39.333 -7 -54 -21s-22 -32 -22 -54c0 -16 2.83301 -29.167 8.5 -39.5s13.834 -19.166 24.501 -26.499s23.667 -13.833 39 -19.5s32.333 -11.5 51 -17.5c15.333 -5.33301 34 -12.5 56 -21.5s43.333 -22.167 64 -39.5s38.167 -39.5 52.5 -66.5
s21.5 -60.5 21.5 -100.5s-7 -74.833 -21 -104.5s-32.5 -54.167 -55.5 -73.5s-48.833 -33.833 -77.5 -43.5s-57.334 -14.5 -86.001 -14.5c-24 0 -49.667 4.16699 -77 12.5s-52.833 21.666 -76.5 39.999s-43.667 41.833 -60 70.5s-25.5 63.334 -27.5 104.001h144z
M207.001 944.004l56 -64l53 64h145l-146 -138h-105l-148 138h145z" />
    <glyph glyph-name="scaron" unicode="&#x161;" horiz-adv-x="440" 
d="M276 404c-2 10.667 -5.33203 19.3242 -9.99902 25.9912s-9.5 11.5 -14.5 14.5s-10.167 5 -15.5 6s-9.66602 1.5 -12.999 1.5c-16.667 0 -29.334 -5.16699 -38.001 -15.5s-13 -21.166 -13 -32.499c0 -8 1.5 -14.667 4.5 -20s8.16699 -10.166 15.5 -14.499
s17 -8.66602 29 -12.999s27 -9.16602 45 -14.499c17.333 -5.33301 35.166 -11.833 53.499 -19.5s35 -17.667 50 -30s27.333 -27.833 37 -46.5s14.5 -42 14.5 -70c0 -31.333 -5.66699 -59 -17 -83s-26.166 -44.333 -44.499 -61s-39 -29.167 -62 -37.5
s-46.5 -12.5 -70.5 -12.5c-14 0 -28.5 1.33301 -43.5 4s-29.667 6.83398 -44 12.501s-28.333 13.167 -42 22.5s-25.834 20.666 -36.501 33.999c-17.333 21.333 -28.333 42.333 -33 63s-7.66699 39.667 -9 57h136c1.33301 -6 3.33301 -13.167 6 -21.5
s6.66699 -16.166 12 -23.499s12.333 -13.5 21 -18.5s20 -7.5 34 -7.5c10.667 0 19.834 1.83301 27.501 5.5s13.834 8.33398 18.501 14.001s8.16699 11.667 10.5 18s3.5 12.5 3.5 18.5c0 10 -2 18.5 -6 25.5s-10.833 13.5 -20.5 19.5s-22.5 11.833 -38.5 17.5l-60 20.5
c-16 5.33301 -31.333 12.333 -46 21s-27.834 19.5 -39.501 32.5s-21 28.167 -28 45.5s-10.5 37.333 -10.5 60c0 26.667 5.5 50.667 16.5 72s25.333 39.5 43 54.5s37.667 26.333 60 34s44.5 11.5 66.5 11.5c20.667 0 41.5 -3.66699 62.5 -11s40 -18.166 57 -32.499
s31.167 -32.166 42.5 -53.499s17.666 -45.666 18.999 -72.999h-130zM167.001 773.99l56 -64l53 64h145l-146 -138h-105l-148 138h145z" />
    <glyph glyph-name="Ydieresis" unicode="&#x178;" horiz-adv-x="620" 
d="M241 273l-243 467h150l161 -340l162 340h151l-244 -467v-273h-137v273zM349 939h133v-133h-133v133zM138 939h134v-133h-134v133z" />
    <glyph glyph-name="Zcaron" unicode="&#x17d;" horiz-adv-x="500" 
d="M302 612h-268v128h428v-119l-281 -493h300v-128h-462v112zM221 944l56 -64l53 64h145l-146 -138h-105l-148 138h145z" />
    <glyph glyph-name="zcaron" unicode="&#x17e;" horiz-adv-x="460" 
d="M20 122l246 311h-218v122h377v-122l-246 -311h263v-122h-422v122zM202 774l56 -64l53 64h145l-146 -138h-105l-148 138h145z" />
    <glyph glyph-name="florin" unicode="&#x192;" 
d="M474 586l-18.999 -115h-93l-62 -365c-4.66699 -26.667 -9.33398 -50.5 -14.001 -71.5s-10.5 -40 -17.5 -57s-15.667 -32.333 -26 -46s-23.833 -26.5 -40.5 -38.5c-21.333 -15.333 -44.5 -26.5 -69.5 -33.5s-51.167 -10.5 -78.5 -10.5c-14.667 0 -25.667 0.666992 -33 2
s-14.333 3 -21 5l20 114h16c28 0 50.167 3.83301 66.5 11.5s29.333 18.334 39 32.001s16.834 30.167 21.501 49.5s9 41 13 65l60 343h-94l19 115h95l4 26c2 13.333 4.5 26.666 7.5 39.999s7.33301 26.666 13 39.999s13 26.5 22 39.5s20.167 25.5 33.5 37.5
c19.333 17.333 41 30.833 65 40.5s50.333 14.5 79 14.5c10.667 0 17.5 -0.166992 20.5 -0.5s6.83301 -1.16602 11.5 -2.49902l-20 -117h-7c-20 0 -36 -3.66699 -48 -11s-21.667 -16.833 -29 -28.5s-12.833 -24.5 -16.5 -38.5s-6.83398 -27.333 -9.50098 -40h92z" />
    <glyph glyph-name="circumflex" unicode="&#x2c6;" horiz-adv-x="540" 
d="M219 774h105l146 -138h-145l-53 64l-56 -64h-145z" />
    <glyph glyph-name="caron" unicode="&#x2c7;" horiz-adv-x="540" 
d="M216 774l56 -64l53 64h145l-146 -138h-105l-148 138h145z" />
    <glyph glyph-name="breve" unicode="&#x2d8;" horiz-adv-x="480" 
d="M150 770c11.333 -17.333 25.834 -28.333 43.501 -33s33.167 -7 46.5 -7c18.667 0 36.167 2.83301 52.5 8.5s29.166 16.167 38.499 31.5h108c-6.66699 -43.333 -27 -77 -61 -101s-80 -36 -138 -36c-57.333 0 -103 12 -137 36s-54.333 57.667 -61 101h108z" />
    <glyph glyph-name="dotaccent" unicode="&#x2d9;" horiz-adv-x="280" 
d="M74 769h133v-133h-133v133z" />
    <glyph glyph-name="ring" unicode="&#x2da;" horiz-adv-x="360" 
d="M140 726c0 -11.333 3.83301 -20.833 11.5 -28.5s17.167 -11.5 28.5 -11.5s21 3.83301 29 11.5s12 17.167 12 28.5s-4 21 -12 29s-17.667 12 -29 12s-20.833 -4 -28.5 -12s-11.5 -17.667 -11.5 -29zM73 726c0 14.667 2.83203 28.667 8.49902 42s13.334 24.833 23.001 34.5
s21 17.334 34 23.001s26.833 8.5 41.5 8.5s28.667 -2.83301 42 -8.5s24.833 -13.334 34.5 -23.001s17.334 -21.167 23.001 -34.5s8.5 -27.333 8.5 -42s-2.83301 -28.5 -8.5 -41.5s-13.5 -24.333 -23.5 -34s-21.5 -17.334 -34.5 -23.001s-26.833 -8.5 -41.5 -8.5
s-28.5 2.83301 -41.5 8.5s-24.333 13.334 -34 23.001s-17.334 21 -23.001 34s-8.5 26.833 -8.5 41.5z" />
    <glyph glyph-name="ogonek" unicode="&#x2db;" horiz-adv-x="340" 
d="M235 9c-20 -15.333 -35.6689 -28.332 -47.002 -38.999s-17 -24 -17 -40c0 -15.333 5.33301 -26.666 16 -33.999s22.334 -11 35.001 -11c7.33301 0 13.833 1 19.5 3s12.5 4.66699 20.5 8v-78c-8 -3.33301 -17 -6.33301 -27 -9s-23.667 -4 -41 -4
c-23.333 0 -42.5 3.5 -57.5 10.5s-26.667 15.5 -35 25.5s-14.166 20.5 -17.499 31.5s-5 20.833 -5 29.5c0 19.333 6.66699 38.166 20 56.499s35.333 35.166 66 50.499h70z" />
    <glyph glyph-name="tilde" unicode="&#x2dc;" horiz-adv-x="480" 
d="M44 724c26 19.333 49.501 31.334 70.501 36.001s36.167 7 45.5 7c14.667 0 28 -1.5 40 -4.5s26 -6.83301 42 -11.5c20 -6 34.333 -9.66699 43 -11s16 -2 22 -2c27.333 0 52.666 7.66699 75.999 23l54 -78c-15.333 -12 -31.833 -22.833 -49.5 -32.5
s-39.167 -14.5 -64.5 -14.5c-6 0 -11.667 0.333008 -17 1s-11.333 1.66699 -18 3s-14.667 3.16602 -24 5.49902s-21 5.5 -35 9.5c-6.66699 2 -14 3.83301 -22 5.5s-17.667 2.5 -29 2.5c-21.333 0 -38.5 -2.5 -51.5 -7.5s-22.5 -9.16699 -28.5 -12.5z" />
    <glyph glyph-name="hungarumlaut" unicode="&#x2dd;" horiz-adv-x="700" 
d="M354 680l179 182l76 -81l-190 -171zM132 680l179 182l76 -81l-190 -171z" />
    <glyph glyph-name="endash" unicode="&#x2013;" horiz-adv-x="500" 
d="M35 348h430v-118h-430v118z" />
    <glyph glyph-name="emdash" unicode="&#x2014;" horiz-adv-x="1000" 
d="M35 348h930v-118h-930v118z" />
    <glyph glyph-name="quoteleft" unicode="&#x2018;" horiz-adv-x="280" 
d="M205 466l-132.999 0.000976562v141c0 26.667 4.5 48.667 13.5 66s20.333 31 34 41s28.167 16.833 43.5 20.5s29 5.5 41 5.5v-68c-6 -1.33301 -12.333 -2.83301 -19 -4.5s-12.834 -4.5 -18.501 -8.5s-10.5 -9.33301 -14.5 -16s-6 -15.667 -6 -27
c0 -8.66699 0.333008 -14.334 1 -17.001h58v-133z" />
    <glyph glyph-name="quoteright" unicode="&#x2019;" horiz-adv-x="280" 
d="M72 740h133v-141c0 -27.333 -4.5 -49.5 -13.5 -66.5s-20.333 -30.5 -34 -40.5s-28.167 -16.833 -43.5 -20.5s-29 -5.5 -41 -5.5v67c6 1.33301 12.333 2.83301 19 4.5s13 4.5 19 8.5s10.833 9.5 14.5 16.5s5.5 16.167 5.5 27.5v17h-59v133z" />
    <glyph glyph-name="quotesinglbase" unicode="&#x201a;" horiz-adv-x="280" 
d="M72 133l133 -0.000976562v-140c0 -27.333 -4.5 -49.666 -13.5 -66.999s-20.333 -31 -34 -41s-28.167 -16.833 -43.5 -20.5s-29 -5.5 -41 -5.5v68c6 0.666992 12.333 2 19 4s13 5 19 9s10.833 9.33301 14.5 16s5.5 15.667 5.5 27v17h-59v133z" />
    <glyph glyph-name="quotedblleft" unicode="&#x201c;" horiz-adv-x="480" 
d="M410 466h-132.999v141c0 26.667 4.5 48.667 13.5 66s20.333 31 34 41s28.167 16.833 43.5 20.5s29 5.5 41 5.5v-68c-6 -1.33301 -12.333 -2.83301 -19 -4.5s-12.834 -4.5 -18.501 -8.5s-10.5 -9.33301 -14.5 -16s-6 -15.667 -6 -27c0 -3.33301 0.166992 -6.5 0.5 -9.5
s0.5 -5.5 0.5 -7.5h58v-133zM203.001 466h-132.999v141c0 26.667 4.5 48.667 13.5 66s20.333 31 34 41s28.167 16.833 43.5 20.5s29 5.5 41 5.5v-68c-6 -1.33301 -12.333 -2.83301 -19 -4.5s-12.834 -4.5 -18.501 -8.5s-10.5 -9.33301 -14.5 -16s-6 -15.667 -6 -27
c0 -3.33301 0.166992 -6.5 0.5 -9.5s0.5 -5.5 0.5 -7.5h58v-133z" />
    <glyph glyph-name="quotedblright" unicode="&#x201d;" horiz-adv-x="480" 
d="M277 740h132.999v-141c0 -27.333 -4.5 -49.5 -13.5 -66.5s-20.167 -30.5 -33.5 -40.5s-27.666 -16.833 -42.999 -20.5s-29.333 -5.5 -42 -5.5v67c6 1.33301 12.333 2.83301 19 4.5s13 4.5 19 8.5s10.833 9.5 14.5 16.5s5.5 16.167 5.5 27.5v17h-59v133zM69.999 740
h132.999v-141c0 -27.333 -4.5 -49.5 -13.5 -66.5s-20.167 -30.5 -33.5 -40.5s-27.666 -16.833 -42.999 -20.5s-29.333 -5.5 -42 -5.5v67c6 1.33301 12.333 2.83301 19 4.5s13 4.5 19 8.5s10.833 9.5 14.5 16.5s5.5 16.167 5.5 27.5v17h-59v133z" />
    <glyph glyph-name="quotedblbase" unicode="&#x201e;" horiz-adv-x="480" 
d="M277 133l132.999 -0.000976562v-140c0 -27.333 -4.5 -49.666 -13.5 -66.999s-20.167 -31 -33.5 -41s-27.666 -16.833 -42.999 -20.5s-29.333 -5.5 -42 -5.5v68c6 0.666992 12.333 2 19 4s13 5 19 9s10.833 9.33301 14.5 16s5.5 15.667 5.5 27v17h-59v133zM69.999 132.999
l132.999 -0.000976562v-140c0 -27.333 -4.5 -49.666 -13.5 -66.999s-20.167 -31 -33.5 -41s-27.666 -16.833 -42.999 -20.5s-29.333 -5.5 -42 -5.5v68c6 0.666992 12.333 2 19 4s13 5 19 9s10.833 9.33301 14.5 16s5.5 15.667 5.5 27v17h-59v133z" />
    <glyph glyph-name="dagger" unicode="&#x2020;" 
d="M347 555h162v-113h-162v-584h-133v584h-163v113h163v185h133v-185z" />
    <glyph glyph-name="daggerdbl" unicode="&#x2021;" 
d="M346 587h163v-112h-163v-296h163v-112h-163v-209h-133v209h-162v112h162v296h-162v112h162v153h133v-153z" />
    <glyph glyph-name="bullet" unicode="&#x2022;" horiz-adv-x="600" 
d="M302 532c20.667 0 40.167 -4.16699 58.5 -12.5s34.333 -19.5 48 -33.5s24.5 -30.333 32.5 -49s12 -38.667 12 -60s-4 -41.5 -12 -60.5s-19 -35.5 -33 -49.5s-30.167 -25 -48.5 -33s-37.833 -12 -58.5 -12c-21.333 0 -41.333 4.16699 -60 12.5s-34.834 19.5 -48.501 33.5
s-24.5 30.333 -32.5 49s-12 38.667 -12 60c0 20.667 3.83301 40.334 11.5 59.001s18.334 35.167 32.001 49.5s30 25.666 49 33.999s39.5 12.5 61.5 12.5z" />
    <glyph glyph-name="ellipsis" unicode="&#x2026;" horiz-adv-x="1000" 
d="M766 133h133v-133h-133v133zM433 133h133v-133h-133v133zM100 133h133v-133h-133v133z" />
    <glyph glyph-name="perthousand" unicode="&#x2030;" horiz-adv-x="1280" 
d="M530 740h102l-307 -740h-101zM972 166c0 -19.333 6.83301 -35.833 20.5 -49.5s30.167 -20.5 49.5 -20.5c18.667 0 34.834 6.83301 48.501 20.5s20.5 30.167 20.5 49.5c0 20 -6.83301 36.667 -20.5 50s-29.834 20 -48.501 20c-20 0 -36.667 -6.83301 -50 -20.5
s-20 -30.167 -20 -49.5zM861 166c0 24.667 4.66699 48 14 70s22.333 41.333 39 58s35.834 29.667 57.501 39s45.167 14 70.5 14c24.667 0 48 -4.66699 70 -14s41.167 -22.333 57.5 -39s29.166 -36 38.499 -58s14 -45.333 14 -70c0 -25.333 -4.83301 -49 -14.5 -71
s-22.667 -41.167 -39 -57.5s-35.5 -29.166 -57.5 -38.499s-45 -14 -69 -14c-24.667 0 -48 4.66699 -70 14s-41.167 22.166 -57.5 38.499s-29.333 35.5 -39 57.5s-14.5 45.667 -14.5 71zM572 166c0 -19.333 6.83301 -35.833 20.5 -49.5s30.167 -20.5 49.5 -20.5
c18.667 0 34.834 6.83301 48.501 20.5s20.5 30.167 20.5 49.5c0 20 -6.83301 36.667 -20.5 50s-29.834 20 -48.501 20c-20 0 -36.667 -6.83301 -50 -20.5s-20 -30.167 -20 -49.5zM461 166c0 24.667 4.66699 48 14 70s22.333 41.333 39 58s35.834 29.667 57.501 39
s45.167 14 70.5 14c24.667 0 48 -4.66699 70 -14s41.167 -22.333 57.5 -39s29.166 -36 38.499 -58s14 -45.333 14 -70c0 -25.333 -4.83301 -49 -14.5 -71s-22.667 -41.167 -39 -57.5s-35.5 -29.166 -57.5 -38.499s-45 -14 -69 -14c-24.667 0 -48 4.66699 -70 14
s-41.167 22.166 -57.5 38.499s-29.333 35.5 -39 57.5s-14.5 45.667 -14.5 71zM147 574c0 -18.667 6.66602 -34.832 19.999 -48.499s29.666 -20.5 48.999 -20.5c18 0 34 6.66699 48 20s21 30 21 50c0 19.333 -6.66699 35.666 -20 48.999s-29.666 20 -48.999 20
s-35.666 -6.66699 -48.999 -20s-20 -30 -20 -50zM35.999 574.002c0 24.667 4.66895 48 14.002 70s22.166 41.333 38.499 58s35.5 29.667 57.5 39s45.333 14 70 14s48 -4.66699 70 -14s41.167 -22.333 57.5 -39s29.166 -36 38.499 -58s14 -45.333 14 -70
c0 -25.333 -4.66699 -48.833 -14 -70.5s-22.166 -40.667 -38.499 -57s-35.5 -29.166 -57.5 -38.499s-45.333 -14 -70 -14s-47.834 4.66699 -69.501 14s-40.667 22.166 -57 38.499s-29.333 35.333 -39 57s-14.5 45.167 -14.5 70.5z" />
    <glyph glyph-name="guilsinglleft" unicode="&#x2039;" horiz-adv-x="240" 
d="M50 239v101l140 129v-123l-68 -57l68 -58v-123z" />
    <glyph glyph-name="guilsinglright" unicode="&#x203a;" horiz-adv-x="240" 
d="M50 231l68 58l-68 57v123l140 -129v-101l-140 -131v123z" />
    <glyph glyph-name="fraction" unicode="&#x2044;" horiz-adv-x="160" 
d="M183 740h99l-307 -740h-98z" />
    <glyph glyph-name="trademark" unicode="&#x2122;" horiz-adv-x="1000" 
d="M333 740h126l119 -322l118 322h125v-444h-94v306h-2l-109 -306h-78l-109 306h-2v-306h-94v444zM94 657h-85v83h265v-83h-86v-361h-94v361z" />
    <glyph glyph-name="minus" unicode="&#x2212;" horiz-adv-x="600" 
d="M48 193v120h504v-120h-504z" />
    <glyph glyph-name="fi" unicode="&#xfb01;" horiz-adv-x="520" 
d="M328 740h133v-122h-133v122zM25 437l-0.00195312 117.998h47c0.666992 9.33301 1.83398 20.333 3.50098 33s4.66699 26 9 40s10.666 28 18.999 42s19.5 27.333 33.5 40c15.333 14.667 33.333 25.834 54 33.501s41.334 11.5 62.001 11.5h37v-131
c-12.667 0 -24 -0.5 -34 -1.5s-18.667 -3.66699 -26 -8s-13.166 -11.166 -17.499 -20.499s-6.83301 -22.333 -7.5 -39h256v-555h-133v437h-123v-437h-133v437h-47z" />
    <glyph glyph-name="fl" unicode="&#xfb02;" horiz-adv-x="520" 
d="M25 437l-0.00195312 117.998h47c0.666992 9.33301 1.83398 20.333 3.50098 33s4.66699 26 9 40s10.666 28 18.999 42s19.5 27.333 33.5 40c15.333 14.667 33.333 25.834 54 33.501s41.334 11.5 62.001 11.5h37v-131c-12.667 0 -24 -0.5 -34 -1.5s-18.667 -3.66699 -26 -8
s-13.166 -11.166 -17.499 -20.499s-6.83301 -22.333 -7.5 -39h123v185h133v-740h-133v437h-123v-437h-133v437h-47z" />
  </font>
</defs>
</svg>
