<?xml version="1.0" standalone="no"?>
<!DOCTYPE svg PUBLIC "-//W3C//DTD SVG 1.1//EN" "http://www.w3.org/Graphics/SVG/1.1/DTD/svg11.dtd" >
<svg>
<metadata>
Created by FontForge 20090914 at Tue Apr  2 16:27:21 2013
 By www-data
Copyright (c) 1985, 1987, 1989, 1990, 1991 Adobe Systems Incorporated.  All Rights Reserved.ITC Avant Garde Gothic is a registered trademark of International Typeface Corporation.
</metadata>
<defs>
<font id="AvantGarde-Book" horiz-adv-x="554" >
  <font-face 
    font-family="ITC Avant Garde Gothic"
    font-weight="400"
    font-stretch="normal"
    units-per-em="1000"
    panose-1="0 0 0 0 0 0 0 0 0 0"
    ascent="800"
    descent="-200"
    x-height="547"
    cap-height="740"
    bbox="-113 -222 1148 955"
    underline-thickness="50"
    underline-position="-50"
    unicode-range="U+000D-U+FB02"
  />
<missing-glyph horiz-adv-x="277" 
 />
    <glyph glyph-name=".notdef" horiz-adv-x="277" 
 />
    <glyph glyph-name="NULL" horiz-adv-x="0" 
 />
    <glyph glyph-name="NULL" horiz-adv-x="0" 
 />
    <glyph glyph-name="nonmarkingreturn" unicode="&#xd;" horiz-adv-x="277" 
 />
    <glyph glyph-name="space" unicode=" " horiz-adv-x="277" 
 />
    <glyph glyph-name="exclam" unicode="!" horiz-adv-x="295" 
d="M111 740h74v-547h-74v547zM111 126h74v-126h-74v126z" />
    <glyph glyph-name="quotedbl" unicode="&#x22;" horiz-adv-x="309" 
d="M204 444l-12 296h81l-12 -296h-57zM48 444l-12 296h81l-12 -296h-57z" />
    <glyph glyph-name="numbersign" unicode="#" 
d="M236 467l-27 -194h123l27 194h-123zM130 206h-97v67h107l26 193h-107v68h117l29 206h69l-29 -206h124l29 206h69l-29 -206h83v-67h-93l-27 -194h92v-67h-101l-29 -206h-69l29 206h-124l-29 -206h-69z" />
    <glyph glyph-name="dollar" unicode="$" 
d="M241 29c-25.333 2.66699 -48.499 9.83594 -69.499 21.5029s-39 26 -54 43s-26.667 36 -35 57s-12.5 42.167 -12.5 63.5c0 2 0.166992 4.5 0.5 7.5s0.166016 5.16699 -0.500977 6.5h74c0 -28 4.66699 -51 14 -69s20.833 -32.167 34.5 -42.5s28.5 -17.333 44.5 -21
s30.667 -5.5 44 -5.5c40.667 0 72.5 12 95.5 36s34.5 56.333 34.5 97c0 26 -5.16699 47.5 -15.5 64.5s-22.666 30.5 -36.999 40.5s-29.5 17.5 -45.5 22.5s-30 9.16699 -42 12.5c-13.333 3.33301 -30.166 8.16602 -50.499 14.499s-40 16.166 -59 29.499
s-35.333 31.166 -49 53.499s-20.834 50.833 -21.501 85.5c-0.666992 23.333 2.5 45.166 9.5 65.499s17.167 38.333 30.5 54s29.333 28.834 48 39.501s39.334 18 62.001 22v84h74v-81c34 -4.66699 61.5 -14.5 82.5 -29.5s37.333 -31.833 49 -50.5s19.667 -37.667 24 -57
s6.83301 -35.666 7.5 -48.999h-74c0.666992 15.333 -1.5 30.333 -6.5 45s-12.833 27.667 -23.5 39s-23.834 20.333 -39.501 27s-34.167 10 -55.5 10c-15.333 0 -30 -2.33301 -44 -7s-26.333 -11.834 -37 -21.501s-19 -22 -25 -37s-8.66699 -32.833 -8 -53.5
s4.83398 -37.667 12.501 -51s17.667 -24.333 30 -33s26.166 -15.5 41.499 -20.5s30.666 -9.5 45.999 -13.5c12 -3.33301 28.667 -8.66602 50 -15.999s42.333 -18.5 63 -33.5s38.667 -35 54 -60s23 -56.833 23 -95.5c0 -21.333 -3.66699 -42.833 -11 -64.5
s-18 -41.667 -32 -60s-31.667 -33.833 -53 -46.5s-46 -20.334 -74 -23.001v-99h-74v99z" />
    <glyph glyph-name="percent" unicode="%" horiz-adv-x="775" 
d="M206 0h-68l424 740h68zM81 572c0 -17.333 3.16699 -33.333 9.5 -48s14.833 -27.667 25.5 -39s23.334 -20.166 38.001 -26.499s30.667 -9.5 48 -9.5c16.667 0 32.5 3.16699 47.5 9.5s27.833 15.166 38.5 26.499s19.167 24.333 25.5 39s9.5 30.667 9.5 48
c0 16.667 -3.16699 32.5 -9.5 47.5s-14.833 28.167 -25.5 39.5s-23.5 20.166 -38.5 26.499s-30.833 9.5 -47.5 9.5c-17.333 0 -33.333 -3.16699 -48 -9.5s-27.334 -15.166 -38.001 -26.499s-19.167 -24.5 -25.5 -39.5s-9.5 -30.833 -9.5 -47.5zM21 572
c0 24.667 4.83301 47.834 14.5 69.501s22.667 40.667 39 57s35.5 29.166 57.5 38.499s45.333 14 70 14s48 -4.66699 70 -14s41.167 -22.166 57.5 -38.499s29.333 -35.333 39 -57s14.5 -44.834 14.5 -69.501s-4.83301 -47.834 -14.5 -69.501s-22.667 -40.667 -39 -57
s-35.5 -29.166 -57.5 -38.499s-45.333 -14 -70 -14s-48 4.66699 -70 14s-41.167 22.166 -57.5 38.499s-29.333 35.333 -39 57s-14.5 44.834 -14.5 69.501zM391 166c0 24.667 4.83301 47.834 14.5 69.501s22.667 40.667 39 57s35.5 29.166 57.5 38.499s45.333 14 70 14
s48 -4.66699 70 -14s41.167 -22.166 57.5 -38.499s29.333 -35.333 39 -57s14.5 -44.834 14.5 -69.501s-4.83301 -47.834 -14.5 -69.501s-22.667 -40.667 -39 -57s-35.5 -29.166 -57.5 -38.499s-45.333 -14 -70 -14s-48 4.66699 -70 14s-41.167 22.166 -57.5 38.499
s-29.333 35.333 -39 57s-14.5 44.834 -14.5 69.501zM451 166c0 -17.333 3.16699 -33.333 9.5 -48s14.833 -27.667 25.5 -39s23.334 -20.166 38.001 -26.499s30.667 -9.5 48 -9.5c16.667 0 32.5 3.16699 47.5 9.5s27.833 15.166 38.5 26.499s19.167 24.333 25.5 39
s9.5 30.667 9.5 48c0 16.667 -3.16699 32.5 -9.5 47.5s-14.833 28.167 -25.5 39.5s-23.5 20.166 -38.5 26.499s-30.833 9.5 -47.5 9.5c-17.333 0 -33.333 -3.16699 -48 -9.5s-27.334 -15.166 -38.001 -26.499s-19.167 -24.5 -25.5 -39.5s-9.5 -30.833 -9.5 -47.5z" />
    <glyph glyph-name="ampersand" unicode="&#x26;" horiz-adv-x="757" 
d="M425 587c0 12 -2.49902 23.832 -7.49902 35.499s-12 22 -21 31s-20 16.167 -33 21.5s-27.167 8 -42.5 8c-31.333 -0.666992 -56.333 -10.5 -75 -29.5s-28 -40.167 -28 -63.5c0.666992 -25.333 9.66699 -48.166 27 -68.499s36.333 -39.5 57 -57.5
c8.66699 3.33301 20 8 34 14s27.667 13.667 41 23s24.666 21 33.999 35s14 31 14 51zM280.001 380.999c-9.33301 -3.33301 -21.5 -8.83301 -36.5 -16.5s-27.167 -14.834 -36.5 -21.501c-31.333 -23.333 -52 -46.166 -62 -68.499s-15 -43.833 -15 -64.5
c0 -22.667 4.5 -43.334 13.5 -62.001s20.667 -34.667 35 -48s30.666 -23.666 48.999 -30.999s36.833 -11 55.5 -11c24.667 0 46.5 5.16699 65.5 15.5s35.333 23 49 38s25.334 31 35.001 48l25.5 46.5zM686.001 481.999l-137 -260.998l187 -182l-53 -51l-169 165l-27 -46.5
c-11.333 -19 -25.833 -37.167 -43.5 -54.5s-39.167 -32.333 -64.5 -45s-55.333 -19 -90 -19c-35.333 0 -67.333 6.5 -96 19.5s-53.167 30.167 -73.5 51.5s-36 45.5 -47 72.5s-16.5 54.5 -16.5 82.5c0 28.667 4.83301 54.5 14.5 77.5s22.5 43.5 38.5 61.5
s34.333 33.5 55 46.5s41.667 24.5 63 34.5l-28.5 30c-9.66699 10.667 -18.5 22.167 -26.5 34.5s-14.667 26 -20 41s-8 31.5 -8 49.5c0 23.333 4.83301 45 14.5 65s22.667 37.333 39 52s35.333 26.167 57 34.5s44.167 12.5 67.5 12.5c22.667 0 44.667 -4.33301 66 -13
s40.166 -20.834 56.499 -36.501s29.5 -34 39.5 -55s15 -43.833 15 -68.5c0 -26 -5.66699 -48.833 -17 -68.5s-24.833 -36.334 -40.5 -50.001s-31.667 -24.5 -48 -32.5s-29.166 -13.667 -38.499 -17l140 -138l108 208h83z" />
    <glyph glyph-name="quotesingle" unicode="'" horiz-adv-x="198" 
d="M71 444l-12 296h81l-12 -296h-57z" />
    <glyph glyph-name="parenleft" unicode="(" horiz-adv-x="369" 
d="M355 682c-43.333 -26 -79.833 -56.3301 -109.5 -90.9971s-53.834 -70.5 -72.501 -107.5s-32 -73.667 -40 -110s-12 -68.833 -12 -97.5c0 -24.667 3.33301 -54.5 10 -89.5s18.834 -71.5 36.501 -109.5s41.5 -75.333 71.5 -112s68.667 -69.334 116 -98.001v-72
c-34.667 11.333 -70.167 31.166 -106.5 59.499s-69.5 63.5 -99.5 105.5s-54.5 89.667 -73.5 143s-28.5 111 -28.5 173s9.5 119.667 28.5 173s43.5 101 73.5 143s63.167 77.167 99.5 105.5s71.833 48.166 106.5 59.499v-75z" />
    <glyph glyph-name="parenright" unicode=")" horiz-adv-x="369" 
d="M14 757c34.667 -11.333 70.167 -31.1689 106.5 -59.502s69.5 -63.5 99.5 -105.5s54.5 -89.667 73.5 -143s28.5 -111 28.5 -173s-9.5 -119.667 -28.5 -173s-43.5 -101 -73.5 -143s-63.167 -77.167 -99.5 -105.5s-71.833 -48.166 -106.5 -59.499v72
c46.667 28.667 85.167 61.334 115.5 98.001s54.333 74 72 112s29.834 74.5 36.501 109.5s10 64.833 10 89.5c0 28.667 -4 61.167 -12 97.5s-21.333 73 -40 110s-42.834 72.833 -72.501 107.5s-66.167 65 -109.5 91v75z" />
    <glyph glyph-name="asterisk" unicode="*" horiz-adv-x="425" 
d="M184 740h58l-2 -116l109 37l18 -55l-110 -34l68 -92l-47 -34l-67 94l-66 -93l-47 34l69 92l-109 34l18 56l109 -38z" />
    <glyph glyph-name="plus" unicode="+" horiz-adv-x="606" 
d="M337 287h218v-68h-218v-219h-68v219h-218v68h218v219h68v-219z" />
    <glyph glyph-name="comma" unicode="," horiz-adv-x="277" 
d="M102 126h74l-88 -193h-74z" />
    <glyph glyph-name="hyphen" unicode="-" horiz-adv-x="332" 
d="M302 315v-67h-272v67h272z" />
    <glyph glyph-name="period" unicode="." horiz-adv-x="277" 
d="M102 126h74v-126h-74v126z" />
    <glyph glyph-name="slash" unicode="/" horiz-adv-x="437" 
d="M324 740h79l-283 -840h-76z" />
    <glyph glyph-name="zero" unicode="0" 
d="M451 469c0 1.33301 -0.170898 7.16602 -0.503906 17.499s-1.5 22.666 -3.5 36.999s-5.16699 29.333 -9.5 45s-10.5 29.5 -18.5 41.5c-8.66699 12.667 -18.667 23.834 -30 33.501s-23.333 17.667 -36 24s-25.5 11 -38.5 14s-25.5 4.5 -37.5 4.5s-24.5 -1.5 -37.5 -4.5
s-25.833 -7.66699 -38.5 -14s-24.667 -14.333 -36 -24s-21.333 -20.834 -30 -33.501c-8 -12 -14.167 -25.833 -18.5 -41.5s-7.5 -30.667 -9.5 -45s-3.16699 -26.666 -3.5 -36.999s-0.5 -16.166 -0.5 -17.499v-188c0 -6 0.166992 -15 0.5 -27s1.5 -25.333 3.5 -40
s4.83301 -29.167 8.5 -43.5s8.83398 -26.833 15.501 -37.5c17.333 -27.333 38.333 -47.333 63 -60s52.334 -19 83.001 -19s58.334 6.33301 83.001 19s45.667 32.667 63 60c6.66699 10.667 11.834 23.167 15.501 37.5s6.5 28.833 8.5 43.5s3.16699 28 3.5 40s0.5 21 0.5 27
v188zM524.996 270c0 -37.333 -3.33496 -69.833 -10.002 -97.5s-15.667 -51.167 -27 -70.5c-13.333 -24 -29.166 -43.333 -47.499 -58s-37.166 -26.334 -56.499 -35.001s-38.333 -14.5 -57 -17.5s-35.334 -4.5 -50.001 -4.5s-31.334 1.5 -50.001 4.5
s-37.667 8.83301 -57 17.5s-38.166 20.334 -56.499 35.001s-34.166 34 -47.499 58c-11.333 19.333 -20.333 42.833 -27 70.5s-10 60.167 -10 97.5v216c0 28 2.5 53.333 7.5 76s11.833 42.667 20.5 60c11.333 22.667 25.5 42.334 42.5 59.001s35.333 30.334 55 41.001
s40 18.5 61 23.5s41.5 7.5 61.5 7.5s40.5 -2.5 61.5 -7.5s41.333 -12.833 61 -23.5s38 -24.334 55 -41.001s31.167 -36.334 42.5 -59.001c8.66699 -17.333 15.5 -37.333 20.5 -60s7.5 -48 7.5 -76v-216z" />
    <glyph glyph-name="one" unicode="1" 
d="M262 673h-127v67h201v-740h-74v673z" />
    <glyph glyph-name="two" unicode="2" 
d="M40 67l259.999 250.001l58 57c17.333 17.333 32 34.333 44 51s21.333 33.334 28 50.001s10 34.667 10 54c0 18.667 -3.83301 37.5 -11.5 56.5s-18.5 35.833 -32.5 50.5s-30.833 26.667 -50.5 36s-41.5 14 -65.5 14c-2 0 -7.5 -0.333008 -16.5 -1
s-19.333 -2.83398 -31 -6.50098s-24.167 -9.16699 -37.5 -16.5s-25.5 -17.833 -36.5 -31.5s-20.167 -31 -27.5 -52s-11 -46.833 -11 -77.5h-74c0 48.667 7.83301 89.167 23.5 121.5s35.334 58.166 59.001 77.499s49.5 33 77.5 41s54 12 78 12
c38 0 71.333 -7.16699 100 -21.5s52.667 -32.666 72 -54.999s33.833 -46.666 43.5 -72.999s14.5 -51.5 14.5 -75.5c0 -22 -2.83301 -42.333 -8.5 -61s-14 -37.334 -25 -56.001s-25.167 -37.334 -42.5 -56.001s-37.333 -39 -60 -61l-238 -227h370v-67h-470v67z" />
    <glyph glyph-name="three" unicode="3" 
d="M83 555c0.666992 31.333 6.16895 59.1631 16.502 83.4961s24 45 41 62s36.667 30 59 39s45.833 13.5 70.5 13.5c28 0 53.5 -5.16699 76.5 -15.5s42.667 -24.166 59 -41.499s29 -37.5 38 -60.5s13.5 -47.167 13.5 -72.5c0 -18 -2.16699 -33.833 -6.5 -47.5
s-10 -26 -17 -37s-15.167 -21 -24.5 -30s-18.666 -17.167 -27.999 -24.5c27.333 -14 49.166 -30.167 65.499 -48.5s29 -36.666 38 -54.999s14.833 -35.666 17.5 -51.999s4 -29.833 4 -40.5c0 -36.667 -6.5 -69.834 -19.5 -99.501s-30.167 -55 -51.5 -76
s-46 -37.167 -74 -48.5s-57.333 -17 -88 -17c-18 0 -40.167 3.16699 -66.5 9.5s-52 18.5 -77 36.5s-46.667 42.833 -65 74.5s-28.5 73.167 -30.5 124.5h74c1.33301 -18.667 3.5 -35.834 6.5 -51.501s9.5 -31.5 19.5 -47.5c13.333 -22.667 31.833 -41.5 55.5 -56.5
s51.5 -22.5 83.5 -22.5c21.333 0 41.666 3.83301 60.999 11.5s36.166 18.667 50.499 33s25.833 32 34.5 53s13 45.167 13 72.5c0 18 -3 35.5 -9 52.5s-14.5 32.5 -25.5 46.5s-24.333 26.167 -40 36.5s-32.834 17.833 -51.501 22.5c-11.333 2.66699 -23 4.33398 -35 5.00098
s-29 1.33398 -51 2.00098v65c2 0 5.66699 -0.166992 11 -0.5s10 -0.5 14 -0.5c29.333 0 53 4.33301 71 13s32 19.167 42 31.5s16.667 25 20 38s5 24.167 5 33.5c0 10.667 -1.83301 22.834 -5.5 36.501s-10 26.5 -19 38.5s-20.833 22 -35.5 30s-33 12 -55 12
c-14.667 0 -28.667 -3 -42 -9s-25.166 -14.5 -35.499 -25.5s-18.5 -24.667 -24.5 -41s-9 -34.833 -9 -55.5h-74z" />
    <glyph glyph-name="four" unicode="4" 
d="M387 202v436h-2l-286 -436h288zM387 135h-373v67l359 538h88v-538h67v-67h-67v-135h-74v135z" />
    <glyph glyph-name="five" unicode="5" 
d="M135 740l333 -0.000976562v-67h-274l-37 -204c12 6.66699 28.5 14.167 49.5 22.5s46.5 12.5 76.5 12.5c34.667 0 67 -6.66699 97 -20s56.167 -31.833 78.5 -55.5s39.833 -51.167 52.5 -82.5s19 -65 19 -101c0 -33.333 -6.16699 -65.5 -18.5 -96.5
s-29.5 -58.5 -51.5 -82.5s-48.5 -43.167 -79.5 -57.5s-64.833 -21.5 -101.5 -21.5c-10 0 -22.5 1 -37.5 3s-31.167 6.16699 -48.5 12.5s-34.833 15 -52.5 26s-34.167 25.667 -49.5 44s-28.833 40.666 -40.5 66.999s-19.834 57.5 -24.501 93.5h74
c2.66699 -28 9.5 -53.167 20.5 -75.5s24.5 -41.166 40.5 -56.499s34.167 -27 54.5 -35s41.5 -12 63.5 -12c26 0 50 5.33301 72 16s40.667 25 56 43s27.333 38.5 36 61.5s13 46.5 13 70.5c0 27.333 -4.66699 52.833 -14 76.5s-22 44.167 -38 61.5s-34.667 30.833 -56 40.5
s-44 14.5 -68 14.5c-30.667 0 -59.167 -7.66699 -85.5 -23s-49.166 -35.666 -68.499 -60.999l-58 21z" />
    <glyph glyph-name="six" unicode="6" 
d="M98 243c0 -20.667 3.66797 -42.167 11.001 -64.5s18.333 -42.666 33 -60.999s33.334 -33.5 56.001 -45.5s49 -18 79 -18c26 0 50 5 72 15s41 23.667 57 41s28.333 37.5 37 60.5s13 47.833 13 74.5c0 26 -4.33301 50.5 -13 73.5s-21 43.167 -37 60.5
s-35 31.166 -57 41.499s-46 15.5 -72 15.5c-23.333 0 -45.833 -4.66699 -67.5 -14s-40.834 -22.333 -57.501 -39s-29.834 -37 -39.501 -61s-14.5 -50.333 -14.5 -79zM381.001 739l-171.001 -251.002l2 -1c22.667 10.667 45.667 16 69 16c36 0 69.333 -6.83301 100 -20.5
s57 -32.167 79 -55.5s39.167 -50.5 51.5 -81.5s18.5 -64.167 18.5 -99.5c0 -32 -5.66699 -63.5 -17 -94.5s-27.666 -58.667 -48.999 -83s-47.833 -44 -79.5 -59s-67.5 -22.5 -107.5 -22.5c-39.333 0 -74.5 7 -105.5 21s-57.5 33 -79.5 57s-38.833 51.833 -50.5 83.5
s-17.5 65.5 -17.5 101.5c0 21.333 2.5 41.333 7.5 60s11.667 36.834 20 54.501s17.833 34.834 28.5 51.501l33 51l184 272h84z" />
    <glyph glyph-name="seven" unicode="7" 
d="M415 673h-352v67h428v-67l-303 -673h-78z" />
    <glyph glyph-name="eight" unicode="8" 
d="M155 564c0 -12.667 2.66602 -26 7.99902 -40s13.333 -27 24 -39s23.5 -21.833 38.5 -29.5s32.5 -11.5 52.5 -11.5c17.333 0 33.5 3.33301 48.5 10s27.833 15.5 38.5 26.5s19 23.667 25 38s9 29.5 9 45.5c0 14.667 -2.66699 29.167 -8 43.5s-13.166 27.333 -23.499 39
s-23 21.167 -38 28.5s-31.833 11 -50.5 11c-18 0 -34.667 -3.33301 -50 -10s-28.5 -15.5 -39.5 -26.5s-19.5 -24 -25.5 -39s-9 -30.5 -9 -46.5zM114.999 218c0 -30 5.5 -55.3291 16.5 -75.9961s24.667 -37.5 41 -50.5s34 -22.5 53 -28.5s36.833 -9 53.5 -9
c18 0 36.333 3.5 55 10.5s35.834 17.167 51.501 30.5s28.5 30.166 38.5 50.499s15 43.5 15 69.5c0 26.667 -5.16699 50 -15.5 70s-23.5 36.667 -39.5 50s-33.5 23.333 -52.5 30s-37.5 10 -55.5 10c-22 0 -42.833 -4.33301 -62.5 -13s-36.834 -20.334 -51.501 -35.001
s-26.167 -31.334 -34.5 -50.001s-12.5 -38.334 -12.5 -59.001zM167.999 413.004c-30.667 20 -52.835 43.167 -66.502 69.5s-20.5 52.5 -20.5 78.5c0 29.333 5.5 55.833 16.5 79.5s25.667 43.834 44 60.501s39.166 29.5 62.499 38.5s47.666 13.5 72.999 13.5
c27.333 0 52.833 -5 76.5 -15s44.334 -23.667 62.001 -41s31.667 -37.833 42 -61.5s15.5 -49.5 15.5 -77.5c0 -4 -0.833008 -11.833 -2.5 -23.5s-5.5 -24.667 -11.5 -39s-14.833 -29 -26.5 -44s-27.5 -27.833 -47.5 -38.5c24.667 -12 45.334 -26.167 62.001 -42.5
s29.834 -33.5 39.501 -51.5s16.5 -36.167 20.5 -54.5s6 -34.833 6 -49.5c0 -29.333 -5.83301 -57.833 -17.5 -85.5s-28 -52 -49 -73s-45.833 -37.833 -74.5 -50.5s-60 -19 -94 -19c-34.667 0 -66.5 6.33301 -95.5 19s-54 29.5 -75 50.5s-37.333 45.333 -49 73
s-17.5 56.167 -17.5 85.5c0 18 2.5 36.667 7.5 56s12.833 38.166 23.5 56.499s23.834 35 39.501 50s34.5 26.833 56.5 35.5z" />
    <glyph glyph-name="nine" unicode="9" 
d="M456 496c0 20.667 -3.66602 41.998 -10.999 63.998s-18.333 42.333 -33 61s-33.334 34 -56.001 46s-49 18 -79 18c-26 0 -50 -5 -72 -15s-41 -23.667 -57 -41s-28.333 -37.5 -37 -60.5s-13 -47.833 -13 -74.5c0 -26 4.33301 -50.5 13 -73.5s21 -43.167 37 -60.5
s35 -31.166 57 -41.499s46 -15.5 72 -15.5c23.333 0 45.833 4.66699 67.5 14s40.667 22.333 57 39s29.5 36.834 39.5 60.501s15 50.167 15 79.5zM173.001 -0.00195312l171.001 251.002l-2 1c-10.667 -5.33301 -22 -9.33301 -34 -12s-23.667 -4 -35 -4
c-36 0 -69.333 6.83301 -100 20.5s-57 32.167 -79 55.5s-39.167 50.5 -51.5 81.5s-18.5 64.167 -18.5 99.5c0 32 5.66699 63.5 17 94.5s27.666 58.667 48.999 83s47.833 44 79.5 59s67.5 22.5 107.5 22.5c38.667 0 73.667 -7 105 -21s58 -33 80 -57
s38.833 -51.833 50.5 -83.5s17.5 -65.5 17.5 -101.5c0 -21.333 -2.5 -41.333 -7.5 -60s-11.667 -36.834 -20 -54.501s-17.833 -34.834 -28.5 -51.501l-33 -51l-184 -272h-84z" />
    <glyph glyph-name="colon" unicode=":" horiz-adv-x="277" 
d="M102 548h74v-126h-74v126zM102 126h74v-126h-74v126z" />
    <glyph glyph-name="semicolon" unicode=";" horiz-adv-x="277" 
d="M102 548h74v-126h-74v126zM102 126h74l-88 -193h-74z" />
    <glyph glyph-name="less" unicode="&#x3c;" horiz-adv-x="606" 
d="M554 446l-425 -193l425 -193v-68l-508 230v62l508 230v-68z" />
    <glyph glyph-name="equal" unicode="=" horiz-adv-x="606" 
d="M51 186h504v-68h-504v68zM555 320h-504v68h504v-68z" />
    <glyph glyph-name="greater" unicode="&#x3e;" horiz-adv-x="606" 
d="M52 60l425 193l-425 193v68l508 -230v-62l-508 -230v68z" />
    <glyph glyph-name="question" unicode="?" horiz-adv-x="591" 
d="M263 126h74v-126h-74v126zM64 508l-0.000976562 18.999c0 29.333 6 57.5 18 84.5s28.5 51 49.5 72s45.833 37.667 74.5 50s59.667 18.5 93 18.5s64 -5.83301 92 -17.5s52 -27.667 72 -48s35.5 -44 46.5 -71s16.5 -55.5 16.5 -85.5c0 -20 -2.33301 -37.667 -7 -53
s-11.5 -30 -20.5 -44s-20.167 -27.833 -33.5 -41.5l-45 -44.5l-25 -25.5c-9.33301 -9.66699 -18.166 -20.667 -26.499 -33s-15.5 -26.5 -21.5 -42.5s-9.33301 -33.667 -10 -53h-74c-0.666992 25.333 2.83301 48.666 10.5 69.999s17 40.5 28 57.5s22.5 31.833 34.5 44.5
s22.667 23 32 31c23.333 21.333 43.166 42 59.499 62s24.5 45 24.5 75c0 18 -3.66699 35.833 -11 53.5s-17.833 33.667 -31.5 48s-30.167 25.833 -49.5 34.5s-40.666 13 -63.999 13c-32 0 -59 -7.16699 -81 -21.5s-40 -31.5 -54 -51.5
c-12 -17.333 -18.833 -34.666 -20.5 -51.999s-2.5 -33.666 -2.5 -48.999h-74z" />
    <glyph glyph-name="at" unicode="@" horiz-adv-x="867" 
d="M545 394c0 34.667 -9.5 61.999 -28.5 81.999s-42.5 30 -70.5 30c-20.667 0 -39.5 -4.5 -56.5 -13.5s-31.667 -21.167 -44 -36.5s-22 -33.166 -29 -53.499s-10.5 -41.833 -10.5 -64.5c0 -42 10.333 -73.5 31 -94.5s46 -31.5 76 -31.5c21.333 0 40.333 5.16699 57 15.5
s30.5 24.166 41.5 41.499s19.333 36.833 25 58.5s8.5 43.834 8.5 66.501zM641 547.999l-41.9951 -237c-2 -12.667 -3.83301 -23.5 -5.5 -32.5s-2.83398 -15.833 -3.50098 -20.5c-0.666992 -12 1.83301 -22.667 7.5 -32s14.5 -14 26.5 -14c16 0 31.167 5.5 45.5 16.5
s27 26 38 45s19.667 41.333 26 67s9.5 53.167 9.5 82.5c0 45.333 -7.83301 85.166 -23.5 119.499s-36.834 63 -63.501 86s-57.667 40.167 -93 51.5s-72.333 17 -111 17c-47.333 0 -91 -8.16699 -131 -24.5s-74.5 -39.166 -103.5 -68.499s-51.667 -64 -68 -104
s-24.5 -83.667 -24.5 -131c0 -36 5.66699 -73.167 17 -111.5s30 -73.5 56 -105.5s60.667 -58.167 104 -78.5s97 -30.5 161 -30.5c30 0 57.5 1.83301 82.5 5.5s47.5 8.16699 67.5 13.5s37.333 10.833 52 16.5s26.667 10.5 36 14.5l15 -51
c-40 -18.667 -81.167 -32.5 -123.5 -41.5s-85.5 -13.5 -129.5 -13.5c-72 0 -133.5 11.5 -184.5 34.5s-92.5 52.833 -124.5 89.5s-55.167 77.667 -69.5 123s-20.833 90.666 -19.5 135.999c0.666992 56.667 11 108.334 31 155.001s47.167 86.834 81.5 120.501
s74.833 59.667 121.5 78s97.334 28.166 152.001 29.499c50 0.666992 96.5 -6.33301 139.5 -21s80.167 -36.334 111.5 -65.001s56 -63.5 74 -104.5s27 -87.167 27 -138.5c0 -36 -4.83301 -70.333 -14.5 -103s-22.834 -61.167 -39.501 -85.5s-35.834 -43.666 -57.501 -57.999
s-44.834 -21.5 -69.501 -21.5c-6.66699 0 -14.334 1 -23.001 3s-17 6 -25 12s-15.167 14.167 -21.5 24.5s-9.83301 23.833 -10.5 40.5h-2c-11.333 -19.333 -23.666 -34.333 -36.999 -45s-26.333 -18.5 -39 -23.5s-24.5 -8.16699 -35.5 -9.5s-19.833 -2 -26.5 -2
c-22 0 -42.5 4.16699 -61.5 12.5s-35.5 20.333 -49.5 36s-25 34.667 -33 57s-12 47.166 -12 74.499c0 28.667 4.66699 56.5 14 83.5s22.5 51 39.5 72s37.5 38 61.5 51s50.667 19.5 80 19.5c23.333 0 42.5 -3.5 57.5 -10.5s27.167 -15.167 36.5 -24.5
s16.166 -19.166 20.499 -29.499s7.5 -18.5 9.5 -24.5h2l14 75h60z" />
    <glyph glyph-name="A" unicode="A" horiz-adv-x="740" 
d="M225 316h287l-142 340zM328 740h83l318 -740h-81l-107 249h-344l-108 -249h-77z" />
    <glyph glyph-name="B" unicode="B" horiz-adv-x="574" 
d="M148 421l93.002 0.000976562c29.333 0 53.333 1.16699 72 3.5s37 8.16602 55 17.499c17.333 9.33301 31.666 23.5 42.999 42.5s17 39.5 17 61.5c0 17.333 -2.83301 32.333 -8.5 45s-13.167 24.667 -22.5 36c-14.667 16.667 -33.834 28.5 -57.501 35.5
s-54.5 10.5 -92.5 10.5h-99v-252zM148.002 67.001l104.003 0.00292969c31.333 0 57.5 1.16699 78.5 3.5s41.5 7.5 61.5 15.5c23.333 9.33301 42.166 25.666 56.499 48.999s21.5 49 21.5 77c0 28.667 -8.33301 54.334 -25 77.001s-37.334 38.667 -62.001 48
c-8.66699 3.33301 -17.334 6.16602 -26.001 8.49902s-18.5 4.16602 -29.5 5.49902s-23.5 2.16602 -37.5 2.49902s-31 0.5 -51 0.5h-91v-287zM74.0049 740.004l186.001 0.00292969c38.667 0 71.5 -4.16699 98.5 -12.5s49.5 -19 67.5 -32s32.167 -27.333 42.5 -43
s18 -30.667 23 -45s8 -27.5 9 -39.5s1.5 -20.333 1.5 -25c0 -22 -3 -41 -9 -57s-13.333 -30 -22 -42s-17.5 -22 -26.5 -30s-16.833 -14.667 -23.5 -20c37.333 -15.333 67.166 -38.833 89.499 -70.5s33.5 -68.834 33.5 -111.501c0 -36 -7.5 -69.333 -22.5 -100
s-35.833 -54.334 -62.5 -71.001c-15.333 -10 -30.333 -17.667 -45 -23s-29.667 -9.33301 -45 -12s-31.833 -4.33398 -49.5 -5.00098s-37.5 -1 -59.5 -1h-186v740z" />
    <glyph glyph-name="C" unicode="C" horiz-adv-x="813" 
d="M771 194c-20 -36 -43.335 -67.168 -70.002 -93.501s-55.167 -47.833 -85.5 -64.5s-61.333 -29 -93 -37s-62.5 -12 -92.5 -12c-52 0 -101.333 9.66699 -148 29s-87.667 46 -123 80s-63.5 74.333 -84.5 121s-31.5 97.334 -31.5 152.001s10.167 105.334 30.5 152.001
s48 87.167 83 121.5s76 61.166 123 80.499s96.833 29 149.5 29c47.333 0 90.333 -7.33301 129 -22s72.334 -32.5 101.001 -53.5s52.167 -43 70.5 -66s31.166 -43.167 38.499 -60.5h-83c-20 30 -42.667 54 -68 72s-50 31.667 -74 41s-46.333 15.333 -67 18s-36.667 4 -48 4
c-43.333 0 -83.833 -8.83301 -121.5 -26.5s-70.5 -41.167 -98.5 -70.5s-50.167 -63 -66.5 -101s-24.5 -77.667 -24.5 -119c0 -43.333 8.66699 -84 26 -122s40.5 -71.333 69.5 -100s62.333 -51.167 100 -67.5s76.5 -24.5 116.5 -24.5c9.33301 0 23.333 1 42 3
s39.834 7.5 63.501 16.5s48.834 22.833 75.501 41.5s52.667 45 78 79h83z" />
    <glyph glyph-name="D" unicode="D" horiz-adv-x="744" 
d="M148 67l106.995 0.00585938c16.667 0 35.334 0.166992 56.001 0.5s42.334 2.33301 65.001 6s45.334 9.5 68.001 17.5s44.334 20 65.001 36c12 8.66699 24.667 20.167 38 34.5s25.833 31.666 37.5 51.999s21.334 43.666 29.001 69.999s11.5 55.5 11.5 87.5
c0 49.333 -11.167 95.666 -33.5 138.999s-53.166 78.666 -92.499 105.999c-16 11.333 -32.667 20.666 -50 27.999s-35.833 13.166 -55.5 17.499s-40.834 7.33301 -63.501 9s-47.667 2.5 -75 2.5h-107v-606zM73.9951 740.006h216c46 0 90 -5.33301 132 -16
s78.333 -25.667 109 -45c32.667 -20.667 59.667 -44.334 81 -71.001s38.5 -54 51.5 -82s22.167 -55.833 27.5 -83.5s8 -52.5 8 -74.5c0 -17.333 -2.16699 -38.833 -6.5 -64.5s-12.5 -52.667 -24.5 -81s-29 -56.666 -51 -84.999s-50.667 -53.833 -86 -76.5
c-30 -19.333 -66.167 -34.333 -108.5 -45s-86.5 -16 -132.5 -16h-216v740z" />
    <glyph glyph-name="E" unicode="E" horiz-adv-x="536" 
d="M70 740h405v-67h-331v-266h320v-67h-320v-273h331v-67h-405v740z" />
    <glyph glyph-name="F" unicode="F" horiz-adv-x="485" 
d="M70 740h374v-67h-300v-268h289v-67h-289v-338h-74v740z" />
    <glyph glyph-name="G" unicode="G" horiz-adv-x="872" 
d="M828 340c-4 -55.333 -18.167 -104.667 -42.5 -148s-54.666 -80.333 -90.999 -111s-77 -54 -122 -70s-90.167 -24 -135.5 -24c-55.333 0 -107.166 10.333 -155.499 31s-90.333 48.667 -126 84s-63.834 76 -84.501 122s-31 94.667 -31 146c0 48 9.5 95 28.5 141
s45.833 86.833 80.5 122.5s76.334 64.5 125.001 86.5s102.667 33 162 33c48.667 0 93 -7.5 133 -22.5s74.833 -33.167 104.5 -54.5s54 -44.166 73 -68.499s32.167 -45.833 39.5 -64.5h-86c-10.667 18 -24.5 35.667 -41.5 53s-36.833 32.666 -59.5 45.999s-47.667 24 -75 32
s-56.333 12 -87 12c-46.667 0 -89.834 -8.83301 -129.501 -26.5s-73.834 -41.167 -102.501 -70.5s-51 -63 -67 -101s-24 -77.667 -24 -119s8 -81 24 -119s38.5 -71.5 67.5 -100.5s63.5 -52.167 103.5 -69.5s83.667 -26 131 -26c39.333 0 75.833 6.5 109.5 19.5
s63.5 30 89.5 51s47.5 44.5 64.5 70.5s28.833 52 35.5 78h-413v67h502z" />
    <glyph glyph-name="H" unicode="H" horiz-adv-x="683" 
d="M76 740h74v-326h383v326h74v-740h-74v347h-383v-347h-74v740z" />
    <glyph glyph-name="I" unicode="I" horiz-adv-x="226" 
d="M76 740h74v-740h-74v740z" />
    <glyph glyph-name="J" unicode="J" horiz-adv-x="482" 
d="M402 235c0 -30 -0.999023 -55.3311 -2.99902 -75.998s-7.33301 -42.334 -16 -65.001c-16 -34 -39.333 -60.333 -70 -79s-66 -28 -106 -28c-22.667 0 -45.5 3.66699 -68.5 11s-44 18.666 -63 33.999s-34.833 34.833 -47.5 58.5s-20 52.167 -22 85.5h73
c3.33301 -40 17.666 -70.333 42.999 -91s54 -31 86 -31c30 0 53.167 6.33301 69.5 19s28.333 28.167 36 46.5s12 38 13 59s1.5 39.833 1.5 56.5v505h74v-505z" />
    <glyph glyph-name="K" unicode="K" horiz-adv-x="591" 
d="M81 740h74v-425h2l339 425h95l-293 -361l293 -379h-93l-247 321l-96 -118v-203h-74v740z" />
    <glyph glyph-name="L" unicode="L" horiz-adv-x="462" 
d="M82 740h74v-673h306v-67h-380v740z" />
    <glyph glyph-name="M" unicode="M" horiz-adv-x="919" 
d="M76 740h114l269 -630l270 630h114v-740h-74v659h-2l-277 -659h-63l-275 659h-2v-659h-74v740z" />
    <glyph glyph-name="N" unicode="N" horiz-adv-x="740" 
d="M75 740h100l413 -614h2v614h74v-740h-74l-439 651h-2v-651h-74v740z" />
    <glyph glyph-name="O" unicode="O" horiz-adv-x="869" 
d="M117 366c0 -42 8.49902 -81.9971 25.499 -119.997s39.833 -71.167 68.5 -99.5s62.167 -50.833 100.5 -67.5s79.166 -25 122.499 -25c42.667 0 83.334 8.16699 122.001 24.5s72.5 38.666 101.5 66.999s52 61.666 69 99.999s25.5 79.5 25.5 123.5
c0 43.333 -8.33301 84.166 -25 122.499s-39.5 72 -68.5 101s-62.667 51.833 -101 68.5s-79.5 25 -123.5 25c-42 0 -82 -8 -120 -24s-71.667 -38.333 -101 -67s-52.666 -62.5 -69.999 -101.5s-26 -81.5 -26 -127.5zM42.999 366.003c0 58 11.168 110.833 33.501 158.5
s51.666 88.5 87.999 122.5s78 60.167 125 78.5s95.167 27.5 144.5 27.5c52 0 101.667 -9.66699 149 -29s89 -46.166 125 -80.499s64.667 -74.833 86 -121.5s32 -97.334 32 -152.001s-10.667 -105.334 -32 -152.001s-50 -87.167 -86 -121.5s-77.667 -61.166 -125 -80.499
s-97 -29 -149 -29c-52.667 0 -102.667 10 -150 30s-88.833 47.167 -124.5 81.5s-64 74.5 -85 120.5s-31.5 95 -31.5 147z" />
    <glyph glyph-name="P" unicode="P" horiz-adv-x="592" 
d="M149 365h107c20 0 36.833 0.166992 50.5 0.5s26 1 37 2s21.167 2.83301 30.5 5.5s19.333 6.33398 30 11.001c29.333 13.333 51 32.166 65 56.499s21 50.5 21 78.5s-7 54.167 -21 78.5s-35.667 43.166 -65 56.499c-10.667 4.66699 -20.667 8.33398 -30 11.001
s-19.5 4.5 -30.5 5.5s-23.333 1.66699 -37 2s-30.5 0.5 -50.5 0.5h-107v-308zM75 740l206 -0.00195312c25.333 0 47.666 -1 66.999 -3s36.5 -4.83301 51.5 -8.5s28.333 -8.16699 40 -13.5s22.5 -11.333 32.5 -18c28 -18.667 50.333 -43.167 67 -73.5s25 -65.166 25 -104.499
s-8.33301 -74.166 -25 -104.499s-39 -54.833 -67 -73.5c-10 -6.66699 -20.833 -12.667 -32.5 -18s-25 -9.83301 -40 -13.5s-32.167 -6.5 -51.5 -8.5s-41.666 -3 -66.999 -3h-132v-298h-74v740z" />
    <glyph glyph-name="Q" unicode="Q" horiz-adv-x="871" 
d="M127 279c14.667 4.66699 34.498 9.99902 59.498 15.999s57.167 9 96.5 9c46 0 87.333 -4.83301 124 -14.5s70 -22.167 100 -37.5s57.5 -32.666 82.5 -51.999s48.833 -38.666 71.5 -57.999c36.667 36 62.834 73.167 78.501 111.5s23.5 75.833 23.5 112.5
c0 46 -8.83301 88.667 -26.5 128s-41.167 73.166 -70.5 101.499s-63.666 50.5 -102.999 66.5s-80.333 24 -123 24c-41.333 0 -81.5 -7.5 -120.5 -22.5s-73.667 -36.5 -104 -64.5s-54.833 -62 -73.5 -102s-28 -84.667 -28 -134c0 -18.667 1.33301 -34.5 4 -47.5
s5.66699 -25.167 9 -36.5zM156.998 215.999c4.66699 -10 13.833 -24.002 27.5 -42.002s32.167 -35.833 55.5 -53.5s51.5 -33.167 84.5 -46.5s71.5 -20 115.5 -20c4.66699 0 12.667 0.166992 24 0.5s24.5 2 39.5 5s31.167 7.83301 48.5 14.5s34.333 16 51 28l-19 15l-30 23
l-31 22.5l-21 14.5c-24 14.667 -48.833 26.167 -74.5 34.5s-49.334 14.333 -71.001 18s-40.167 5.83398 -55.5 6.50098s-25 1 -29 1c-30.667 0 -54.167 -2.16699 -70.5 -6.5s-31.166 -9.16602 -44.499 -14.499zM824.997 -13.0029
c-23.333 0 -43.1699 1.66895 -59.5029 5.00195s-30.666 8 -42.999 14s-23.333 12.833 -33 20.5l-29.5 24.5c-24 -16 -48 -28.333 -72 -37s-46.167 -15 -66.5 -19s-38 -6.33301 -53 -7s-25.167 -1 -30.5 -1c-55.333 0 -107.166 10 -155.499 30s-90.5 47.333 -126.5 82
s-64.333 75 -85 121s-31 95 -31 147c0 48.667 9.16699 96.167 27.5 142.5s44.666 87.5 78.999 123.5s76.166 65 125.499 87s105 33 167 33c56.667 0 109.334 -10 158.001 -30s90.834 -47.333 126.501 -82s63.5 -75.834 83.5 -123.501s30 -98.834 30 -153.501
c0 -49.333 -10 -97 -30 -143s-50.667 -88.333 -92 -127c11.333 -9.33301 21.833 -16.666 31.5 -21.999s18.834 -9.33301 27.501 -12s17.167 -4.33398 25.5 -5.00098s16.833 -1 25.5 -1v-67z" />
    <glyph glyph-name="R" unicode="R" horiz-adv-x="607" 
d="M70 740h187.999c24.667 0 46.5 -0.666992 65.5 -2s35.667 -3.33301 50 -6s26.833 -5.66699 37.5 -9s20.334 -7 29.001 -11c42 -19.333 74.5 -47.833 97.5 -85.5s34.5 -79.5 34.5 -125.5c0 -26.667 -4.83301 -53 -14.5 -79s-23.667 -49.5 -42 -70.5
s-41.166 -38.333 -68.499 -52s-59 -21.5 -95 -23.5l209 -276h-93l-251 335c23.333 0 43.166 0.166992 59.499 0.5s30.5 0.833008 42.5 1.5s22.5 1.66699 31.5 3s17.5 3.33301 25.5 6c20 6 37.667 14.333 53 25s28.166 23 38.499 37s18 29.167 23 45.5s7.5 32.833 7.5 49.5
c0 14.667 -2 29.167 -6 43.5s-9.5 27.833 -16.5 40.5s-15.5 24 -25.5 34s-21 18 -33 24c-22 11.333 -43.667 18.833 -65 22.5s-47.666 5.5 -78.999 5.5h-129v-673h-74v740z" />
    <glyph glyph-name="S" unicode="S" horiz-adv-x="498" 
d="M96 207c2 -46.667 16.666 -83.8359 43.999 -111.503s64 -41.5 110 -41.5c19.333 0 38 3.5 56 10.5s33.833 17 47.5 30s24.667 28.5 33 46.5s12.5 38 12.5 60c0 28.667 -6.33301 52.334 -19 71.001s-27.667 33.834 -45 45.501s-35.333 20.5 -54 26.5l-47 15
c-16.667 4.66699 -36 10.667 -58 18s-43 18 -63 32s-36.833 32.5 -50.5 55.5s-20.5 52.833 -20.5 89.5c0 28.667 5.33301 55.167 16 79.5s25.334 45.333 44.001 63s40.667 31.5 66 41.5s52.666 15 81.999 15c30 0 57.667 -5.33301 83 -16s47 -25.334 65 -44.001
s32 -40.167 42 -64.5s15 -49.833 15 -76.5h-74c0 18.667 -3.5 36.167 -10.5 52.5s-16.5 30.5 -28.5 42.5s-26 21.5 -42 28.5s-32.667 10.5 -50 10.5c-21.333 0 -40.333 -3.66699 -57 -11s-30.667 -17.166 -42 -29.499s-20 -26.166 -26 -41.499s-9 -31 -9 -47
c0 -22.667 4.66699 -41.334 14 -56.001s22 -27 38 -37s34.667 -18.5 56 -25.5s44 -13.833 68 -20.5c45.333 -12.667 80.333 -29.834 105 -51.501s42.667 -43.667 54 -66s17.833 -42.666 19.5 -60.999s2.5 -30.166 2.5 -35.499c0 -28.667 -5.5 -56 -16.5 -82
s-26.333 -49 -46 -69s-43.167 -36 -70.5 -48s-57.333 -18 -90 -18c-24 0 -49.167 3.83301 -75.5 11.5s-50.666 20.167 -72.999 37.5s-41 40 -56 68s-22.833 62.333 -23.5 103h74z" />
    <glyph glyph-name="T" unicode="T" horiz-adv-x="426" 
d="M176 673h-170v67h413v-67h-169v-673h-74v673z" />
    <glyph glyph-name="U" unicode="U" horiz-adv-x="655" 
d="M149 740l0.00195312 -461c0 -27.333 2 -52.666 6 -75.999s10.333 -42.666 19 -57.999c11.333 -20.667 24 -37 38 -49s28 -21.167 42 -27.5s27.5 -10.333 40.5 -12s23.833 -2.5 32.5 -2.5s19.5 0.833008 32.5 2.5s26.5 5.66699 40.5 12s28 15.5 42 27.5
s26.667 28.333 38 49c8.66699 15.333 15 34.666 19 57.999s6 48.666 6 75.999v461h74v-461c0 -62 -9.33301 -113.333 -28 -154c-12.667 -28 -28.334 -50.833 -47.001 -68.5s-38.167 -31.667 -58.5 -42s-40.833 -17.5 -61.5 -21.5s-39.667 -6 -57 -6s-36.333 2 -57 6
s-41.334 11.167 -62.001 21.5s-40.167 24.333 -58.5 42s-33.833 40.5 -46.5 68.5c-18.667 40.667 -28 92 -28 154v461h74z" />
    <glyph glyph-name="V" unicode="V" horiz-adv-x="702" 
d="M8 740h82l261 -648l262 648h80l-307 -740h-73z" />
    <glyph glyph-name="W" unicode="W" horiz-adv-x="960" 
d="M11 740h76l181 -645h2l176 645h69l177 -644h2l181 644h75l-212 -740h-94l-163 607h-2l-162 -607h-95z" />
    <glyph glyph-name="X" unicode="X" horiz-adv-x="609" 
d="M259 378l-237 362h87l197 -296l195 296h86l-238 -362l253 -378h-88l-208 316l-211 -316h-87z" />
    <glyph glyph-name="Y" unicode="Y" horiz-adv-x="592" 
d="M258 247l-257 493h82l211 -415l217 415h81l-260 -493v-247h-74v247z" />
    <glyph glyph-name="Z" unicode="Z" horiz-adv-x="480" 
d="M12 67l364 606h-353v67h436v-67l-363 -606h374v-67h-458v67z" />
    <glyph glyph-name="bracketleft" unicode="[" horiz-adv-x="351" 
d="M337 -179c-20 5.33301 -41.8301 14.167 -65.4971 26.5s-45.667 29.333 -66 51s-37.5 48.667 -51.5 81s-21 71.5 -21 117.5v378c0 34 4 64.167 12 90.5s18.167 49.5 30.5 69.5s26.333 37 42 51s31 25.667 46 35s29 16.5 42 21.5s23.5 8.5 31.5 10.5v-75
c-18.667 -8 -35.834 -17.667 -51.501 -29s-29.334 -25.166 -41.001 -41.499s-20.834 -35.333 -27.501 -57s-10 -46.834 -10 -75.501v-365c0 -18 1 -36.667 3 -56s7.33301 -38.5 16 -57.5s21.667 -37 39 -54s41.333 -32.5 72 -46.5v-75z" />
    <glyph glyph-name="backslash" unicode="\" horiz-adv-x="605" 
d="M477 -100h-76l-283 840h79z" />
    <glyph glyph-name="bracketright" unicode="]" horiz-adv-x="351" 
d="M14 -104c30.667 14 54.6709 29.499 72.0039 46.499s30.333 35 39 54s14 38.167 16 57.5s3 38 3 56v365c0 28.667 -3.33301 53.834 -10 75.501s-15.834 40.667 -27.501 57s-25.334 30.166 -41.001 41.499s-32.834 21 -51.501 29v75c7.33301 -2 17.666 -5.5 30.999 -10.5
s27.5 -12.167 42.5 -21.5s30.167 -21 45.5 -35s29.333 -31 42 -51s23 -43.167 31 -69.5s12 -56.5 12 -90.5v-378c0 -46 -7 -85.167 -21 -117.5s-31.167 -59.333 -51.5 -81s-42.333 -38.667 -66 -51s-45.5 -21.166 -65.5 -26.499v75z" />
    <glyph glyph-name="asciicircum" unicode="^" horiz-adv-x="606" 
d="M271 740h64l218 -433h-70l-181 360l-178 -360h-71z" />
    <glyph glyph-name="underscore" unicode="_" horiz-adv-x="500" 
d="M0 -125v50h500v-50h-500z" />
    <glyph glyph-name="grave" unicode="`" horiz-adv-x="378" 
d="M300 677l-33 -58l-198 107l32 60z" />
    <glyph glyph-name="a" unicode="a" horiz-adv-x="683" 
d="M112 272c0 -30.667 5.33203 -59.498 15.999 -86.498s25.834 -50.5 45.501 -70.5s43.334 -35.833 71.001 -47.5s58.167 -17.5 91.5 -17.5c29.333 0 57.333 5.66699 84 17s50 26.833 70 46.5s35.833 43.167 47.5 70.5s17.5 57 17.5 89c0 30 -5.5 58.667 -16.5 86
s-26.333 51.166 -46 71.499s-42.834 36.666 -69.501 48.999s-55.667 18.5 -87 18.5c-30 0 -58.5 -5.33301 -85.5 -16s-50.833 -25.667 -71.5 -45s-37 -43 -49 -71s-18 -59.333 -18 -94zM620.999 0.00195312h-70v96h-2c-15.333 -22.667 -32.333 -41 -51 -55
s-37.667 -25 -57 -33s-38.166 -13.5 -56.499 -16.5s-34.5 -4.5 -48.5 -4.5c-43.333 0 -83 7.66699 -119 23s-67 36 -93 62s-46.167 56.5 -60.5 91.5s-21.5 72.167 -21.5 111.5c0 36.667 7 72.167 21 106.5s33.667 64.833 59 91.5s56.166 48 92.499 64s76.833 24 121.5 24
c14.667 0 31.334 -1.5 50.001 -4.5s37.667 -8.5 57 -16.5s38.166 -19.167 56.499 -33.5s34.833 -32.833 49.5 -55.5h2v96h70v-547z" />
    <glyph glyph-name="b" unicode="b" horiz-adv-x="682" 
d="M577 272c0 34.667 -6.00195 65.998 -18.002 93.998s-28.333 51.667 -49 71s-44.5 34.333 -71.5 45s-55.5 16 -85.5 16c-31.333 0 -60.5 -6.16699 -87.5 -18.5s-50.167 -28.666 -69.5 -48.999s-34.5 -44.166 -45.5 -71.499s-16.5 -56 -16.5 -86
c0 -32 5.83301 -61.667 17.5 -89s27.5 -50.833 47.5 -70.5s43.333 -35.167 70 -46.5s54.667 -17 84 -17c33.333 0 63.833 5.83301 91.5 17.5s51.334 27.5 71.001 47.5s34.834 43.5 45.501 70.5s16 55.833 16 86.5zM67.998 739.998l70 0.000976562v-289h2
c15.333 22 32.333 40.167 51 54.5s37.5 25.666 56.5 33.999s37.667 14 56 17s34.833 4.5 49.5 4.5c44.667 0 85.167 -8 121.5 -24s67.166 -37.333 92.499 -64s45 -57.167 59 -91.5s21 -69.833 21 -106.5c0 -39.333 -7.33301 -76.5 -22 -111.5s-35 -65.5 -61 -91.5
s-57 -46.667 -93 -62s-75.333 -23 -118 -23c-14 0 -30.167 1.5 -48.5 4.5s-37.166 8.5 -56.499 16.5s-38.333 19.167 -57 33.5s-35.667 32.5 -51 54.5h-2v-96h-70v740z" />
    <glyph glyph-name="c" unicode="c" horiz-adv-x="647" 
d="M607 161c-8.66699 -17.333 -20.002 -36 -34.002 -56s-31.833 -38.833 -53.5 -56.5s-47.667 -32.334 -78 -44.001s-65.833 -17.5 -106.5 -17.5c-42.667 0 -82 7.66699 -118 23s-67 36.166 -93 62.499s-46.333 56.833 -61 91.5s-22 71 -22 109
c0 39.333 7.66699 76.5 23 111.5s36.333 65.5 63 91.5s57.834 46.667 93.501 62s73.834 23 114.501 23c24 0 49.167 -3.16699 75.5 -9.5s51.833 -16.666 76.5 -30.999s47.5 -32.833 68.5 -55.5s38.167 -50.334 51.5 -83.001h-77c-11.333 20.667 -24.5 38.334 -39.5 53.001
s-31 26.667 -48 36s-34.5 16.166 -52.5 20.499s-35.667 6.5 -53 6.5c-26.667 0 -53.5 -4.83301 -80.5 -14.5s-51.167 -24 -72.5 -43s-38.833 -42.333 -52.5 -70s-20.5 -59.5 -20.5 -95.5c0 -30.667 5.66699 -59.667 17 -87s27 -51.166 47 -71.499s43.833 -36.5 71.5 -48.5
s57.834 -18 90.501 -18c28.667 0 53.834 3.83301 75.501 11.5s40.167 17.167 55.5 28.5s28.166 23.333 38.499 36s18.166 24.334 23.499 35.001h77z" />
    <glyph glyph-name="d" unicode="d" horiz-adv-x="685" 
d="M109 272c0 -30.667 5.33203 -59.498 15.999 -86.498s25.834 -50.5 45.501 -70.5s43.334 -35.833 71.001 -47.5s58.167 -17.5 91.5 -17.5c29.333 0 57.333 5.66699 84 17s50 26.833 70 46.5s35.833 43.167 47.5 70.5s17.5 57 17.5 89c0 30 -5.5 58.667 -16.5 86
s-26.333 51.166 -46 71.499s-42.834 36.666 -69.501 48.999s-55.667 18.5 -87 18.5c-30 0 -58.5 -5.33301 -85.5 -16s-50.833 -25.667 -71.5 -45s-37 -43 -49 -71s-18 -59.333 -18 -94zM617.999 0.00195312h-69.999v96h-2c-14.667 -22 -31.167 -40 -49.5 -54
s-37.333 -25 -57 -33s-38.667 -13.667 -57 -17s-34.833 -5 -49.5 -5c-43.333 0 -83 7.66699 -119 23s-67 36 -93 62s-46.167 56.5 -60.5 91.5s-21.5 72.167 -21.5 111.5c0 36.667 7 72.167 21 106.5s33.667 64.833 59 91.5s56.166 48 92.499 64s76.833 24 121.5 24
c14.667 0 31.334 -1.66699 50.001 -5s37.667 -9 57 -17s38.166 -19 56.499 -33s34.833 -31.667 49.5 -53h2v287h70v-740z" />
    <glyph glyph-name="e" unicode="e" horiz-adv-x="650" 
d="M537 311c-5.33301 32 -15.5 59.833 -30.5 83.5s-32.5 43.167 -52.5 58.5s-41.333 26.666 -64 33.999s-45 11 -67 11c-21.333 0 -43.5 -3.66699 -66.5 -11s-44.5 -18.666 -64.5 -33.999s-37.5 -34.833 -52.5 -58.5s-24.833 -51.5 -29.5 -83.5h427zM110 248
c1.33301 -26.667 7.99609 -52.0039 19.9961 -76.0039s27.833 -45.167 47.5 -63.5s42 -32.666 67 -42.999s50.833 -15.5 77.5 -15.5c24.667 0 47.667 3.66699 69 11s40.333 16.833 57 28.5s31 25.167 43 40.5s21 31.666 27 48.999h74
c-9.33301 -27.333 -22.666 -52.666 -39.999 -75.999s-37.833 -43.666 -61.5 -60.999s-49.667 -30.833 -78 -40.5s-58.166 -14.5 -89.499 -14.5c-38 0 -74.333 7.33301 -109 22s-65 34.834 -91 60.501s-46.667 55.834 -62 90.501s-23 72.334 -23 113.001
c0 38.667 7.33301 75.334 22 110.001s34.834 65.167 60.501 91.5s55.667 47.333 90 63s71.5 23.5 111.5 23.5c30 0 57.667 -4 83 -12s48.333 -18.833 69 -32.5s38.667 -28.834 54 -45.501s28 -33.334 38 -50.001c18 -30 29.833 -59.667 35.5 -89
s7.83398 -57.333 6.50098 -84h-498z" />
    <glyph glyph-name="f" unicode="f" horiz-adv-x="314" 
d="M104 484l-84.999 -0.00195312v63h85c0.666992 12.667 1.5 26.5 2.5 41.5s3.66699 30 8 45s10.833 29.667 19.5 44s20.667 27 36 38s34.666 19.833 57.999 26.5s52 10.334 86 11.001v-65c-35.333 0 -62.5 -5 -81.5 -15s-32.833 -22.167 -41.5 -36.5
s-13.667 -29.666 -15 -45.999s-2 -30.833 -2 -43.5h140v-63h-140v-484h-70v484z" />
    <glyph glyph-name="g" unicode="g" horiz-adv-x="673" 
d="M107 273c0 -30 5.5 -58.332 16.5 -84.999s26 -50.334 45 -71.001s41.667 -37 68 -49s55.166 -18 86.499 -18c36 0 67.667 7.33301 95 22s50 33 68 55s31.5 46 40.5 72s13.5 50.667 13.5 74c0 30 -5.5 58.667 -16.5 86s-26.333 51.166 -46 71.499
s-42.667 36.666 -69 48.999s-54.833 18.5 -85.5 18.5c-31.333 0 -60.166 -6.16699 -86.499 -18.5s-49 -28.666 -68 -48.999s-34 -44.166 -45 -71.499s-16.5 -56 -16.5 -86zM606 86.001c0 -14.667 -0.331055 -30.166 -0.998047 -46.499s-2.5 -33 -5.5 -50s-8 -34.333 -15 -52
s-16.5 -34.834 -28.5 -51.501c-17.333 -24 -37.333 -42.667 -60 -56s-44.834 -23.333 -66.501 -30s-40.834 -10.834 -57.501 -12.501s-27.667 -2.5 -33 -2.5c-19.333 0 -42.5 2.5 -69.5 7.5s-54 14.667 -81 29s-52.167 34.666 -75.5 60.999s-41.333 60.833 -54 103.5h74
c4.66699 -11.333 11.667 -24.833 21 -40.5s22.166 -30.834 38.499 -45.501s36.333 -27 60 -37s52.167 -15 85.5 -15c22.667 0 45.834 3.5 69.501 10.5s45 18.5 64 34.5s34.5 37 46.5 63s18 58 18 96v48h-2c-10 -19.333 -23 -36.166 -39 -50.499s-33.333 -26.166 -52 -35.499
s-38.334 -16.166 -59.001 -20.499s-41 -6.5 -61 -6.5c-36 0 -71.167 6.66699 -105.5 20s-64.833 32.5 -91.5 57.5s-48.167 54.833 -64.5 89.5s-24.5 73.667 -24.5 117s8.16699 82.833 24.5 118.5s37.833 66.167 64.5 91.5s57.167 45 91.5 59s69.5 21 105.5 21
c12.667 0 27.834 -1.33301 45.501 -4s36.167 -8 55.5 -16s38.5 -19.333 57.5 -34s36.5 -34 52.5 -58h2v98h70v-461z" />
    <glyph glyph-name="h" unicode="h" horiz-adv-x="610" 
d="M62 740h69.9971v-263h2c5.33301 8 12.666 17 21.999 27s21 19.167 35 27.5s30.167 15.333 48.5 21s39.166 8.5 62.499 8.5c34 0 65 -4.83301 93 -14.5s54.667 -27.167 80 -52.5c20.667 -20 37.167 -45.833 49.5 -77.5s18.5 -70.167 18.5 -115.5v-301h-70v301
c0 36 -4.83301 66.333 -14.5 91s-22.167 44.334 -37.5 59.001c-19.333 18.667 -40.166 31.167 -62.499 37.5s-41.166 9.5 -56.499 9.5s-34.166 -3.16699 -56.499 -9.5s-43.166 -18.833 -62.499 -37.5c-15.333 -14.667 -27.666 -34.334 -36.999 -59.001s-14 -55 -14 -91v-301
h-70v740z" />
    <glyph glyph-name="i" unicode="i" horiz-adv-x="200" 
d="M65 740h70v-126h-70v126zM65 547h70v-547h-70v547z" />
    <glyph glyph-name="j" unicode="j" horiz-adv-x="203" 
d="M67 740h70v-126h-70v126zM137 38c0 -16.667 -0.333008 -33.166 -1 -49.499s-2.83398 -32.5 -6.50098 -48.5s-9.66699 -31.333 -18 -46s-19.833 -28.667 -34.5 -42c-12 -10.667 -23.667 -18.834 -35 -24.501s-22 -10 -32 -13s-19.5 -4.83301 -28.5 -5.5s-17.5 -1 -25.5 -1
v69c22.667 0.666992 41.334 5 56.001 13s26 19 34 33s13.5 30.833 16.5 50.5s4.5 41.167 4.5 64.5v509h70v-509z" />
    <glyph glyph-name="k" unicode="k" horiz-adv-x="502" 
d="M70 740h70v-527h2l255 334h90l-216 -276l227 -271h-90l-180 216l-88 -112v-104h-70v740z" />
    <glyph glyph-name="l" unicode="l" horiz-adv-x="200" 
d="M65 740h70v-740h-70v740z" />
    <glyph glyph-name="m" unicode="m" horiz-adv-x="938" 
d="M66 547h70.002v-63l-2 2v-2h2c8 13.333 17.833 24.833 29.5 34.5s24.167 17.667 37.5 24s27.166 11 41.499 14s27.833 4.5 40.5 4.5c11.333 0 25.5 -1.5 42.5 -4.5s34.167 -8.5 51.5 -16.5s34.166 -18.833 50.499 -32.5s29.5 -30.834 39.5 -51.501
c10 20.667 23.167 37.834 39.5 51.501s33.166 24.5 50.499 32.5s34.5 13.5 51.5 16.5s31.167 4.5 42.5 4.5c20.667 0 43.834 -3.5 69.501 -10.5s49.5 -19.5 71.5 -37.5s40.5 -42.167 55.5 -72.5s22.5 -68.833 22.5 -115.5v-325h-70v317c0 30 -2.33301 53.333 -7 70
s-10.667 31.334 -18 44.001c-11.333 19.333 -27.333 35.333 -48 48s-46 19 -76 19s-55.333 -6.33301 -76 -19s-36.667 -28.667 -48 -48c-7.33301 -12.667 -13.333 -27.334 -18 -44.001s-7 -40 -7 -70v-317h-70v317c0 30 -2.33301 53.333 -7 70s-10.667 31.334 -18 44.001
c-11.333 19.333 -27.333 35.333 -48 48s-46 19 -76 19s-55.333 -6.33301 -76 -19s-36.667 -28.667 -48 -48c-7.33301 -12.667 -13.333 -27.334 -18 -44.001s-7 -40 -7 -70v-317h-70v547z" />
    <glyph glyph-name="n" unicode="n" horiz-adv-x="610" 
d="M65 547h69.9971v-70h2c5.33301 8 12.666 17 21.999 27s21 19.167 35 27.5s30.167 15.333 48.5 21s39.166 8.5 62.499 8.5c34 0 65 -4.83301 93 -14.5s54.667 -27.167 80 -52.5c20.667 -20 37.167 -45.833 49.5 -77.5s18.5 -70.167 18.5 -115.5v-301h-70v301
c0 36 -4.83301 66.333 -14.5 91s-22.167 44.334 -37.5 59.001c-19.333 18.667 -40.166 31.167 -62.499 37.5s-41.166 9.5 -56.499 9.5s-34.166 -3.16699 -56.499 -9.5s-43.166 -18.833 -62.499 -37.5c-15.333 -14.667 -27.666 -34.334 -36.999 -59.001s-14 -55 -14 -91v-301
h-70v547z" />
    <glyph glyph-name="o" unicode="o" horiz-adv-x="655" 
d="M112 271c0 -32 5.99805 -61.5 17.998 -88.5s28 -50.333 48 -70s43 -35 69 -46s53 -16.5 81 -16.5c26.667 0 52.834 5.16699 78.501 15.5s48.667 25.166 69 44.499s36.833 43 49.5 71s19 60 19 96s-6.83301 67.833 -20.5 95.5s-31 50.667 -52 69s-44.333 32.333 -70 42
s-50.167 14.5 -73.5 14.5c-25.333 0 -50.666 -5 -75.999 -15s-48.5 -24.667 -69.5 -44s-38 -43.166 -51 -71.499s-19.5 -60.5 -19.5 -96.5zM41.998 270c0 43.333 8.16895 82.832 24.502 118.499s37.666 66.334 63.999 92.001s56.666 45.5 90.999 59.5s69.5 21 105.5 21
c40.667 0 78.5 -8 113.5 -24s65.333 -37.167 91 -63.5s45.834 -56.833 60.501 -91.5s22 -70.667 22 -108s-7.33301 -73.333 -22 -108s-34.667 -65.167 -60 -91.5s-55.666 -47.5 -90.999 -63.5s-73.333 -24 -114 -24c-40 0 -77.333 7.83301 -112 23.5
s-64.834 36.5 -90.501 62.5s-45.834 56 -60.501 90s-22 69.667 -22 107z" />
    <glyph glyph-name="p" unicode="p" horiz-adv-x="682" 
d="M573 272c0 34.667 -6.00195 65.998 -18.002 93.998s-28.333 51.667 -49 71s-44.5 34.333 -71.5 45s-55.5 16 -85.5 16c-31.333 0 -60.5 -6.16699 -87.5 -18.5s-50.167 -28.666 -69.5 -48.999s-34.5 -44.166 -45.5 -71.499s-16.5 -56 -16.5 -86
c0 -32 5.83301 -61.667 17.5 -89s27.5 -50.833 47.5 -70.5s43.333 -35.167 70 -46.5s54.667 -17 84 -17c33.333 0 63.833 5.83301 91.5 17.5s51.334 27.5 71.001 47.5s34.834 43.5 45.501 70.5s16 55.833 16 86.5zM63.998 546.998h70v-96h2
c16 22.667 33.167 41.167 51.5 55.5s37 25.5 56 33.5s37.667 13.5 56 16.5s34.833 4.5 49.5 4.5c44.667 0 85.167 -8 121.5 -24s67.166 -37.333 92.499 -64s45 -57.167 59 -91.5s21 -69.833 21 -106.5c0 -39.333 -7.33301 -76.5 -22 -111.5s-35 -65.5 -61 -91.5
s-57 -46.667 -93 -62s-75.333 -23 -118 -23c-14 0 -30.167 1.5 -48.5 4.5s-37.166 8.5 -56.499 16.5s-38.333 19.167 -57 33.5s-35.667 32.5 -51 54.5h-2v-288h-70v739z" />
    <glyph glyph-name="q" unicode="q" horiz-adv-x="682" 
d="M107 272c0 -30.667 5.33203 -59.498 15.999 -86.498s25.834 -50.5 45.501 -70.5s43.334 -35.833 71.001 -47.5s58.167 -17.5 91.5 -17.5c29.333 0 57.333 5.66699 84 17s50 26.833 70 46.5s35.833 43.167 47.5 70.5s17.5 57 17.5 89c0 30 -5.5 58.667 -16.5 86
s-26.333 51.166 -46 71.499s-42.834 36.666 -69.501 48.999s-55.667 18.5 -87 18.5c-30 0 -58.5 -5.33301 -85.5 -16s-50.833 -25.667 -71.5 -45s-37 -43 -49 -71s-18 -59.333 -18 -94zM615.999 -191.998h-69.998v288h-2c-14.667 -22.667 -31.334 -41 -50.001 -55
s-37.667 -25 -57 -33s-38.333 -13.5 -57 -16.5s-35 -4.5 -49 -4.5c-43.333 0 -83 7.66699 -119 23s-67 36 -93 62s-46.167 56.5 -60.5 91.5s-21.5 72.167 -21.5 111.5c0 36.667 7 72.167 21 106.5s33.667 64.833 59 91.5s56.166 48 92.499 64s76.833 24 121.5 24
c14.667 0 31.334 -1.5 50.001 -4.5s37.667 -8.5 57 -16.5s38.166 -19.167 56.499 -33.5s34.833 -32.833 49.5 -55.5h2v96h70v-739z" />
    <glyph glyph-name="r" unicode="r" horiz-adv-x="301" 
d="M65 547h69.999v-79h2c8 19.333 17.833 34.833 29.5 46.5s24.167 20.834 37.5 27.501s27.5 11.167 42.5 13.5s29.833 4.16602 44.5 5.49902v-74c-24.667 -2 -47.167 -7.5 -67.5 -16.5s-37.166 -21.5 -50.499 -37.5c-12 -15.333 -21.333 -32.5 -28 -51.5
s-10 -39.5 -10 -61.5v-320h-70v547z" />
    <glyph glyph-name="s" unicode="s" horiz-adv-x="388" 
d="M94 162c0.666992 -26 5.00195 -46.5029 13.002 -61.5029s17.167 -26.167 27.5 -33.5s21 -12 32 -14s19.5 -3 25.5 -3c33.333 0 58.666 8.83301 75.999 26.5s26 41.5 26 71.5c0 18.667 -3.66699 34.167 -11 46.5s-16.5 22.5 -27.5 30.5s-22.833 14.333 -35.5 19l-35 13
l-46 18c-16.667 6.66699 -32.334 15.667 -47.001 27s-27 25.5 -37 42.5s-15 38.5 -15 64.5c0 19.333 3.33301 38.166 10 56.499s16.667 34.5 30 48.5s29.666 25.333 48.999 34s41.666 13 66.999 13c20.667 0 40 -3.66699 58 -11s33.833 -17.666 47.5 -30.999
s24.334 -29.166 32.001 -47.499s11.5 -38.166 11.5 -59.499h-70c-1.33301 16.667 -4.83301 30.5 -10.5 41.5s-12.5 19.833 -20.5 26.5s-16.5 11.334 -25.5 14.001s-17.5 4 -25.5 4c-14 0 -26.167 -2.5 -36.5 -7.5s-19 -11.5 -26 -19.5s-12.167 -16.833 -15.5 -26.5
s-5 -19.167 -5 -28.5c0 -14.667 3.16699 -27 9.5 -37s14.5 -18.5 24.5 -25.5s20.667 -12.667 32 -17s22 -8.16602 32 -11.499c16 -5.33301 33 -11.833 51 -19.5s34.833 -17.834 50.5 -30.501s28.667 -28.667 39 -48s15.5 -43 15.5 -71c0 -23.333 -3.5 -45.333 -10.5 -66
s-17.667 -38.667 -32 -54s-32.333 -27.333 -54 -36s-46.834 -13 -75.501 -13c-19.333 0 -39 3.33301 -59 10s-38.167 17.167 -54.5 31.5s-29.666 32.5 -39.999 54.5s-15.166 48.333 -14.499 79h70z" />
    <glyph glyph-name="t" unicode="t" horiz-adv-x="339" 
d="M129 484h-115v63h115v193h70v-193h131v-63h-131v-484h-70v484z" />
    <glyph glyph-name="u" unicode="u" horiz-adv-x="608" 
d="M541 0l-65.999 0.000976562v85h-2c-5.33301 -10 -12.5 -20.833 -21.5 -32.5s-20.667 -22.334 -35 -32.001s-31.333 -17.667 -51 -24s-42.167 -9.5 -67.5 -9.5c-27.333 0 -51.333 2.83301 -72 8.5s-38.5 12.667 -53.5 21s-27.667 17.333 -38 27s-18.5 18.167 -24.5 25.5
c-19.333 24 -32.166 52 -38.499 84s-9.5 62.667 -9.5 92v302h70v-301c0 -34.667 3.33301 -63.667 10 -87s16.334 -42.333 29.001 -57c18.667 -22 39.667 -36.167 63 -42.5s44.666 -9.5 63.999 -9.5s39.166 3 59.499 9s39.166 17.667 56.499 35c8 8 15.5 16.5 22.5 25.5
s13 19.833 18 32.5s9 27.5 12 44.5s4.5 37.5 4.5 61.5v289h70v-547z" />
    <glyph glyph-name="v" unicode="v" 
d="M7 547h75l193 -460l196 460h75l-231 -547h-77z" />
    <glyph glyph-name="w" unicode="w" horiz-adv-x="831" 
d="M13 547h73l172 -458h2l125 392h61l126 -392h2l174 458h72l-209 -547h-79l-116 364h-2l-114 -364h-79z" />
    <glyph glyph-name="x" unicode="x" horiz-adv-x="480" 
d="M199 278l-187 269h84l144 -211l143 211h85l-187 -269l187 -278h-83l-145 219l-145 -219h-83z" />
    <glyph glyph-name="y" unicode="y" horiz-adv-x="536" 
d="M228 18l-213 529h74l174 -436l186 436h74l-317 -739h-73z" />
    <glyph glyph-name="z" unicode="z" horiz-adv-x="425" 
d="M10 61l303 423h-293v63h377v-63l-300 -421h318v-63h-405v61z" />
    <glyph glyph-name="braceleft" unicode="{" horiz-adv-x="351" 
d="M331 680l-50 -0.00292969c-10 0 -18 -2.5 -24 -7.5s-10.833 -11.5 -14.5 -19.5s-6.16699 -17.167 -7.5 -27.5s-2 -20.833 -2 -31.5v-183c0 -23.333 -3.5 -43.166 -10.5 -59.499s-15.167 -29.833 -24.5 -40.5s-18.833 -18.667 -28.5 -24s-17.5 -8.66602 -23.5 -9.99902v-3
c6 -0.666992 13.833 -3.33398 23.5 -8.00098s19.167 -12 28.5 -22s17.5 -23.5 24.5 -40.5s10.5 -38.167 10.5 -63.5v-183c0 -10 0.666992 -20.167 2 -30.5s3.83301 -19.666 7.5 -27.999s8.5 -15 14.5 -20s14 -7.5 24 -7.5h50v-60h-66c-29.333 0 -54.333 11.167 -75 33.5
s-31 54.833 -31 97.5v182c0 18 -2.5 34.333 -7.5 49s-11.667 27 -20 37s-17.833 17.833 -28.5 23.5s-21.667 8.83398 -33 9.50098v64c11.333 0.666992 22.333 4 33 10s20.167 14.167 28.5 24.5s15 22.833 20 37.5s7.5 30.667 7.5 48v182c0 42.667 10.333 75.167 31 97.5
s45.667 33.5 75 33.5h66v-60z" />
    <glyph glyph-name="bar" unicode="|" horiz-adv-x="672" 
d="M373 740v-840h-74v840h74z" />
    <glyph glyph-name="braceright" unicode="}" horiz-adv-x="351" 
d="M20 740l66 0.00292969c29.333 0 54.333 -11.167 75 -33.5s31 -54.833 31 -97.5v-182c0 -17.333 2.5 -33.333 7.5 -48s11.667 -27.167 20 -37.5s17.833 -18.5 28.5 -24.5s21.667 -9.33301 33 -10v-64c-11.333 -0.666992 -22.333 -3.83398 -33 -9.50098
s-20.167 -13.5 -28.5 -23.5s-15 -22.333 -20 -37s-7.5 -31 -7.5 -49v-182c0 -42.667 -10.333 -75.167 -31 -97.5s-45.667 -33.5 -75 -33.5h-66v60h50c10 0 18 2.5 24 7.5s10.833 11.667 14.5 20s6.16699 17.666 7.5 27.999s2 20.5 2 30.5v183c0 25.333 3.5 46.5 10.5 63.5
s15.167 30.5 24.5 40.5s18.833 17.333 28.5 22s17.5 7.33398 23.5 8.00098v3c-6 1.33301 -13.833 4.66602 -23.5 9.99902s-19.167 13.333 -28.5 24s-17.5 24.167 -24.5 40.5s-10.5 36.166 -10.5 59.499v183c0 10.667 -0.666992 21.167 -2 31.5s-3.83301 19.5 -7.5 27.5
s-8.5 14.5 -14.5 19.5s-14 7.5 -24 7.5h-50v60z" />
    <glyph glyph-name="asciitilde" unicode="~" horiz-adv-x="606" 
d="M534 269c-7.33301 -10.667 -15.1689 -21.165 -23.502 -31.498s-17.333 -19.5 -27 -27.5s-20.667 -14.5 -33 -19.5s-26.166 -7.5 -41.499 -7.5c-18.667 0 -36.167 3.16699 -52.5 9.5s-32.833 14.166 -49.5 23.499c-16 9.33301 -33.333 18.166 -52 26.499
s-39.667 12.5 -63 12.5c-11.333 0 -21.166 -2.33301 -29.499 -7s-16 -10.667 -23 -18s-13 -15.5 -18 -24.5s-9.5 -17.833 -13.5 -26.5l-36 50c5.33301 10.667 11.833 21.167 19.5 31.5s16.5 19.5 26.5 27.5s21.5 14.5 34.5 19.5s27.833 7.5 44.5 7.5
c17.333 0 35.333 -3.16699 54 -9.5s37.667 -13.833 57 -22.5c18.667 -8 37 -16.667 55 -26s33.667 -14 47 -14c10 0 19.167 2.33301 27.5 7s16 10.667 23 18s13.5 15.5 19.5 24.5l18 26.5z" />
    <glyph glyph-name="exclamdown" unicode="&#xa1;" horiz-adv-x="295" 
d="M110 548h74v-126h-74v126zM110 355h74v-547h-74v547z" />
    <glyph glyph-name="cent" unicode="&#xa2;" 
d="M246 62l-0.00195312 93.9961c-28.667 4 -55.167 12.833 -79.5 26.5s-45.166 30.5 -62.499 50.5s-31 42.833 -41 68.5s-15 52.834 -15 81.501s5 55.834 15 81.501s23.667 48.5 41 68.5s38.166 36.833 62.499 50.5s50.833 22.5 79.5 26.5v97h74v-96
c44.667 -5.33301 83.667 -21.333 117 -48s57.666 -60 72.999 -100h-81c-6 10 -13 20 -21 30s-17.833 19 -29.5 27s-25.167 14.5 -40.5 19.5s-33 7.5 -53 7.5c-25.333 0 -48 -5 -68 -15s-37 -22.833 -51 -38.5s-24.833 -33.167 -32.5 -52.5s-11.5 -38.666 -11.5 -57.999
s3.83301 -38.666 11.5 -57.999s18.5 -36.833 32.5 -52.5s31 -28.5 51 -38.5s42.667 -15 68 -15c19.333 0 36.333 2.16699 51 6.5s27.334 10 38.001 17s19.834 14.667 27.501 23s14.167 16.833 19.5 25.5h83c-15.333 -36 -39.166 -66.333 -71.499 -91
s-69.833 -39.667 -112.5 -45v-93h-74z" />
    <glyph glyph-name="sterling" unicode="&#xa3;" 
d="M29 63h147.998c11.333 17.333 20.166 36.166 26.499 56.499s9.16602 41.166 8.49902 62.499c0 20 -3.33301 37.5 -10 52.5s-15 28.833 -25 41.5s-21 24.834 -33 36.501s-23.333 23.834 -34 36.501h-106v63h59c-4.66699 10.667 -9.5 23.834 -14.5 39.501
s-7.5 35.167 -7.5 58.5c0 32.667 5.5 63.667 16.5 93s26.833 55.166 47.5 77.499s45.334 40 74.001 53s61 19.5 97 19.5c28.667 0 56.334 -4.83301 83.001 -14.5s50.834 -23.5 72.501 -41.5s39.667 -40.167 54 -66.5s23.5 -56.166 27.5 -89.499h-72
c-3.33301 20.667 -9.66602 40.167 -18.999 58.5s-21.166 34.166 -35.499 47.499s-30.833 23.833 -49.5 31.5s-39 11.5 -61 11.5c-22.667 0 -43.834 -4.33301 -63.501 -13s-36.667 -20.834 -51 -36.501s-25.666 -34.5 -33.999 -56.5s-12.5 -46.667 -12.5 -74
c0 -26.667 3 -46.834 9 -60.501s12.667 -26.167 20 -37.5h285v-63h-225v-2c25.333 -22 45.166 -47 59.499 -75s21.833 -58 22.5 -90c0 -25.333 -3.66699 -48 -11 -68l-19 -51h43c12.667 0 29.167 1.33301 49.5 4s40 9.33398 59 20.001s35.5 26 49.5 46s21 47.667 21 83
c0 10.667 -1 19.834 -3 27.501s-4 15.834 -6 24.501h74c2.66699 -8 4.83398 -16 6.50098 -24s2.5 -18.667 2.5 -32c0 -10 -1 -22.167 -3 -36.5s-6.16699 -29.333 -12.5 -45s-15.333 -31.334 -27 -47.001s-26.667 -29.667 -45 -42s-40.833 -22.333 -67.5 -30
s-58.334 -11.5 -95.001 -11.5h-273v63z" />
    <glyph glyph-name="currency" unicode="&#xa4;" 
d="M8 84l97.9971 97.999c-13.333 16.667 -23.833 36 -31.5 58s-11.5 45.667 -11.5 71s4 49.333 12 72s18.333 41.667 31 57l-98 96l44 44l96 -98c16.667 13.333 36 23.833 58 31.5s45.667 11.5 71 11.5c26 0 50.333 -4 73 -12s41.334 -18.333 56.001 -31l98 98l42 -44
l-96 -96c12.667 -15.333 23 -34.333 31 -57s12 -46.667 12 -72c0 -26 -4 -50.167 -12 -72.5s-18.333 -41.166 -31 -56.499l96 -98l-42 -42l-98 96c-15.333 -12.667 -34.166 -23 -56.499 -31s-46.5 -12 -72.5 -12s-50.167 4 -72.5 12s-41.166 18.333 -56.499 31l-96 -96z
M276.997 466.999c-21.333 0 -41.333 -4.33301 -60 -13s-35 -20.167 -49 -34.5s-25 -30.833 -33 -49.5s-12 -38.334 -12 -59.001c0 -21.333 4 -41.5 12 -60.5s19 -35.667 33 -50s30.333 -25.833 49 -34.5s38.667 -13 60 -13c22 0 42.5 4.33301 61.5 13s35.5 20.167 49.5 34.5
s25 31 33 50s12 39.167 12 60.5c0 20.667 -4 40.334 -12 59.001s-19 35.167 -33 49.5s-30.5 25.833 -49.5 34.5s-39.5 13 -61.5 13z" />
    <glyph glyph-name="yen" unicode="&#xa5;" 
d="M240 227h-207v63h207v58l-17 26h-190v63h152l-181 303h80l194 -325l192 325h80l-181 -303h152v-63h-190l-17 -26v-58h207v-64h-207v-226h-74v227z" />
    <glyph glyph-name="brokenbar" unicode="&#xa6;" horiz-adv-x="672" 
d="M373 236v-336h-74v336h74zM373 740v-336h-74v336h74z" />
    <glyph glyph-name="section" unicode="&#xa7;" horiz-adv-x="615" 
d="M218 453c-21.333 -12 -36.501 -27.668 -45.501 -47.001s-13.5 -37.666 -13.5 -54.999c0 -20.667 5.5 -37 16.5 -49s22.833 -21 35.5 -27l188 -94c18.667 11.333 32.667 26.333 42 45s14 36.667 14 54c0 12 -2 22.5 -6 31.5s-9.16699 17 -15.5 24s-13.166 13 -20.499 18
s-14 9.16699 -20 12.5zM407.999 605.999c0 23.333 -8.33301 42.501 -25 57.501s-40.334 22.5 -71.001 22.5c-32.667 0 -58.167 -9 -76.5 -27s-27.5 -41.333 -27.5 -70c0 -18 4.33301 -34 13 -48s23.334 -26 44.001 -36l147 -73l40 -22c14 -8 26.667 -17.667 38 -29
s20.666 -25.166 27.999 -41.499s11 -35.833 11 -58.5c0 -8.66699 -1.5 -18.667 -4.5 -30s-7.83301 -23.333 -14.5 -36s-15 -25 -25 -37s-22.333 -22.667 -37 -32c20.667 -17.333 34.5 -36 41.5 -56s10.5 -41 10.5 -63c0 -21.333 -4.33301 -42 -13 -62
s-21.167 -37.833 -37.5 -53.5s-36.166 -28.334 -59.499 -38.001s-49.333 -14.5 -78 -14.5c-30 0 -57.333 5.16699 -82 15.5s-45.834 24.833 -63.501 43.5s-31.5 40.334 -41.5 65.001s-15.333 51.667 -16 81h74c3.33301 -48.667 17.166 -83.834 41.499 -105.501
s53.5 -32.5 87.5 -32.5c18 0 34.167 3 48.5 9s26.333 13.833 36 23.5s17 20.5 22 32.5s7.5 24 7.5 36c0 10 -1 19.5 -3 28.5s-6.16699 17.833 -12.5 26.5s-15.333 17.5 -27 26.5s-27.5 18.5 -47.5 28.5l-155 80c-9.33301 4.66699 -19.666 10.667 -30.999 18
s-21.833 16.166 -31.5 26.499s-17.667 22.5 -24 36.5s-9.5 30.333 -9.5 49c0 19.333 3.33301 36.666 10 51.999s14.667 29 24 41s19 22.167 29 30.5s18.667 15.166 26 20.499c-10 10 -17.667 20.5 -23 31.5s-9.33301 21.333 -12 31s-4.16699 18 -4.5 25s-0.5 11.5 -0.5 13.5
c0 22.667 4.5 43.667 13.5 63s21.333 36.333 37 51s34.334 26.167 56.001 34.5s45.5 12.5 71.5 12.5c24.667 0 47.5 -3.33301 68.5 -10s39 -16.167 54 -28.5s26.667 -27.666 35 -45.999s12.5 -39.166 12.5 -62.499h-74z" />
    <glyph glyph-name="dieresis" unicode="&#xa8;" horiz-adv-x="369" 
d="M295 765v-126h-74v126h74zM147 765v-126h-74v126h74z" />
    <glyph glyph-name="copyright" unicode="&#xa9;" horiz-adv-x="747" 
d="M373 701c-46.667 0 -89.832 -8.83301 -129.499 -26.5s-74.167 -41.667 -103.5 -72s-52.333 -65.5 -69 -105.5s-25 -82.333 -25 -127c0 -45.333 8.5 -88 25.5 -128s40.167 -75 69.5 -105s63.833 -53.833 103.5 -71.5s82.5 -26.5 128.5 -26.5c44.667 0 87 8.66699 127 26
s74.667 40.833 104 70.5s52.666 64.667 69.999 105s26 83.5 26 129.5c0 44.667 -8.33301 87 -25 127s-39.667 75.167 -69 105.5s-64 54.333 -104 72s-83 26.5 -129 26.5zM374.002 752c52.667 0 102.165 -10.1689 148.498 -30.502s86.833 -47.833 121.5 -82.5
s61.834 -75.167 81.501 -121.5s29.5 -95.5 29.5 -147.5c0 -53.333 -10.167 -103.166 -30.5 -149.499s-47.666 -86.666 -81.999 -120.999s-74.666 -61.5 -120.999 -81.5s-95.5 -30 -147.5 -30c-53.333 0 -103.333 10.167 -150 30.5s-87.334 47.833 -122.001 82.5
s-61.834 75.167 -81.501 121.5s-29.5 95.5 -29.5 147.5s9.83301 101.167 29.5 147.5s46.834 86.833 81.501 121.5s75.167 62.167 121.5 82.5s96.5 30.5 150.5 30.5zM516 446.998c-4.66699 20.667 -11.834 37.666 -21.501 50.999s-20.667 23.666 -33 30.999
s-25.666 12.333 -39.999 15s-28.5 4 -42.5 4c-48.667 0 -87.5 -15.5 -116.5 -46.5s-43.5 -74.5 -43.5 -130.5s14.5 -99.5 43.5 -130.5s67.833 -46.5 116.5 -46.5c14 0 28.167 1.33301 42.5 4s27.666 7.66699 39.999 15s23.333 17.5 33 30.5s16.834 30.167 21.501 51.5h55
c-2 -20 -8.16699 -39.167 -18.5 -57.5s-23.833 -34.5 -40.5 -48.5s-36.334 -25.167 -59.001 -33.5s-47.334 -12.5 -74.001 -12.5c-32.667 0 -62.334 5.83301 -89.001 17.5s-49.334 27.667 -68.001 48s-33 44.333 -43 72s-15 57.834 -15 90.501s5 62.834 15 90.501
s24.333 51.667 43 72s41.334 36.333 68.001 48s56.334 17.5 89.001 17.5c26.667 0 51.334 -4.16699 74.001 -12.5s42.334 -19.5 59.001 -33.5s30.167 -30.167 40.5 -48.5s16.5 -37.5 18.5 -57.5h-55z" />
    <glyph glyph-name="ordfeminine" unicode="&#xaa;" horiz-adv-x="369" 
d="M57 579c0 -15.333 2.99902 -30 8.99902 -44s14.5 -26.333 25.5 -37s23.667 -19.167 38 -25.5s30.166 -9.5 47.499 -9.5c16.667 0 32.5 2.83301 47.5 8.5s28 13.667 39 24s19.667 22.666 26 36.999s9.5 30.5 9.5 48.5c0 16.667 -3.16699 32 -9.5 46s-15 26.167 -26 36.5
s-24 18.5 -39 24.5s-30.833 9 -47.5 9c-15.333 0 -30.166 -2.83301 -44.499 -8.5s-27.166 -13.667 -38.499 -24s-20.333 -22.666 -27 -36.999s-10 -30.5 -10 -48.5zM355.999 415l-60.001 -0.00195312v52h-2c-12.667 -21.333 -29.667 -36.666 -51 -45.999
s-44.333 -14 -69 -14s-47.834 4.66699 -69.501 14s-40.5 22 -56.5 38s-28.5 34.5 -37.5 55.5s-13.5 43.167 -13.5 66.5c0 21.333 4.16699 42.333 12.5 63s20.333 39 36 55s34.334 29 56.001 39s45.834 15 72.501 15c8.66699 0 18.334 -0.666992 29.001 -2
s21.5 -4.16602 32.5 -8.49902s21.667 -10.5 32 -18.5s19.166 -18.333 26.499 -31h2v52h60v-330z" />
    <glyph glyph-name="guillemotleft" unicode="&#xab;" horiz-adv-x="425" 
d="M214 282l113 199l59 -31l-95 -168l95 -168l-59 -33zM40 282l113 199l59 -31l-94 -168l94 -168l-59 -33z" />
    <glyph glyph-name="logicalnot" unicode="&#xac;" horiz-adv-x="606" 
d="M555 109h-68v211h-436v68h504v-279z" />
    <glyph glyph-name="registered" unicode="&#xae;" horiz-adv-x="747" 
d="M373 701c-46.667 0 -89.832 -8.83301 -129.499 -26.5s-74.167 -41.667 -103.5 -72s-52.333 -65.5 -69 -105.5s-25 -82.333 -25 -127c0 -45.333 8.5 -88 25.5 -128s40.167 -75 69.5 -105s63.833 -53.833 103.5 -71.5s82.5 -26.5 128.5 -26.5c44.667 0 87 8.66699 127 26
s74.667 40.833 104 70.5s52.666 64.667 69.999 105s26 83.5 26 129.5c0 44.667 -8.33301 87 -25 127s-39.667 75.167 -69 105.5s-64 54.333 -104 72s-83 26.5 -129 26.5zM374.002 752c52.667 0 102.165 -10.1689 148.498 -30.502s86.833 -47.833 121.5 -82.5
s61.834 -75.167 81.501 -121.5s29.5 -95.5 29.5 -147.5c0 -53.333 -10.167 -103.166 -30.5 -149.499s-47.666 -86.666 -81.999 -120.999s-74.666 -61.5 -120.999 -81.5s-95.5 -30 -147.5 -30c-53.333 0 -103.333 10.167 -150 30.5s-87.334 47.833 -122.001 82.5
s-61.834 75.167 -81.501 121.5s-29.5 95.5 -29.5 147.5s9.83301 101.167 29.5 147.5s46.834 86.833 81.501 121.5s75.167 62.167 121.5 82.5s96.5 30.5 150.5 30.5zM265 382.998l110.001 -0.000976562c7.33301 0 17.5 0.333008 30.5 1s26 3.5 39 8.5s24.333 13 34 24
s14.5 26.5 14.5 46.5c0 18 -4.33301 31.667 -13 41s-18.834 16.333 -30.501 21s-23.5 7.33398 -35.5 8.00098s-21.667 1 -29 1h-120v-151zM394.001 584.997c6.66699 0 18.5 -0.667969 35.5 -2.00098s34.167 -5.66602 51.5 -12.999s32.833 -19 46.5 -35s20.5 -39 20.5 -69
c0 -24 -6 -45.833 -18 -65.5s-33 -33.167 -63 -40.5v-2c14.667 -4 26.667 -9.33301 36 -16s16.666 -14.5 21.999 -23.5s9 -19.333 11 -31s3.33301 -24.5 4 -38.5c0.666992 -18.667 1.33398 -33.5 2.00098 -44.5s1.5 -20 2.5 -27s2.16699 -12.5 3.5 -16.5
s3.33301 -8.33301 6 -13h-55c-2 3.33301 -3.83301 6.83301 -5.5 10.5s-3 8.5 -4 14.5s-1.83301 13.333 -2.5 22s-1 20 -1 34c0 17.333 -1.16699 32.5 -3.5 45.5s-7.33301 23.833 -15 32.5s-19 15.167 -34 19.5s-34.833 6.5 -59.5 6.5h-109v-185h-55v437h184z" />
    <glyph glyph-name="macron" unicode="&#xaf;" horiz-adv-x="485" 
d="M411 736v-67h-338v67h338z" />
    <glyph glyph-name="degree" unicode="&#xb0;" horiz-adv-x="400" 
d="M106 565c0 -12 2.16699 -23.5 6.5 -34.5s10.5 -21 18.5 -30s17.833 -16.167 29.5 -21.5s24.834 -8 39.501 -8s27.834 2.66699 39.501 8s21.5 12.5 29.5 21.5s14.167 19 18.5 30s6.5 22.5 6.5 34.5s-2.16699 23.5 -6.5 34.5s-10.5 21 -18.5 30s-17.833 16.167 -29.5 21.5
s-24.834 8 -39.501 8s-27.834 -2.66699 -39.501 -8s-21.5 -12.5 -29.5 -21.5s-14.167 -19 -18.5 -30s-6.5 -22.5 -6.5 -34.5zM56 565c0 20 3.66699 38.667 11 56s17.5 32.5 30.5 45.5s28.333 23.333 46 31s36.5 11.5 56.5 11.5s38.667 -3.83301 56 -11.5s32.5 -18 45.5 -31
s23.333 -28.167 31 -45.5s11.5 -36 11.5 -56s-3.83301 -38.833 -11.5 -56.5s-18 -33 -31 -46s-28.167 -23.167 -45.5 -30.5s-36 -11 -56 -11s-38.833 3.66699 -56.5 11s-33 17.5 -46 30.5s-23.167 28.333 -30.5 46s-11 36.5 -11 56.5z" />
    <glyph glyph-name="plusminus" unicode="&#xb1;" horiz-adv-x="606" 
d="M51 44h504v-68h-504v68zM269 518h68v-178h218v-68h-218v-178h-68v178h-218v68h218v178z" />
    <glyph glyph-name="twosuperior" unicode="&#xb2;" horiz-adv-x="332" 
d="M19 345l158.004 146.999c14 12.667 26 24 36 34s18.333 19.5 25 28.5s11.667 17.833 15 26.5s5 18 5 28s-2 20 -6 30s-9.83301 19 -17.5 27s-16.834 14.5 -27.501 19.5s-22.667 7.5 -36 7.5c-27.333 0 -48.833 -8.5 -64.5 -25.5s-23.5 -44.167 -23.5 -81.5h-60
c-0.666992 36.667 5.16602 65.667 17.499 87s26.833 37.5 43.5 48.5s33.5 18 50.5 21s29.833 4.5 38.5 4.5c23.333 0 44 -4.33301 62 -13s33.167 -19.667 45.5 -33s21.666 -28 27.999 -44s9.5 -31.667 9.5 -47c0 -16.667 -2.33301 -31.667 -7 -45
s-10.834 -25.666 -18.501 -36.999s-16.5 -21.833 -26.5 -31.5l-30 -28.5l-129 -118h210v-54h-298v49z" />
    <glyph glyph-name="threesuperior" unicode="&#xb3;" horiz-adv-x="332" 
d="M48 618c0 24.667 3.99707 45.1641 11.9971 61.4971s18 29.5 30 39.5s25 17.167 39 21.5s27.333 6.5 40 6.5c18 0 34.333 -3.16699 49 -9.5s27.334 -15 38.001 -26s18.834 -23.5 24.501 -37.5s8.5 -28.667 8.5 -44c0 -22 -4.5 -38.833 -13.5 -50.5
s-18.167 -21.5 -27.5 -29.5c22 -13.333 39.167 -29.666 51.5 -48.999s18.5 -41.333 18.5 -66c0 -22 -4 -41.833 -12 -59.5s-18.833 -33 -32.5 -46s-29.5 -23 -47.5 -30s-36.667 -10.5 -56 -10.5c-7.33301 0 -19.166 1.33301 -35.499 4s-33 9.33398 -50 20.001
s-32.167 26.334 -45.5 47.001s-20.333 49 -21 85h60l3.5 -32c1 -9.33301 5.16699 -18.333 12.5 -27c7.33301 -10.667 16.833 -20.5 28.5 -29.5s27.5 -13.5 47.5 -13.5c26.667 0 48 8.16699 64 24.5s24 38.5 24 66.5c0 16.667 -6 33.334 -18 50.001
s-29.333 27.334 -52 32.001c-6.66699 1.33301 -13.5 2.16602 -20.5 2.49902s-19.167 0.833008 -36.5 1.5v54h24c15.333 0 27.833 2 37.5 6s17.167 9 22.5 15s9 12.333 11 19s3 12.667 3 18s-1 11.333 -3 18s-5.33301 13.167 -10 19.5s-11 11.666 -19 15.999
s-18 6.83301 -30 7.5c-6 -0.666992 -12.5 -2.16699 -19.5 -4.5s-13.333 -6.16602 -19 -11.499s-10.5 -12.833 -14.5 -22.5s-6 -21.834 -6 -36.501h-60z" />
    <glyph glyph-name="acute" unicode="&#xb4;" horiz-adv-x="375" 
d="M277 786l32 -60l-198 -107l-33 58z" />
    <glyph glyph-name="mu" unicode="&#xb5;" horiz-adv-x="608" 
d="M80 547h70.001v-284c0 -52 7.33301 -94 22 -126c12.667 -28 30 -49.5 52 -64.5s48.333 -22.5 79 -22.5c31.333 0 59 8 83 24s42.333 40 55 72c6 14 10.167 30.5 12.5 49.5s3.5 40.167 3.5 63.5v288h70v-547h-70v72h-2c-2.66699 -5.33301 -7.33398 -12.833 -14.001 -22.5
s-16 -19.167 -28 -28.5s-27 -17.333 -45 -24s-39.667 -10 -65 -10c-22 0 -41.333 2.33301 -58 7s-31 10.667 -43 18s-22.167 15.333 -30.5 24s-14.833 16.667 -19.5 24h-2v-244h-70v731z" />
    <glyph glyph-name="paragraph" unicode="&#xb6;" horiz-adv-x="564" 
d="M243 348h-17c-29.333 0 -56.5 4.66699 -81.5 14s-46.5 22.5 -64.5 39.5s-32.167 37.333 -42.5 61s-15.5 50.167 -15.5 79.5c0 38 8.5 71.333 25.5 100s37.833 50.667 62.5 66c15.333 9.33301 37 17 65 23s58 9 90 9h286v-56h-64v-794h-62v794h-120v-794h-62v458z" />
    <glyph glyph-name="periodcentered" unicode="&#xb7;" horiz-adv-x="277" 
d="M102 316h74v-126h-74v126z" />
    <glyph glyph-name="cedilla" unicode="&#xb8;" horiz-adv-x="324" 
d="M144 -58c6 2.66699 10.9961 4.50195 14.9961 5.50195s9.66699 1.5 17 1.5c22 0 40.333 -7.66699 55 -23s22.334 -34.666 23.001 -57.999c0 -13.333 -2.16699 -25.5 -6.5 -36.5s-10.5 -20.5 -18.5 -28.5s-17.333 -14.167 -28 -18.5s-21.667 -6.5 -33 -6.5
c-19.333 0 -37.166 5.33301 -53.499 16s-27.833 29 -34.5 55l42 5c3.33301 -12.667 9.16602 -22.334 17.499 -29.001s17.833 -10 28.5 -10c14.667 0 25.834 5.16699 33.501 15.5s11.5 22.166 11.5 35.499c0 15.333 -4.16699 27.166 -12.5 35.499s-19.166 12.5 -32.499 12.5
c-14 0 -24.167 -2.5 -30.5 -7.5s-11.166 -9.83301 -14.499 -14.5l-37 18l40 90h42z" />
    <glyph glyph-name="onesuperior" unicode="&#xb9;" horiz-adv-x="332" 
d="M138 686h-75v54h135v-444h-60v390z" />
    <glyph glyph-name="ordmasculine" unicode="&#xba;" horiz-adv-x="369" 
d="M72 579c0 -17.333 3.00391 -33.165 9.00391 -47.498s14.167 -26.5 24.5 -36.5s22.333 -17.833 36 -23.5s28.167 -8.5 43.5 -8.5c14 0 27.667 2.5 41 7.5s25.166 12.5 35.499 22.5s18.666 22.333 24.999 37s9.5 31.667 9.5 51s-3.5 36.166 -10.5 50.499
s-15.833 26.333 -26.5 36s-22.667 17 -36 22s-26 7.5 -38 7.5c-13.333 0 -26.833 -2.66699 -40.5 -8s-25.834 -13 -36.501 -23s-19.334 -22.333 -26.001 -37s-10 -31.334 -10 -50.001zM12.0039 577.001c0 26.667 4.83301 50.835 14.5 72.502s22.5 40.167 38.5 55.5
s34.333 27.166 55 35.499s42 12.5 64 12.5c24 0 46.5 -4.66699 67.5 -14s39.333 -22 55 -38s27.834 -34.333 36.501 -55s13 -42.334 13 -65.001c0 -23.333 -4.33301 -45.5 -13 -66.5s-20.667 -39.5 -36 -55.5s-33.5 -28.667 -54.5 -38s-43.833 -14 -68.5 -14
c-24 0 -46.5 4.66699 -67.5 14s-39.333 21.833 -55 37.5s-27.834 33.667 -36.501 54s-13 41.833 -13 64.5z" />
    <glyph glyph-name="guillemotright" unicode="&#xbb;" horiz-adv-x="425" 
d="M39 114l94 168l-94 168l58 31l114 -199l-114 -201zM213 114l94 168l-94 168l58 31l114 -199l-114 -201z" />
    <glyph glyph-name="onequarter" unicode="&#xbc;" horiz-adv-x="831" 
d="M629 78h-225v49l219 317h65v-312h41v-54h-41v-78h-59v78zM175 686h-75v54h135v-444h-60v390zM629 132v222h-2l-149 -222h151zM516 740h60l-333 -740h-60z" />
    <glyph glyph-name="onehalf" unicode="&#xbd;" horiz-adv-x="831" 
d="M451 49l158.004 146.999c14 12.667 26 24 36 34s18.333 19.5 25 28.5s11.667 17.833 15 26.5s5 18 5 28s-2 20 -6 30s-9.83301 19 -17.5 27s-16.834 14.5 -27.501 19.5s-22.667 7.5 -36 7.5c-27.333 0 -48.833 -8.5 -64.5 -25.5s-23.5 -44.167 -23.5 -81.5h-60
c-0.666992 36.667 5.16602 65.667 17.499 87s26.833 37.5 43.5 48.5s33.5 18 50.5 21s29.833 4.5 38.5 4.5c23.333 0 44 -4.33301 62 -13s33.167 -19.667 45.5 -33s21.666 -28 27.999 -44s9.5 -31.667 9.5 -47c0 -16.667 -2.33301 -31.667 -7 -45
s-10.834 -25.666 -18.501 -36.999s-16.5 -21.833 -26.5 -31.5l-30 -28.5l-129 -118h210v-54h-298v49zM156.004 685.999h-75v54h135v-444h-60v390zM497.004 739.999h60l-333 -740h-60z" />
    <glyph glyph-name="threequarters" unicode="&#xbe;" horiz-adv-x="831" 
d="M76 618c0 24.667 3.99707 45.1641 11.9971 61.4971s18 29.5 30 39.5s25 17.167 39 21.5s27.333 6.5 40 6.5c18 0 34.333 -3.16699 49 -9.5s27.334 -15 38.001 -26s18.834 -23.5 24.501 -37.5s8.5 -28.667 8.5 -44c0 -22 -4.5 -38.833 -13.5 -50.5
s-18.167 -21.5 -27.5 -29.5c22 -13.333 39.167 -29.666 51.5 -48.999s18.5 -41.333 18.5 -66c0 -22 -4 -41.833 -12 -59.5s-18.833 -33 -32.5 -46s-29.5 -23 -47.5 -30s-36.667 -10.5 -56 -10.5c-7.33301 0 -19.166 1.33301 -35.499 4s-33 9.33398 -50 20.001
s-32.167 26.334 -45.5 47.001s-20.333 49 -21 85h60l3.5 -32c1 -9.33301 5.16699 -18.333 12.5 -27c7.33301 -10.667 16.833 -20.5 28.5 -29.5s27.5 -13.5 47.5 -13.5c26.667 0 48 8.16699 64 24.5s24 38.5 24 66.5c0 16.667 -6 33.334 -18 50.001
s-29.333 27.334 -52 32.001c-6.66699 1.33301 -13.5 2.16602 -20.5 2.49902s-19.167 0.833008 -36.5 1.5v54h24c15.333 0 27.833 2 37.5 6s17.167 9 22.5 15s9 12.333 11 19s3 12.667 3 18s-1 11.333 -3 18s-5.33301 13.167 -10 19.5s-11 11.666 -19 15.999
s-18 6.83301 -30 7.5c-6 -0.666992 -12.5 -2.16699 -19.5 -4.5s-13.333 -6.16602 -19 -11.499s-10.5 -12.833 -14.5 -22.5s-6 -21.834 -6 -36.501h-60zM683.997 77.9971h-225v49l219 317h65v-312h41v-54h-41v-78h-59v78zM585.997 739.997h60l-333 -740h-60zM683.997 131.997
v222h-2l-149 -222h151z" />
    <glyph glyph-name="questiondown" unicode="&#xbf;" horiz-adv-x="591" 
d="M328 422h-74v126h74v-126zM527 39l0.000976562 -19.0039c0 -29.333 -6 -57.5 -18 -84.5s-28.5 -51 -49.5 -72s-45.833 -37.667 -74.5 -50s-59.667 -18.5 -93 -18.5s-64 5.83301 -92 17.5s-52 27.667 -72 48s-35.5 44 -46.5 71s-16.5 55.5 -16.5 85.5
c0 20 2.33301 37.833 7 53.5s11.5 30.334 20.5 44.001s20.167 27.334 33.5 41.001l45 44.5l25 25.5c9.33301 9.66699 18.166 20.834 26.499 33.501s15.333 26.834 21 42.501s9.16699 33.5 10.5 53.5h74c0.666992 -25.333 -2.83301 -48.666 -10.5 -69.999
s-17 -40.5 -28 -57.5s-22.667 -31.833 -35 -44.5s-22.833 -23 -31.5 -31l-33 -32c-10 -10 -18.833 -20.167 -26.5 -30.5s-13.667 -21.666 -18 -33.999s-6.5 -25.833 -6.5 -40.5c0 -18 3.66699 -36 11 -54s17.833 -34.167 31.5 -48.5s30.167 -25.833 49.5 -34.5
s40.666 -13 63.999 -13c32 0 58.833 7 80.5 21s39.834 31.333 54.501 52c12 17.333 18.833 34.666 20.5 51.999s2.5 33.666 2.5 48.999h74z" />
    <glyph glyph-name="Agrave" unicode="&#xc0;" horiz-adv-x="740" 
d="M225 316h287l-142 340zM328 740h83l318 -740h-81l-107 249h-344l-108 -249h-77zM481 840l-33 -58l-198 107l32 60z" />
    <glyph glyph-name="Aacute" unicode="&#xc1;" horiz-adv-x="740" 
d="M225 316h287l-142 340zM328 740h83l318 -740h-81l-107 249h-344l-108 -249h-77zM460 949l32 -60l-198 -107l-33 58z" />
    <glyph glyph-name="Acircumflex" unicode="&#xc2;" horiz-adv-x="740" 
d="M225 316h287l-142 340zM328 740h83l318 -740h-81l-107 249h-344l-108 -249h-77zM338 927h66l143 -125h-89l-86 73l-88 -73h-91z" />
    <glyph glyph-name="Atilde" unicode="&#xc3;" horiz-adv-x="740" 
d="M225 316h287l-142 340zM328 740h83l318 -740h-81l-107 249h-344l-108 -249h-77zM543 853c-16 -12 -32.4971 -21.499 -49.4971 -28.499s-33.167 -10.5 -48.5 -10.5c-16.667 0 -31.834 2.5 -45.501 7.5s-25.167 9.5 -34.5 13.5c-15.333 7.33301 -27.333 12.5 -36 15.5
s-18.334 4.5 -29.001 4.5c-12 0 -23.833 -2.83301 -35.5 -8.5s-22.167 -12.834 -31.5 -21.501l-35 50c30 28 64.667 42 104 42c17.333 0 31.833 -2.16699 43.5 -6.5s23.834 -9.5 36.501 -15.5c5.33301 -2 14.166 -5.66699 26.499 -11s24.166 -8 35.499 -8
c10.667 0 20 2 28 6s19.667 10.667 35 20z" />
    <glyph glyph-name="Adieresis" unicode="&#xc4;" horiz-adv-x="740" 
d="M225 316h287l-142 340zM328 740h83l318 -740h-81l-107 249h-344l-108 -249h-77zM481 928v-126h-74v126h74zM333 928v-126h-74v126h74z" />
    <glyph glyph-name="Aring" unicode="&#xc5;" horiz-adv-x="740" 
d="M225 316h287l-142 340zM328 740h83l318 -740h-81l-107 249h-344l-108 -249h-77zM318 851c0 -14 4.99902 -26 14.999 -36s22 -15 36 -15c14.667 0 27 5 37 15s15 22 15 36c0 14.667 -5 27 -15 37s-22.333 15 -37 15c-13.333 0 -25.166 -5 -35.499 -15
s-15.5 -22.333 -15.5 -37zM265.999 851c0 14 2.66797 27.332 8.00098 39.999s12.833 23.834 22.5 33.501s20.667 17.167 33 22.5s25.5 8 39.5 8c29.333 0 54 -10 74 -30s30 -44.667 30 -74c0 -14 -2.66699 -27.333 -8 -40s-12.833 -23.667 -22.5 -33
s-20.834 -16.666 -33.501 -21.999s-26 -8 -40 -8s-27.167 2.66699 -39.5 8s-23.333 12.666 -33 21.999s-17.167 20.333 -22.5 33s-8 26 -8 40z" />
    <glyph glyph-name="AE" unicode="&#xc6;" horiz-adv-x="992" 
d="M290 317h226v328h-2zM495 740h412v-67h-317v-266h306v-67h-306v-273h317v-67h-391v250h-273l-174 -250h-89z" />
    <glyph glyph-name="Ccedilla" unicode="&#xc7;" horiz-adv-x="813" 
d="M375 -146c3.33301 -12.667 9.16113 -22.332 17.4941 -28.999s17.833 -10 28.5 -10c14.667 0 25.834 5.16699 33.501 15.5s11.5 22.166 11.5 35.499c0 15.333 -4.16699 27.166 -12.5 35.499s-19.166 12.5 -32.499 12.5c-14 0 -24.167 -2.5 -30.5 -7.5
s-11.166 -9.83301 -14.499 -14.5l-37 18l36 82c-46 6 -89.167 19.833 -129.5 41.5s-75.5 49 -105.5 82s-53.667 71 -71 114s-26 89.5 -26 139.5c0 54.667 10.167 105.334 30.5 152.001s48 87.167 83 121.5s76 61.166 123 80.499s96.833 29 149.5 29
c47.333 0 90.333 -7.33301 129 -22s72.334 -32.5 101.001 -53.5s52.167 -43 70.5 -66s31.166 -43.167 38.499 -60.5h-83c-20 30 -42.667 54 -68 72s-50 31.667 -74 41s-46.333 15.333 -67 18s-36.667 4 -48 4c-43.333 0 -83.833 -8.83301 -121.5 -26.5
s-70.5 -41.167 -98.5 -70.5s-50.167 -63 -66.5 -101s-24.5 -77.667 -24.5 -119c0 -43.333 8.66699 -84 26 -122s40.5 -71.333 69.5 -100s62.333 -51.167 100 -67.5s76.5 -24.5 116.5 -24.5c9.33301 0 23.333 1 42 3s39.834 7.5 63.501 16.5s48.834 22.833 75.501 41.5
s52.667 45 78 79h83c-20 -36 -43.333 -67.167 -70 -93.5s-55.167 -47.833 -85.5 -64.5s-61.333 -29 -93 -37s-62.5 -12 -92.5 -12c-6.66699 0 -11.334 0.333008 -14.001 1l-19 -46c6 2.66699 11 4.5 15 5.5s9.66699 1.5 17 1.5c22 0 40.333 -7.66699 55 -23
s22.334 -34.666 23.001 -57.999c0 -13.333 -2.16699 -25.5 -6.5 -36.5s-10.5 -20.5 -18.5 -28.5s-17.333 -14.167 -28 -18.5s-21.667 -6.5 -33 -6.5c-19.333 0 -37.166 5.33301 -53.499 16s-27.833 29 -34.5 55z" />
    <glyph glyph-name="Egrave" unicode="&#xc8;" horiz-adv-x="536" 
d="M70 740h405v-67h-331v-266h320v-67h-320v-273h331v-67h-405v740zM379 840l-33 -58l-198 107l32 60z" />
    <glyph glyph-name="Eacute" unicode="&#xc9;" horiz-adv-x="536" 
d="M70 740h405v-67h-331v-266h320v-67h-320v-273h331v-67h-405v740zM358 949l32 -60l-198 -107l-33 58z" />
    <glyph glyph-name="Ecircumflex" unicode="&#xca;" horiz-adv-x="536" 
d="M70 740h405v-67h-331v-266h320v-67h-320v-273h331v-67h-405v740zM236 927h66l143 -125h-89l-86 73l-88 -73h-91z" />
    <glyph glyph-name="Edieresis" unicode="&#xcb;" horiz-adv-x="536" 
d="M70 740h405v-67h-331v-266h320v-67h-320v-273h331v-67h-405v740zM379 928v-126h-74v126h74zM231 928v-126h-74v126h74z" />
    <glyph glyph-name="Igrave" unicode="&#xcc;" horiz-adv-x="226" 
d="M76 740h74v-740h-74v740zM185 840l-33 -58l-198 107l32 60z" />
    <glyph glyph-name="Iacute" unicode="&#xcd;" horiz-adv-x="226" 
d="M76 740h74v-740h-74v740zM244 949l32 -60l-198 -107l-33 58z" />
    <glyph glyph-name="Icircumflex" unicode="&#xce;" horiz-adv-x="226" 
d="M76 740h74v-740h-74v740zM82 927h66l143 -125h-89l-86 73l-88 -73h-91z" />
    <glyph glyph-name="Idieresis" unicode="&#xcf;" horiz-adv-x="226" 
d="M76 740h74v-740h-74v740zM225 928v-126h-74v126h74zM77 928v-126h-74v126h74z" />
    <glyph glyph-name="Eth" unicode="&#xd0;" horiz-adv-x="790" 
d="M188 347l-0.00488281 -279.994h107c16.667 0 35.334 0.166992 56.001 0.5s42.334 2.33301 65.001 6s45.334 9.5 68.001 17.5s44.334 20 65.001 36c12 8.66699 24.667 20.167 38 34.5s25.833 31.666 37.5 51.999s21.334 43.666 29.001 69.999s11.5 55.5 11.5 87.5
c0 49.333 -11.167 95.666 -33.5 138.999s-53.166 78.666 -92.499 105.999c-16 11.333 -32.667 20.666 -50 27.999s-35.833 13.166 -55.5 17.499s-40.834 7.33301 -63.501 9s-47.667 2.5 -75 2.5h-107v-259h210v-67h-210zM39.9951 347.006v67.001h74v326h212
c55.333 0 104 -6.16699 146 -18.5s78.333 -28.666 109 -48.999s56 -43.5 76 -69.5s36.167 -52.833 48.5 -80.5s21 -55 26 -82s7.5 -51.167 7.5 -72.5c0 -16.667 -2 -37.334 -6 -62.001s-11.333 -50.667 -22 -78s-25.667 -54.5 -45 -81.5s-44 -51.333 -74 -73
s-66.5 -39.334 -109.5 -53.001s-93.833 -20.5 -152.5 -20.5h-216v347h-74z" />
    <glyph glyph-name="Ntilde" unicode="&#xd1;" horiz-adv-x="740" 
d="M75 740h100l413 -614h2v614h74v-740h-74l-439 651h-2v-651h-74v740zM543 853c-16 -12 -32.4971 -21.499 -49.4971 -28.499s-33.167 -10.5 -48.5 -10.5c-16.667 0 -31.834 2.5 -45.501 7.5s-25.167 9.5 -34.5 13.5c-15.333 7.33301 -27.333 12.5 -36 15.5
s-18.334 4.5 -29.001 4.5c-12 0 -23.833 -2.83301 -35.5 -8.5s-22.167 -12.834 -31.5 -21.501l-35 50c30 28 64.667 42 104 42c17.333 0 31.833 -2.16699 43.5 -6.5s23.834 -9.5 36.501 -15.5c5.33301 -2 14.166 -5.66699 26.499 -11s24.166 -8 35.499 -8
c10.667 0 20 2 28 6s19.667 10.667 35 20z" />
    <glyph glyph-name="Ograve" unicode="&#xd2;" horiz-adv-x="869" 
d="M117 366c0 -42 8.49902 -81.9971 25.499 -119.997s39.833 -71.167 68.5 -99.5s62.167 -50.833 100.5 -67.5s79.166 -25 122.499 -25c42.667 0 83.334 8.16699 122.001 24.5s72.5 38.666 101.5 66.999s52 61.666 69 99.999s25.5 79.5 25.5 123.5
c0 43.333 -8.33301 84.166 -25 122.499s-39.5 72 -68.5 101s-62.667 51.833 -101 68.5s-79.5 25 -123.5 25c-42 0 -82 -8 -120 -24s-71.667 -38.333 -101 -67s-52.666 -62.5 -69.999 -101.5s-26 -81.5 -26 -127.5zM42.999 366.003c0 58 11.168 110.833 33.501 158.5
s51.666 88.5 87.999 122.5s78 60.167 125 78.5s95.167 27.5 144.5 27.5c52 0 101.667 -9.66699 149 -29s89 -46.166 125 -80.499s64.667 -74.833 86 -121.5s32 -97.334 32 -152.001s-10.667 -105.334 -32 -152.001s-50 -87.167 -86 -121.5s-77.667 -61.166 -125 -80.499
s-97 -29 -149 -29c-52.667 0 -102.667 10 -150 30s-88.833 47.167 -124.5 81.5s-64 74.5 -85 120.5s-31.5 95 -31.5 147zM546 840.003l-33 -58l-198 107l32 60z" />
    <glyph glyph-name="Oacute" unicode="&#xd3;" horiz-adv-x="869" 
d="M117 366c0 -42 8.49902 -81.9971 25.499 -119.997s39.833 -71.167 68.5 -99.5s62.167 -50.833 100.5 -67.5s79.166 -25 122.499 -25c42.667 0 83.334 8.16699 122.001 24.5s72.5 38.666 101.5 66.999s52 61.666 69 99.999s25.5 79.5 25.5 123.5
c0 43.333 -8.33301 84.166 -25 122.499s-39.5 72 -68.5 101s-62.667 51.833 -101 68.5s-79.5 25 -123.5 25c-42 0 -82 -8 -120 -24s-71.667 -38.333 -101 -67s-52.666 -62.5 -69.999 -101.5s-26 -81.5 -26 -127.5zM42.999 366.003c0 58 11.168 110.833 33.501 158.5
s51.666 88.5 87.999 122.5s78 60.167 125 78.5s95.167 27.5 144.5 27.5c52 0 101.667 -9.66699 149 -29s89 -46.166 125 -80.499s64.667 -74.833 86 -121.5s32 -97.334 32 -152.001s-10.667 -105.334 -32 -152.001s-50 -87.167 -86 -121.5s-77.667 -61.166 -125 -80.499
s-97 -29 -149 -29c-52.667 0 -102.667 10 -150 30s-88.833 47.167 -124.5 81.5s-64 74.5 -85 120.5s-31.5 95 -31.5 147zM524 949.003l32 -60l-198 -107l-33 58z" />
    <glyph glyph-name="Ocircumflex" unicode="&#xd4;" horiz-adv-x="869" 
d="M117 366c0 -42 8.49902 -81.9971 25.499 -119.997s39.833 -71.167 68.5 -99.5s62.167 -50.833 100.5 -67.5s79.166 -25 122.499 -25c42.667 0 83.334 8.16699 122.001 24.5s72.5 38.666 101.5 66.999s52 61.666 69 99.999s25.5 79.5 25.5 123.5
c0 43.333 -8.33301 84.166 -25 122.499s-39.5 72 -68.5 101s-62.667 51.833 -101 68.5s-79.5 25 -123.5 25c-42 0 -82 -8 -120 -24s-71.667 -38.333 -101 -67s-52.666 -62.5 -69.999 -101.5s-26 -81.5 -26 -127.5zM42.999 366.003c0 58 11.168 110.833 33.501 158.5
s51.666 88.5 87.999 122.5s78 60.167 125 78.5s95.167 27.5 144.5 27.5c52 0 101.667 -9.66699 149 -29s89 -46.166 125 -80.499s64.667 -74.833 86 -121.5s32 -97.334 32 -152.001s-10.667 -105.334 -32 -152.001s-50 -87.167 -86 -121.5s-77.667 -61.166 -125 -80.499
s-97 -29 -149 -29c-52.667 0 -102.667 10 -150 30s-88.833 47.167 -124.5 81.5s-64 74.5 -85 120.5s-31.5 95 -31.5 147zM403 927.003h66l143 -125h-89l-86 73l-88 -73h-91z" />
    <glyph glyph-name="Otilde" unicode="&#xd5;" horiz-adv-x="869" 
d="M117 366c0 -42 8.49902 -81.9971 25.499 -119.997s39.833 -71.167 68.5 -99.5s62.167 -50.833 100.5 -67.5s79.166 -25 122.499 -25c42.667 0 83.334 8.16699 122.001 24.5s72.5 38.666 101.5 66.999s52 61.666 69 99.999s25.5 79.5 25.5 123.5
c0 43.333 -8.33301 84.166 -25 122.499s-39.5 72 -68.5 101s-62.667 51.833 -101 68.5s-79.5 25 -123.5 25c-42 0 -82 -8 -120 -24s-71.667 -38.333 -101 -67s-52.666 -62.5 -69.999 -101.5s-26 -81.5 -26 -127.5zM42.999 366.003c0 58 11.168 110.833 33.501 158.5
s51.666 88.5 87.999 122.5s78 60.167 125 78.5s95.167 27.5 144.5 27.5c52 0 101.667 -9.66699 149 -29s89 -46.166 125 -80.499s64.667 -74.833 86 -121.5s32 -97.334 32 -152.001s-10.667 -105.334 -32 -152.001s-50 -87.167 -86 -121.5s-77.667 -61.166 -125 -80.499
s-97 -29 -149 -29c-52.667 0 -102.667 10 -150 30s-88.833 47.167 -124.5 81.5s-64 74.5 -85 120.5s-31.5 95 -31.5 147zM607 853.003c-16 -12 -32.4971 -21.499 -49.4971 -28.499s-33.167 -10.5 -48.5 -10.5c-16.667 0 -31.834 2.5 -45.501 7.5s-25.167 9.5 -34.5 13.5
c-15.333 7.33301 -27.333 12.5 -36 15.5s-18.334 4.5 -29.001 4.5c-12 0 -23.833 -2.83301 -35.5 -8.5s-22.167 -12.834 -31.5 -21.501l-35 50c30 28 64.667 42 104 42c17.333 0 31.833 -2.16699 43.5 -6.5s23.834 -9.5 36.501 -15.5c5.33301 -2 14.166 -5.66699 26.499 -11
s24.166 -8 35.499 -8c10.667 0 20 2 28 6s19.667 10.667 35 20z" />
    <glyph glyph-name="Odieresis" unicode="&#xd6;" horiz-adv-x="869" 
d="M117 366c0 -42 8.49902 -81.9971 25.499 -119.997s39.833 -71.167 68.5 -99.5s62.167 -50.833 100.5 -67.5s79.166 -25 122.499 -25c42.667 0 83.334 8.16699 122.001 24.5s72.5 38.666 101.5 66.999s52 61.666 69 99.999s25.5 79.5 25.5 123.5
c0 43.333 -8.33301 84.166 -25 122.499s-39.5 72 -68.5 101s-62.667 51.833 -101 68.5s-79.5 25 -123.5 25c-42 0 -82 -8 -120 -24s-71.667 -38.333 -101 -67s-52.666 -62.5 -69.999 -101.5s-26 -81.5 -26 -127.5zM42.999 366.003c0 58 11.168 110.833 33.501 158.5
s51.666 88.5 87.999 122.5s78 60.167 125 78.5s95.167 27.5 144.5 27.5c52 0 101.667 -9.66699 149 -29s89 -46.166 125 -80.499s64.667 -74.833 86 -121.5s32 -97.334 32 -152.001s-10.667 -105.334 -32 -152.001s-50 -87.167 -86 -121.5s-77.667 -61.166 -125 -80.499
s-97 -29 -149 -29c-52.667 0 -102.667 10 -150 30s-88.833 47.167 -124.5 81.5s-64 74.5 -85 120.5s-31.5 95 -31.5 147zM545 928.003v-126h-74v126h74zM397 928.003v-126h-74v126h74z" />
    <glyph glyph-name="multiply" unicode="&#xd7;" horiz-adv-x="606" 
d="M74 72l182 182l-181 180l48 48l181 -180l180 180l48 -48l-180 -180l181 -182l-48 -48l-181 182l-182 -182z" />
    <glyph glyph-name="Oslash" unicode="&#xd8;" horiz-adv-x="868" 
d="M274 98c33.333 -19.333 64 -31.4971 92 -36.4971s51 -7.5 69 -7.5c42 0 82.167 8.16699 120.5 24.5s72 38.666 101 66.999s52.167 61.666 69.5 99.999s26 79.5 26 123.5c0 45.333 -8.66699 87.166 -26 125.499s-42.333 73.5 -75 105.5zM596 641.003
c-26 15.333 -51.998 26.6641 -77.998 33.9971s-54 11 -84 11c-43.333 0 -84.333 -8.33301 -123 -25s-72.334 -39.5 -101.001 -68.5s-51.334 -62.667 -68.001 -101s-25 -79.166 -25 -122.499c0 -39.333 8 -79.166 24 -119.499s42 -77.166 78 -110.499zM730.002 819.001
l55.001 -40.001l-92 -123c26.667 -23.333 48.5 -47.5 65.5 -72.5s30.5 -50 40.5 -75s17 -49.333 21 -73s6 -45.5 6 -65.5c0 -54.667 -10.667 -105.334 -32 -152.001s-50 -87.167 -86 -121.5s-77.667 -61.166 -125 -80.499s-97 -29 -149 -29
c-36.667 0 -71.334 4.66699 -104.001 14s-65 23.333 -97 42l-94 -126l-55 40l93 126c-42 36.667 -74.833 79.667 -98.5 129s-35.5 102 -35.5 158c0 54.667 10.667 105.334 32 152.001s50 87.167 86 121.5s77.667 61.166 125 80.499s96.666 29 147.999 29
c38 0 73.333 -4.66699 106 -14s65.334 -23.666 98.001 -42.999z" />
    <glyph glyph-name="Ugrave" unicode="&#xd9;" horiz-adv-x="655" 
d="M149 740l0.00195312 -461c0 -27.333 2 -52.666 6 -75.999s10.333 -42.666 19 -57.999c11.333 -20.667 24 -37 38 -49s28 -21.167 42 -27.5s27.5 -10.333 40.5 -12s23.833 -2.5 32.5 -2.5s19.5 0.833008 32.5 2.5s26.5 5.66699 40.5 12s28 15.5 42 27.5
s26.667 28.333 38 49c8.66699 15.333 15 34.666 19 57.999s6 48.666 6 75.999v461h74v-461c0 -62 -9.33301 -113.333 -28 -154c-12.667 -28 -28.334 -50.833 -47.001 -68.5s-38.167 -31.667 -58.5 -42s-40.833 -17.5 -61.5 -21.5s-39.667 -6 -57 -6s-36.333 2 -57 6
s-41.334 11.167 -62.001 21.5s-40.167 24.333 -58.5 42s-33.833 40.5 -46.5 68.5c-18.667 40.667 -28 92 -28 154v461h74zM419.002 840l-33 -58l-198 107l32 60z" />
    <glyph glyph-name="Uacute" unicode="&#xda;" horiz-adv-x="655" 
d="M149 740l0.00195312 -461c0 -27.333 2 -52.666 6 -75.999s10.333 -42.666 19 -57.999c11.333 -20.667 24 -37 38 -49s28 -21.167 42 -27.5s27.5 -10.333 40.5 -12s23.833 -2.5 32.5 -2.5s19.5 0.833008 32.5 2.5s26.5 5.66699 40.5 12s28 15.5 42 27.5
s26.667 28.333 38 49c8.66699 15.333 15 34.666 19 57.999s6 48.666 6 75.999v461h74v-461c0 -62 -9.33301 -113.333 -28 -154c-12.667 -28 -28.334 -50.833 -47.001 -68.5s-38.167 -31.667 -58.5 -42s-40.833 -17.5 -61.5 -21.5s-39.667 -6 -57 -6s-36.333 2 -57 6
s-41.334 11.167 -62.001 21.5s-40.167 24.333 -58.5 42s-33.833 40.5 -46.5 68.5c-18.667 40.667 -28 92 -28 154v461h74zM437.002 949l32 -60l-198 -107l-33 58z" />
    <glyph glyph-name="Ucircumflex" unicode="&#xdb;" horiz-adv-x="655" 
d="M149 740l0.00195312 -461c0 -27.333 2 -52.666 6 -75.999s10.333 -42.666 19 -57.999c11.333 -20.667 24 -37 38 -49s28 -21.167 42 -27.5s27.5 -10.333 40.5 -12s23.833 -2.5 32.5 -2.5s19.5 0.833008 32.5 2.5s26.5 5.66699 40.5 12s28 15.5 42 27.5
s26.667 28.333 38 49c8.66699 15.333 15 34.666 19 57.999s6 48.666 6 75.999v461h74v-461c0 -62 -9.33301 -113.333 -28 -154c-12.667 -28 -28.334 -50.833 -47.001 -68.5s-38.167 -31.667 -58.5 -42s-40.833 -17.5 -61.5 -21.5s-39.667 -6 -57 -6s-36.333 2 -57 6
s-41.334 11.167 -62.001 21.5s-40.167 24.333 -58.5 42s-33.833 40.5 -46.5 68.5c-18.667 40.667 -28 92 -28 154v461h74zM296.002 927h66l143 -125h-89l-86 73l-88 -73h-91z" />
    <glyph glyph-name="Udieresis" unicode="&#xdc;" horiz-adv-x="655" 
d="M149 740l0.00195312 -461c0 -27.333 2 -52.666 6 -75.999s10.333 -42.666 19 -57.999c11.333 -20.667 24 -37 38 -49s28 -21.167 42 -27.5s27.5 -10.333 40.5 -12s23.833 -2.5 32.5 -2.5s19.5 0.833008 32.5 2.5s26.5 5.66699 40.5 12s28 15.5 42 27.5
s26.667 28.333 38 49c8.66699 15.333 15 34.666 19 57.999s6 48.666 6 75.999v461h74v-461c0 -62 -9.33301 -113.333 -28 -154c-12.667 -28 -28.334 -50.833 -47.001 -68.5s-38.167 -31.667 -58.5 -42s-40.833 -17.5 -61.5 -21.5s-39.667 -6 -57 -6s-36.333 2 -57 6
s-41.334 11.167 -62.001 21.5s-40.167 24.333 -58.5 42s-33.833 40.5 -46.5 68.5c-18.667 40.667 -28 92 -28 154v461h74zM438.002 928v-126h-74v126h74zM290.002 928v-126h-74v126h74z" />
    <glyph glyph-name="Yacute" unicode="&#xdd;" horiz-adv-x="592" 
d="M258 247l-257 493h82l211 -415l217 415h81l-260 -493v-247h-74v247zM406 949l32 -60l-198 -107l-33 58z" />
    <glyph glyph-name="Thorn" unicode="&#xde;" horiz-adv-x="592" 
d="M134 216h107c20 0 36.833 0.166992 50.5 0.5s26 1 37 2s21.167 2.83301 30.5 5.5s19.333 6.33398 30 11.001c29.333 13.333 51 32.166 65 56.499s21 50.5 21 78.5s-7 54.167 -21 78.5s-35.667 43.166 -65 56.499c-10.667 4.66699 -20.667 8.33398 -30 11.001
s-19.5 4.5 -30.5 5.5s-23.333 1.66699 -37 2s-30.5 0.5 -50.5 0.5h-107v-308zM60 740l74 -0.00195312v-149h132c25.333 0 47.666 -1 66.999 -3s36.5 -4.83301 51.5 -8.5s28.333 -8.16699 40 -13.5s22.5 -11.333 32.5 -18c28 -18.667 50.333 -43.167 67 -73.5
s25 -65.166 25 -104.499s-8.33301 -74.166 -25 -104.499s-39 -54.833 -67 -73.5c-10 -6.66699 -20.833 -12.667 -32.5 -18s-25 -9.83301 -40 -13.5s-32.167 -6.5 -51.5 -8.5s-41.666 -3 -66.999 -3h-132v-149h-74v740z" />
    <glyph glyph-name="germandbls" unicode="&#xdf;" 
d="M131 203l51 -0.000976562c0.666992 -22.667 4.66699 -43.334 12 -62.001s17 -34.834 29 -48.501s26 -24.167 42 -31.5s33 -11 51 -11c16 0 32.167 3 48.5 9s31.333 15 45 27s24.667 27 33 45s12.5 38.667 12.5 62c0 21.333 -3.66699 41.166 -11 59.499s-19 34.5 -35 48.5
c-11.333 10 -23.666 17.833 -36.999 23.5s-26.833 9.66699 -40.5 12s-26.834 3.83301 -39.501 4.5s-24 1 -34 1h-34v67c16.667 0 35.5 1.5 56.5 4.5s40.5 9.66699 58.5 20s33.167 24.833 45.5 43.5s18.5 43.334 18.5 74.001c0 20.667 -3.5 39.5 -10.5 56.5
s-16.5 31.667 -28.5 44s-26.333 21.833 -43 28.5s-34.334 10 -53.001 10c-25.333 0 -47.666 -6.16699 -66.999 -18.5s-34.333 -28.166 -45 -47.499c-5.33301 -9.33301 -9.5 -18.666 -12.5 -27.999s-5.5 -19.666 -7.5 -30.999s-3.33301 -23.833 -4 -37.5s-1 -29.167 -1 -46.5
v-278zM61 480.999c0 47.333 2.49707 84.332 7.49707 110.999s14.167 49.667 27.5 69c17.333 26.667 41.5 48.667 72.5 66s64.167 26 99.5 26c28.667 0 55.334 -4.83301 80.001 -14.5s46.334 -23.667 65.001 -42s33.334 -40.333 44.001 -66s16 -54.5 16 -86.5
c0 -39.333 -7.66699 -71 -23 -95s-37 -43.667 -65 -59c19.333 -6.66699 37.5 -15.5 54.5 -26.5s31.833 -24.167 44.5 -39.5s22.667 -33.333 30 -54s11 -44 11 -70c0 -37.333 -6.33301 -69.333 -19 -96s-29 -48.667 -49 -66s-42.333 -30.166 -67 -38.499s-49 -12.5 -73 -12.5
c-42 0 -79.667 10.667 -113 32s-57 51.333 -71 90h-2v-109h-70v481z" />
    <glyph glyph-name="agrave" unicode="&#xe0;" horiz-adv-x="683" 
d="M112 272c0 -30.667 5.33203 -59.498 15.999 -86.498s25.834 -50.5 45.501 -70.5s43.334 -35.833 71.001 -47.5s58.167 -17.5 91.5 -17.5c29.333 0 57.333 5.66699 84 17s50 26.833 70 46.5s35.833 43.167 47.5 70.5s17.5 57 17.5 89c0 30 -5.5 58.667 -16.5 86
s-26.333 51.166 -46 71.499s-42.834 36.666 -69.501 48.999s-55.667 18.5 -87 18.5c-30 0 -58.5 -5.33301 -85.5 -16s-50.833 -25.667 -71.5 -45s-37 -43 -49 -71s-18 -59.333 -18 -94zM620.999 0.00195312h-70v96h-2c-15.333 -22.667 -32.333 -41 -51 -55
s-37.667 -25 -57 -33s-38.166 -13.5 -56.499 -16.5s-34.5 -4.5 -48.5 -4.5c-43.333 0 -83 7.66699 -119 23s-67 36 -93 62s-46.167 56.5 -60.5 91.5s-21.5 72.167 -21.5 111.5c0 36.667 7 72.167 21 106.5s33.667 64.833 59 91.5s56.166 48 92.499 64s76.833 24 121.5 24
c14.667 0 31.334 -1.5 50.001 -4.5s37.667 -8.5 57 -16.5s38.166 -19.167 56.499 -33.5s34.833 -32.833 49.5 -55.5h2v96h70v-547zM452.999 677.002l-33 -58l-198 107l32 60z" />
    <glyph glyph-name="aacute" unicode="&#xe1;" horiz-adv-x="683" 
d="M112 272c0 -30.667 5.33203 -59.498 15.999 -86.498s25.834 -50.5 45.501 -70.5s43.334 -35.833 71.001 -47.5s58.167 -17.5 91.5 -17.5c29.333 0 57.333 5.66699 84 17s50 26.833 70 46.5s35.833 43.167 47.5 70.5s17.5 57 17.5 89c0 30 -5.5 58.667 -16.5 86
s-26.333 51.166 -46 71.499s-42.834 36.666 -69.501 48.999s-55.667 18.5 -87 18.5c-30 0 -58.5 -5.33301 -85.5 -16s-50.833 -25.667 -71.5 -45s-37 -43 -49 -71s-18 -59.333 -18 -94zM620.999 0.00195312h-70v96h-2c-15.333 -22.667 -32.333 -41 -51 -55
s-37.667 -25 -57 -33s-38.166 -13.5 -56.499 -16.5s-34.5 -4.5 -48.5 -4.5c-43.333 0 -83 7.66699 -119 23s-67 36 -93 62s-46.167 56.5 -60.5 91.5s-21.5 72.167 -21.5 111.5c0 36.667 7 72.167 21 106.5s33.667 64.833 59 91.5s56.166 48 92.499 64s76.833 24 121.5 24
c14.667 0 31.334 -1.5 50.001 -4.5s37.667 -8.5 57 -16.5s38.166 -19.167 56.499 -33.5s34.833 -32.833 49.5 -55.5h2v96h70v-547zM430.999 786.002l32 -60l-198 -107l-33 58z" />
    <glyph glyph-name="acircumflex" unicode="&#xe2;" horiz-adv-x="683" 
d="M112 272c0 -30.667 5.33203 -59.498 15.999 -86.498s25.834 -50.5 45.501 -70.5s43.334 -35.833 71.001 -47.5s58.167 -17.5 91.5 -17.5c29.333 0 57.333 5.66699 84 17s50 26.833 70 46.5s35.833 43.167 47.5 70.5s17.5 57 17.5 89c0 30 -5.5 58.667 -16.5 86
s-26.333 51.166 -46 71.499s-42.834 36.666 -69.501 48.999s-55.667 18.5 -87 18.5c-30 0 -58.5 -5.33301 -85.5 -16s-50.833 -25.667 -71.5 -45s-37 -43 -49 -71s-18 -59.333 -18 -94zM620.999 0.00195312h-70v96h-2c-15.333 -22.667 -32.333 -41 -51 -55
s-37.667 -25 -57 -33s-38.166 -13.5 -56.499 -16.5s-34.5 -4.5 -48.5 -4.5c-43.333 0 -83 7.66699 -119 23s-67 36 -93 62s-46.167 56.5 -60.5 91.5s-21.5 72.167 -21.5 111.5c0 36.667 7 72.167 21 106.5s33.667 64.833 59 91.5s56.166 48 92.499 64s76.833 24 121.5 24
c14.667 0 31.334 -1.5 50.001 -4.5s37.667 -8.5 57 -16.5s38.166 -19.167 56.499 -33.5s34.833 -32.833 49.5 -55.5h2v96h70v-547zM309.999 764.002h66l143 -125h-89l-86 73l-88 -73h-91z" />
    <glyph glyph-name="atilde" unicode="&#xe3;" horiz-adv-x="683" 
d="M112 272c0 -30.667 5.33203 -59.498 15.999 -86.498s25.834 -50.5 45.501 -70.5s43.334 -35.833 71.001 -47.5s58.167 -17.5 91.5 -17.5c29.333 0 57.333 5.66699 84 17s50 26.833 70 46.5s35.833 43.167 47.5 70.5s17.5 57 17.5 89c0 30 -5.5 58.667 -16.5 86
s-26.333 51.166 -46 71.499s-42.834 36.666 -69.501 48.999s-55.667 18.5 -87 18.5c-30 0 -58.5 -5.33301 -85.5 -16s-50.833 -25.667 -71.5 -45s-37 -43 -49 -71s-18 -59.333 -18 -94zM620.999 0.00195312h-70v96h-2c-15.333 -22.667 -32.333 -41 -51 -55
s-37.667 -25 -57 -33s-38.166 -13.5 -56.499 -16.5s-34.5 -4.5 -48.5 -4.5c-43.333 0 -83 7.66699 -119 23s-67 36 -93 62s-46.167 56.5 -60.5 91.5s-21.5 72.167 -21.5 111.5c0 36.667 7 72.167 21 106.5s33.667 64.833 59 91.5s56.166 48 92.499 64s76.833 24 121.5 24
c14.667 0 31.334 -1.5 50.001 -4.5s37.667 -8.5 57 -16.5s38.166 -19.167 56.499 -33.5s34.833 -32.833 49.5 -55.5h2v96h70v-547zM513.999 690.002c-16 -12 -32.4971 -21.499 -49.4971 -28.499s-33.167 -10.5 -48.5 -10.5c-16.667 0 -31.834 2.5 -45.501 7.5
s-25.167 9.5 -34.5 13.5c-15.333 7.33301 -27.333 12.5 -36 15.5s-18.334 4.5 -29.001 4.5c-12 0 -23.833 -2.83301 -35.5 -8.5s-22.167 -12.834 -31.5 -21.501l-35 50c30 28 64.667 42 104 42c17.333 0 31.833 -2.16699 43.5 -6.5s23.834 -9.5 36.501 -15.5
c5.33301 -2 14.166 -5.66699 26.499 -11s24.166 -8 35.499 -8c10.667 0 20 2 28 6s19.667 10.667 35 20z" />
    <glyph glyph-name="adieresis" unicode="&#xe4;" horiz-adv-x="683" 
d="M112 272c0 -30.667 5.33203 -59.498 15.999 -86.498s25.834 -50.5 45.501 -70.5s43.334 -35.833 71.001 -47.5s58.167 -17.5 91.5 -17.5c29.333 0 57.333 5.66699 84 17s50 26.833 70 46.5s35.833 43.167 47.5 70.5s17.5 57 17.5 89c0 30 -5.5 58.667 -16.5 86
s-26.333 51.166 -46 71.499s-42.834 36.666 -69.501 48.999s-55.667 18.5 -87 18.5c-30 0 -58.5 -5.33301 -85.5 -16s-50.833 -25.667 -71.5 -45s-37 -43 -49 -71s-18 -59.333 -18 -94zM620.999 0.00195312h-70v96h-2c-15.333 -22.667 -32.333 -41 -51 -55
s-37.667 -25 -57 -33s-38.166 -13.5 -56.499 -16.5s-34.5 -4.5 -48.5 -4.5c-43.333 0 -83 7.66699 -119 23s-67 36 -93 62s-46.167 56.5 -60.5 91.5s-21.5 72.167 -21.5 111.5c0 36.667 7 72.167 21 106.5s33.667 64.833 59 91.5s56.166 48 92.499 64s76.833 24 121.5 24
c14.667 0 31.334 -1.5 50.001 -4.5s37.667 -8.5 57 -16.5s38.166 -19.167 56.499 -33.5s34.833 -32.833 49.5 -55.5h2v96h70v-547zM451.999 765.002v-126h-74v126h74zM303.999 765.002v-126h-74v126h74z" />
    <glyph glyph-name="aring" unicode="&#xe5;" horiz-adv-x="683" 
d="M112 272c0 -30.667 5.33203 -59.498 15.999 -86.498s25.834 -50.5 45.501 -70.5s43.334 -35.833 71.001 -47.5s58.167 -17.5 91.5 -17.5c29.333 0 57.333 5.66699 84 17s50 26.833 70 46.5s35.833 43.167 47.5 70.5s17.5 57 17.5 89c0 30 -5.5 58.667 -16.5 86
s-26.333 51.166 -46 71.499s-42.834 36.666 -69.501 48.999s-55.667 18.5 -87 18.5c-30 0 -58.5 -5.33301 -85.5 -16s-50.833 -25.667 -71.5 -45s-37 -43 -49 -71s-18 -59.333 -18 -94zM620.999 0.00195312h-70v96h-2c-15.333 -22.667 -32.333 -41 -51 -55
s-37.667 -25 -57 -33s-38.166 -13.5 -56.499 -16.5s-34.5 -4.5 -48.5 -4.5c-43.333 0 -83 7.66699 -119 23s-67 36 -93 62s-46.167 56.5 -60.5 91.5s-21.5 72.167 -21.5 111.5c0 36.667 7 72.167 21 106.5s33.667 64.833 59 91.5s56.166 48 92.499 64s76.833 24 121.5 24
c14.667 0 31.334 -1.5 50.001 -4.5s37.667 -8.5 57 -16.5s38.166 -19.167 56.499 -33.5s34.833 -32.833 49.5 -55.5h2v96h70v-547zM289.999 703.002c0 -14 4.99902 -26 14.999 -36s22 -15 36 -15c14.667 0 27 5 37 15s15 22 15 36c0 14.667 -5 27 -15 37s-22.333 15 -37 15
c-13.333 0 -25.166 -5 -35.499 -15s-15.5 -22.333 -15.5 -37zM237.998 703.002c0 14 2.66797 27.332 8.00098 39.999s12.833 23.834 22.5 33.501s20.667 17.167 33 22.5s25.5 8 39.5 8c29.333 0 54 -10 74 -30s30 -44.667 30 -74c0 -14 -2.66699 -27.333 -8 -40
s-12.833 -23.667 -22.5 -33s-20.834 -16.666 -33.501 -21.999s-26 -8 -40 -8s-27.167 2.66699 -39.5 8s-23.333 12.666 -33 21.999s-17.167 20.333 -22.5 33s-8 26 -8 40z" />
    <glyph glyph-name="ae" unicode="&#xe6;" horiz-adv-x="1157" 
d="M548 272c0 30 -5.1709 58.6699 -15.5039 86.0029s-25.166 51.333 -44.499 72s-42.666 37.167 -69.999 49.5s-57.666 18.5 -90.999 18.5s-63.666 -6.5 -90.999 -19.5s-50.833 -30 -70.5 -51s-34.834 -45.333 -45.501 -73s-16 -55.834 -16 -84.501
c0 -29.333 5.66699 -57.333 17 -84s27 -50 47 -70s43.5 -36 70.5 -48s56.167 -18 87.5 -18c29.333 0 57.333 5.16699 84 15.5s50.334 25.166 71.001 44.499s37 42.666 49 69.999s18 58 18 92zM1043 310.003c-5.33301 32.667 -15.3311 60.834 -29.998 84.501
s-31.834 43.167 -51.501 58.5s-40.834 26.666 -63.501 33.999s-45 11 -67 11c-21.333 0 -43.5 -3.66699 -66.5 -11s-44.5 -18.666 -64.5 -33.999s-37.333 -34.833 -52 -58.5s-24.667 -51.834 -30 -84.501h425zM617.998 247.003
c2.66699 -32.667 11.1699 -61.3369 25.5029 -86.0039s31.666 -45.167 51.999 -61.5s42.5 -28.666 66.5 -36.999s47 -12.5 69 -12.5s43.333 3.33301 64 10s39.667 15.667 57 27s32.333 24.833 45 40.5s22 32.5 28 50.5h70c-8.66699 -28.667 -21.834 -54.667 -39.501 -78
s-38.334 -43.333 -62.001 -60s-49.5 -29.667 -77.5 -39s-56.333 -14 -85 -14c-20 0 -40.333 2.33301 -61 7s-40.334 11.834 -59.001 21.501s-36.167 21.5 -52.5 35.5s-30.166 30 -41.499 48h-2v-99h-70v99h-2c-14.667 -22 -30.667 -40.167 -48 -54.5
s-35.333 -25.833 -54 -34.5s-37.834 -14.667 -57.501 -18s-38.834 -5 -57.501 -5c-48 0 -90.333 9 -127 27s-67.167 40.833 -91.5 68.5s-42.666 58.334 -54.999 92.001s-18.5 66.167 -18.5 97.5c0 30.667 6.16699 63 18.5 97s30.666 65.333 54.999 94
s54.833 52.167 91.5 70.5s79.334 27.5 128.001 27.5c46.667 0 89 -9.5 127 -28.5s67.667 -47.833 89 -86.5h2v101h70v-101h2c9.33301 18 22 34 38 48s33.5 26 52.5 36s39.167 17.667 60.5 23s42 8 62 8c29.333 0 56.5 -4.16699 81.5 -12.5s47.667 -19.166 68 -32.499
s38.333 -28.333 54 -45s28.5 -33.334 38.5 -50.001c17.333 -30 28.833 -59.667 34.5 -89s7.83398 -57.666 6.50098 -84.999h-495z" />
    <glyph glyph-name="ccedilla" unicode="&#xe7;" horiz-adv-x="647" 
d="M288 -146c3.33301 -12.667 9.16016 -22.335 17.4932 -29.002s17.833 -10 28.5 -10c14.667 0 25.834 5.16699 33.501 15.5s11.5 22.166 11.5 35.499c0 15.333 -4.16699 27.166 -12.5 35.499s-19.166 12.5 -32.499 12.5c-14 0 -24.167 -2.5 -30.5 -7.5
s-11.166 -9.83301 -14.499 -14.5l-37 18l36 81c-36.667 5.33301 -70.167 16.5 -100.5 33.5s-56.333 38.167 -78 63.5s-38.5 53.833 -50.5 85.5s-18 64.834 -18 99.501c0 39.333 7.66699 76.5 23 111.5s36.333 65.5 63 91.5s57.834 46.667 93.501 62s73.834 23 114.501 23
c24 0 49.167 -3.16699 75.5 -9.5s51.833 -16.666 76.5 -30.999s47.5 -32.833 68.5 -55.5s38.167 -50.334 51.5 -83.001h-77c-11.333 20.667 -24.5 38.334 -39.5 53.001s-31 26.667 -48 36s-34.5 16.166 -52.5 20.499s-35.667 6.5 -53 6.5
c-26.667 0 -53.5 -4.83301 -80.5 -14.5s-51.167 -24 -72.5 -43s-38.833 -42.333 -52.5 -70s-20.5 -59.5 -20.5 -95.5c0 -30.667 5.66699 -59.667 17 -87s27 -51.166 47 -71.499s43.833 -36.5 71.5 -48.5s57.834 -18 90.501 -18c28.667 0 53.834 3.83301 75.501 11.5
s40.167 17.167 55.5 28.5s28.166 23.333 38.499 36s18.166 24.334 23.499 35.001h77c-26.667 -56 -63 -99 -109 -129s-102.333 -45 -169 -45l-19 -45c6 2.66699 11 4.5 15 5.5s9.66699 1.5 17 1.5c22 0 40.333 -7.66699 55 -23s22.334 -34.666 23.001 -57.999
c0 -13.333 -2.16699 -25.5 -6.5 -36.5s-10.5 -20.5 -18.5 -28.5s-17.333 -14.167 -28 -18.5s-21.667 -6.5 -33 -6.5c-19.333 0 -37.166 5.33301 -53.499 16s-27.833 29 -34.5 55z" />
    <glyph glyph-name="egrave" unicode="&#xe8;" horiz-adv-x="650" 
d="M537 311c-5.33301 32 -15.5 59.833 -30.5 83.5s-32.5 43.167 -52.5 58.5s-41.333 26.666 -64 33.999s-45 11 -67 11c-21.333 0 -43.5 -3.66699 -66.5 -11s-44.5 -18.666 -64.5 -33.999s-37.5 -34.833 -52.5 -58.5s-24.833 -51.5 -29.5 -83.5h427zM110 248
c1.33301 -26.667 7.99609 -52.0039 19.9961 -76.0039s27.833 -45.167 47.5 -63.5s42 -32.666 67 -42.999s50.833 -15.5 77.5 -15.5c24.667 0 47.667 3.66699 69 11s40.333 16.833 57 28.5s31 25.167 43 40.5s21 31.666 27 48.999h74
c-9.33301 -27.333 -22.666 -52.666 -39.999 -75.999s-37.833 -43.666 -61.5 -60.999s-49.667 -30.833 -78 -40.5s-58.166 -14.5 -89.499 -14.5c-38 0 -74.333 7.33301 -109 22s-65 34.834 -91 60.501s-46.667 55.834 -62 90.501s-23 72.334 -23 113.001
c0 38.667 7.33301 75.334 22 110.001s34.834 65.167 60.501 91.5s55.667 47.333 90 63s71.5 23.5 111.5 23.5c30 0 57.667 -4 83 -12s48.333 -18.833 69 -32.5s38.667 -28.834 54 -45.501s28 -33.334 38 -50.001c18 -30 29.833 -59.667 35.5 -89
s7.83398 -57.333 6.50098 -84h-498zM435.996 676.996l-33 -58l-198 107l32 60z" />
    <glyph glyph-name="eacute" unicode="&#xe9;" horiz-adv-x="650" 
d="M537 311c-5.33301 32 -15.5 59.833 -30.5 83.5s-32.5 43.167 -52.5 58.5s-41.333 26.666 -64 33.999s-45 11 -67 11c-21.333 0 -43.5 -3.66699 -66.5 -11s-44.5 -18.666 -64.5 -33.999s-37.5 -34.833 -52.5 -58.5s-24.833 -51.5 -29.5 -83.5h427zM110 248
c1.33301 -26.667 7.99609 -52.0039 19.9961 -76.0039s27.833 -45.167 47.5 -63.5s42 -32.666 67 -42.999s50.833 -15.5 77.5 -15.5c24.667 0 47.667 3.66699 69 11s40.333 16.833 57 28.5s31 25.167 43 40.5s21 31.666 27 48.999h74
c-9.33301 -27.333 -22.666 -52.666 -39.999 -75.999s-37.833 -43.666 -61.5 -60.999s-49.667 -30.833 -78 -40.5s-58.166 -14.5 -89.499 -14.5c-38 0 -74.333 7.33301 -109 22s-65 34.834 -91 60.501s-46.667 55.834 -62 90.501s-23 72.334 -23 113.001
c0 38.667 7.33301 75.334 22 110.001s34.834 65.167 60.501 91.5s55.667 47.333 90 63s71.5 23.5 111.5 23.5c30 0 57.667 -4 83 -12s48.333 -18.833 69 -32.5s38.667 -28.834 54 -45.501s28 -33.334 38 -50.001c18 -30 29.833 -59.667 35.5 -89
s7.83398 -57.333 6.50098 -84h-498zM414.996 785.996l32 -60l-198 -107l-33 58z" />
    <glyph glyph-name="ecircumflex" unicode="&#xea;" horiz-adv-x="650" 
d="M537 311c-5.33301 32 -15.5 59.833 -30.5 83.5s-32.5 43.167 -52.5 58.5s-41.333 26.666 -64 33.999s-45 11 -67 11c-21.333 0 -43.5 -3.66699 -66.5 -11s-44.5 -18.666 -64.5 -33.999s-37.5 -34.833 -52.5 -58.5s-24.833 -51.5 -29.5 -83.5h427zM110 248
c1.33301 -26.667 7.99609 -52.0039 19.9961 -76.0039s27.833 -45.167 47.5 -63.5s42 -32.666 67 -42.999s50.833 -15.5 77.5 -15.5c24.667 0 47.667 3.66699 69 11s40.333 16.833 57 28.5s31 25.167 43 40.5s21 31.666 27 48.999h74
c-9.33301 -27.333 -22.666 -52.666 -39.999 -75.999s-37.833 -43.666 -61.5 -60.999s-49.667 -30.833 -78 -40.5s-58.166 -14.5 -89.499 -14.5c-38 0 -74.333 7.33301 -109 22s-65 34.834 -91 60.501s-46.667 55.834 -62 90.501s-23 72.334 -23 113.001
c0 38.667 7.33301 75.334 22 110.001s34.834 65.167 60.501 91.5s55.667 47.333 90 63s71.5 23.5 111.5 23.5c30 0 57.667 -4 83 -12s48.333 -18.833 69 -32.5s38.667 -28.834 54 -45.501s28 -33.334 38 -50.001c18 -30 29.833 -59.667 35.5 -89
s7.83398 -57.333 6.50098 -84h-498zM292.996 763.996h66l143 -125h-89l-86 73l-88 -73h-91z" />
    <glyph glyph-name="edieresis" unicode="&#xeb;" horiz-adv-x="650" 
d="M537 311c-5.33301 32 -15.5 59.833 -30.5 83.5s-32.5 43.167 -52.5 58.5s-41.333 26.666 -64 33.999s-45 11 -67 11c-21.333 0 -43.5 -3.66699 -66.5 -11s-44.5 -18.666 -64.5 -33.999s-37.5 -34.833 -52.5 -58.5s-24.833 -51.5 -29.5 -83.5h427zM110 248
c1.33301 -26.667 7.99609 -52.0039 19.9961 -76.0039s27.833 -45.167 47.5 -63.5s42 -32.666 67 -42.999s50.833 -15.5 77.5 -15.5c24.667 0 47.667 3.66699 69 11s40.333 16.833 57 28.5s31 25.167 43 40.5s21 31.666 27 48.999h74
c-9.33301 -27.333 -22.666 -52.666 -39.999 -75.999s-37.833 -43.666 -61.5 -60.999s-49.667 -30.833 -78 -40.5s-58.166 -14.5 -89.499 -14.5c-38 0 -74.333 7.33301 -109 22s-65 34.834 -91 60.501s-46.667 55.834 -62 90.501s-23 72.334 -23 113.001
c0 38.667 7.33301 75.334 22 110.001s34.834 65.167 60.501 91.5s55.667 47.333 90 63s71.5 23.5 111.5 23.5c30 0 57.667 -4 83 -12s48.333 -18.833 69 -32.5s38.667 -28.834 54 -45.501s28 -33.334 38 -50.001c18 -30 29.833 -59.667 35.5 -89
s7.83398 -57.333 6.50098 -84h-498zM435.996 764.996v-126h-74v126h74zM287.996 764.996v-126h-74v126h74z" />
    <glyph glyph-name="igrave" unicode="&#xec;" horiz-adv-x="200" 
d="M65 547h70v-547h-70v547zM172 677l-33 -58l-198 107l32 60z" />
    <glyph glyph-name="iacute" unicode="&#xed;" horiz-adv-x="200" 
d="M65 547h70v-547h-70v547zM231 786l32 -60l-198 -107l-33 58z" />
    <glyph glyph-name="icircumflex" unicode="&#xee;" horiz-adv-x="200" 
d="M65 547h70v-547h-70v547zM69 764h66l143 -125h-89l-86 73l-88 -73h-91z" />
    <glyph glyph-name="idieresis" unicode="&#xef;" horiz-adv-x="200" 
d="M65 547h70v-547h-70v547zM212 765v-126h-74v126h74zM64 765v-126h-74v126h74z" />
    <glyph glyph-name="eth" unicode="&#xf0;" horiz-adv-x="655" 
d="M169 577l-50.001 38.999l145 55c-24 12.667 -46.167 23 -66.5 31s-37.166 14 -50.499 18l78 33c8.66699 -2.66699 23.667 -8 45 -16s46 -19.667 74 -35l133 51l48 -37l-125 -49c30 -21.333 58 -45 84 -71s48.667 -54.667 68 -86s34.5 -65.5 45.5 -102.5
s16.5 -77.5 16.5 -121.5s-7.66699 -84.333 -23 -121s-36.166 -68.167 -62.499 -94.5s-56.833 -46.666 -91.5 -60.999s-71.334 -21.5 -110.001 -21.5c-43.333 0 -82.5 8.16699 -117.5 24.5s-64.833 37.833 -89.5 64.5s-43.834 57.334 -57.501 92.001
s-20.5 70.334 -20.5 107.001c0 40 7.83301 77.333 23.5 112s36.5 64.667 62.5 90s55.833 45.166 89.5 59.499s68.5 21.166 104.5 20.499c28.667 -0.666992 54.334 -4.33398 77.001 -11.001s45.667 -18.334 69 -35.001l2 2c-18 24.667 -39.833 47.334 -65.5 68.001
s-52.5 39.334 -80.5 56.001zM111.999 271.999c0 -34 6.16699 -64.667 18.5 -92s28.5 -50.5 48.5 -69.5s42.833 -33.667 68.5 -44s51.834 -15.5 78.501 -15.5c24.667 0 50 4.83301 76 14.5s49.5 24 70.5 43s38.167 42.833 51.5 71.5s20 61.667 20 99
c0 36.667 -6.83301 68.667 -20.5 96s-31.334 49.833 -53.001 67.5s-45.5 30.834 -71.5 39.501s-51 13 -75 13c-20.667 0 -43.334 -4 -68.001 -12s-47.667 -20.667 -69 -38s-39.166 -40.333 -53.499 -69s-21.5 -63.334 -21.5 -104.001z" />
    <glyph glyph-name="ntilde" unicode="&#xf1;" horiz-adv-x="610" 
d="M65 547h69.9971v-70h2c5.33301 8 12.666 17 21.999 27s21 19.167 35 27.5s30.167 15.333 48.5 21s39.166 8.5 62.499 8.5c34 0 65 -4.83301 93 -14.5s54.667 -27.167 80 -52.5c20.667 -20 37.167 -45.833 49.5 -77.5s18.5 -70.167 18.5 -115.5v-301h-70v301
c0 36 -4.83301 66.333 -14.5 91s-22.167 44.334 -37.5 59.001c-19.333 18.667 -40.166 31.167 -62.499 37.5s-41.166 9.5 -56.499 9.5s-34.166 -3.16699 -56.499 -9.5s-43.166 -18.833 -62.499 -37.5c-15.333 -14.667 -27.666 -34.334 -36.999 -59.001s-14 -55 -14 -91v-301
h-70v547zM477.997 690c-16 -12 -32.4971 -21.499 -49.4971 -28.499s-33.167 -10.5 -48.5 -10.5c-16.667 0 -31.834 2.5 -45.501 7.5s-25.167 9.5 -34.5 13.5c-15.333 7.33301 -27.333 12.5 -36 15.5s-18.334 4.5 -29.001 4.5c-12 0 -23.833 -2.83301 -35.5 -8.5
s-22.167 -12.834 -31.5 -21.501l-35 50c30 28 64.667 42 104 42c17.333 0 31.833 -2.16699 43.5 -6.5s23.834 -9.5 36.501 -15.5c5.33301 -2 14.166 -5.66699 26.499 -11s24.166 -8 35.499 -8c10.667 0 20 2 28 6s19.667 10.667 35 20z" />
    <glyph glyph-name="ograve" unicode="&#xf2;" horiz-adv-x="655" 
d="M112 271c0 -32 5.99805 -61.5 17.998 -88.5s28 -50.333 48 -70s43 -35 69 -46s53 -16.5 81 -16.5c26.667 0 52.834 5.16699 78.501 15.5s48.667 25.166 69 44.499s36.833 43 49.5 71s19 60 19 96s-6.83301 67.833 -20.5 95.5s-31 50.667 -52 69s-44.333 32.333 -70 42
s-50.167 14.5 -73.5 14.5c-25.333 0 -50.666 -5 -75.999 -15s-48.5 -24.667 -69.5 -44s-38 -43.166 -51 -71.499s-19.5 -60.5 -19.5 -96.5zM41.998 270c0 43.333 8.16895 82.832 24.502 118.499s37.666 66.334 63.999 92.001s56.666 45.5 90.999 59.5s69.5 21 105.5 21
c40.667 0 78.5 -8 113.5 -24s65.333 -37.167 91 -63.5s45.834 -56.833 60.501 -91.5s22 -70.667 22 -108s-7.33301 -73.333 -22 -108s-34.667 -65.167 -60 -91.5s-55.666 -47.5 -90.999 -63.5s-73.333 -24 -114 -24c-40 0 -77.333 7.83301 -112 23.5
s-64.834 36.5 -90.501 62.5s-45.834 56 -60.501 90s-22 69.667 -22 107zM439 676.999l-33 -58l-198 107l32 60z" />
    <glyph glyph-name="oacute" unicode="&#xf3;" horiz-adv-x="655" 
d="M112 271c0 -32 5.99805 -61.5 17.998 -88.5s28 -50.333 48 -70s43 -35 69 -46s53 -16.5 81 -16.5c26.667 0 52.834 5.16699 78.501 15.5s48.667 25.166 69 44.499s36.833 43 49.5 71s19 60 19 96s-6.83301 67.833 -20.5 95.5s-31 50.667 -52 69s-44.333 32.333 -70 42
s-50.167 14.5 -73.5 14.5c-25.333 0 -50.666 -5 -75.999 -15s-48.5 -24.667 -69.5 -44s-38 -43.166 -51 -71.499s-19.5 -60.5 -19.5 -96.5zM41.998 270c0 43.333 8.16895 82.832 24.502 118.499s37.666 66.334 63.999 92.001s56.666 45.5 90.999 59.5s69.5 21 105.5 21
c40.667 0 78.5 -8 113.5 -24s65.333 -37.167 91 -63.5s45.834 -56.833 60.501 -91.5s22 -70.667 22 -108s-7.33301 -73.333 -22 -108s-34.667 -65.167 -60 -91.5s-55.666 -47.5 -90.999 -63.5s-73.333 -24 -114 -24c-40 0 -77.333 7.83301 -112 23.5
s-64.834 36.5 -90.501 62.5s-45.834 56 -60.501 90s-22 69.667 -22 107zM417 785.999l32 -60l-198 -107l-33 58z" />
    <glyph glyph-name="ocircumflex" unicode="&#xf4;" horiz-adv-x="655" 
d="M112 271c0 -32 5.99805 -61.5 17.998 -88.5s28 -50.333 48 -70s43 -35 69 -46s53 -16.5 81 -16.5c26.667 0 52.834 5.16699 78.501 15.5s48.667 25.166 69 44.499s36.833 43 49.5 71s19 60 19 96s-6.83301 67.833 -20.5 95.5s-31 50.667 -52 69s-44.333 32.333 -70 42
s-50.167 14.5 -73.5 14.5c-25.333 0 -50.666 -5 -75.999 -15s-48.5 -24.667 -69.5 -44s-38 -43.166 -51 -71.499s-19.5 -60.5 -19.5 -96.5zM41.998 270c0 43.333 8.16895 82.832 24.502 118.499s37.666 66.334 63.999 92.001s56.666 45.5 90.999 59.5s69.5 21 105.5 21
c40.667 0 78.5 -8 113.5 -24s65.333 -37.167 91 -63.5s45.834 -56.833 60.501 -91.5s22 -70.667 22 -108s-7.33301 -73.333 -22 -108s-34.667 -65.167 -60 -91.5s-55.666 -47.5 -90.999 -63.5s-73.333 -24 -114 -24c-40 0 -77.333 7.83301 -112 23.5
s-64.834 36.5 -90.501 62.5s-45.834 56 -60.501 90s-22 69.667 -22 107zM296 763.999h66l143 -125h-89l-86 73l-88 -73h-91z" />
    <glyph glyph-name="otilde" unicode="&#xf5;" horiz-adv-x="655" 
d="M112 271c0 -32 5.99805 -61.5 17.998 -88.5s28 -50.333 48 -70s43 -35 69 -46s53 -16.5 81 -16.5c26.667 0 52.834 5.16699 78.501 15.5s48.667 25.166 69 44.499s36.833 43 49.5 71s19 60 19 96s-6.83301 67.833 -20.5 95.5s-31 50.667 -52 69s-44.333 32.333 -70 42
s-50.167 14.5 -73.5 14.5c-25.333 0 -50.666 -5 -75.999 -15s-48.5 -24.667 -69.5 -44s-38 -43.166 -51 -71.499s-19.5 -60.5 -19.5 -96.5zM41.998 270c0 43.333 8.16895 82.832 24.502 118.499s37.666 66.334 63.999 92.001s56.666 45.5 90.999 59.5s69.5 21 105.5 21
c40.667 0 78.5 -8 113.5 -24s65.333 -37.167 91 -63.5s45.834 -56.833 60.501 -91.5s22 -70.667 22 -108s-7.33301 -73.333 -22 -108s-34.667 -65.167 -60 -91.5s-55.666 -47.5 -90.999 -63.5s-73.333 -24 -114 -24c-40 0 -77.333 7.83301 -112 23.5
s-64.834 36.5 -90.501 62.5s-45.834 56 -60.501 90s-22 69.667 -22 107zM500 689.999c-16 -12 -32.4971 -21.499 -49.4971 -28.499s-33.167 -10.5 -48.5 -10.5c-16.667 0 -31.834 2.5 -45.501 7.5s-25.167 9.5 -34.5 13.5c-15.333 7.33301 -27.333 12.5 -36 15.5
s-18.334 4.5 -29.001 4.5c-12 0 -23.833 -2.83301 -35.5 -8.5s-22.167 -12.834 -31.5 -21.501l-35 50c30 28 64.667 42 104 42c17.333 0 31.833 -2.16699 43.5 -6.5s23.834 -9.5 36.501 -15.5c5.33301 -2 14.166 -5.66699 26.499 -11s24.166 -8 35.499 -8
c10.667 0 20 2 28 6s19.667 10.667 35 20z" />
    <glyph glyph-name="odieresis" unicode="&#xf6;" horiz-adv-x="655" 
d="M112 271c0 -32 5.99805 -61.5 17.998 -88.5s28 -50.333 48 -70s43 -35 69 -46s53 -16.5 81 -16.5c26.667 0 52.834 5.16699 78.501 15.5s48.667 25.166 69 44.499s36.833 43 49.5 71s19 60 19 96s-6.83301 67.833 -20.5 95.5s-31 50.667 -52 69s-44.333 32.333 -70 42
s-50.167 14.5 -73.5 14.5c-25.333 0 -50.666 -5 -75.999 -15s-48.5 -24.667 -69.5 -44s-38 -43.166 -51 -71.499s-19.5 -60.5 -19.5 -96.5zM41.998 270c0 43.333 8.16895 82.832 24.502 118.499s37.666 66.334 63.999 92.001s56.666 45.5 90.999 59.5s69.5 21 105.5 21
c40.667 0 78.5 -8 113.5 -24s65.333 -37.167 91 -63.5s45.834 -56.833 60.501 -91.5s22 -70.667 22 -108s-7.33301 -73.333 -22 -108s-34.667 -65.167 -60 -91.5s-55.666 -47.5 -90.999 -63.5s-73.333 -24 -114 -24c-40 0 -77.333 7.83301 -112 23.5
s-64.834 36.5 -90.501 62.5s-45.834 56 -60.501 90s-22 69.667 -22 107zM438 764.999v-126h-74v126h74zM290 764.999v-126h-74v126h74z" />
    <glyph glyph-name="divide" unicode="&#xf7;" horiz-adv-x="606" 
d="M266 113h74v-126h-74v126zM266 519h74v-126h-74v126zM51 287h504v-68h-504v68z" />
    <glyph glyph-name="oslash" unicode="&#xf8;" horiz-adv-x="653" 
d="M597 573l-72.001 -94.002c27.333 -26.667 48.833 -57.667 64.5 -93s23.5 -72.666 23.5 -111.999c0 -37.333 -7.33301 -73.333 -22 -108s-34.667 -65.167 -60 -91.5s-55.666 -47.5 -90.999 -63.5s-73.333 -24 -114 -24c-27.333 0 -53.166 3.66699 -77.499 11
s-46.833 17.666 -67.5 30.999l-71 -93l-54 38l72 95c-27.333 26.667 -48.666 57.334 -63.999 92.001s-23 71 -23 109c0 43.333 8.16699 82.833 24.5 118.5s37.666 66.334 63.999 92.001s56.666 45.5 90.999 59.5s69.5 21 105.5 21c27.333 0 53 -3.5 77 -10.5
s46.333 -17.167 67 -30.5l72 94zM220.999 80.998c32 -20.667 67.332 -30.999 105.999 -30.999c26.667 0 52.834 5.16699 78.501 15.5s48.667 25.166 69 44.499s36.833 43 49.5 71s19 60 19 96c0 32 -5.33301 60.333 -16 85s-24.667 46 -42 64zM430.998 467.999
c-17.333 10.667 -34.833 18.332 -52.5 22.999s-34.834 7 -51.501 7c-25.333 0 -50.666 -5 -75.999 -15s-48.5 -24.667 -69.5 -44s-38 -43.166 -51 -71.499s-19.5 -60.5 -19.5 -96.5c0 -29.333 5 -56.5 15 -81.5s24.333 -47.167 43 -66.5z" />
    <glyph glyph-name="ugrave" unicode="&#xf9;" horiz-adv-x="608" 
d="M541 0l-65.999 0.000976562v85h-2c-5.33301 -10 -12.5 -20.833 -21.5 -32.5s-20.667 -22.334 -35 -32.001s-31.333 -17.667 -51 -24s-42.167 -9.5 -67.5 -9.5c-27.333 0 -51.333 2.83301 -72 8.5s-38.5 12.667 -53.5 21s-27.667 17.333 -38 27s-18.5 18.167 -24.5 25.5
c-19.333 24 -32.166 52 -38.499 84s-9.5 62.667 -9.5 92v302h70v-301c0 -34.667 3.33301 -63.667 10 -87s16.334 -42.333 29.001 -57c18.667 -22 39.667 -36.167 63 -42.5s44.666 -9.5 63.999 -9.5s39.166 3 59.499 9s39.166 17.667 56.499 35c8 8 15.5 16.5 22.5 25.5
s13 19.833 18 32.5s9 27.5 12 44.5s4.5 37.5 4.5 61.5v289h70v-547zM395.001 677.001l-33 -58l-198 107l32 60z" />
    <glyph glyph-name="uacute" unicode="&#xfa;" horiz-adv-x="608" 
d="M541 0l-65.999 0.000976562v85h-2c-5.33301 -10 -12.5 -20.833 -21.5 -32.5s-20.667 -22.334 -35 -32.001s-31.333 -17.667 -51 -24s-42.167 -9.5 -67.5 -9.5c-27.333 0 -51.333 2.83301 -72 8.5s-38.5 12.667 -53.5 21s-27.667 17.333 -38 27s-18.5 18.167 -24.5 25.5
c-19.333 24 -32.166 52 -38.499 84s-9.5 62.667 -9.5 92v302h70v-301c0 -34.667 3.33301 -63.667 10 -87s16.334 -42.333 29.001 -57c18.667 -22 39.667 -36.167 63 -42.5s44.666 -9.5 63.999 -9.5s39.166 3 59.499 9s39.166 17.667 56.499 35c8 8 15.5 16.5 22.5 25.5
s13 19.833 18 32.5s9 27.5 12 44.5s4.5 37.5 4.5 61.5v289h70v-547zM414.001 786.001l32 -60l-198 -107l-33 58z" />
    <glyph glyph-name="ucircumflex" unicode="&#xfb;" horiz-adv-x="608" 
d="M541 0l-65.999 0.000976562v85h-2c-5.33301 -10 -12.5 -20.833 -21.5 -32.5s-20.667 -22.334 -35 -32.001s-31.333 -17.667 -51 -24s-42.167 -9.5 -67.5 -9.5c-27.333 0 -51.333 2.83301 -72 8.5s-38.5 12.667 -53.5 21s-27.667 17.333 -38 27s-18.5 18.167 -24.5 25.5
c-19.333 24 -32.166 52 -38.499 84s-9.5 62.667 -9.5 92v302h70v-301c0 -34.667 3.33301 -63.667 10 -87s16.334 -42.333 29.001 -57c18.667 -22 39.667 -36.167 63 -42.5s44.666 -9.5 63.999 -9.5s39.166 3 59.499 9s39.166 17.667 56.499 35c8 8 15.5 16.5 22.5 25.5
s13 19.833 18 32.5s9 27.5 12 44.5s4.5 37.5 4.5 61.5v289h70v-547zM272.001 764.001h66l143 -125h-89l-86 73l-88 -73h-91z" />
    <glyph glyph-name="udieresis" unicode="&#xfc;" horiz-adv-x="608" 
d="M541 0l-65.999 0.000976562v85h-2c-5.33301 -10 -12.5 -20.833 -21.5 -32.5s-20.667 -22.334 -35 -32.001s-31.333 -17.667 -51 -24s-42.167 -9.5 -67.5 -9.5c-27.333 0 -51.333 2.83301 -72 8.5s-38.5 12.667 -53.5 21s-27.667 17.333 -38 27s-18.5 18.167 -24.5 25.5
c-19.333 24 -32.166 52 -38.499 84s-9.5 62.667 -9.5 92v302h70v-301c0 -34.667 3.33301 -63.667 10 -87s16.334 -42.333 29.001 -57c18.667 -22 39.667 -36.167 63 -42.5s44.666 -9.5 63.999 -9.5s39.166 3 59.499 9s39.166 17.667 56.499 35c8 8 15.5 16.5 22.5 25.5
s13 19.833 18 32.5s9 27.5 12 44.5s4.5 37.5 4.5 61.5v289h70v-547zM415.001 765.001v-126h-74v126h74zM267.001 765.001v-126h-74v126h74z" />
    <glyph glyph-name="yacute" unicode="&#xfd;" horiz-adv-x="536" 
d="M228 18l-213 529h74l174 -436l186 436h74l-317 -739h-73zM378 786l32 -60l-198 -107l-33 58z" />
    <glyph glyph-name="thorn" unicode="&#xfe;" horiz-adv-x="682" 
d="M573 272c0 34.667 -6.00195 65.998 -18.002 93.998s-28.333 51.667 -49 71s-44.5 34.333 -71.5 45s-55.5 16 -85.5 16c-31.333 0 -60.5 -6.16699 -87.5 -18.5s-50.167 -28.666 -69.5 -48.999s-34.5 -44.166 -45.5 -71.499s-16.5 -56 -16.5 -86
c0 -32 5.83301 -61.667 17.5 -89s27.5 -50.833 47.5 -70.5s43.333 -35.167 70 -46.5s54.667 -17 84 -17c33.333 0 63.833 5.83301 91.5 17.5s51.334 27.5 71.001 47.5s34.834 43.5 45.501 70.5s16 55.833 16 86.5zM63.998 739.998h70v-289h2
c15.333 22.667 32.333 41.167 51 55.5s37.5 25.5 56.5 33.5s37.667 13.5 56 16.5s34.833 4.5 49.5 4.5c44.667 0 85.167 -8 121.5 -24s67.166 -37.333 92.499 -64s45 -57.167 59 -91.5s21 -69.833 21 -106.5c0 -39.333 -7.33301 -76.5 -22 -111.5s-35 -65.5 -61 -91.5
s-57 -46.667 -93 -62s-75.333 -23 -118 -23c-14 0 -30.167 1.5 -48.5 4.5s-37.166 8.5 -56.499 16.5s-38.333 19.167 -57 33.5s-35.667 32.5 -51 54.5h-2v-288h-70v932z" />
    <glyph glyph-name="ydieresis" unicode="&#xff;" horiz-adv-x="536" 
d="M228 18l-213 529h74l174 -436l186 436h74l-317 -739h-73zM379 765v-126h-74v126h74zM231 765v-126h-74v126h74z" />
    <glyph glyph-name="dotlessi" unicode="&#x131;" horiz-adv-x="200" 
d="M65 547h70v-547h-70v547z" />
    <glyph glyph-name="Lslash" unicode="&#x141;" horiz-adv-x="517" 
d="M59 334l78 56v350h74v-296l153 111v-77l-153 -111v-300h306v-67h-380v313l-78 -56v77z" />
    <glyph glyph-name="lslash" unicode="&#x142;" horiz-adv-x="300" 
d="M43 283v71l70 51v335h70v-284l76 55l-1 -70l-75 -55v-386h-70v335z" />
    <glyph glyph-name="OE" unicode="&#x152;" horiz-adv-x="1194" 
d="M119 374c0 -50 9 -94.832 27 -134.499s41.833 -73.167 71.5 -100.5s63.167 -48.333 100.5 -63s75 -22 113 -22c40.667 0 80.334 7.5 119.001 22.5s73 36.333 103 64s54 61 72 100s27 82.5 27 130.5c0 42.667 -8 83 -24 121s-38.167 71.333 -66.5 100
s-61.833 51.5 -100.5 68.5s-80.334 25.5 -125.001 25.5c-45.333 0 -87.333 -8.33301 -126 -25s-72.167 -39.167 -100.5 -67.5s-50.5 -61.333 -66.5 -99s-24 -77.834 -24 -120.501zM1142 740.001v-66.999h-317v-267h306v-67h-306v-272h317v-67h-391v151h-2
c-14 -25.333 -32.167 -48.166 -54.5 -68.499s-47.333 -37.5 -75 -51.5s-56.834 -24.833 -87.501 -32.5s-61 -11.5 -91 -11.5c-53.333 0 -104 9.16699 -152 27.5s-90 44.333 -126 78s-64.667 74.167 -86 121.5s-32 99.666 -32 156.999c0 55.333 10.5 106.333 31.5 153
s49.167 87 84.5 121s76.333 60.5 123 79.5s96 28.5 148 28.5c30 0 60.833 -3.66699 92.5 -11s61.834 -17.833 90.501 -31.5s54.667 -30.334 78 -50.001s42 -42.167 56 -67.5h2v147h391z" />
    <glyph glyph-name="oe" unicode="&#x153;" horiz-adv-x="1137" 
d="M1034 311c-5.33301 32 -15.3311 59.833 -29.998 83.5s-31.834 43.167 -51.501 58.5s-40.834 26.666 -63.501 33.999s-45 11 -67 11c-21.333 0 -43.5 -3.66699 -66.5 -11s-44.5 -18.666 -64.5 -33.999s-37.333 -34.833 -52 -58.5s-24.667 -51.5 -30 -83.5h425zM320.002 50
c28 0 55.166 5.5 81.499 16.5s49.5 26.333 69.5 46s36 43 48 70s18 56.5 18 88.5c0 36 -6.66699 68.167 -20 96.5s-30.333 52.166 -51 71.499s-44 34 -70 44s-51.333 15 -76 15c-25.333 0 -50.666 -5 -75.999 -15s-48.5 -24.667 -69.5 -44s-38 -43.166 -51 -71.499
s-19.5 -60.5 -19.5 -96.5c0 -32 6 -61.5 18 -88.5s28 -50.333 48 -70s43 -35 69 -46s53 -16.5 81 -16.5zM34.001 270c0 43.333 8.17676 82.8301 24.5098 118.497s37.666 66.334 63.999 92.001s56.666 45.5 90.999 59.5s69.5 21 105.5 21
c27.333 0 53.666 -3.83301 78.999 -11.5s48.666 -18.167 69.999 -31.5s40.666 -29.333 57.999 -48s32 -39 44 -61c12 22 26.5 42.333 43.5 61s36.333 34.834 58 48.501s45 24.167 70 31.5s51.167 11 78.5 11c29.333 0 56.666 -4 81.999 -12s48.166 -18.833 68.499 -32.5
s38.166 -28.834 53.499 -45.501s28 -33.334 38 -50.001c18 -30 29.833 -59.667 35.5 -89s7.83398 -57.333 6.50098 -84h-497c1.33301 -26.667 8.16602 -52 20.499 -76s28.166 -45.167 47.499 -63.5s41.5 -32.666 66.5 -42.999s51.167 -15.5 78.5 -15.5
c24 0 46.5 3.66699 67.5 11s40 16.833 57 28.5s31.333 25.167 43 40.5s20.5 31.666 26.5 48.999h74c-9.33301 -27.333 -22.666 -52.666 -39.999 -75.999s-37.833 -43.666 -61.5 -60.999s-49.5 -30.833 -77.5 -40.5s-57.333 -14.5 -88 -14.5
c-27.333 0 -53.5 3.66699 -78.5 11s-48.333 17.5 -70 30.5s-41.5 28.833 -59.5 47.5s-33 39.334 -45 62.001c-12 -22 -26.5 -42.167 -43.5 -60.5s-36.167 -34.333 -57.5 -48s-44.5 -24.167 -69.5 -31.5s-51.167 -11 -78.5 -11c-40 0 -77.333 7.83301 -112 23.5
s-64.834 36.5 -90.501 62.5s-45.834 56 -60.501 90s-22 69.667 -22 107z" />
    <glyph glyph-name="Scaron" unicode="&#x160;" horiz-adv-x="498" 
d="M96 207c2 -46.667 16.666 -83.8359 43.999 -111.503s64 -41.5 110 -41.5c19.333 0 38 3.5 56 10.5s33.833 17 47.5 30s24.667 28.5 33 46.5s12.5 38 12.5 60c0 28.667 -6.33301 52.334 -19 71.001s-27.667 33.834 -45 45.501s-35.333 20.5 -54 26.5l-47 15
c-16.667 4.66699 -36 10.667 -58 18s-43 18 -63 32s-36.833 32.5 -50.5 55.5s-20.5 52.833 -20.5 89.5c0 28.667 5.33301 55.167 16 79.5s25.334 45.333 44.001 63s40.667 31.5 66 41.5s52.666 15 81.999 15c30 0 57.667 -5.33301 83 -16s47 -25.334 65 -44.001
s32 -40.167 42 -64.5s15 -49.833 15 -76.5h-74c0 18.667 -3.5 36.167 -10.5 52.5s-16.5 30.5 -28.5 42.5s-26 21.5 -42 28.5s-32.667 10.5 -50 10.5c-21.333 0 -40.333 -3.66699 -57 -11s-30.667 -17.166 -42 -29.499s-20 -26.166 -26 -41.499s-9 -31 -9 -47
c0 -22.667 4.66699 -41.334 14 -56.001s22 -27 38 -37s34.667 -18.5 56 -25.5s44 -13.833 68 -20.5c45.333 -12.667 80.333 -29.834 105 -51.501s42.667 -43.667 54 -66s17.833 -42.666 19.5 -60.999s2.5 -30.166 2.5 -35.499c0 -28.667 -5.5 -56 -16.5 -82
s-26.333 -49 -46 -69s-43.167 -36 -70.5 -48s-57.333 -18 -90 -18c-24 0 -49.167 3.83301 -75.5 11.5s-50.666 20.167 -72.999 37.5s-41 40 -56 68s-22.833 62.333 -23.5 103h74zM158.999 926.998l86 -73l88 73h89l-143 -125h-67l-145 125h92z" />
    <glyph glyph-name="scaron" unicode="&#x161;" horiz-adv-x="388" 
d="M94 162c0.666992 -26 5.00195 -46.5029 13.002 -61.5029s17.167 -26.167 27.5 -33.5s21 -12 32 -14s19.5 -3 25.5 -3c33.333 0 58.666 8.83301 75.999 26.5s26 41.5 26 71.5c0 18.667 -3.66699 34.167 -11 46.5s-16.5 22.5 -27.5 30.5s-22.833 14.333 -35.5 19l-35 13
l-46 18c-16.667 6.66699 -32.334 15.667 -47.001 27s-27 25.5 -37 42.5s-15 38.5 -15 64.5c0 19.333 3.33301 38.166 10 56.499s16.667 34.5 30 48.5s29.666 25.333 48.999 34s41.666 13 66.999 13c20.667 0 40 -3.66699 58 -11s33.833 -17.666 47.5 -30.999
s24.334 -29.166 32.001 -47.499s11.5 -38.166 11.5 -59.499h-70c-1.33301 16.667 -4.83301 30.5 -10.5 41.5s-12.5 19.833 -20.5 26.5s-16.5 11.334 -25.5 14.001s-17.5 4 -25.5 4c-14 0 -26.167 -2.5 -36.5 -7.5s-19 -11.5 -26 -19.5s-12.167 -16.833 -15.5 -26.5
s-5 -19.167 -5 -28.5c0 -14.667 3.16699 -27 9.5 -37s14.5 -18.5 24.5 -25.5s20.667 -12.667 32 -17s22 -8.16602 32 -11.499c16 -5.33301 33 -11.833 51 -19.5s34.833 -17.834 50.5 -30.501s28.667 -28.667 39 -48s15.5 -43 15.5 -71c0 -23.333 -3.5 -45.333 -10.5 -66
s-17.667 -38.667 -32 -54s-32.333 -27.333 -54 -36s-46.834 -13 -75.501 -13c-19.333 0 -39 3.33301 -59 10s-38.167 17.167 -54.5 31.5s-29.666 32.5 -39.999 54.5s-15.166 48.333 -14.499 79h70zM104.002 763.997l86 -73l88 73h89l-143 -125h-67l-145 125h92z" />
    <glyph glyph-name="Ydieresis" unicode="&#x178;" horiz-adv-x="592" 
d="M258 247l-257 493h82l211 -415l217 415h81l-260 -493v-247h-74v247zM407 928v-126h-74v126h74zM259 928v-126h-74v126h74z" />
    <glyph glyph-name="Zcaron" unicode="&#x17d;" horiz-adv-x="480" 
d="M12 67l364 606h-353v67h436v-67l-363 -606h374v-67h-458v67zM150 927l86 -73l88 73h89l-143 -125h-67l-145 125h92z" />
    <glyph glyph-name="zcaron" unicode="&#x17e;" horiz-adv-x="425" 
d="M10 61l303 423h-293v63h377v-63l-300 -421h318v-63h-405v61zM123 764l86 -73l88 73h89l-143 -125h-67l-145 125h92z" />
    <glyph glyph-name="florin" unicode="&#x192;" 
d="M476 584l-11.9961 -66.999h-112l-81 -431l-12.5 -62.5c-3.66699 -17.667 -8 -33.5 -13 -47.5s-11 -26.667 -18 -38s-16.5 -23 -28.5 -35c-13.333 -13.333 -28 -23.833 -44 -31.5s-31.5 -13.334 -46.5 -17.001s-28.333 -5.83398 -40 -6.50098s-19.834 -1 -24.501 -1
c-15.333 0 -27.5 0.833008 -36.5 2.5s-15.5 3.16699 -19.5 4.5l13 64c5.33301 -1.33301 12.166 -2.66602 20.499 -3.99902s18.166 -2 29.499 -2c27.333 0 49.5 4.33301 66.5 13s31 20.834 42 36.501s19.5 34.667 25.5 57s11.667 47.166 17 74.499l81 424h-114l13 67h112
l4 22c4.66699 28 10.5 51.5 17.5 70.5s14 34.5 21 46.5s13.833 21.333 20.5 28l16 16c14 12.667 27.667 22.5 41 29.5s25.833 12 37.5 15s21.5 4.83301 29.5 5.5s13.333 1 16 1h6.5c2.33301 0 7.16602 -0.666992 14.499 -2l-11 -67c-3.33301 0.666992 -6 1 -8 1h-7
c-24 0 -43.5 -5.33301 -58.5 -16s-27 -23.5 -36 -38.5s-15.667 -30.667 -20 -47s-7.5 -30.5 -9.5 -42.5l-4 -22h112z" />
    <glyph glyph-name="circumflex" unicode="&#x2c6;" horiz-adv-x="502" 
d="M219 764h66l143 -125h-89l-86 73l-88 -73h-91z" />
    <glyph glyph-name="caron" unicode="&#x2c7;" horiz-adv-x="502" 
d="M160 764l86 -73l88 73h89l-143 -125h-67l-145 125h92z" />
    <glyph glyph-name="breve" unicode="&#x2d8;" horiz-adv-x="453" 
d="M117 754c8 -11.333 17.8311 -20.168 29.498 -26.501s23 -11 34 -14s20.667 -4.66699 29 -5s13.833 -0.5 16.5 -0.5s8.33398 0.166992 17.001 0.5s18.5 2 29.5 5s22.333 7.66699 34 14s21.5 15.166 29.5 26.499h65c-8 -22 -19 -39.833 -33 -53.5
s-29.167 -24.167 -45.5 -31.5s-33 -12.166 -50 -14.499s-32.5 -3.5 -46.5 -3.5c-13.333 0 -28.166 1.16699 -44.499 3.5s-32.833 7 -49.5 14s-32.167 17.333 -46.5 31s-25.5 31.834 -33.5 54.501h65z" />
    <glyph glyph-name="dotaccent" unicode="&#x2d9;" horiz-adv-x="222" 
d="M148 765v-126h-74v126h74z" />
    <glyph glyph-name="ring" unicode="&#x2da;" horiz-adv-x="332" 
d="M114 703c0 -14 4.99902 -26 14.999 -36s22 -15 36 -15c14.667 0 27 5 37 15s15 22 15 36c0 14.667 -5 27 -15 37s-22.333 15 -37 15c-13.333 0 -25.166 -5 -35.499 -15s-15.5 -22.333 -15.5 -37zM61.999 703c0 14 2.66797 27.332 8.00098 39.999
s12.833 23.834 22.5 33.501s20.667 17.167 33 22.5s25.5 8 39.5 8c29.333 0 54 -10 74 -30s30 -44.667 30 -74c0 -14 -2.66699 -27.333 -8 -40s-12.833 -23.667 -22.5 -33s-20.834 -16.666 -33.501 -21.999s-26 -8 -40 -8s-27.167 2.66699 -39.5 8
s-23.333 12.666 -33 21.999s-17.167 20.333 -22.5 33s-8 26 -8 40z" />
    <glyph glyph-name="ogonek" unicode="&#x2db;" horiz-adv-x="302" 
d="M197 0c-25.333 -19.333 -44.167 -36.335 -56.5 -51.002s-18.5 -30.334 -18.5 -47.001c0 -9.33301 2 -17.166 6 -23.499s9 -11.5 15 -15.5s12.333 -6.83301 19 -8.5s12.667 -2.5 18 -2.5c15.333 0 31.333 3.33301 48 10v-44c-6 -2 -13 -4 -21 -6s-18 -3 -30 -3
c-18 0 -33.5 2.66699 -46.5 8s-23.833 12.333 -32.5 21s-15 18.334 -19 29.001s-6 21.334 -6 32.001c0 14 2.66699 26.5 8 37.5s11.833 20.5 19.5 28.5s15.5 14.833 23.5 20.5l21 14.5h52z" />
    <glyph glyph-name="tilde" unicode="&#x2dc;" horiz-adv-x="439" 
d="M392 690c-16 -12 -32.4971 -21.499 -49.4971 -28.499s-33.167 -10.5 -48.5 -10.5c-16.667 0 -31.834 2.5 -45.501 7.5s-25.167 9.5 -34.5 13.5c-15.333 7.33301 -27.333 12.5 -36 15.5s-18.334 4.5 -29.001 4.5c-12 0 -23.833 -2.83301 -35.5 -8.5
s-22.167 -12.834 -31.5 -21.501l-35 50c30 28 64.667 42 104 42c17.333 0 31.833 -2.16699 43.5 -6.5s23.834 -9.5 36.501 -15.5c5.33301 -2 14.166 -5.66699 26.499 -11s24.166 -8 35.499 -8c10.667 0 20 2 28 6s19.667 10.667 35 20z" />
    <glyph glyph-name="hungarumlaut" unicode="&#x2dd;" horiz-adv-x="552" 
d="M408 800l45 -41l-146 -154l-43 41zM262 800l46 -41l-146 -154l-43 41z" />
    <glyph glyph-name="endash" unicode="&#x2013;" horiz-adv-x="500" 
d="M465 315v-67h-430v67h430z" />
    <glyph glyph-name="emdash" unicode="&#x2014;" horiz-adv-x="1000" 
d="M965 315v-67h-930v67h930z" />
    <glyph glyph-name="quoteleft" unicode="&#x2018;" horiz-adv-x="351" 
d="M183 546l-88 194h74l88 -194h-74z" />
    <glyph glyph-name="quoteright" unicode="&#x2019;" horiz-adv-x="351" 
d="M94 546l88 194h74l-88 -194h-74z" />
    <glyph glyph-name="quotesinglbase" unicode="&#x201a;" horiz-adv-x="354" 
d="M89 -68l88 194h74l-88 -194h-74z" />
    <glyph glyph-name="quotedblleft" unicode="&#x201c;" horiz-adv-x="502" 
d="M185 546l-88 194h74l88 -194h-74zM332 546l-87 194h73l88 -194h-74z" />
    <glyph glyph-name="quotedblright" unicode="&#x201d;" horiz-adv-x="484" 
d="M243 546l88 194h74l-88 -194h-74zM96 546l88 194h73l-87 -194h-74z" />
    <glyph glyph-name="quotedblbase" unicode="&#x201e;" horiz-adv-x="502" 
d="M325 126h74l-88 -194h-74zM177 126h74l-88 -194h-74z" />
    <glyph glyph-name="dagger" unicode="&#x2020;" horiz-adv-x="553" 
d="M313 539h180v-67h-180v-605h-74v605h-180v67h180v201h74v-201z" />
    <glyph glyph-name="daggerdbl" unicode="&#x2021;" horiz-adv-x="553" 
d="M313 539h180v-67h-180v-337h180v-67h-180v-201h-74v201h-180v67h180v337h-180v67h180v201h74v-201z" />
    <glyph glyph-name="bullet" unicode="&#x2022;" horiz-adv-x="606" 
d="M304 532c20.667 0 40.167 -4.16699 58.5 -12.5s34.333 -19.5 48 -33.5s24.5 -30.333 32.5 -49s12 -38.667 12 -60s-4 -41.5 -12 -60.5s-19 -35.5 -33 -49.5s-30.167 -25 -48.5 -33s-37.833 -12 -58.5 -12c-21.333 0 -41.333 4.16699 -60 12.5s-34.834 19.5 -48.501 33.5
s-24.5 30.333 -32.5 49s-12 38.667 -12 60c0 20.667 3.83301 40.334 11.5 59.001s18.334 35.167 32.001 49.5s30 25.666 49 33.999s39.5 12.5 61.5 12.5z" />
    <glyph glyph-name="ellipsis" unicode="&#x2026;" horiz-adv-x="1000" 
d="M796 126h74v-126h-74v126zM463 126h74v-126h-74v126zM130 126h74v-126h-74v126z" />
    <glyph glyph-name="perthousand" unicode="&#x2030;" horiz-adv-x="1174" 
d="M210 0h-68l424 740h68zM85 572c0 -17.333 3.16699 -33.333 9.5 -48s14.833 -27.667 25.5 -39s23.334 -20.166 38.001 -26.499s30.667 -9.5 48 -9.5c16.667 0 32.5 3.16699 47.5 9.5s27.833 15.166 38.5 26.499s19.167 24.333 25.5 39s9.5 30.667 9.5 48
c0 16.667 -3.16699 32.5 -9.5 47.5s-14.833 28.167 -25.5 39.5s-23.5 20.166 -38.5 26.499s-30.833 9.5 -47.5 9.5c-17.333 0 -33.333 -3.16699 -48 -9.5s-27.334 -15.166 -38.001 -26.499s-19.167 -24.5 -25.5 -39.5s-9.5 -30.833 -9.5 -47.5zM25 572
c0 24.667 4.83301 47.834 14.5 69.501s22.667 40.667 39 57s35.5 29.166 57.5 38.499s45.333 14 70 14s48 -4.66699 70 -14s41.167 -22.166 57.5 -38.499s29.333 -35.333 39 -57s14.5 -44.834 14.5 -69.501s-4.83301 -47.834 -14.5 -69.501s-22.667 -40.667 -39 -57
s-35.5 -29.166 -57.5 -38.499s-45.333 -14 -70 -14s-48 4.66699 -70 14s-41.167 22.166 -57.5 38.499s-29.333 35.333 -39 57s-14.5 44.834 -14.5 69.501zM846 166c0 -17.333 3.16699 -33.333 9.5 -48s14.833 -27.667 25.5 -39s23.334 -20.166 38.001 -26.499
s30.667 -9.5 48 -9.5c16.667 0 32.5 3.16699 47.5 9.5s27.833 15.166 38.5 26.499s19.167 24.333 25.5 39s9.5 30.667 9.5 48c0 16.667 -3.16699 32.5 -9.5 47.5s-14.833 28.167 -25.5 39.5s-23.5 20.166 -38.5 26.499s-30.833 9.5 -47.5 9.5
c-17.333 0 -33.333 -3.16699 -48 -9.5s-27.334 -15.166 -38.001 -26.499s-19.167 -24.5 -25.5 -39.5s-9.5 -30.833 -9.5 -47.5zM786 166c0 24.667 4.83301 47.834 14.5 69.501s22.667 40.667 39 57s35.5 29.166 57.5 38.499s45.333 14 70 14s48 -4.66699 70 -14
s41.167 -22.166 57.5 -38.499s29.333 -35.333 39 -57s14.5 -44.834 14.5 -69.501s-4.83301 -47.834 -14.5 -69.501s-22.667 -40.667 -39 -57s-35.5 -29.166 -57.5 -38.499s-45.333 -14 -70 -14s-48 4.66699 -70 14s-41.167 22.166 -57.5 38.499s-29.333 35.333 -39 57
s-14.5 44.834 -14.5 69.501zM395 166c0 24.667 4.83301 47.834 14.5 69.501s22.667 40.667 39 57s35.5 29.166 57.5 38.499s45.333 14 70 14s48 -4.66699 70 -14s41.167 -22.166 57.5 -38.499s29.333 -35.333 39 -57s14.5 -44.834 14.5 -69.501
s-4.83301 -47.834 -14.5 -69.501s-22.667 -40.667 -39 -57s-35.5 -29.166 -57.5 -38.499s-45.333 -14 -70 -14s-48 4.66699 -70 14s-41.167 22.166 -57.5 38.499s-29.333 35.333 -39 57s-14.5 44.834 -14.5 69.501zM455 166c0 -17.333 3.16699 -33.333 9.5 -48
s14.833 -27.667 25.5 -39s23.334 -20.166 38.001 -26.499s30.667 -9.5 48 -9.5c16.667 0 32.5 3.16699 47.5 9.5s27.833 15.166 38.5 26.499s19.167 24.333 25.5 39s9.5 30.667 9.5 48c0 16.667 -3.16699 32.5 -9.5 47.5s-14.833 28.167 -25.5 39.5
s-23.5 20.166 -38.5 26.499s-30.833 9.5 -47.5 9.5c-17.333 0 -33.333 -3.16699 -48 -9.5s-27.334 -15.166 -38.001 -26.499s-19.167 -24.5 -25.5 -39.5s-9.5 -30.833 -9.5 -47.5z" />
    <glyph glyph-name="guilsinglleft" unicode="&#x2039;" horiz-adv-x="251" 
d="M40 282l113 199l59 -31l-94 -168l94 -168l-59 -33z" />
    <glyph glyph-name="guilsinglright" unicode="&#x203a;" horiz-adv-x="251" 
d="M39 114l94 168l-94 168l58 31l114 -199l-114 -201z" />
    <glyph glyph-name="fraction" unicode="&#x2044;" horiz-adv-x="166" 
d="M220 740h60l-333 -740h-60z" />
    <glyph glyph-name="trademark" unicode="&#x2122;" horiz-adv-x="1000" 
d="M331 740h78l164 -365l164 365h79v-444h-55v372h-2l-163 -372h-46l-162 371h-2v-371h-55v444zM114 693h-105v47h265v-47h-105v-397h-55v397z" />
    <glyph glyph-name="minus" unicode="&#x2212;" horiz-adv-x="606" 
d="M51 287h504v-68h-504v68z" />
    <glyph glyph-name="fi" unicode="&#xfb01;" horiz-adv-x="487" 
d="M352 740h70v-126h-70v126zM174 484l0.000976562 -484.002h-70v484h-85v63h85c0.666992 12.667 1.5 26.5 2.5 41.5s3.66699 30 8 45s10.833 29.667 19.5 44s20.667 27 36 38s34.666 19.833 57.999 26.5s52 10.334 86 11.001v-65c-35.333 0 -62.5 -5 -81.5 -15
s-32.833 -22.167 -41.5 -36.5s-13.667 -29.666 -15 -45.999s-2 -30.833 -2 -43.5h248v-547h-70v484h-178z" />
    <glyph glyph-name="fl" unicode="&#xfb02;" horiz-adv-x="485" 
d="M174 484l0.000976562 -484.002h-70v484h-85v63h85c0.666992 12.667 1.5 26.5 2.5 41.5s3.66699 30 8 45s10.833 29.667 19.5 44s20.667 27 36 38s34.666 19.833 57.999 26.5s52 10.334 86 11.001v-65c-35.333 0 -62.5 -5 -81.5 -15s-32.833 -22.167 -41.5 -36.5
s-13.667 -29.666 -15 -45.999s-2 -30.833 -2 -43.5h176v193h70v-740h-70v484h-176z" />
  </font>
</defs>
</svg>
